<svg width="182" height="172" viewBox="0 0 182 172" fill="none" xmlns="http://www.w3.org/2000/svg">
<circle cx="81.7294" cy="15.5528" r="1.63057" transform="rotate(32.9261 81.7294 15.5528)" fill="#FAF8F5"/>
<circle cx="82.7221" cy="31.2513" r="2.03821" transform="rotate(32.9261 82.7221 31.2513)" fill="#FAF8F5"/>
<circle cx="94.1561" cy="32.3424" r="2.44585" transform="rotate(32.9261 94.1561 32.3424)" fill="#FAF8F5"/>
<circle cx="91.1756" cy="62.465" r="3.26114" transform="rotate(32.9261 91.1756 62.465)" fill="#FAF8F5"/>
<circle cx="80.3759" cy="67.1266" r="2.44585" transform="rotate(32.9261 80.3759 67.1266)" fill="#FAF8F5"/>
<circle cx="64.8309" cy="71.63" r="3.26114" transform="rotate(32.9261 64.8309 71.63)" fill="#FAF8F5"/>
<circle cx="50.1152" cy="19.3634" r="1.63057" transform="rotate(32.9261 50.1152 19.3634)" fill="#FAF8F5"/>
<circle cx="63.7992" cy="36.4808" r="2.03821" transform="rotate(32.9261 63.7992 36.4808)" fill="#FAF8F5"/>
<circle cx="76.7801" cy="102.679" r="3.26114" transform="rotate(32.9261 76.7801 102.679)" fill="#FAF8F5"/>
<circle cx="84.5965" cy="95.1154" r="3.26114" transform="rotate(32.9261 84.5965 95.1154)" fill="#FAF8F5"/>
<circle cx="105.127" cy="91.8971" r="2.44585" transform="rotate(32.9261 105.127 91.8971)" fill="#FAF8F5"/>
<circle cx="109.08" cy="82.8009" r="3.26114" transform="rotate(32.9261 109.08 82.8009)" fill="#FAF8F5"/>
<circle cx="151.845" cy="67.7569" r="1.63057" transform="rotate(32.9261 151.845 67.7569)" fill="#FAF8F5"/>
<circle cx="145.12" cy="72.1442" r="2.44585" transform="rotate(32.9261 145.12 72.1442)" fill="#FAF8F5"/>
<circle cx="143.665" cy="81.8859" r="3.26114" transform="rotate(32.9261 143.665 81.8859)" fill="#FAF8F5"/>
<circle cx="169.589" cy="92.8458" r="1.63057" transform="rotate(32.9261 169.589 92.8458)" fill="#FAF8F5"/>
<circle cx="96.9433" cy="122.536" r="1.63057" transform="rotate(32.9261 96.9433 122.536)" fill="#FAF8F5"/>
<circle cx="70.5702" cy="112.255" r="2.44585" transform="rotate(32.9261 70.5702 112.255)" fill="#FAF8F5"/>
<circle cx="55.7928" cy="123.084" r="3.26114" transform="rotate(32.9261 55.7928 123.084)" fill="#FAF8F5"/>
<circle cx="42.6327" cy="119.418" r="1.63057" transform="rotate(32.9261 42.6327 119.418)" fill="#FAF8F5"/>
</svg>
