<svg width="179" height="175" viewBox="0 0 179 175" fill="none" xmlns="http://www.w3.org/2000/svg">
<circle cx="1.22293" cy="1.22293" r="1.22293" transform="matrix(0.881347 0.472469 -0.471332 0.881956 58.4648 0.557617)" fill="#FAF8F5"/>
<circle cx="3.26114" cy="3.26114" r="3.26114" transform="matrix(0.881347 0.472469 -0.471332 0.881956 116.115 51.8135)" fill="#FAF8F5"/>
<circle cx="3.26114" cy="3.26114" r="3.26114" transform="matrix(0.881347 0.472469 -0.471332 0.881956 132.501 105.926)" fill="#FAF8F5"/>
<circle cx="2.03821" cy="2.03821" r="2.03821" transform="matrix(0.881347 0.472469 -0.471332 0.881956 80.2666 136.201)" fill="#FAF8F5"/>
<circle cx="3.26114" cy="3.26114" r="3.26114" transform="matrix(0.881347 0.472469 -0.471332 0.881956 74.2578 142.23)" fill="#FAF8F5"/>
<circle cx="1.22293" cy="1.22293" r="1.22293" transform="matrix(0.881347 0.472469 -0.471332 0.881956 61.0527 132.376)" fill="#FAF8F5"/>
<circle cx="3.26114" cy="3.26114" r="3.26114" transform="matrix(0.881347 0.472469 -0.471332 0.881956 59.2354 78.6738)" fill="#FAF8F5"/>
<circle cx="2.03821" cy="2.03821" r="2.03821" transform="matrix(0.881347 0.472469 -0.471332 0.881956 147.502 103.791)" fill="#FAF8F5"/>
<circle cx="1.22293" cy="1.22293" r="1.22293" transform="matrix(0.881347 0.472469 -0.471332 0.881956 159.784 94.6504)" fill="#FAF8F5"/>
<circle cx="2.03821" cy="2.03821" r="2.03821" transform="matrix(0.881347 0.472469 -0.471332 0.881956 96.3711 93.9561)" fill="#FAF8F5"/>
</svg>
