<svg width="166" height="156" viewBox="0 0 166 156" fill="none" xmlns="http://www.w3.org/2000/svg">
<circle cx="119.276" cy="75.5443" r="3.26114" transform="rotate(112.604 119.276 75.5443)" fill="#FAF8F5"/>
<circle cx="139.966" cy="68.2751" r="1.63057" transform="rotate(112.604 139.966 68.2751)" fill="#FAF8F5"/>
<circle cx="113.501" cy="66.0835" r="2.44585" transform="rotate(112.604 113.501 66.0835)" fill="#FAF8F5"/>
<circle cx="102.149" cy="55.1722" r="3.26114" transform="rotate(112.604 102.149 55.1722)" fill="#FAF8F5"/>
<circle cx="70.7867" cy="45.6537" r="3.26114" transform="rotate(112.604 70.7867 45.6537)" fill="#FAF8F5"/>
<circle cx="47.4" cy="61.5238" r="3.26114" transform="rotate(112.604 47.4 61.5238)" fill="#FAF8F5"/>
<circle cx="8.90194" cy="96.7191" r="3.26114" transform="rotate(112.604 8.90194 96.7191)" fill="#FAF8F5"/>
<circle cx="12.1609" cy="80.4059" r="1.63057" transform="rotate(112.604 12.1609 80.4059)" fill="#FAF8F5"/>
<circle cx="66.4078" cy="87.9867" r="3.26114" transform="rotate(112.604 66.4078 87.9867)" fill="#FAF8F5"/>
<circle cx="51.6682" cy="80.9663" r="2.44585" transform="rotate(112.604 51.6682 80.9663)" fill="#FAF8F5"/>
<circle cx="112.772" cy="139.957" r="2.44585" transform="rotate(112.604 112.772 139.957)" fill="#FAF8F5"/>
<circle cx="119.421" cy="151.56" r="3.26114" transform="rotate(112.604 119.421 151.56)" fill="#FAF8F5"/>
<circle cx="71.8445" cy="13.4128" r="1.63057" transform="rotate(112.604 71.8445 13.4128)" fill="#FAF8F5"/>
</svg>
