<svg width="194" height="194" viewBox="0 0 194 194" fill="none" xmlns="http://www.w3.org/2000/svg">
<circle cx="3.26114" cy="3.26114" r="3.26114" transform="matrix(0.868374 -0.49591 0.494752 0.869034 38.4355 99.3164)" fill="#FAF8F5"/>
<circle cx="1.63057" cy="1.63057" r="1.63057" transform="matrix(0.868374 -0.49591 0.494752 0.869034 37.9961 50.7471)" fill="#FAF8F5"/>
<circle cx="2.44585" cy="2.44585" r="2.44585" transform="matrix(0.868374 -0.49591 0.494752 0.869034 67.8564 90.0254)" fill="#FAF8F5"/>
<circle cx="3.26114" cy="3.26114" r="3.26114" transform="matrix(0.868374 -0.49591 0.494752 0.869034 77.7705 84.3643)" fill="#FAF8F5"/>
<circle cx="3.26114" cy="3.26114" r="3.26114" transform="matrix(0.868374 -0.49591 0.494752 0.869034 103.22 102.691)" fill="#FAF8F5"/>
<circle cx="3.26114" cy="3.26114" r="3.26114" transform="matrix(0.868374 -0.49591 0.494752 0.869034 120.008 89.3486)" fill="#FAF8F5"/>
<circle cx="3.26114" cy="3.26114" r="3.26114" transform="matrix(0.868374 -0.49591 0.494752 0.869034 99.8398 60.4941)" fill="#FAF8F5"/>
<circle cx="2.44585" cy="2.44585" r="2.44585" transform="matrix(0.868374 -0.49591 0.494752 0.869034 98.3486 39.752)" fill="#FAF8F5"/>
<circle cx="3.26114" cy="3.26114" r="3.26114" transform="matrix(0.868374 -0.49591 0.494752 0.869034 97.0654 16.0742)" fill="#FAF8F5"/>
<circle cx="3.26114" cy="3.26114" r="3.26114" transform="matrix(0.868374 -0.49591 0.494752 0.869034 111.715 17.0967)" fill="#FAF8F5"/>
<circle cx="1.63057" cy="1.63057" r="1.63057" transform="matrix(0.868374 -0.49591 0.494752 0.869034 130.007 17.918)" fill="#FAF8F5"/>
<circle cx="3.26114" cy="3.26114" r="3.26114" transform="matrix(-0.868374 0.49591 0.494752 0.869034 160.803 121.444)" fill="#FAF8F5"/>
<circle cx="1.63057" cy="1.63057" r="1.63057" transform="matrix(-0.868374 0.49591 0.494752 0.869034 177.573 127.826)" fill="#FAF8F5"/>
<circle cx="3.26114" cy="3.26114" r="3.26114" transform="matrix(-0.868374 0.49591 0.494752 0.869034 109.245 133.049)" fill="#FAF8F5"/>
<circle cx="2.44585" cy="2.44585" r="2.44585" transform="matrix(-0.868374 0.49591 0.494752 0.869034 73.9688 135.355)" fill="#FAF8F5"/>
<circle cx="3.26114" cy="3.26114" r="3.26114" transform="matrix(-0.868374 0.49591 0.494752 0.869034 57.3936 132.615)" fill="#FAF8F5"/>
<circle cx="1.63057" cy="1.63057" r="1.63057" transform="matrix(-0.868374 0.49591 0.494752 0.869034 45.249 144.245)" fill="#FAF8F5"/>
</svg>
