<svg width="135" height="144" viewBox="0 0 135 144" fill="none" xmlns="http://www.w3.org/2000/svg">
<circle cx="2.26711" cy="2.26711" r="2.26711" transform="matrix(0.761221 -0.648493 0.647544 0.762028 91.2236 67.7148)" fill="#FAF8F5"/>
<circle cx="2.26711" cy="2.26711" r="2.26711" transform="matrix(0.761221 -0.648493 0.647544 0.762028 57.2656 105.326)" fill="#FAF8F5"/>
<circle cx="2.26711" cy="2.26711" r="2.26711" transform="matrix(0.761221 -0.648493 0.647544 0.762028 43.1406 63.5273)" fill="#FAF8F5"/>
<circle cx="2.26711" cy="2.26711" r="2.26711" transform="matrix(0.761221 -0.648493 0.647544 0.762028 46.0762 19.3496)" fill="#FAF8F5"/>
<circle cx="2.26711" cy="2.26711" r="2.26711" transform="matrix(0.761221 -0.648493 0.647544 0.762028 86.5195 137.711)" fill="#FAF8F5"/>
<circle cx="2.26711" cy="2.26711" r="2.26711" transform="matrix(-0.761221 0.648493 0.647544 0.762028 47.7266 0)" fill="#FAF8F5"/>
<circle cx="1.51141" cy="1.51141" r="1.51141" transform="matrix(-0.761221 0.648493 0.647544 0.762028 105.488 72.3496)" fill="#FAF8F5"/>
<circle cx="1.51141" cy="1.51141" r="1.51141" transform="matrix(-0.761221 0.648493 0.647544 0.762028 97.0205 127.028)" fill="#FAF8F5"/>
<circle cx="1.51141" cy="1.51141" r="1.51141" transform="matrix(-0.761221 0.648493 0.647544 0.762028 73.3477 122.305)" fill="#FAF8F5"/>
<circle cx="3.02281" cy="3.02281" r="3.02281" transform="matrix(0.761221 -0.648493 0.647544 0.762028 46.8916 44.124)" fill="#FAF8F5"/>
</svg>
