<svg width="180" height="152" viewBox="0 0 180 152" fill="none" xmlns="http://www.w3.org/2000/svg">
<circle cx="46.2673" cy="32.2877" r="1.63057" transform="rotate(18.741 46.2673 32.2877)" fill="#FAF8F5"/>
<circle cx="45.4213" cy="44.9143" r="3.26114" transform="rotate(18.741 45.4213 44.9143)" fill="#FAF8F5"/>
<circle cx="54.808" cy="27.4368" r="3.26114" transform="rotate(18.741 54.808 27.4368)" fill="#FAF8F5"/>
<circle cx="64.1308" cy="18.9786" r="2.03821" transform="rotate(18.741 64.1308 18.9786)" fill="#FAF8F5"/>
<circle cx="52.0671" cy="7.56703" r="1.63057" transform="rotate(18.741 52.0671 7.56703)" fill="#FAF8F5"/>
<circle cx="37.6323" cy="6.9739" r="3.26114" transform="rotate(18.741 37.6323 6.9739)" fill="#FAF8F5"/>
<circle cx="28.5175" cy="24.9756" r="2.03821" transform="rotate(18.741 28.5175 24.9756)" fill="#FAF8F5"/>
<circle cx="80.1042" cy="21.3844" r="1.63057" transform="rotate(18.741 80.1042 21.3844)" fill="#FAF8F5"/>
<circle cx="59.786" cy="59.6905" r="2.03821" transform="rotate(18.741 59.786 59.6905)" fill="#FAF8F5"/>
<circle cx="73.7826" cy="93.2796" r="3.26114" transform="rotate(18.741 73.7826 93.2796)" fill="#FAF8F5"/>
<circle cx="98.2812" cy="93.4122" r="2.03821" transform="rotate(18.741 98.2812 93.4122)" fill="#FAF8F5"/>
<circle cx="109.558" cy="107.138" r="3.26114" transform="rotate(18.741 109.558 107.138)" fill="#FAF8F5"/>
<circle cx="152.536" cy="119.998" r="3.26114" transform="rotate(18.741 152.536 119.998)" fill="#FAF8F5"/>
<circle cx="118.394" cy="140.7" r="2.03821" transform="rotate(18.741 118.394 140.7)" fill="#FAF8F5"/>
<circle cx="73.6775" cy="113.906" r="1.63057" transform="rotate(18.741 73.6775 113.906)" fill="#FAF8F5"/>
</svg>
