<svg width="152" height="127" viewBox="0 0 152 127" fill="none" xmlns="http://www.w3.org/2000/svg">
<path d="M50.8017 0.974441C51.7776 0.974057 52.7393 1.20872 53.6055 1.65852C58.6452 4.26239 63.8593 6.70494 69.0926 8.92484C93.2229 19.1278 118.978 24.9492 145.151 26.1162C146.733 26.1812 148.228 26.8556 149.324 27.9984C150.419 29.1411 151.031 30.6635 151.029 32.2467V119.759C151.029 121.381 150.386 122.938 149.241 124.087C148.095 125.236 146.541 125.884 144.918 125.889H144.712C119.885 125.069 95.2379 121.37 71.2641 114.867C47.9751 108.53 25.477 99.5808 4.19826 88.1896C3.4734 87.8039 2.83415 87.2755 2.319 86.6361C1.80386 85.9967 1.42347 85.2597 1.20084 84.4693C0.973584 83.6789 0.908431 82.8508 1.00934 82.0346C1.11026 81.2184 1.37517 80.431 1.78808 79.7198L45.4747 4.04941C46.015 3.11808 46.7901 2.3447 47.7225 1.8063C48.6549 1.2679 49.7121 0.983281 50.7887 0.980901M50.7887 0.012919C49.5423 0.0124975 48.3178 0.340287 47.2383 0.963334C46.1587 1.58638 45.2623 2.48272 44.6391 3.56219L0.952391 79.2325C0.476656 80.0558 0.171208 80.9662 0.0540782 81.9098C-0.0630521 82.8534 0.0105306 83.8109 0.270543 84.7255C0.530555 85.6401 0.971674 86.4932 1.56768 87.234C2.16368 87.9748 2.90246 88.5884 3.74012 89.0382C47.1868 112.315 95.4169 125.255 144.68 126.854H144.918C146.798 126.849 148.598 126.099 149.925 124.768C151.252 123.437 151.997 121.635 151.997 119.755V32.2435C151.999 30.4112 151.292 28.6492 150.024 27.3262C148.757 26.0032 147.027 25.2216 145.196 25.145C119.137 23.9852 93.4937 18.1877 69.4702 8.02461C64.2174 5.8047 59.0722 3.39438 54.0346 0.793732C53.0318 0.273087 51.9186 0.00088635 50.7887 0V0.012919Z" fill="#FAF8F5"/>
<mask id="path-2-inside-1_2057_188786" fill="white">
<path d="M98.8918 58.0499C103.922 63.9869 105.667 70.7596 103.483 78.2001C102.723 80.9222 101.389 83.4496 99.5691 85.612C97.7496 87.7744 95.4877 89.5215 92.9357 90.7355C87.9929 93.1716 82.2869 93.5525 77.0642 91.795C71.8415 90.0375 67.5266 86.2845 65.062 81.3557C59.8577 70.8241 64.5619 57.5176 76.1321 52.8906C76.3321 52.1646 75.6158 52.0356 75.2867 51.7161C71.7569 48.2895 69.3081 44.2756 68.4176 39.3905C68.289 38.8 68.1984 38.2018 68.1465 37.5997C68.0304 35.4863 69.1564 33.9214 70.8761 33.7278C72.9346 33.5052 74.5027 34.7442 74.7479 36.9738C75.3126 42.0944 77.9905 45.8792 82.1333 48.7025C88.496 53.0423 97.1462 53.2197 103.293 48.9187C105.006 47.6674 106.465 46.1002 107.59 44.3014C109.178 41.904 112.34 42.0944 113.453 44.6047C114.072 46.0082 113.501 47.257 112.75 48.4508C110.188 52.5292 106.509 55.2267 102.102 56.9626C101.118 57.3691 100.102 57.6466 98.8918 58.0499ZM80.3394 85.7988C86.7698 87.9315 95.5039 83.8628 97.414 75.4736C97.8519 73.6621 97.9254 71.7816 97.6304 69.9414C97.3354 68.1011 96.6776 66.3379 95.6954 64.754C94.7131 63.1702 93.426 61.7972 91.9087 60.715C90.3914 59.6329 88.6743 58.863 86.8569 58.45C79.7587 56.8367 71.7989 60.5796 69.8501 69.0139C67.769 78.0194 74.2156 84.8856 80.3394 85.7988Z"/>
</mask>
<path d="M98.8918 58.0499C103.922 63.9869 105.667 70.7596 103.483 78.2001C102.723 80.9222 101.389 83.4496 99.5691 85.612C97.7496 87.7744 95.4877 89.5215 92.9357 90.7355C87.9929 93.1716 82.2869 93.5525 77.0642 91.795C71.8415 90.0375 67.5266 86.2845 65.062 81.3557C59.8577 70.8241 64.5619 57.5176 76.1321 52.8906C76.3321 52.1646 75.6158 52.0356 75.2867 51.7161C71.7569 48.2895 69.3081 44.2756 68.4176 39.3905C68.289 38.8 68.1984 38.2018 68.1465 37.5997C68.0304 35.4863 69.1564 33.9214 70.8761 33.7278C72.9346 33.5052 74.5027 34.7442 74.7479 36.9738C75.3126 42.0944 77.9905 45.8792 82.1333 48.7025C88.496 53.0423 97.1462 53.2197 103.293 48.9187C105.006 47.6674 106.465 46.1002 107.59 44.3014C109.178 41.904 112.34 42.0944 113.453 44.6047C114.072 46.0082 113.501 47.257 112.75 48.4508C110.188 52.5292 106.509 55.2267 102.102 56.9626C101.118 57.3691 100.102 57.6466 98.8918 58.0499ZM80.3394 85.7988C86.7698 87.9315 95.5039 83.8628 97.414 75.4736C97.8519 73.6621 97.9254 71.7816 97.6304 69.9414C97.3354 68.1011 96.6776 66.3379 95.6954 64.754C94.7131 63.1702 93.426 61.7972 91.9087 60.715C90.3914 59.6329 88.6743 58.863 86.8569 58.45C79.7587 56.8367 71.7989 60.5796 69.8501 69.0139C67.769 78.0194 74.2156 84.8856 80.3394 85.7988Z" stroke="#FAF8F5" stroke-width="2" mask="url(#path-2-inside-1_2057_188786)"/>
</svg>
