<svg width="127" height="153" viewBox="0 0 127 153" fill="none" xmlns="http://www.w3.org/2000/svg">
<g filter="url(#filter0_b_2057_188790)">
<path d="M82.7709 0.971216C83.8798 0.969652 84.9683 1.2689 85.9206 1.83711C86.8729 2.40531 87.6532 3.22118 88.1785 4.19782C99.5711 25.4768 108.521 47.9758 114.858 71.2661C121.359 95.2412 125.058 119.889 125.88 144.717C125.91 145.535 125.773 146.351 125.478 147.116C125.183 147.88 124.736 148.576 124.164 149.163C123.593 149.757 122.907 150.229 122.148 150.551C121.39 150.872 120.574 151.037 119.75 151.034H32.2408C30.6582 151.036 29.1363 150.425 27.9937 149.33C26.8511 148.234 26.1763 146.74 26.1105 145.159C24.9416 118.985 19.1193 93.229 8.91649 69.0977C6.69989 63.8513 4.25421 58.6339 1.65365 53.594C0.932622 52.1943 0.777702 50.5709 1.221 49.0602C1.6643 47.5494 2.67183 46.2671 4.03481 45.479L79.7025 1.79079C80.6333 1.25276 81.6893 0.968992 82.7644 0.967986M82.7644 4.01648e-06C81.5183 0.000255038 80.2943 0.328522 79.2153 0.951837L3.5476 44.6401C1.96842 45.5524 0.800945 47.0375 0.287319 48.7875C-0.226306 50.5375 -0.0466495 52.4181 0.788977 54.0392C3.38953 59.0727 5.80077 64.2181 8.02274 69.4753C18.1785 93.4999 23.9692 119.143 25.1231 145.2C25.1998 147.031 25.9813 148.761 27.3043 150.029C28.6273 151.297 30.3892 152.004 32.2214 152.002H119.73C120.681 152.003 121.623 151.812 122.498 151.442C123.374 151.071 124.167 150.529 124.829 149.846C125.491 149.163 126.009 148.355 126.353 147.468C126.696 146.581 126.858 145.635 126.829 144.684C125.231 95.421 112.292 47.1904 89.0173 3.7429C88.41 2.61061 87.5066 1.66441 86.4037 1.00525C85.3008 0.34608 84.0396 -0.00136268 82.7547 4.01648e-06H82.7644Z" fill="white"/>
</g>
<mask id="path-2-inside-1_2057_188790" fill="white">
<path d="M43.0404 107.378C46.1701 103.235 50.2806 101.248 55.03 100.189C65.9678 97.7661 76.8766 95.2267 87.7983 92.7293C90.2407 92.1711 90.7924 91.2258 90.7763 88.7477C90.7763 86.7827 90.0729 85.0597 89.4018 83.3238C88.4565 80.8716 87.6434 80.5231 85.0396 81.1168L45.3731 90.1706C44.9247 90.2739 44.4826 90.3868 44.0341 90.4739C41.7756 90.916 39.9236 89.9384 39.517 88.1186C39.1105 86.2988 40.3592 84.6209 42.5887 84.1111C55.8108 81.0802 69.0394 78.0591 82.2745 75.0476C85.7752 74.2474 86.7916 72.789 86.2528 69.2397C86.0075 67.6619 85.8366 66.0131 85.0719 64.6063C83.8878 62.4412 81.3227 60.9602 78.5802 61.6184C65.6742 64.7063 52.7457 67.5812 39.8171 70.5271C39.1572 70.7093 38.484 70.8398 37.8038 70.9175C36.0421 71.0498 34.8161 70.0173 34.4773 68.2007C34.325 67.4529 34.4495 66.6752 34.8275 66.0123C35.2056 65.3494 35.8114 64.8463 36.5325 64.5966C37.0426 64.441 37.562 64.3182 38.0877 64.2288C51.3163 61.2087 64.545 58.166 77.7736 55.1943C79.3578 54.8393 80.387 54.0907 81.0001 52.6517C81.3227 51.9192 81.3904 51.2417 80.8161 50.5286C80.1999 49.7671 79.6255 48.9734 78.9544 48.2474C77.4251 46.5921 77.409 44.4658 78.8415 43.2074C80.2741 41.949 82.068 42.1233 83.6813 43.6818C84.8445 44.8748 85.8666 46.1978 86.7271 47.6247C88.3403 50.164 88.1951 52.8324 86.9658 55.404C86.4722 56.4397 86.7916 56.8883 87.4724 57.4755C92.7961 62.0637 93.5672 68.0071 92.3541 74.4506C92.1701 75.4412 92.2089 75.9478 92.8767 76.777C96.5162 81.2942 98.1166 86.4988 97.0067 92.2647C96.3614 95.6462 94.1028 97.837 90.7311 98.7857C90.0245 98.9857 89.2082 98.9019 88.5791 99.5407C89.2986 100.851 90.4311 101.896 90.786 103.438C91.7765 107.736 90.5924 111.428 87.6756 114.557C84.4846 117.981 80.4322 119.952 75.9571 121.223C69.2202 123.172 62.0874 123.3 55.2849 121.595C52.5656 120.878 49.9258 119.887 47.4058 118.639C47.864 120.465 48.8739 121.598 50.087 122.592C50.7009 123.034 51.2871 123.513 51.8423 124.027C52.3294 124.518 52.6375 125.159 52.7171 125.846C52.7967 126.532 52.6431 127.226 52.2811 127.816C51.9424 128.463 51.3892 128.971 50.7163 129.255C50.0435 129.539 49.2928 129.58 48.5932 129.371C47.6865 129.138 47.0154 128.532 46.2766 127.993C43.4598 125.944 41.7853 123.095 40.727 119.897C40.2656 118.497 40.2688 116.922 40.4043 115.406C40.4645 114.96 40.4068 114.505 40.237 114.088C40.0672 113.671 39.7912 113.305 39.4364 113.028C34.7612 108.901 32.6608 103.451 31.6928 97.4757C31.3992 95.6979 32.3607 94.3942 34.1708 94.02C35.9808 93.6457 37.5682 94.5911 37.978 96.3948C38.3971 98.4751 39.0107 100.511 39.8107 102.477C40.5975 104.284 41.6901 105.942 43.0404 107.378V107.378ZM65.471 104.526C62.0541 105.307 58.6437 106.094 55.2236 106.862C52.9962 107.374 50.9612 108.511 49.3578 110.14C48.206 111.273 48.3125 111.715 49.7708 112.447C55.0881 115.119 60.699 116.471 66.6744 116.187C71.8368 115.938 76.7185 114.732 80.9871 111.65C82.7456 110.382 84.1297 108.862 84.504 106.572C84.675 105.513 84.4524 104.8 83.607 104.226C81.2194 102.612 78.6318 101.622 75.7215 102.209C72.2885 102.9 68.8846 103.748 65.471 104.526Z"/>
</mask>
<path d="M43.0404 107.378C46.1701 103.235 50.2806 101.248 55.03 100.189C65.9678 97.7661 76.8766 95.2267 87.7983 92.7293C90.2407 92.1711 90.7924 91.2258 90.7763 88.7477C90.7763 86.7827 90.0729 85.0597 89.4018 83.3238C88.4565 80.8716 87.6434 80.5231 85.0396 81.1168L45.3731 90.1706C44.9247 90.2739 44.4826 90.3868 44.0341 90.4739C41.7756 90.916 39.9236 89.9384 39.517 88.1186C39.1105 86.2988 40.3592 84.6209 42.5887 84.1111C55.8108 81.0802 69.0394 78.0591 82.2745 75.0476C85.7752 74.2474 86.7916 72.789 86.2528 69.2397C86.0075 67.6619 85.8366 66.0131 85.0719 64.6063C83.8878 62.4412 81.3227 60.9602 78.5802 61.6184C65.6742 64.7063 52.7457 67.5812 39.8171 70.5271C39.1572 70.7093 38.484 70.8398 37.8038 70.9175C36.0421 71.0498 34.8161 70.0173 34.4773 68.2007C34.325 67.4529 34.4495 66.6752 34.8275 66.0123C35.2056 65.3494 35.8114 64.8463 36.5325 64.5966C37.0426 64.441 37.562 64.3182 38.0877 64.2288C51.3163 61.2087 64.545 58.166 77.7736 55.1943C79.3578 54.8393 80.387 54.0907 81.0001 52.6517C81.3227 51.9192 81.3904 51.2417 80.8161 50.5286C80.1999 49.7671 79.6255 48.9734 78.9544 48.2474C77.4251 46.5921 77.409 44.4658 78.8415 43.2074C80.2741 41.949 82.068 42.1233 83.6813 43.6818C84.8445 44.8748 85.8666 46.1978 86.7271 47.6247C88.3403 50.164 88.1951 52.8324 86.9658 55.404C86.4722 56.4397 86.7916 56.8883 87.4724 57.4755C92.7961 62.0637 93.5672 68.0071 92.3541 74.4506C92.1701 75.4412 92.2089 75.9478 92.8767 76.777C96.5162 81.2942 98.1166 86.4988 97.0067 92.2647C96.3614 95.6462 94.1028 97.837 90.7311 98.7857C90.0245 98.9857 89.2082 98.9019 88.5791 99.5407C89.2986 100.851 90.4311 101.896 90.786 103.438C91.7765 107.736 90.5924 111.428 87.6756 114.557C84.4846 117.981 80.4322 119.952 75.9571 121.223C69.2202 123.172 62.0874 123.3 55.2849 121.595C52.5656 120.878 49.9258 119.887 47.4058 118.639C47.864 120.465 48.8739 121.598 50.087 122.592C50.7009 123.034 51.2871 123.513 51.8423 124.027C52.3294 124.518 52.6375 125.159 52.7171 125.846C52.7967 126.532 52.6431 127.226 52.2811 127.816C51.9424 128.463 51.3892 128.971 50.7163 129.255C50.0435 129.539 49.2928 129.58 48.5932 129.371C47.6865 129.138 47.0154 128.532 46.2766 127.993C43.4598 125.944 41.7853 123.095 40.727 119.897C40.2656 118.497 40.2688 116.922 40.4043 115.406C40.4645 114.96 40.4068 114.505 40.237 114.088C40.0672 113.671 39.7912 113.305 39.4364 113.028C34.7612 108.901 32.6608 103.451 31.6928 97.4757C31.3992 95.6979 32.3607 94.3942 34.1708 94.02C35.9808 93.6457 37.5682 94.5911 37.978 96.3948C38.3971 98.4751 39.0107 100.511 39.8107 102.477C40.5975 104.284 41.6901 105.942 43.0404 107.378V107.378ZM65.471 104.526C62.0541 105.307 58.6437 106.094 55.2236 106.862C52.9962 107.374 50.9612 108.511 49.3578 110.14C48.206 111.273 48.3125 111.715 49.7708 112.447C55.0881 115.119 60.699 116.471 66.6744 116.187C71.8368 115.938 76.7185 114.732 80.9871 111.65C82.7456 110.382 84.1297 108.862 84.504 106.572C84.675 105.513 84.4524 104.8 83.607 104.226C81.2194 102.612 78.6318 101.622 75.7215 102.209C72.2885 102.9 68.8846 103.748 65.471 104.526Z" stroke="#FAF8F5" stroke-width="2" mask="url(#path-2-inside-1_2057_188790)"/>
<defs>
<filter id="filter0_b_2057_188790" x="-42" y="-42" width="210.832" height="236.002" filterUnits="userSpaceOnUse" color-interpolation-filters="sRGB">
<feFlood flood-opacity="0" result="BackgroundImageFix"/>
<feGaussianBlur in="BackgroundImageFix" stdDeviation="21"/>
<feComposite in2="SourceAlpha" operator="in" result="effect1_backgroundBlur_2057_188790"/>
<feBlend mode="normal" in="SourceGraphic" in2="effect1_backgroundBlur_2057_188790" result="shape"/>
</filter>
</defs>
</svg>
