<svg width="159" height="159" viewBox="0 0 159 159" fill="none" xmlns="http://www.w3.org/2000/svg">
<path d="M50.7642 0.980901C51.9053 0.980264 53.0236 1.30124 53.9907 1.90697C74.7359 14.8922 93.945 30.1836 111.251 47.4892C128.556 64.796 143.847 84.0059 156.832 104.752C157.268 105.445 157.559 106.22 157.687 107.029C157.815 107.838 157.778 108.665 157.577 109.459C157.379 110.263 157.019 111.017 156.52 111.676C156.021 112.336 155.392 112.887 154.673 113.296L79.0637 156.952C78.1249 157.494 77.0601 157.78 75.976 157.781C74.9485 157.785 73.9365 157.53 73.0341 157.038C72.1316 156.547 71.3678 155.836 70.8136 154.971C62.1929 141.561 52.1581 129.116 40.8815 117.849C29.6191 106.574 17.1797 96.5396 3.77682 87.9185C2.44612 87.0636 1.49734 85.7275 1.12875 84.1894C0.76016 82.6512 1.00033 81.0302 1.79902 79.6649L45.4502 4.05264C45.9912 3.11951 46.7675 2.34471 47.7018 1.80567C48.636 1.26663 49.6953 0.982242 50.7739 0.980901M50.7739 0.0129194C49.5258 0.0107963 48.2993 0.33776 47.2179 0.960892C46.1365 1.58402 45.2386 2.4813 44.6145 3.56219L0.960097 79.1745C0.0431573 80.7565 -0.23011 82.6307 0.196957 84.4087C0.624023 86.1867 1.71873 87.7322 3.25417 88.7252C16.6071 97.3045 28.9982 107.296 40.2136 118.526C51.4448 129.741 61.4357 142.133 70.0135 155.487C70.6574 156.487 71.5424 157.309 72.587 157.878C73.6317 158.447 74.8026 158.744 75.9921 158.743C77.2474 158.741 78.4798 158.407 79.5639 157.775L155.173 114.122C155.998 113.646 156.718 113.01 157.292 112.25C157.865 111.49 158.28 110.623 158.511 109.7C158.743 108.776 158.786 107.816 158.639 106.876C158.492 105.935 158.157 105.034 157.655 104.226C131.526 62.4752 96.2561 27.2043 54.5069 1.07449C53.3885 0.372028 52.0946 -0.000433878 50.7739 3.79296e-07V0.0129194Z" fill="#FAF8F5"/>
<mask id="path-2-inside-1_2057_188791" fill="white">
<path d="M53.8671 73.3755C55.5933 68.4775 58.1551 64.5539 61.7333 61.4112C69.5253 54.5708 78.453 52.0992 88.5551 55.1709C91.4589 56.0518 94.024 57.6425 96.36 59.6656C101.861 64.428 104.465 70.4715 104.562 77.6378C104.646 83.5941 102.813 88.9826 99.2767 93.7708C95.3759 99.0463 90.3748 102.821 83.696 104.828L84.9866 106.203C87.1387 108.462 89.3004 110.72 91.4396 113.008C92.6011 114.25 92.6979 115.728 91.7622 116.88C90.4716 118.458 88.8939 118.838 87.3613 117.848C86.8702 117.488 86.423 117.072 86.0287 116.609C82.5635 112.967 79.1015 109.319 75.6427 105.664C75.3175 105.343 75.0095 105.005 74.7199 104.651C72.9808 102.376 74.1198 99.6046 77.001 99.2658C79.8823 98.927 82.7022 98.4817 85.3222 97.1717C91.5815 94.0419 95.8534 89.16 97.3892 82.3293C98.8992 75.6244 97.6247 69.4228 92.2042 64.7023C87.942 60.9853 82.8474 59.8624 77.3269 60.7853C72.7326 61.5486 68.5004 63.754 65.2428 67.0825C61.9853 70.411 59.8713 74.6897 59.2069 79.2995C59.1527 79.9037 59.0447 80.502 58.8843 81.087C58.721 81.5738 58.4439 82.0146 58.076 82.3728C57.7082 82.731 57.2601 82.9962 56.7691 83.1464C56.2782 83.2966 55.7584 83.3275 55.2531 83.2364C54.7478 83.1453 54.2715 82.935 53.8639 82.6229C53.6245 82.4341 53.4011 82.2258 53.196 82.0002C49.4694 78.0766 45.7234 74.1724 42.0355 70.2166C40.3287 68.3871 40.461 66.4899 42.2453 65.1056C43.6101 64.0473 45.0588 64.1376 46.2945 65.4025C48.253 67.4288 50.1663 69.4874 52.1022 71.533L53.8671 73.3755Z"/>
</mask>
<path d="M53.8671 73.3755C55.5933 68.4775 58.1551 64.5539 61.7333 61.4112C69.5253 54.5708 78.453 52.0992 88.5551 55.1709C91.4589 56.0518 94.024 57.6425 96.36 59.6656C101.861 64.428 104.465 70.4715 104.562 77.6378C104.646 83.5941 102.813 88.9826 99.2767 93.7708C95.3759 99.0463 90.3748 102.821 83.696 104.828L84.9866 106.203C87.1387 108.462 89.3004 110.72 91.4396 113.008C92.6011 114.25 92.6979 115.728 91.7622 116.88C90.4716 118.458 88.8939 118.838 87.3613 117.848C86.8702 117.488 86.423 117.072 86.0287 116.609C82.5635 112.967 79.1015 109.319 75.6427 105.664C75.3175 105.343 75.0095 105.005 74.7199 104.651C72.9808 102.376 74.1198 99.6046 77.001 99.2658C79.8823 98.927 82.7022 98.4817 85.3222 97.1717C91.5815 94.0419 95.8534 89.16 97.3892 82.3293C98.8992 75.6244 97.6247 69.4228 92.2042 64.7023C87.942 60.9853 82.8474 59.8624 77.3269 60.7853C72.7326 61.5486 68.5004 63.754 65.2428 67.0825C61.9853 70.411 59.8713 74.6897 59.2069 79.2995C59.1527 79.9037 59.0447 80.502 58.8843 81.087C58.721 81.5738 58.4439 82.0146 58.076 82.3728C57.7082 82.731 57.2601 82.9962 56.7691 83.1464C56.2782 83.2966 55.7584 83.3275 55.2531 83.2364C54.7478 83.1453 54.2715 82.935 53.8639 82.6229C53.6245 82.4341 53.4011 82.2258 53.196 82.0002C49.4694 78.0766 45.7234 74.1724 42.0355 70.2166C40.3287 68.3871 40.461 66.4899 42.2453 65.1056C43.6101 64.0473 45.0588 64.1376 46.2945 65.4025C48.253 67.4288 50.1663 69.4874 52.1022 71.533L53.8671 73.3755Z" stroke="#FAF8F5" stroke-width="2" mask="url(#path-2-inside-1_2057_188791)"/>
<mask id="path-3-inside-2_2057_188791" fill="white">
<path d="M60.7818 96.6102C68.1188 104.354 75.4558 112.091 82.7929 119.822C83.3575 120.419 84.0254 120.932 84.1222 121.871C84.2545 123.162 83.5511 124.453 82.2154 125.23C81.2474 125.785 79.7665 125.617 78.8276 124.808C78.4242 124.459 78.0854 124.04 77.7176 123.652L34.6343 78.2347C34.373 77.9572 34.1019 77.6927 33.8503 77.4055C32.4887 75.8374 32.579 74.2369 34.1019 72.8366C35.5216 71.5266 37.0284 71.5846 38.448 73.0786C45.9012 80.9171 53.3458 88.7609 60.7818 96.6102Z"/>
</mask>
<path d="M60.7818 96.6102C68.1188 104.354 75.4558 112.091 82.7929 119.822C83.3575 120.419 84.0254 120.932 84.1222 121.871C84.2545 123.162 83.5511 124.453 82.2154 125.23C81.2474 125.785 79.7665 125.617 78.8276 124.808C78.4242 124.459 78.0854 124.04 77.7176 123.652L34.6343 78.2347C34.373 77.9572 34.1019 77.6927 33.8503 77.4055C32.4887 75.8374 32.579 74.2369 34.1019 72.8366C35.5216 71.5266 37.0284 71.5846 38.448 73.0786C45.9012 80.9171 53.3458 88.7609 60.7818 96.6102Z" stroke="#FAF8F5" stroke-width="2" mask="url(#path-3-inside-2_2057_188791)"/>
</svg>
