<svg width="127" height="153" viewBox="0 0 127 153" fill="none" xmlns="http://www.w3.org/2000/svg">
<path d="M119.724 0.964755C120.548 0.961964 121.364 1.12665 122.123 1.4489C122.882 1.77116 123.567 2.2442 124.138 2.83935C124.71 3.42574 125.157 4.1222 125.452 4.88647C125.747 5.65074 125.884 6.46691 125.854 7.28563C125.032 32.1129 121.333 56.7611 114.832 80.7361C108.495 104.026 99.5453 126.525 88.1526 147.804C87.6274 148.781 86.847 149.597 85.8948 150.165C84.9425 150.733 83.8539 151.032 82.745 151.031C81.6699 151.03 80.6139 150.746 79.6831 150.208L4.01544 106.526C2.65247 105.738 1.64493 104.456 1.20164 102.945C0.758336 101.435 0.913256 99.8111 1.63429 98.4115C4.23484 93.3715 6.68052 88.1541 8.89712 82.9076C19.0999 58.7764 24.9222 33.0204 26.0911 6.84685C26.1561 5.26494 26.8305 3.76951 27.9732 2.67369C29.1159 1.57787 30.6382 0.96665 32.2214 0.967984H119.73M119.73 2.603e-06H32.2214C30.3886 -0.00156601 28.6263 0.705874 27.3032 1.97425C25.9801 3.24263 25.199 4.97357 25.1232 6.80486C23.9692 32.8624 18.1785 58.5055 8.02276 82.5301C5.80293 87.7851 3.39165 92.9305 0.78895 97.9662C-0.0466765 99.5873 -0.226294 101.468 0.287332 103.218C0.800957 104.968 1.96843 106.453 3.54761 107.365L79.2152 151.054C80.2927 151.682 81.5168 152.016 82.7644 152.022C84.0492 152.023 85.3104 151.675 86.4134 151.016C87.5163 150.357 88.4196 149.411 89.027 148.279C112.301 104.831 125.24 56.6005 126.838 7.3373C126.868 6.38654 126.707 5.43948 126.363 4.55238C126.02 3.66529 125.502 2.85624 124.84 2.17331C124.177 1.49039 123.385 0.947523 122.509 0.576947C121.633 0.206371 120.691 0.0156046 119.74 0.0160726L119.73 2.603e-06Z" fill="#FAF8F5"/>
<mask id="path-2-inside-1_2057_188789" fill="white">
<path d="M82.6673 70.6336C85.7648 74.983 86.5843 79.7713 85.1711 84.6016C83.6837 89.6802 80.2765 93.3972 75.0367 95.1202C64.5603 98.5598 53.858 90.3126 54.542 79.3099C54.6517 77.5546 54.542 77.4966 52.7642 77.1674C47.5631 76.1995 42.9234 74.0602 39.4001 70.0463C35.2831 65.3581 34.4087 59.8503 35.8509 53.852C37.2932 47.8537 43.4945 40.5197 51.3026 39.5227C57.2845 38.758 62.3307 40.8133 66.7898 44.5787C69.4387 46.7986 71.2778 49.6993 73.1653 52.5484C74.9237 55.2007 76.5144 57.9885 78.802 60.2471C80.9767 62.3928 83.2901 64.2449 86.5811 64.4869C92.0855 64.8934 95.2926 61.6023 94.9957 56.1235C94.9506 55.2943 94.7441 54.4941 95.0409 53.6616C95.5991 52.0741 96.5283 51.403 98.3158 51.403C98.9932 51.431 99.6429 51.6789 100.167 52.1091C100.691 52.5393 101.06 53.1285 101.22 53.7875C101.525 55.0387 101.62 56.3319 101.5 57.6142C100.781 66.539 95.0474 71.4887 86.4649 71.0724C85.1905 71.0136 83.9216 70.867 82.6673 70.6336V70.6336ZM73.9364 64.9419C72.833 63.5157 71.8779 62.3606 70.9906 61.1248C70.1034 59.889 69.2967 58.6209 68.4385 57.3787C66.8059 55.0168 65.3927 52.4871 63.3536 50.4318C59.2333 46.2791 54.1613 44.6819 49.5926 46.8825C45.5466 48.8185 42.8911 51.9967 41.9974 56.5978C41.5568 58.8734 41.8507 61.2301 42.8366 63.3278C43.8224 65.4255 45.4494 67.1556 47.4824 68.2684C49.9805 69.6925 52.7117 70.6616 55.5487 71.1305C56.7554 71.3305 57.4329 71.1562 58.2363 70.1883C60.5327 67.4179 63.731 65.5445 67.2705 64.8967C69.4484 64.4514 71.5972 64.8257 73.9364 64.9419V64.9419ZM67.7287 88.9607C72.3845 90.3094 77.5211 87.5184 78.8439 82.8043C80.1958 77.9934 77.4791 72.947 72.7878 71.5757C67.2641 69.9624 62.7599 73.6537 61.466 77.7256C60.1335 81.9331 62.8115 87.812 67.7287 88.9607V88.9607Z"/>
</mask>
<path d="M82.6673 70.6336C85.7648 74.983 86.5843 79.7713 85.1711 84.6016C83.6837 89.6802 80.2765 93.3972 75.0367 95.1202C64.5603 98.5598 53.858 90.3126 54.542 79.3099C54.6517 77.5546 54.542 77.4966 52.7642 77.1674C47.5631 76.1995 42.9234 74.0602 39.4001 70.0463C35.2831 65.3581 34.4087 59.8503 35.8509 53.852C37.2932 47.8537 43.4945 40.5197 51.3026 39.5227C57.2845 38.758 62.3307 40.8133 66.7898 44.5787C69.4387 46.7986 71.2778 49.6993 73.1653 52.5484C74.9237 55.2007 76.5144 57.9885 78.802 60.2471C80.9767 62.3928 83.2901 64.2449 86.5811 64.4869C92.0855 64.8934 95.2926 61.6023 94.9957 56.1235C94.9506 55.2943 94.7441 54.4941 95.0409 53.6616C95.5991 52.0741 96.5283 51.403 98.3158 51.403C98.9932 51.431 99.6429 51.6789 100.167 52.1091C100.691 52.5393 101.06 53.1285 101.22 53.7875C101.525 55.0387 101.62 56.3319 101.5 57.6142C100.781 66.539 95.0474 71.4887 86.4649 71.0724C85.1905 71.0136 83.9216 70.867 82.6673 70.6336V70.6336ZM73.9364 64.9419C72.833 63.5157 71.8779 62.3606 70.9906 61.1248C70.1034 59.889 69.2967 58.6209 68.4385 57.3787C66.8059 55.0168 65.3927 52.4871 63.3536 50.4318C59.2333 46.2791 54.1613 44.6819 49.5926 46.8825C45.5466 48.8185 42.8911 51.9967 41.9974 56.5978C41.5568 58.8734 41.8507 61.2301 42.8366 63.3278C43.8224 65.4255 45.4494 67.1556 47.4824 68.2684C49.9805 69.6925 52.7117 70.6616 55.5487 71.1305C56.7554 71.3305 57.4329 71.1562 58.2363 70.1883C60.5327 67.4179 63.731 65.5445 67.2705 64.8967C69.4484 64.4514 71.5972 64.8257 73.9364 64.9419V64.9419ZM67.7287 88.9607C72.3845 90.3094 77.5211 87.5184 78.8439 82.8043C80.1958 77.9934 77.4791 72.947 72.7878 71.5757C67.2641 69.9624 62.7599 73.6537 61.466 77.7256C60.1335 81.9331 62.8115 87.812 67.7287 88.9607V88.9607Z" stroke="#FAF8F5" stroke-width="2" mask="url(#path-2-inside-1_2057_188789)"/>
</svg>
