<svg width="159" height="159" viewBox="0 0 159 159" fill="none" xmlns="http://www.w3.org/2000/svg">
<path d="M82.7354 0.967993C83.7629 0.963825 84.7748 1.21922 85.6773 1.71052C86.5798 2.20182 87.3436 2.91309 87.8978 3.77835C96.5193 17.187 106.554 29.6322 117.83 40.9005C129.097 52.1763 141.542 62.2104 154.951 70.8305C156.281 71.6854 157.23 73.0215 157.599 74.5597C157.967 76.0978 157.727 77.7189 156.929 79.0841L113.274 154.696C112.734 155.629 111.958 156.404 111.024 156.943C110.091 157.482 109.032 157.767 107.954 157.768C106.812 157.769 105.694 157.448 104.727 156.842C83.982 143.857 64.7729 128.565 47.4666 111.26C30.1608 93.9525 14.8699 74.7416 1.886 53.9941C1.44949 53.3007 1.15835 52.5259 1.03023 51.7167C0.90211 50.9075 0.939752 50.0807 1.14074 49.2864C1.33798 48.4854 1.69554 47.7328 2.19187 47.0739C2.68821 46.4151 3.31299 45.8638 4.02844 45.4532L79.6412 1.79725C80.58 1.255 81.6448 0.969009 82.729 0.967993M82.729 1.11975e-05C81.4739 0.00256416 80.2418 0.33648 79.1572 0.967993L3.55092 44.6175C2.72652 45.0932 2.00616 45.7298 1.43275 46.4895C0.859344 47.2492 0.444606 48.1165 0.213128 49.0397C-0.018349 49.9629 -0.061801 50.9232 0.0853607 51.8636C0.232522 52.804 0.567308 53.7051 1.06977 54.5135C27.1996 96.2645 62.4703 131.535 104.221 157.665C105.339 158.367 106.633 158.74 107.954 158.739C109.202 158.741 110.428 158.414 111.51 157.791C112.591 157.168 113.489 156.271 114.113 155.19L157.767 79.5778C158.684 77.9958 158.958 76.1216 158.531 74.3436C158.104 72.5656 157.009 71.02 155.473 70.027C142.12 61.4478 129.729 51.4566 118.514 40.2261C107.28 29.008 97.2882 16.6119 88.7109 3.25245C88.0666 2.25289 87.1814 1.4312 86.1368 0.862908C85.0921 0.294613 83.9214 -0.00210091 82.7322 1.11975e-05H82.729Z" fill="#FAF8F5"/>
<mask id="path-2-inside-1_355_28158" fill="white">
<path d="M96.4923 61.4296C98.9316 61.2651 101.332 61.2102 103.733 61.9007C112.357 64.3916 117.158 73.7036 114.319 82.0638C111.273 91.0273 101.568 94.8024 94.1435 91.8952C92.8529 91.3951 91.6236 90.9014 90.5201 90.0561C89.165 89.0171 88.6261 87.2457 89.3618 85.9228C90.3071 84.2223 92.1204 83.5705 93.824 84.5127C95.5276 85.4549 97.328 86.2906 99.38 86.2099C103.187 86.0615 106.127 84.4933 107.656 80.8795C109.185 77.2657 108.666 74.0844 106.152 70.9449C103.32 67.415 96.7634 67.1084 93.4175 70.0124C90.4394 72.5936 87.6098 75.3621 84.6027 77.9111C80.3663 81.4894 76.3719 85.3484 72.2678 89.0816C70.1867 90.9724 68.1283 92.8955 65.9923 94.7217C64.8276 95.7187 63.4982 96.0672 62.027 95.1605C60.9074 94.47 60.362 93.3955 60.4556 91.9339C60.5105 91.0885 60.9719 90.5368 61.5171 89.9979L74.4651 77.1658C78.8886 72.7808 83.3444 68.4249 87.7324 64.0077C90.6749 61.0489 91.0331 55.6733 88.6261 52.4854C85.3319 48.1263 80.6567 47.5487 76.7204 49.5396C72.7841 51.5304 70.9127 56.4413 72.3614 60.6101C72.6357 61.3877 73.068 62.1104 73.3648 62.8687C74.0617 64.6691 73.4229 66.2341 71.7193 67.002C70.0158 67.7699 68.4928 67.2826 67.5055 65.6597C65.6231 62.5063 64.9054 58.7928 65.4772 55.165C66.049 51.5372 67.8741 48.2246 70.6352 45.8031C75.9428 41.1278 84.1187 40.3695 90.1522 44.8351C95.7889 49.0104 97.6281 54.6215 96.4923 61.4296Z"/>
</mask>
<path d="M96.4923 61.4296C98.9316 61.2651 101.332 61.2102 103.733 61.9007C112.357 64.3916 117.158 73.7036 114.319 82.0638C111.273 91.0273 101.568 94.8024 94.1435 91.8952C92.8529 91.3951 91.6236 90.9014 90.5201 90.0561C89.165 89.0171 88.6261 87.2457 89.3618 85.9228C90.3071 84.2223 92.1204 83.5705 93.824 84.5127C95.5276 85.4549 97.328 86.2906 99.38 86.2099C103.187 86.0615 106.127 84.4933 107.656 80.8795C109.185 77.2657 108.666 74.0844 106.152 70.9449C103.32 67.415 96.7634 67.1084 93.4175 70.0124C90.4394 72.5936 87.6098 75.3621 84.6027 77.9111C80.3663 81.4894 76.3719 85.3484 72.2678 89.0816C70.1867 90.9724 68.1283 92.8955 65.9923 94.7217C64.8276 95.7187 63.4982 96.0672 62.027 95.1605C60.9074 94.47 60.362 93.3955 60.4556 91.9339C60.5105 91.0885 60.9719 90.5368 61.5171 89.9979L74.4651 77.1658C78.8886 72.7808 83.3444 68.4249 87.7324 64.0077C90.6749 61.0489 91.0331 55.6733 88.6261 52.4854C85.3319 48.1263 80.6567 47.5487 76.7204 49.5396C72.7841 51.5304 70.9127 56.4413 72.3614 60.6101C72.6357 61.3877 73.068 62.1104 73.3648 62.8687C74.0617 64.6691 73.4229 66.2341 71.7193 67.002C70.0158 67.7699 68.4928 67.2826 67.5055 65.6597C65.6231 62.5063 64.9054 58.7928 65.4772 55.165C66.049 51.5372 67.8741 48.2246 70.6352 45.8031C75.9428 41.1278 84.1187 40.3695 90.1522 44.8351C95.7889 49.0104 97.6281 54.6215 96.4923 61.4296Z" stroke="#FAF8F5" stroke-width="2" mask="url(#path-2-inside-1_355_28158)"/>
</svg>
