<svg width="127" height="153" viewBox="0 0 127 153" fill="none" xmlns="http://www.w3.org/2000/svg">
<path d="M44.0869 0.967982C45.162 0.968988 46.218 1.25275 47.1488 1.79078L122.813 45.479C124.176 46.2671 125.184 47.5494 125.627 49.0602C126.07 50.5709 125.915 52.1943 125.194 53.594C122.591 58.6371 120.148 63.8513 117.932 69.0977C107.729 93.229 101.907 118.985 100.738 145.158C100.672 146.74 99.997 148.234 98.8543 149.33C97.7117 150.425 96.1899 151.036 94.6073 151.034H7.09844C6.27443 151.037 5.45841 150.872 4.69976 150.551C3.94112 150.229 3.25555 149.757 2.68455 149.163C2.11245 148.576 1.66537 147.88 1.37032 147.116C1.07527 146.351 0.938455 145.535 0.968109 144.716C1.79027 119.889 5.48885 95.2411 11.9898 71.2661C18.3268 47.9758 27.2769 25.4768 38.6696 4.19782C39.1949 3.22118 39.9752 2.4053 40.9275 1.8371C41.8798 1.2689 42.9683 0.969648 44.0772 0.971211M44.0772 0.00322976C42.7923 0.00186306 41.5312 0.349306 40.4283 1.00847C39.3253 1.66764 38.422 2.61384 37.8146 3.74612C14.5404 47.1936 1.60125 95.4243 0.00339193 144.687C-0.026 145.638 0.13587 146.585 0.479409 147.471C0.822948 148.358 1.34108 149.167 2.00317 149.849C2.66526 150.532 3.45773 151.074 4.33355 151.445C5.20937 151.815 6.15076 152.006 7.10167 152.005H94.6105C96.4428 152.007 98.2046 151.3 99.5276 150.032C100.851 148.765 101.632 147.034 101.709 145.204C102.868 119.145 108.664 93.5021 118.825 69.4785C121.045 64.2235 123.456 59.0781 126.059 54.0424C126.895 52.4213 127.074 50.5407 126.561 48.7908C126.047 47.0408 124.88 45.5557 123.3 44.6434L47.636 0.951833C46.557 0.328518 45.333 0.000251021 44.0869 0L44.0772 0.00322976Z" fill="#FAF8F5"/>
<mask id="path-2-inside-1_2057_188795" fill="white">
<path d="M70.5218 102.176C67.1436 98.7691 63.8849 95.4876 60.6262 92.2062C60.1158 91.6499 59.5773 91.1201 59.0129 90.6187C56.6802 88.7214 57.803 85.1141 60.6874 84.5075C65.582 83.475 70.425 82.1876 75.2873 81.0066C75.6519 80.9195 76.0133 80.8195 76.5489 80.684C75.0357 78.748 73.2643 77.2412 71.6607 75.5891C69.4377 73.3015 67.1662 71.0719 64.9561 68.7746C62.8911 66.6257 63.4945 63.9121 66.3499 63.1183C70.8025 61.8793 75.3196 60.8597 79.8108 59.7498C82.3146 59.1303 84.8055 58.4591 87.3221 57.8977C88.4095 57.6557 89.5484 57.2523 90.6519 57.8493C91.2703 58.1578 91.7839 58.6421 92.1283 59.2414C92.4727 59.8406 92.6325 60.5281 92.5878 61.2178C92.5555 62.4343 91.4004 63.7314 90.0323 64.0702C85.3217 65.2414 80.6014 66.374 75.8842 67.5259C75.2389 67.684 74.5646 67.7162 73.8999 68.1712C75.3099 70.1813 77.2265 71.6914 78.8817 73.4306C80.9208 75.573 83.0761 77.6251 85.1442 79.7224C87.5641 82.1747 86.7866 84.985 83.4052 85.8368C78.9914 86.95 74.5484 87.9503 70.1346 89.0634C69.3635 89.257 68.4407 89.1732 67.7922 89.9992L78.3299 100.602C78.4913 100.76 78.6848 100.886 78.8461 101.047C79.8947 102.099 80.8014 103.235 80.3723 104.854C79.9205 106.545 78.6074 107.158 77.0264 107.529C72.448 108.597 67.8858 109.736 63.3171 110.843C62.7126 110.916 62.1473 111.181 61.7038 111.598C63.5902 113.504 65.4756 115.407 67.3599 117.306C69.3377 119.297 71.3317 121.275 73.3063 123.269C73.803 123.742 74.1446 124.354 74.2857 125.025C74.4269 125.697 74.361 126.395 74.0967 127.028C73.6515 128.257 72.1802 129.025 70.7767 128.993C69.5829 128.967 68.8408 128.147 68.1084 127.418C64.9787 124.324 61.8877 121.191 58.7774 118.08C56.9544 116.257 55.0895 114.473 53.2923 112.611C52.3599 111.643 51.321 110.675 51.7082 109.062C52.0566 107.616 52.7374 106.648 54.3087 106.281C59.4065 105.087 64.4786 103.793 69.5603 102.531C69.7797 102.473 69.9862 102.373 70.5218 102.176Z"/>
</mask>
<path d="M70.5218 102.176C67.1436 98.7691 63.8849 95.4876 60.6262 92.2062C60.1158 91.6499 59.5773 91.1201 59.0129 90.6187C56.6802 88.7214 57.803 85.1141 60.6874 84.5075C65.582 83.475 70.425 82.1876 75.2873 81.0066C75.6519 80.9195 76.0133 80.8195 76.5489 80.684C75.0357 78.748 73.2643 77.2412 71.6607 75.5891C69.4377 73.3015 67.1662 71.0719 64.9561 68.7746C62.8911 66.6257 63.4945 63.9121 66.3499 63.1183C70.8025 61.8793 75.3196 60.8597 79.8108 59.7498C82.3146 59.1303 84.8055 58.4591 87.3221 57.8977C88.4095 57.6557 89.5484 57.2523 90.6519 57.8493C91.2703 58.1578 91.7839 58.6421 92.1283 59.2414C92.4727 59.8406 92.6325 60.5281 92.5878 61.2178C92.5555 62.4343 91.4004 63.7314 90.0323 64.0702C85.3217 65.2414 80.6014 66.374 75.8842 67.5259C75.2389 67.684 74.5646 67.7162 73.8999 68.1712C75.3099 70.1813 77.2265 71.6914 78.8817 73.4306C80.9208 75.573 83.0761 77.6251 85.1442 79.7224C87.5641 82.1747 86.7866 84.985 83.4052 85.8368C78.9914 86.95 74.5484 87.9503 70.1346 89.0634C69.3635 89.257 68.4407 89.1732 67.7922 89.9992L78.3299 100.602C78.4913 100.76 78.6848 100.886 78.8461 101.047C79.8947 102.099 80.8014 103.235 80.3723 104.854C79.9205 106.545 78.6074 107.158 77.0264 107.529C72.448 108.597 67.8858 109.736 63.3171 110.843C62.7126 110.916 62.1473 111.181 61.7038 111.598C63.5902 113.504 65.4756 115.407 67.3599 117.306C69.3377 119.297 71.3317 121.275 73.3063 123.269C73.803 123.742 74.1446 124.354 74.2857 125.025C74.4269 125.697 74.361 126.395 74.0967 127.028C73.6515 128.257 72.1802 129.025 70.7767 128.993C69.5829 128.967 68.8408 128.147 68.1084 127.418C64.9787 124.324 61.8877 121.191 58.7774 118.08C56.9544 116.257 55.0895 114.473 53.2923 112.611C52.3599 111.643 51.321 110.675 51.7082 109.062C52.0566 107.616 52.7374 106.648 54.3087 106.281C59.4065 105.087 64.4786 103.793 69.5603 102.531C69.7797 102.473 69.9862 102.373 70.5218 102.176Z" stroke="#FAF8F5" stroke-width="2" mask="url(#path-2-inside-1_2057_188795)"/>
<mask id="path-3-inside-2_2057_188795" fill="white">
<path d="M44.7978 83.3539C48.0243 86.6095 51.0153 89.607 53.9933 92.6077C54.8483 93.466 55.7163 94.3146 56.5455 95.189C58.6363 97.4283 57.9071 100.164 54.9323 100.955C50.8249 102.042 46.6789 102.972 42.5619 104.02C41.4165 104.311 40.1872 104.385 38.9321 105.146C40.4098 106.647 41.7617 108.05 43.1265 109.412C45.6464 111.935 48.1824 114.439 50.6958 116.969C51.7928 118.075 51.9026 119.392 51.2799 120.76C50.7217 121.989 49.6375 122.486 48.3534 122.618C47.3403 122.725 46.5982 122.173 45.9368 121.534C44.3558 120.005 42.7974 118.45 41.2487 116.891C37.8221 113.449 34.401 110.008 30.9852 106.566C30.7174 106.295 30.4464 106.034 30.1786 105.763C27.92 103.465 28.9267 100.439 32.0242 99.7192C36.9026 98.5899 41.7617 97.3799 46.6273 96.199C46.9919 96.1119 47.35 95.9925 47.8759 95.844C44.972 92.9046 42.1586 90.0652 39.3418 87.2322C38.3255 86.2094 37.2672 85.2285 36.2734 84.1863C34.0149 81.8212 34.8377 78.9753 38.0545 78.1654C42.1715 77.1297 46.3078 76.1585 50.4345 75.1518C51.5379 74.884 52.6318 74.5839 53.9546 74.2419C51.6961 71.951 49.5537 69.7601 47.3887 67.5854C45.7754 65.9721 44.2202 64.304 42.5231 62.7939C40.1904 60.7128 40.6712 57.328 44.2881 56.4859C49.3117 55.3179 54.3063 54.037 59.317 52.8205C61.5272 52.2817 63.747 51.7783 65.9636 51.2588C67.3058 50.9362 68.3576 51.4298 69.1643 52.4882C70.0451 53.6465 70.0128 54.8919 69.3901 56.1439C68.8642 57.199 67.8833 57.541 66.8089 57.7992C62.8242 58.7671 58.8459 59.7351 54.8709 60.7192C53.6965 61.0096 52.5317 61.3258 51.3767 61.6259C51.2766 62.4422 51.8896 62.7327 52.2962 63.1457C55.6646 66.5368 59.0234 69.9215 62.408 73.3126C63.3147 74.2161 63.9309 75.1744 63.7148 76.5392C63.4308 78.2977 62.295 79.1206 60.6689 79.4916C56.4745 80.4822 52.2639 81.5082 48.0598 82.5246C47.108 82.7601 46.1562 83.0118 44.7978 83.3539Z"/>
</mask>
<path d="M44.7978 83.3539C48.0243 86.6095 51.0153 89.607 53.9933 92.6077C54.8483 93.466 55.7163 94.3146 56.5455 95.189C58.6363 97.4283 57.9071 100.164 54.9323 100.955C50.8249 102.042 46.6789 102.972 42.5619 104.02C41.4165 104.311 40.1872 104.385 38.9321 105.146C40.4098 106.647 41.7617 108.05 43.1265 109.412C45.6464 111.935 48.1824 114.439 50.6958 116.969C51.7928 118.075 51.9026 119.392 51.2799 120.76C50.7217 121.989 49.6375 122.486 48.3534 122.618C47.3403 122.725 46.5982 122.173 45.9368 121.534C44.3558 120.005 42.7974 118.45 41.2487 116.891C37.8221 113.449 34.401 110.008 30.9852 106.566C30.7174 106.295 30.4464 106.034 30.1786 105.763C27.92 103.465 28.9267 100.439 32.0242 99.7192C36.9026 98.5899 41.7617 97.3799 46.6273 96.199C46.9919 96.1119 47.35 95.9925 47.8759 95.844C44.972 92.9046 42.1586 90.0652 39.3418 87.2322C38.3255 86.2094 37.2672 85.2285 36.2734 84.1863C34.0149 81.8212 34.8377 78.9753 38.0545 78.1654C42.1715 77.1297 46.3078 76.1585 50.4345 75.1518C51.5379 74.884 52.6318 74.5839 53.9546 74.2419C51.6961 71.951 49.5537 69.7601 47.3887 67.5854C45.7754 65.9721 44.2202 64.304 42.5231 62.7939C40.1904 60.7128 40.6712 57.328 44.2881 56.4859C49.3117 55.3179 54.3063 54.037 59.317 52.8205C61.5272 52.2817 63.747 51.7783 65.9636 51.2588C67.3058 50.9362 68.3576 51.4298 69.1643 52.4882C70.0451 53.6465 70.0128 54.8919 69.3901 56.1439C68.8642 57.199 67.8833 57.541 66.8089 57.7992C62.8242 58.7671 58.8459 59.7351 54.8709 60.7192C53.6965 61.0096 52.5317 61.3258 51.3767 61.6259C51.2766 62.4422 51.8896 62.7327 52.2962 63.1457C55.6646 66.5368 59.0234 69.9215 62.408 73.3126C63.3147 74.2161 63.9309 75.1744 63.7148 76.5392C63.4308 78.2977 62.295 79.1206 60.6689 79.4916C56.4745 80.4822 52.2639 81.5082 48.0598 82.5246C47.108 82.7601 46.1562 83.0118 44.7978 83.3539Z" stroke="#FAF8F5" stroke-width="2" mask="url(#path-3-inside-2_2057_188795)"/>
</svg>
