<svg width="127" height="153" viewBox="0 0 127 153" fill="none" xmlns="http://www.w3.org/2000/svg">
<path d="M94.6107 0.977674C96.1939 0.976339 97.7162 1.58756 98.8589 2.68338C100.002 3.7792 100.676 5.27463 100.741 6.85654C101.91 33.0301 107.732 58.7861 117.935 82.9173C120.152 88.1638 122.594 93.378 125.198 98.4212C125.919 99.8219 126.074 101.447 125.629 102.958C125.185 104.47 124.175 105.752 122.81 106.539L47.1425 150.227C46.2117 150.766 45.1557 151.049 44.0806 151.05C42.9717 151.052 41.8832 150.753 40.9309 150.184C39.9786 149.616 39.1983 148.8 38.673 147.824C27.2803 126.545 18.3302 104.046 11.9932 80.7555C5.49226 56.7804 1.7936 32.1323 0.971439 7.305C0.941785 6.48629 1.07868 5.67011 1.37373 4.90585C1.66877 4.14158 2.11586 3.44512 2.68795 2.85873C3.25834 2.26358 3.94373 1.79053 4.70246 1.46828C5.4612 1.14603 6.27744 0.981343 7.10177 0.984133H94.6107M94.6107 0.0161514H7.10177C6.15058 0.0156834 5.20907 0.206371 4.33302 0.576947C3.45698 0.947523 2.6643 1.49039 2.00217 2.17331C1.34004 2.85624 0.821905 3.66529 0.478564 4.55238C0.135224 5.43948 -0.0263409 6.38654 0.0034921 7.3373C1.60135 56.6005 14.5406 104.831 37.8148 148.279C38.4222 149.411 39.3255 150.357 40.4284 151.016C41.5314 151.675 42.7925 152.023 44.0774 152.022C45.3249 152.016 46.5491 151.682 47.6265 151.054L123.294 107.365C124.873 106.453 126.041 104.968 126.554 103.218C127.068 101.468 126.888 99.5873 126.053 97.9662C123.452 92.9327 121.041 87.7874 118.819 82.5301C108.658 58.5066 102.862 32.8634 101.703 6.80486C101.627 4.97357 100.846 3.24263 99.5224 1.97425C98.1994 0.705874 96.4371 -0.00156601 94.6043 2.603e-06L94.6107 0.0161514Z" fill="#FAF8F5"/>
<mask id="path-2-inside-1_2057_188796" fill="white">
<path d="M56.9576 61.4043C52.6115 61.6431 48.4817 61.3688 44.4324 60.1846C39.5947 58.8014 35.1321 56.3428 31.378 52.9925C30.2359 51.9729 29.5744 50.8146 30.0261 49.2174C30.4004 47.8881 31.3683 47.2266 32.6073 46.9265C33.9398 46.6038 34.982 47.3298 35.879 48.1591C37.973 50.095 40.3961 51.4728 42.9773 52.6311C46.9233 54.409 51.0596 55.0866 55.6702 54.8091L54.5249 49.0012C54.3635 48.3352 54.2385 47.6609 54.1506 46.9813C53.9925 45.1873 54.9572 44.0225 56.8189 43.6773C58.6193 43.3546 60.026 44.129 60.4358 45.8714C60.9423 48.0203 61.3069 50.2015 61.7263 52.3698C61.8006 52.7376 61.9232 53.0957 62.049 53.5894C68.431 51.5179 73.2385 47.5815 76.7586 42.0027C77.2375 41.2297 77.6685 40.428 78.0492 39.6021C78.7364 38.1276 80.0658 37.8016 81.4596 37.7823C82.8535 37.7629 83.631 38.7341 84.1472 39.8892C84.6635 41.0444 84.1924 42.093 83.6891 43.1159C81.8501 46.7923 79.3322 50.0876 76.2682 52.828C72.5222 56.2417 68.1535 58.5713 63.2492 60.1653C63.9139 63.5435 64.585 66.8185 65.1851 70.1032C65.3626 71.0712 65.8918 70.9937 66.65 70.9421C73.2753 70.4692 79.8894 72.0053 85.6282 75.3497C87.5588 76.4171 89.3511 77.7174 90.9648 79.2216C92.6265 80.8091 92.8491 82.6547 91.5263 84.1712C90.3066 85.5618 88.3255 85.6586 86.6542 84.1712C83.1749 81.0831 78.948 78.9595 74.3936 78.0116C71.8557 77.4323 69.2419 77.2602 66.65 77.5018C66.9275 78.9151 67.1888 80.2218 67.4437 81.5318C67.6986 82.8418 68.0115 84.0647 68.1664 85.3457C68.389 87.1558 67.4082 88.3303 65.5239 88.6852C63.6397 89.0401 62.2974 88.2916 61.8974 86.4879C61.3198 83.9776 60.881 81.4383 60.3615 78.7989C56.4898 79.9799 53.3375 81.9997 50.524 84.5777C47.9104 86.9174 45.8109 89.774 44.3582 92.9669C43.6968 94.4544 42.4223 94.8384 41.0058 94.8771C39.5894 94.9158 38.815 94.0221 38.2536 92.8637C37.6922 91.7054 38.1601 90.6535 38.6247 89.6371C40.018 86.6801 41.8775 83.9662 44.1323 81.5996C47.7879 77.6136 52.3803 74.6026 57.4932 72.8394C59.0484 72.2941 59.0613 72.2908 58.7386 70.613C58.1901 67.6122 57.5932 64.6277 56.9576 61.4043Z"/>
</mask>
<path d="M56.9576 61.4043C52.6115 61.6431 48.4817 61.3688 44.4324 60.1846C39.5947 58.8014 35.1321 56.3428 31.378 52.9925C30.2359 51.9729 29.5744 50.8146 30.0261 49.2174C30.4004 47.8881 31.3683 47.2266 32.6073 46.9265C33.9398 46.6038 34.982 47.3298 35.879 48.1591C37.973 50.095 40.3961 51.4728 42.9773 52.6311C46.9233 54.409 51.0596 55.0866 55.6702 54.8091L54.5249 49.0012C54.3635 48.3352 54.2385 47.6609 54.1506 46.9813C53.9925 45.1873 54.9572 44.0225 56.8189 43.6773C58.6193 43.3546 60.026 44.129 60.4358 45.8714C60.9423 48.0203 61.3069 50.2015 61.7263 52.3698C61.8006 52.7376 61.9232 53.0957 62.049 53.5894C68.431 51.5179 73.2385 47.5815 76.7586 42.0027C77.2375 41.2297 77.6685 40.428 78.0492 39.6021C78.7364 38.1276 80.0658 37.8016 81.4596 37.7823C82.8535 37.7629 83.631 38.7341 84.1472 39.8892C84.6635 41.0444 84.1924 42.093 83.6891 43.1159C81.8501 46.7923 79.3322 50.0876 76.2682 52.828C72.5222 56.2417 68.1535 58.5713 63.2492 60.1653C63.9139 63.5435 64.585 66.8185 65.1851 70.1032C65.3626 71.0712 65.8918 70.9937 66.65 70.9421C73.2753 70.4692 79.8894 72.0053 85.6282 75.3497C87.5588 76.4171 89.3511 77.7174 90.9648 79.2216C92.6265 80.8091 92.8491 82.6547 91.5263 84.1712C90.3066 85.5618 88.3255 85.6586 86.6542 84.1712C83.1749 81.0831 78.948 78.9595 74.3936 78.0116C71.8557 77.4323 69.2419 77.2602 66.65 77.5018C66.9275 78.9151 67.1888 80.2218 67.4437 81.5318C67.6986 82.8418 68.0115 84.0647 68.1664 85.3457C68.389 87.1558 67.4082 88.3303 65.5239 88.6852C63.6397 89.0401 62.2974 88.2916 61.8974 86.4879C61.3198 83.9776 60.881 81.4383 60.3615 78.7989C56.4898 79.9799 53.3375 81.9997 50.524 84.5777C47.9104 86.9174 45.8109 89.774 44.3582 92.9669C43.6968 94.4544 42.4223 94.8384 41.0058 94.8771C39.5894 94.9158 38.815 94.0221 38.2536 92.8637C37.6922 91.7054 38.1601 90.6535 38.6247 89.6371C40.018 86.6801 41.8775 83.9662 44.1323 81.5996C47.7879 77.6136 52.3803 74.6026 57.4932 72.8394C59.0484 72.2941 59.0613 72.2908 58.7386 70.613C58.1901 67.6122 57.5932 64.6277 56.9576 61.4043Z" stroke="#FAF8F5" stroke-width="2" mask="url(#path-2-inside-1_2057_188796)"/>
</svg>
