<svg width="159" height="159" viewBox="0 0 159 159" fill="none" xmlns="http://www.w3.org/2000/svg">
<path d="M107.954 0.967992C109.032 0.969572 110.091 1.25411 111.024 1.79316C111.958 2.3322 112.734 3.10686 113.274 4.03973L156.929 79.652C157.727 81.0172 157.967 82.6383 157.599 84.1764C157.23 85.7146 156.281 87.0507 154.951 87.9056C141.542 96.5257 129.097 106.56 117.83 117.836C106.553 129.103 96.5185 141.549 87.8978 154.958C87.3436 155.823 86.5798 156.534 85.6773 157.026C84.7748 157.517 83.7629 157.772 82.7354 157.768C81.6513 157.767 80.5864 157.481 79.6476 156.939L4.0349 113.283C3.319 112.872 2.69392 112.32 2.19755 111.661C1.70118 111.001 1.34387 110.248 1.1472 109.446C0.946399 108.652 0.908889 107.825 1.037 107.016C1.16512 106.207 1.45613 105.432 1.89246 104.739C14.8773 83.9929 30.1681 64.7831 47.4731 47.4762C64.7793 30.1706 83.9884 14.8793 104.734 1.89407C105.701 1.28834 106.819 0.967355 107.96 0.967992M107.96 1.02736e-05C106.639 -0.000423984 105.345 0.372038 104.227 1.0745C62.4751 27.2013 27.2022 62.47 1.06977 104.219C0.567308 105.028 0.232522 105.929 0.0853607 106.869C-0.061801 107.81 -0.018349 108.77 0.213128 109.693C0.444606 110.616 0.859344 111.484 1.43275 112.243C2.00616 113.003 2.72652 113.64 3.55092 114.115L79.1637 157.781C80.2477 158.414 81.4802 158.748 82.7354 158.749C83.9249 158.751 85.0958 158.454 86.1405 157.885C87.1852 157.316 88.0702 156.493 88.7141 155.493C97.2919 142.139 107.283 129.747 118.514 118.533C129.729 107.302 142.12 97.3109 155.473 88.7317C157.009 87.7387 158.104 86.1931 158.531 84.4151C158.958 82.6371 158.684 80.7629 157.767 79.1809L114.113 3.54928C113.489 2.46839 112.591 1.57112 111.51 0.947983C110.428 0.324851 109.202 -0.00211279 107.954 1.02736e-05H107.96Z" fill="#FAF8F5"/>
<mask id="path-2-inside-1_2057_188794" fill="white">
<path d="M51.3996 71.4957C51.6545 63.9487 58.3753 58.699 63.0956 57.1761C66.9384 55.9371 70.2359 57.0147 73.0559 59.8444C80.7994 67.6184 88.5548 75.3784 96.322 83.1244L98.0159 84.8152C98.2257 83.8117 97.7385 83.1632 97.5449 82.5049C95.9639 77.2101 98.087 72.5734 102.256 69.221C106.027 66.1879 111.406 65.8815 115.742 68.3014C120.321 70.8601 121.892 75.0288 121.928 79.9526C121.953 83.873 120.511 87.3739 118.217 90.4746C116.926 92.2106 114.991 93.1849 113.093 94.2949C113.739 96.0663 114.507 97.799 114.516 99.7285C114.555 106.072 111.638 110.715 106.311 113.926C104.948 114.738 103.534 115.461 102.078 116.091C100.284 116.878 98.3548 116.181 97.5933 114.59C96.8577 113.054 97.5933 111.128 99.2872 110.215C100.484 109.57 101.704 108.966 102.904 108.327C104.908 107.263 106.282 105.624 107.231 103.591C108.399 101.097 108.05 98.7509 106.669 96.4439C106.253 95.7469 105.731 95.734 105.15 95.7985C101.033 96.189 98.0514 94.0884 95.3444 91.3813C86.6157 82.6522 77.888 73.9254 69.1615 65.2006C66.7416 62.7807 65.1961 62.7226 62.431 64.878C61.1823 65.8459 59.9466 66.7461 59.0948 68.1723C57.5558 70.7536 57.7591 73.422 59.9208 75.5935C69.2906 84.97 78.6624 94.3455 88.0364 103.72C88.541 104.18 89.0002 104.688 89.4077 105.236C89.8539 105.905 90.0438 106.712 89.9424 107.509C89.841 108.307 89.4552 109.041 88.856 109.576C87.5944 110.667 85.8554 110.612 84.5196 109.428C84.1969 109.124 83.8743 108.782 83.5516 108.46L55.4295 80.3398C55.0004 79.9075 54.5938 79.4461 54.1389 79.0492C52.3321 77.5488 49.9025 78.1426 49.0378 80.3141C48.6732 81.2272 48.4668 82.1984 48.1086 83.1115C47.4633 84.7861 45.6887 85.6928 44.1303 85.2023C42.3429 84.6538 41.4879 83.2373 41.8331 81.3143C42.2741 79.0023 43.1725 76.8018 44.4756 74.8418C45.4661 73.3027 47.0568 72.5315 48.783 72.0959C49.6412 71.8571 50.5285 71.6861 51.3996 71.4957ZM112.351 86.9834C115.139 84.3054 116.071 79.3912 114.61 76.1905C114.285 75.4284 113.718 74.7945 112.997 74.3868C110.335 72.838 107.531 73.0122 105.485 74.9643C103.524 76.839 103.124 79.6526 104.517 82.25C105.485 84.0505 106.747 85.6476 108.028 87.2351C109.128 88.6064 109.499 88.771 110.986 87.9579C111.466 87.6663 111.922 87.3384 112.351 86.977V86.9834Z"/>
</mask>
<path d="M51.3996 71.4957C51.6545 63.9487 58.3753 58.699 63.0956 57.1761C66.9384 55.9371 70.2359 57.0147 73.0559 59.8444C80.7994 67.6184 88.5548 75.3784 96.322 83.1244L98.0159 84.8152C98.2257 83.8117 97.7385 83.1632 97.5449 82.5049C95.9639 77.2101 98.087 72.5734 102.256 69.221C106.027 66.1879 111.406 65.8815 115.742 68.3014C120.321 70.8601 121.892 75.0288 121.928 79.9526C121.953 83.873 120.511 87.3739 118.217 90.4746C116.926 92.2106 114.991 93.1849 113.093 94.2949C113.739 96.0663 114.507 97.799 114.516 99.7285C114.555 106.072 111.638 110.715 106.311 113.926C104.948 114.738 103.534 115.461 102.078 116.091C100.284 116.878 98.3548 116.181 97.5933 114.59C96.8577 113.054 97.5933 111.128 99.2872 110.215C100.484 109.57 101.704 108.966 102.904 108.327C104.908 107.263 106.282 105.624 107.231 103.591C108.399 101.097 108.05 98.7509 106.669 96.4439C106.253 95.7469 105.731 95.734 105.15 95.7985C101.033 96.189 98.0514 94.0884 95.3444 91.3813C86.6157 82.6522 77.888 73.9254 69.1615 65.2006C66.7416 62.7807 65.1961 62.7226 62.431 64.878C61.1823 65.8459 59.9466 66.7461 59.0948 68.1723C57.5558 70.7536 57.7591 73.422 59.9208 75.5935C69.2906 84.97 78.6624 94.3455 88.0364 103.72C88.541 104.18 89.0002 104.688 89.4077 105.236C89.8539 105.905 90.0438 106.712 89.9424 107.509C89.841 108.307 89.4552 109.041 88.856 109.576C87.5944 110.667 85.8554 110.612 84.5196 109.428C84.1969 109.124 83.8743 108.782 83.5516 108.46L55.4295 80.3398C55.0004 79.9075 54.5938 79.4461 54.1389 79.0492C52.3321 77.5488 49.9025 78.1426 49.0378 80.3141C48.6732 81.2272 48.4668 82.1984 48.1086 83.1115C47.4633 84.7861 45.6887 85.6928 44.1303 85.2023C42.3429 84.6538 41.4879 83.2373 41.8331 81.3143C42.2741 79.0023 43.1725 76.8018 44.4756 74.8418C45.4661 73.3027 47.0568 72.5315 48.783 72.0959C49.6412 71.8571 50.5285 71.6861 51.3996 71.4957ZM112.351 86.9834C115.139 84.3054 116.071 79.3912 114.61 76.1905C114.285 75.4284 113.718 74.7945 112.997 74.3868C110.335 72.838 107.531 73.0122 105.485 74.9643C103.524 76.839 103.124 79.6526 104.517 82.25C105.485 84.0505 106.747 85.6476 108.028 87.2351C109.128 88.6064 109.499 88.771 110.986 87.9579C111.466 87.6663 111.922 87.3384 112.351 86.977V86.9834Z" stroke="#FAF8F5" stroke-width="2" mask="url(#path-2-inside-1_2057_188794)"/>
</svg>
