<svg width="152" height="127" viewBox="0 0 152 127" fill="none" xmlns="http://www.w3.org/2000/svg">
<path d="M144.905 0.967982C146.528 0.973106 148.082 1.6212 149.228 2.77034C150.373 3.91949 151.016 5.47596 151.016 7.09853V94.6138C151.018 96.197 150.407 97.7193 149.311 98.8621C148.215 100.005 146.72 100.679 145.138 100.744C118.965 101.914 93.2104 107.736 69.0798 117.939C63.8335 120.156 58.6195 122.601 53.5926 125.205C52.7261 125.654 51.7645 125.887 50.7888 125.886C49.7124 125.884 48.6552 125.6 47.7228 125.062C46.7903 124.525 46.0153 123.752 45.4748 122.821L1.78814 47.1504C1.37514 46.4386 1.11023 45.6506 1.00933 44.8339C0.908416 44.0172 0.973564 43.1885 1.2009 42.3976C1.42409 41.6079 1.80466 40.8715 2.31977 40.2328C2.83488 39.594 3.4739 39.066 4.19832 38.6805C25.4763 27.2869 47.9745 18.3364 71.2641 11.9997C95.238 5.49784 119.886 1.80011 144.712 0.980822H144.918M144.918 0.0128403H144.68C95.4169 1.61137 47.1868 14.5522 3.7401 37.8287C2.90244 38.2786 2.16374 38.8921 1.56774 39.6329C0.971735 40.3737 0.530616 41.2268 0.270604 42.1414C0.0105915 43.056 -0.06307 44.0134 0.0540603 44.957C0.171191 45.9006 0.476717 46.8111 0.952452 47.6343L44.6391 123.305C45.2623 124.384 46.1588 125.281 47.2383 125.904C48.3179 126.527 49.5424 126.854 50.7888 126.854C51.9184 126.854 53.0315 126.583 54.0347 126.063C59.0701 123.463 64.2153 121.053 69.4702 118.833C93.4937 108.669 119.137 102.872 145.196 101.712C147.027 101.636 148.757 100.854 150.024 99.531C151.292 98.208 151.999 96.4461 151.997 94.6138V7.09853C151.997 5.21923 151.252 3.41663 149.925 2.08595C148.598 0.755272 146.798 0.00512536 144.918 0V0.0128403Z" fill="#FAF8F5"/>
<mask id="path-2-inside-1_2057_188793" fill="white">
<path d="M106.927 47.9861L81.9667 72.9246C84.2607 75.2219 86.829 77.7838 89.3876 80.3458C89.9454 80.8623 90.46 81.4234 90.9266 82.0236C91.9978 83.5304 91.8494 85.1695 90.533 86.3343C89.2166 87.4991 87.6743 87.8379 86.0868 86.3085C83.0733 83.4046 80.1502 80.3973 77.2076 77.4514C76.3655 77.5256 76.0396 78.2097 75.575 78.6679C72.3248 81.8816 69.0897 85.1082 65.8697 88.3477C64.9695 89.2511 63.9854 89.89 62.6432 89.5254C60.1588 88.8511 59.2425 86.1666 60.846 84.1402C61.444 83.4486 62.0829 82.7935 62.7594 82.1784C65.9407 79.0099 69.1284 75.8446 72.4711 72.5245C70.4448 70.4949 68.4735 68.5235 66.5053 66.5488C65.4825 65.526 64.3694 64.5741 63.4692 63.4512C61.7817 61.341 62.7561 58.5049 65.2824 57.9176C66.644 57.595 67.612 58.2854 68.5089 59.1857C70.8191 61.5056 73.1583 63.8029 75.4459 66.1455C75.922 66.7056 76.3535 67.3022 76.7365 67.9298L101.945 42.7267C99.3897 42.6622 96.9375 42.5622 94.4822 42.5493C89.5295 42.5202 84.5801 42.5493 79.6403 42.5493C78.8111 42.5493 78.0013 42.5848 77.185 42.2266C75.4782 41.4909 74.7361 40.2745 75.0426 38.4547C75.1454 37.7266 75.5164 37.063 76.0827 36.5939C76.649 36.1248 77.37 35.884 78.1045 35.9186C83.7993 36.0347 89.4263 36.1477 95.2049 36.1283C102.836 35.9057 105.172 35.9057 109.998 35.9315C110.49 35.8688 110.99 35.9178 111.46 36.075C111.93 36.2322 112.358 36.4934 112.713 36.8392C113.068 37.185 113.341 37.6065 113.51 38.0723C113.68 38.538 113.742 39.036 113.693 39.5292C113.563 41.3545 113.525 43.1853 113.58 45.0144C113.612 53.3875 113.686 61.7605 113.744 70.1335C113.744 70.6659 113.78 71.2015 113.744 71.7468C113.586 73.5989 112.454 74.6508 110.644 74.683C109.842 74.7131 109.057 74.4519 108.433 73.9477C107.809 73.4435 107.388 72.7305 107.249 71.9404C107.202 71.4094 107.193 70.8756 107.224 70.3433C107.166 63.3372 107.103 56.3333 107.037 49.3316C106.998 48.8153 107.198 48.2604 106.927 47.9861Z"/>
</mask>
<path d="M106.927 47.9861L81.9667 72.9246C84.2607 75.2219 86.829 77.7838 89.3876 80.3458C89.9454 80.8623 90.46 81.4234 90.9266 82.0236C91.9978 83.5304 91.8494 85.1695 90.533 86.3343C89.2166 87.4991 87.6743 87.8379 86.0868 86.3085C83.0733 83.4046 80.1502 80.3973 77.2076 77.4514C76.3655 77.5256 76.0396 78.2097 75.575 78.6679C72.3248 81.8816 69.0897 85.1082 65.8697 88.3477C64.9695 89.2511 63.9854 89.89 62.6432 89.5254C60.1588 88.8511 59.2425 86.1666 60.846 84.1402C61.444 83.4486 62.0829 82.7935 62.7594 82.1784C65.9407 79.0099 69.1284 75.8446 72.4711 72.5245C70.4448 70.4949 68.4735 68.5235 66.5053 66.5488C65.4825 65.526 64.3694 64.5741 63.4692 63.4512C61.7817 61.341 62.7561 58.5049 65.2824 57.9176C66.644 57.595 67.612 58.2854 68.5089 59.1857C70.8191 61.5056 73.1583 63.8029 75.4459 66.1455C75.922 66.7056 76.3535 67.3022 76.7365 67.9298L101.945 42.7267C99.3897 42.6622 96.9375 42.5622 94.4822 42.5493C89.5295 42.5202 84.5801 42.5493 79.6403 42.5493C78.8111 42.5493 78.0013 42.5848 77.185 42.2266C75.4782 41.4909 74.7361 40.2745 75.0426 38.4547C75.1454 37.7266 75.5164 37.063 76.0827 36.5939C76.649 36.1248 77.37 35.884 78.1045 35.9186C83.7993 36.0347 89.4263 36.1477 95.2049 36.1283C102.836 35.9057 105.172 35.9057 109.998 35.9315C110.49 35.8688 110.99 35.9178 111.46 36.075C111.93 36.2322 112.358 36.4934 112.713 36.8392C113.068 37.185 113.341 37.6065 113.51 38.0723C113.68 38.538 113.742 39.036 113.693 39.5292C113.563 41.3545 113.525 43.1853 113.58 45.0144C113.612 53.3875 113.686 61.7605 113.744 70.1335C113.744 70.6659 113.78 71.2015 113.744 71.7468C113.586 73.5989 112.454 74.6508 110.644 74.683C109.842 74.7131 109.057 74.4519 108.433 73.9477C107.809 73.4435 107.388 72.7305 107.249 71.9404C107.202 71.4094 107.193 70.8756 107.224 70.3433C107.166 63.3372 107.103 56.3333 107.037 49.3316C106.998 48.8153 107.198 48.2604 106.927 47.9861Z" stroke="#FAF8F5" stroke-width="2" mask="url(#path-2-inside-1_2057_188793)"/>
</svg>
