<svg width="159" height="159" viewBox="0 0 159 159" fill="none" xmlns="http://www.w3.org/2000/svg">
<path d="M76.0018 0.98413C77.0859 0.985147 78.1507 1.27114 79.0895 1.81339L154.699 45.4694C155.418 45.878 156.046 46.4285 156.545 47.0875C157.044 47.7465 157.404 48.5001 157.603 49.3026C157.804 50.0968 157.841 50.9236 157.713 51.7328C157.585 52.542 157.294 53.3169 156.858 54.0102C143.874 74.7577 128.583 93.9687 111.277 111.276C93.9707 128.582 74.7617 143.873 54.0165 156.858C53.0493 157.464 51.9311 157.785 50.79 157.784C49.7114 157.783 48.6521 157.499 47.7178 156.959C46.7836 156.42 46.0072 155.646 45.4663 154.713L1.8151 79.1003C1.01642 77.7351 0.776247 76.1139 1.14484 74.5758C1.51342 73.0376 2.46221 71.7015 3.7929 70.8466C17.1958 62.2256 29.6352 52.1915 40.8975 40.9166C52.1734 29.6484 62.2082 17.2031 70.8297 3.79449C71.3839 2.92923 72.1477 2.21796 73.0502 1.72666C73.9527 1.23536 74.9646 0.979962 75.9921 0.98413M75.9921 0.0161488C74.8029 0.0140367 73.6322 0.310751 72.5875 0.879045C71.5429 1.44734 70.6577 2.26902 70.0134 3.26859C61.4365 16.6245 51.4456 29.0174 40.2135 40.2326C28.9981 51.4631 16.607 61.4542 3.25411 70.0335C1.71867 71.0264 0.624041 72.572 0.196975 74.35C-0.230092 76.128 0.0430964 78.0022 0.960037 79.5843L44.6145 155.197C45.2385 156.277 46.1364 157.175 47.2178 157.798C48.2992 158.421 49.5258 158.748 50.7738 158.746C52.0945 158.746 53.3885 158.374 54.5069 157.671C96.256 131.541 131.526 96.2706 157.655 54.5199C158.157 53.7116 158.492 52.8104 158.639 51.87C158.786 50.9297 158.743 49.9694 158.511 49.0461C158.28 48.1229 157.865 47.2557 157.292 46.496C156.718 45.7363 155.998 45.0996 155.173 44.624L79.5638 0.967982C78.4792 0.336469 77.2471 0.00255296 75.9921 0V0.0161488Z" fill="#FAF8F5"/>
<mask id="path-2-inside-1_2057_188788" fill="white">
<path d="M51.8877 77.0114C59.015 73.2105 66.8425 76.3338 69.7786 83.213C71.9758 88.3755 70.0625 94.7932 65.2228 98.1392C62.9617 99.7072 60.2419 100.475 57.4947 100.321C54.7475 100.168 52.1303 99.101 50.0583 97.2906C48.0323 95.5498 46.6083 93.2133 45.9897 90.6148C43.5827 80.2187 45.1013 70.4313 50.5455 61.2527C52.7523 57.5285 55.5161 54.164 58.7408 51.276C65.3744 45.3294 72.9115 41.4768 82.0844 41.6769C84.288 41.7101 86.4748 42.0645 88.5761 42.7287C89.3279 42.9707 89.586 43.345 89.1246 44.0548C89.09 44.123 89.0619 44.1944 89.0407 44.2678C88.4309 45.7327 88.1728 47.5718 87.1048 48.5559C85.9433 49.6336 84.201 48.3107 82.6684 48.2494C77.9093 48.0591 73.3987 49.0786 69.3914 51.5405C61.5382 56.3805 55.7337 62.9692 52.8847 71.9037C52.3401 73.5579 52.0052 75.2739 51.8877 77.0114V77.0114ZM62.3093 83.6743C61.768 83.1222 61.1224 82.6832 60.41 82.3829C59.6975 82.0826 58.9324 81.927 58.1592 81.9252C57.386 81.9234 56.6202 82.0754 55.9064 82.3724C55.1925 82.6693 54.5448 83.1053 54.001 83.655C51.7425 85.9652 51.7425 89.7597 54.001 91.9893C56.3306 94.2867 60.1314 94.3189 62.3899 92.0603C64.6485 89.8017 64.5517 85.9362 62.3093 83.6776V83.6743Z"/>
</mask>
<path d="M51.8877 77.0114C59.015 73.2105 66.8425 76.3338 69.7786 83.213C71.9758 88.3755 70.0625 94.7932 65.2228 98.1392C62.9617 99.7072 60.2419 100.475 57.4947 100.321C54.7475 100.168 52.1303 99.101 50.0583 97.2906C48.0323 95.5498 46.6083 93.2133 45.9897 90.6148C43.5827 80.2187 45.1013 70.4313 50.5455 61.2527C52.7523 57.5285 55.5161 54.164 58.7408 51.276C65.3744 45.3294 72.9115 41.4768 82.0844 41.6769C84.288 41.7101 86.4748 42.0645 88.5761 42.7287C89.3279 42.9707 89.586 43.345 89.1246 44.0548C89.09 44.123 89.0619 44.1944 89.0407 44.2678C88.4309 45.7327 88.1728 47.5718 87.1048 48.5559C85.9433 49.6336 84.201 48.3107 82.6684 48.2494C77.9093 48.0591 73.3987 49.0786 69.3914 51.5405C61.5382 56.3805 55.7337 62.9692 52.8847 71.9037C52.3401 73.5579 52.0052 75.2739 51.8877 77.0114V77.0114ZM62.3093 83.6743C61.768 83.1222 61.1224 82.6832 60.41 82.3829C59.6975 82.0826 58.9324 81.927 58.1592 81.9252C57.386 81.9234 56.6202 82.0754 55.9064 82.3724C55.1925 82.6693 54.5448 83.1053 54.001 83.655C51.7425 85.9652 51.7425 89.7597 54.001 91.9893C56.3306 94.2867 60.1314 94.3189 62.3899 92.0603C64.6485 89.8017 64.5517 85.9362 62.3093 83.6776V83.6743Z" stroke="#FAF8F5" stroke-width="2" mask="url(#path-2-inside-1_2057_188788)"/>
<mask id="path-3-inside-2_2057_188788" fill="white">
<path d="M98.9982 74.4554C95.1264 76.4366 91.2224 76.7915 87.328 74.8975C80.875 71.7677 77.8163 63.8819 82.0462 57.1899C84.8242 52.792 89.0283 50.5656 94.4585 51.2916C96.8784 51.624 99.1446 52.6689 100.969 54.2933C102.793 55.9176 104.093 58.048 104.703 60.4132C107.423 71.0385 105.784 81.0249 100.186 90.3917C98.2333 93.7294 95.8149 96.7715 93.0034 99.4262C87.5893 104.444 81.4848 108.251 74.0413 109.471C70.217 110.14 66.2906 109.933 62.5582 108.864C61.6838 108.609 61.2676 108.251 61.7516 107.27C62.3388 106.047 62.8131 104.766 63.2906 103.498C63.6133 102.646 64.0424 102.469 64.9974 102.672C72.1312 104.202 78.4809 102.262 84.2725 98.0904C90.064 93.9184 94.4134 88.5977 97.0817 81.9573C98.0599 79.5559 98.7047 77.0318 98.9982 74.4554V74.4554ZM88.4379 59.5518C86.2374 61.7846 86.26 65.8565 88.4831 67.9893C90.6577 70.0737 94.8618 70.0544 96.93 67.799C99.3434 65.1693 98.9692 61.6684 96.8332 59.3937C94.6973 57.1189 90.6835 57.2738 88.4379 59.5518Z"/>
</mask>
<path d="M98.9982 74.4554C95.1264 76.4366 91.2224 76.7915 87.328 74.8975C80.875 71.7677 77.8163 63.8819 82.0462 57.1899C84.8242 52.792 89.0283 50.5656 94.4585 51.2916C96.8784 51.624 99.1446 52.6689 100.969 54.2933C102.793 55.9176 104.093 58.048 104.703 60.4132C107.423 71.0385 105.784 81.0249 100.186 90.3917C98.2333 93.7294 95.8149 96.7715 93.0034 99.4262C87.5893 104.444 81.4848 108.251 74.0413 109.471C70.217 110.14 66.2906 109.933 62.5582 108.864C61.6838 108.609 61.2676 108.251 61.7516 107.27C62.3388 106.047 62.8131 104.766 63.2906 103.498C63.6133 102.646 64.0424 102.469 64.9974 102.672C72.1312 104.202 78.4809 102.262 84.2725 98.0904C90.064 93.9184 94.4134 88.5977 97.0817 81.9573C98.0599 79.5559 98.7047 77.0318 98.9982 74.4554V74.4554ZM88.4379 59.5518C86.2374 61.7846 86.26 65.8565 88.4831 67.9893C90.6577 70.0737 94.8618 70.0544 96.93 67.799C99.3434 65.1693 98.9692 61.6684 96.8332 59.3937C94.6973 57.1189 90.6835 57.2738 88.4379 59.5518Z" stroke="#FAF8F5" stroke-width="2" mask="url(#path-3-inside-2_2057_188788)"/>
</svg>
