<svg width="152" height="127" viewBox="0 0 152 127" fill="none" xmlns="http://www.w3.org/2000/svg">
<path d="M7.07252 0.964752H7.27898C32.1054 1.78427 56.7529 5.48192 80.7268 11.9836C104.021 18.3218 126.523 27.2733 147.806 38.6676C148.53 39.0526 149.169 39.5806 149.683 40.2195C150.198 40.8583 150.578 41.5949 150.8 42.3847C151.028 43.1752 151.095 44.004 150.994 44.8208C150.894 45.6377 150.629 46.4258 150.216 47.1374L106.506 122.821C105.966 123.752 105.191 124.525 104.258 125.062C103.326 125.6 102.269 125.884 101.192 125.886C100.217 125.888 99.255 125.654 98.3886 125.205C93.3489 122.601 88.1316 120.156 82.9015 117.939C58.7721 107.736 33.0182 101.914 6.84668 100.744C5.26483 100.679 3.76945 100.005 2.67367 98.8621C1.57789 97.7193 0.966615 96.197 0.96795 94.6138V7.09853C0.967942 5.47596 1.61122 3.91949 2.7567 2.77034C3.90217 1.6212 5.45647 0.973106 7.07898 0.967982M7.07898 0C5.19976 0.00512536 3.39925 0.755272 2.07225 2.08595C0.745249 3.41663 -4.26986e-06 5.21923 2.71903e-06 7.09853V94.6138C-0.00160005 96.4461 0.70543 98.208 1.97308 99.531C3.24072 100.854 4.97081 101.636 6.80147 101.712C32.8604 102.872 58.5037 108.669 82.5272 118.833C87.7799 121.053 92.924 123.463 97.9595 126.063C98.9638 126.583 100.078 126.854 101.209 126.854C102.455 126.854 103.68 126.527 104.759 125.904C105.839 125.281 106.735 124.384 107.358 123.305L151.045 47.6343C151.521 46.8111 151.826 45.9006 151.943 44.957C152.06 44.0134 151.987 43.056 151.727 42.1414C151.467 41.2268 151.026 40.3737 150.43 39.6329C149.834 38.8921 149.095 38.2786 148.257 37.8287C104.811 14.5522 56.5805 1.61137 7.31774 0.0128403L7.07898 0Z" fill="#FAF8F5"/>
<mask id="path-2-inside-1_2057_188792" fill="white">
<path d="M82.4309 91.8004C82.1742 91.1697 81.9587 90.523 81.7856 89.8644C81.3468 87.4832 83.0762 85.7569 85.4606 85.9537C88.2612 86.1861 90.9456 86.9702 93.7494 87.2767C96.4177 87.5671 97.3438 88.6286 97.518 90.7324C97.5744 91.1833 97.5179 91.6412 97.3534 92.0649C96.3016 94.5978 95.6756 97.263 94.9787 99.9024C94.5464 101.535 93.7107 102.732 92.0168 102.964C90.3229 103.197 89.113 102.277 88.3064 100.841C88.0891 100.533 87.894 100.209 87.7223 99.8733C87.2932 98.7956 86.5544 98.5343 85.4219 98.673C76.733 99.7507 68.7958 92.0907 68.9668 82.9594C68.9813 81.437 69.1707 79.9213 69.5314 78.4422C72.3578 67.2093 75.1691 55.9732 77.9654 44.7339C78.7398 41.6331 78.0687 40.3715 75.0003 39.4874C73.2612 38.9873 71.5286 38.4097 69.6475 38.5807C67.2051 38.8001 67.0179 38.9034 66.421 41.2556C63.072 54.6352 59.7272 68.016 56.3867 81.3978C56.1834 82.2109 56.0382 83.0401 55.5639 83.7564C55.1734 84.3679 54.5847 84.8268 53.8964 85.0564C53.2081 85.2861 52.462 85.2725 51.7825 85.0181C51.0938 84.7843 50.5042 84.3247 50.1095 83.7139C49.7147 83.103 49.538 82.3766 49.6079 81.6527C49.7104 81.0523 49.8527 80.4595 50.0337 79.878C53.2602 67.0146 56.4749 54.1513 59.6777 41.2879C60.5585 37.7741 60.1262 36.6641 56.8932 35.1573C55.1832 34.37 53.3441 33.8215 51.392 33.9925C48.6463 34.2312 46.9008 35.6284 46.2296 38.2839C43.0032 51.2226 39.7692 64.1602 36.5277 77.0967C36.4235 77.6198 36.291 78.1368 36.1308 78.6455C35.4403 80.504 33.8723 81.2268 31.9364 80.6202C30.1747 80.0845 29.4196 78.8326 29.8617 76.9192C30.507 74.096 31.2523 71.2953 31.9557 68.4882C34.6336 57.7694 37.2858 47.0409 40.0219 36.335C40.4639 34.6023 40.1994 33.2149 38.9862 31.9404C38.5313 31.4629 38.1086 31.2079 37.3988 31.3918C36.1534 31.7145 34.8854 31.9565 33.6141 32.1565C31.7782 32.4502 30.3618 31.6113 29.8424 29.9947C29.5719 29.229 29.6103 28.388 29.9494 27.6502C30.2885 26.9123 30.9017 26.3355 31.6588 26.0421C33.9599 25.0319 36.4821 24.6307 38.983 24.8773C40.0453 24.9956 41.0701 25.3395 41.9888 25.8859C42.9075 26.4324 43.6988 27.1688 44.3099 28.0459C44.9326 28.9041 45.4296 28.9784 46.3846 28.5589C50.0144 26.9456 53.6377 27.1134 57.3804 28.4556C59.9261 29.3655 62.3202 30.3658 64.2077 32.3276C64.6336 32.7761 65.0498 32.8083 65.637 32.6502C70.1541 31.3047 74.4776 32.0049 78.6817 33.8731C83.1214 35.8478 85.9994 39.6197 84.5249 45.4437C81.6039 56.9691 78.7237 68.5021 75.8844 80.0426C74.9455 83.8564 75.7553 87.2799 78.6785 90.0451C79.7013 91.0518 80.8145 91.8036 82.4309 91.8004Z"/>
</mask>
<path d="M82.4309 91.8004C82.1742 91.1697 81.9587 90.523 81.7856 89.8644C81.3468 87.4832 83.0762 85.7569 85.4606 85.9537C88.2612 86.1861 90.9456 86.9702 93.7494 87.2767C96.4177 87.5671 97.3438 88.6286 97.518 90.7324C97.5744 91.1833 97.5179 91.6412 97.3534 92.0649C96.3016 94.5978 95.6756 97.263 94.9787 99.9024C94.5464 101.535 93.7107 102.732 92.0168 102.964C90.3229 103.197 89.113 102.277 88.3064 100.841C88.0891 100.533 87.894 100.209 87.7223 99.8733C87.2932 98.7956 86.5544 98.5343 85.4219 98.673C76.733 99.7507 68.7958 92.0907 68.9668 82.9594C68.9813 81.437 69.1707 79.9213 69.5314 78.4422C72.3578 67.2093 75.1691 55.9732 77.9654 44.7339C78.7398 41.6331 78.0687 40.3715 75.0003 39.4874C73.2612 38.9873 71.5286 38.4097 69.6475 38.5807C67.2051 38.8001 67.0179 38.9034 66.421 41.2556C63.072 54.6352 59.7272 68.016 56.3867 81.3978C56.1834 82.2109 56.0382 83.0401 55.5639 83.7564C55.1734 84.3679 54.5847 84.8268 53.8964 85.0564C53.2081 85.2861 52.462 85.2725 51.7825 85.0181C51.0938 84.7843 50.5042 84.3247 50.1095 83.7139C49.7147 83.103 49.538 82.3766 49.6079 81.6527C49.7104 81.0523 49.8527 80.4595 50.0337 79.878C53.2602 67.0146 56.4749 54.1513 59.6777 41.2879C60.5585 37.7741 60.1262 36.6641 56.8932 35.1573C55.1832 34.37 53.3441 33.8215 51.392 33.9925C48.6463 34.2312 46.9008 35.6284 46.2296 38.2839C43.0032 51.2226 39.7692 64.1602 36.5277 77.0967C36.4235 77.6198 36.291 78.1368 36.1308 78.6455C35.4403 80.504 33.8723 81.2268 31.9364 80.6202C30.1747 80.0845 29.4196 78.8326 29.8617 76.9192C30.507 74.096 31.2523 71.2953 31.9557 68.4882C34.6336 57.7694 37.2858 47.0409 40.0219 36.335C40.4639 34.6023 40.1994 33.2149 38.9862 31.9404C38.5313 31.4629 38.1086 31.2079 37.3988 31.3918C36.1534 31.7145 34.8854 31.9565 33.6141 32.1565C31.7782 32.4502 30.3618 31.6113 29.8424 29.9947C29.5719 29.229 29.6103 28.388 29.9494 27.6502C30.2885 26.9123 30.9017 26.3355 31.6588 26.0421C33.9599 25.0319 36.4821 24.6307 38.983 24.8773C40.0453 24.9956 41.0701 25.3395 41.9888 25.8859C42.9075 26.4324 43.6988 27.1688 44.3099 28.0459C44.9326 28.9041 45.4296 28.9784 46.3846 28.5589C50.0144 26.9456 53.6377 27.1134 57.3804 28.4556C59.9261 29.3655 62.3202 30.3658 64.2077 32.3276C64.6336 32.7761 65.0498 32.8083 65.637 32.6502C70.1541 31.3047 74.4776 32.0049 78.6817 33.8731C83.1214 35.8478 85.9994 39.6197 84.5249 45.4437C81.6039 56.9691 78.7237 68.5021 75.8844 80.0426C74.9455 83.8564 75.7553 87.2799 78.6785 90.0451C79.7013 91.0518 80.8145 91.8036 82.4309 91.8004Z" stroke="#FAF8F5" stroke-width="2" mask="url(#path-2-inside-1_2057_188792)"/>
</svg>
