<svg width="57" height="56" viewBox="0 0 57 56" fill="none" xmlns="http://www.w3.org/2000/svg">
<path d="M37.047 20.5688C39.4863 20.4043 41.8867 20.3494 44.2877 21.0399C52.9117 23.5308 57.7127 32.8428 54.8737 41.203C51.8277 50.1665 42.1227 53.9416 34.6982 51.0344C33.4076 50.5343 32.1783 50.0406 31.0748 49.1953C29.7197 48.1563 29.1808 46.3849 29.9165 45.062C30.8618 43.3615 32.6751 42.7097 34.3787 43.6519C36.0823 44.5941 37.8827 45.4298 39.9347 45.3491C43.7417 45.2007 46.6817 43.6325 48.2107 40.0187C49.7397 36.4049 49.2207 33.2236 46.7067 30.0841C43.8747 26.5542 37.3181 26.2476 33.9722 29.1516C30.9941 31.7328 28.1645 34.5013 25.1574 37.0503C20.921 40.6286 16.9266 44.4876 12.8225 48.2208C10.7414 50.1116 8.68301 52.0347 6.54701 53.8609C5.38231 54.8579 4.05291 55.2064 2.58171 54.2997C1.46211 53.6092 0.916708 52.5347 1.01031 51.0731C1.06521 50.2277 1.52661 49.676 2.07181 49.1371L15.0198 36.305C19.4433 31.92 23.8991 27.5641 28.2871 23.1469C31.2296 20.1881 31.5878 14.8125 29.1808 11.6246C25.8866 7.26547 21.2114 6.68787 17.2751 8.67877C13.3388 10.6696 11.4674 15.5805 12.9161 19.7493C13.1904 20.5269 13.6227 21.2496 13.9195 22.0079C14.6164 23.8083 13.9776 25.3733 12.274 26.1412C10.5705 26.9091 9.04751 26.4218 8.06021 24.7989C6.17781 21.6455 5.46011 17.932 6.03191 14.3042C6.60371 10.6764 8.42881 7.36377 11.1899 4.94227C16.4975 0.266967 24.6734 -0.491335 30.7069 3.97426C36.3436 8.14956 38.1828 13.7607 37.047 20.5688Z" stroke="#FAF8F5" stroke-width="2"/>
</svg>
