<svg width="295" height="250" viewBox="0 0 295 250" fill="none" xmlns="http://www.w3.org/2000/svg">
<circle cx="288.607" cy="121.135" r="5.8412" fill="#FAF8F5"/>
<circle cx="163.998" cy="165.917" r="3.89413" fill="#FAF8F5"/>
<circle cx="6.2837" cy="243.8" r="5.8412" fill="#FAF8F5"/>
<circle cx="6.2837" cy="35.464" r="5.8412" fill="#FAF8F5"/>
<circle cx="27.7065" cy="8.20526" r="7.78826" fill="#FAF8F5"/>
<circle cx="35.4869" cy="60.776" r="7.78826" fill="#FAF8F5"/>
<circle cx="45.2252" cy="119.188" r="5.8412" fill="#FAF8F5"/>
<circle cx="37.4305" cy="171.759" r="3.89413" fill="#FAF8F5"/>
<circle cx="66.648" cy="214.594" r="7.78826" fill="#FAF8F5"/>
<circle cx="107.537" cy="197.071" r="5.8412" fill="#FAF8F5"/>
<circle cx="232.137" cy="136.711" r="7.78826" fill="#FAF8F5"/>
<circle cx="253.566" cy="109.453" r="3.89413" fill="#FAF8F5"/>
<circle cx="276.926" cy="150.341" r="7.78826" fill="#FAF8F5"/>
<circle cx="249.671" cy="160.077" r="3.89413" fill="#FAF8F5"/>
<line x1="28.1932" y1="8.13214" x2="35.9815" y2="60.7029" stroke="#FAF8F5"/>
<line x1="5.87707" y1="37.1155" x2="27.2948" y2="7.90955" stroke="#FAF8F5"/>
<line x1="6.59262" y1="37.0208" x2="35.7986" y2="60.3856" stroke="#FAF8F5"/>
<line x1="35.9798" y1="60.6812" x2="47.6622" y2="121.04" stroke="#FAF8F5"/>
<line x1="47.6624" y1="121.243" x2="35.98" y2="173.814" stroke="#FAF8F5"/>
<line x1="35.9581" y1="171.931" x2="8.69914" y2="245.92" stroke="#FAF8F5"/>
<line x1="6.05095" y1="245.303" x2="66.41" y2="214.15" stroke="#FAF8F5"/>
<line x1="66.4691" y1="214.124" x2="109.305" y2="198.547" stroke="#FAF8F5"/>
<line x1="109.222" y1="198.588" x2="161.793" y2="167.435" stroke="#FAF8F5"/>
<line x1="163.791" y1="167.41" x2="231.938" y2="136.257" stroke="#FAF8F5"/>
<line x1="230.593" y1="136.407" x2="250.063" y2="161.719" stroke="#FAF8F5"/>
<line x1="249.514" y1="161.549" x2="278.72" y2="151.813" stroke="#FAF8F5"/>
<line x1="278.406" y1="152.103" x2="290.089" y2="122.897" stroke="#FAF8F5"/>
<line x1="253.718" y1="110.923" x2="290.712" y2="122.606" stroke="#FAF8F5"/>
<line x1="231.757" y1="136.389" x2="253.175" y2="111.077" stroke="#FAF8F5"/>
</svg>
