<svg width="295" height="298" viewBox="0 0 295 298" fill="none" xmlns="http://www.w3.org/2000/svg">
<circle cx="7.90792" cy="256.367" r="7.80636" fill="#FAF8F5"/>
<circle cx="35.2228" cy="217.335" r="5.85477" fill="#FAF8F5"/>
<circle cx="56.6964" cy="221.238" r="3.90318" fill="#FAF8F5"/>
<circle cx="35.2228" cy="287.592" r="5.85477" fill="#FAF8F5"/>
<circle cx="93.7802" cy="289.544" r="7.80636" fill="#FAF8F5"/>
<circle cx="130.861" cy="273.931" r="5.85477" fill="#FAF8F5"/>
<circle cx="146.472" cy="174.4" r="7.80636" fill="#FAF8F5"/>
<circle cx="183.552" cy="100.24" r="5.85477" fill="#FAF8F5"/>
<circle cx="201.111" cy="76.8208" r="7.80636" fill="#FAF8F5"/>
<circle cx="228.44" cy="69.0144" r="7.80636" fill="#FAF8F5"/>
<circle cx="277.228" cy="4.61168" r="3.90318" fill="#FAF8F5"/>
<circle cx="286.988" cy="39.7401" r="5.85477" fill="#FAF8F5"/>
<circle cx="286.983" cy="84.6266" r="7.80636" fill="#FAF8F5"/>
<line x1="56.6476" y1="219.784" x2="37.1317" y2="217.832" stroke="#FAF8F5"/>
<line x1="35.6454" y1="215.661" x2="8.32314" y2="256.644" stroke="#FAF8F5"/>
<line x1="6.3278" y1="256.036" x2="35.6016" y2="289.213" stroke="#FAF8F5"/>
<line x1="35.2294" y1="289.044" x2="93.7771" y2="289.044" stroke="#FAF8F5"/>
<line x1="93.6171" y1="289.072" x2="132.649" y2="275.411" stroke="#FAF8F5"/>
<line x1="132.319" y1="275.816" x2="145.98" y2="174.333" stroke="#FAF8F5"/>
<line x1="146.022" y1="174.167" x2="185.053" y2="100.007" stroke="#FAF8F5"/>
<line x1="185.091" y1="97.994" x2="200.704" y2="76.5265" stroke="#FAF8F5"/>
<line x1="200.975" y1="76.3395" x2="228.298" y2="68.5332" stroke="#FAF8F5"/>
<line x1="228.039" y1="66.7534" x2="278.781" y2="2.35094" stroke="#FAF8F5"/>
<line x1="228.208" y1="68.5673" x2="286.756" y2="39.2934" stroke="#FAF8F5"/>
<line x1="228.567" y1="66.5815" x2="291.018" y2="84.1458" stroke="#FAF8F5"/>
</svg>
