<svg width="273" height="300" viewBox="0 0 273 300" fill="none" xmlns="http://www.w3.org/2000/svg">
<circle cx="38.6085" cy="6.47386" r="5.48619" fill="#FAF8F5"/>
<circle cx="67.8664" cy="46.7059" r="5.48619" fill="#FAF8F5"/>
<circle cx="91.6456" cy="63.1647" r="7.31492" fill="#FAF8F5"/>
<circle cx="119.075" cy="50.3637" r="5.48619" fill="#FAF8F5"/>
<circle cx="119.07" cy="116.198" r="7.31492" fill="#FAF8F5"/>
<circle cx="151.986" cy="136.314" r="7.31492" fill="#FAF8F5"/>
<circle cx="206.853" cy="116.198" r="7.31492" fill="#FAF8F5"/>
<circle cx="254.399" cy="63.1646" r="5.48619" fill="#FAF8F5"/>
<circle cx="225.136" cy="180.204" r="7.31492" fill="#FAF8F5"/>
<circle cx="267.198" cy="191.176" r="5.48619" fill="#FAF8F5"/>
<circle cx="206.853" cy="242.38" r="7.31492" fill="#FAF8F5"/>
<circle cx="225.137" cy="275.297" r="3.65746" fill="#FAF8F5"/>
<circle cx="109.929" cy="295.413" r="3.65746" fill="#FAF8F5"/>
<circle cx="120.899" cy="262.496" r="5.48619" fill="#FAF8F5"/>
<circle cx="77.0119" cy="273.468" r="7.31492" fill="#FAF8F5"/>
<circle cx="29.4578" cy="229.579" r="5.48619" fill="#FAF8F5"/>
<circle cx="7.52086" cy="165.573" r="7.31492" fill="#FAF8F5"/>
<circle cx="53.2421" cy="136.314" r="5.48619" fill="#FAF8F5"/>
<circle cx="87.9872" cy="145.457" r="7.31492" fill="#FAF8F5"/>
<circle cx="100.792" cy="176.546" r="5.48619" fill="#FAF8F5"/>
<line x1="37.1744" y1="6.16597" x2="70.0915" y2="48.2268" stroke="#FAF8F5"/>
<line x1="69.9744" y1="48.1187" x2="91.9191" y2="62.7486" stroke="#FAF8F5"/>
<line x1="91.4893" y1="60.8619" x2="118.92" y2="51.7183" stroke="#FAF8F5"/>
<line x1="92.0916" y1="62.9352" x2="119.523" y2="115.968" stroke="#FAF8F5"/>
<line x1="117.498" y1="115.765" x2="152.243" y2="135.881" stroke="#FAF8F5"/>
<line x1="151.816" y1="135.844" x2="206.678" y2="115.728" stroke="#FAF8F5"/>
<line x1="206.482" y1="115.863" x2="254.029" y2="62.8303" stroke="#FAF8F5"/>
<line x1="207.335" y1="116.06" x2="225.623" y2="180.065" stroke="#FAF8F5"/>
<line x1="223.43" y1="179.717" x2="269.148" y2="190.69" stroke="#FAF8F5"/>
<line x1="223.796" y1="180.332" x2="207.338" y2="242.508" stroke="#FAF8F5"/>
<line x1="207.297" y1="242.147" x2="225.585" y2="276.893" stroke="#FAF8F5"/>
<line x1="117.611" y1="114.711" x2="88.3515" y2="145.8" stroke="#FAF8F5"/>
<line x1="88.468" y1="143.485" x2="99.4404" y2="180.06" stroke="#FAF8F5"/>
<line x1="96.8087" y1="179.813" x2="151.671" y2="135.924" stroke="#FAF8F5"/>
<line x1="53.3661" y1="135.83" x2="88.112" y2="144.974" stroke="#FAF8F5"/>
<line x1="7.26066" y1="165.148" x2="54.8077" y2="135.888" stroke="#FAF8F5"/>
<line x1="6.15912" y1="165.404" x2="29.9326" y2="231.238" stroke="#FAF8F5"/>
<line x1="29.803" y1="229.212" x2="77.35" y2="273.102" stroke="#FAF8F5"/>
<line x1="78.7217" y1="272.982" x2="124.44" y2="262.01" stroke="#FAF8F5"/>
<line x1="77.2963" y1="273.056" x2="112.042" y2="296.829" stroke="#FAF8F5"/>
</svg>
