<svg width="313" height="244" viewBox="0 0 313 244" fill="none" xmlns="http://www.w3.org/2000/svg">
<circle cx="6.29439" cy="66.5193" r="5.46004" fill="#FAF8F5"/>
<circle cx="60.8946" cy="8.27874" r="7.28005" fill="#FAF8F5"/>
<circle cx="130.059" cy="75.6188" r="5.46004" fill="#FAF8F5"/>
<circle cx="137.341" cy="166.619" r="5.46004" fill="#FAF8F5"/>
<circle cx="153.716" cy="132.039" r="7.28005" fill="#FAF8F5"/>
<circle cx="175.562" cy="139.32" r="7.28005" fill="#FAF8F5"/>
<circle cx="186.475" cy="170.26" r="7.28005" fill="#FAF8F5"/>
<circle cx="162.814" cy="170.26" r="7.28005" fill="#FAF8F5"/>
<circle cx="222.872" cy="193.92" r="5.46004" fill="#FAF8F5"/>
<circle cx="308.416" cy="239.42" r="3.64002" fill="#FAF8F5"/>
<line x1="59.4202" y1="7.92075" x2="130.401" y2="77.0812" stroke="#FAF8F5"/>
<line x1="130.515" y1="77.2402" x2="154.175" y2="131.841" stroke="#FAF8F5"/>
<line x1="153.876" y1="131.565" x2="175.716" y2="138.845" stroke="#FAF8F5"/>
<line x1="176.029" y1="137.342" x2="186.949" y2="170.102" stroke="#FAF8F5"/>
<line x1="186.755" y1="169.844" x2="224.975" y2="195.324" stroke="#FAF8F5"/>
<line x1="224.928" y1="195.298" x2="310.469" y2="240.799" stroke="#FAF8F5"/>
<line x1="186.516" y1="168.938" x2="162.855" y2="170.758" stroke="#FAF8F5"/>
<line x1="162.78" y1="168.938" x2="137.3" y2="167.118" stroke="#FAF8F5"/>
<line x1="6.59114" y1="67.9389" x2="137.632" y2="166.22" stroke="#FAF8F5"/>
</svg>
