<svg width="179" height="175" viewBox="0 0 179 175" fill="none" xmlns="http://www.w3.org/2000/svg">
<circle cx="1.22293" cy="1.22293" r="1.22293" transform="matrix(0.881347 0.472469 -0.471332 0.881956 58.4648 0.557617)" fill="#FAF8F5"/>
<circle cx="3.26114" cy="3.26114" r="3.26114" transform="matrix(0.881347 0.472469 -0.471332 0.881956 116.115 51.8135)" fill="#FAF8F5"/>
<circle cx="3.26114" cy="3.26114" r="3.26114" transform="matrix(0.881347 0.472469 -0.471332 0.881956 132.501 105.926)" fill="#FAF8F5"/>
<circle cx="2.03821" cy="2.03821" r="2.03821" transform="matrix(0.881347 0.472469 -0.471332 0.881956 80.2666 136.201)" fill="#FAF8F5"/>
<circle cx="3.26114" cy="3.26114" r="3.26114" transform="matrix(0.881347 0.472469 -0.471332 0.881956 74.2578 142.23)" fill="#FAF8F5"/>
<circle cx="1.22293" cy="1.22293" r="1.22293" transform="matrix(0.881347 0.472469 -0.471332 0.881956 61.0527 132.376)" fill="#FAF8F5"/>
<circle cx="3.26114" cy="3.26114" r="3.26114" transform="matrix(0.881347 0.472469 -0.471332 0.881956 59.2354 78.6738)" fill="#FAF8F5"/>
<circle cx="2.03821" cy="2.03821" r="2.03821" transform="matrix(0.881347 0.472469 -0.471332 0.881956 147.502 103.791)" fill="#FAF8F5"/>
<circle cx="1.22293" cy="1.22293" r="1.22293" transform="matrix(0.881347 0.472469 -0.471332 0.881956 159.784 94.6504)" fill="#FAF8F5"/>
<circle cx="2.03821" cy="2.03821" r="2.03821" transform="matrix(0.881347 0.472469 -0.471332 0.881956 96.3711 93.9561)" fill="#FAF8F5"/>
<line y1="-0.5" x2="81.4061" y2="-0.5" transform="matrix(0.0218341 1.00031 -0.999225 0.0211423 58.7998 1.66309)" stroke="#FAF8F5"/>
<line y1="-0.5" x2="79.8854" y2="-0.5" transform="matrix(0.739055 0.6741 -0.672849 0.739366 58.416 2.38086)" stroke="#FAF8F5"/>
<line x1="117.935" y1="56.0886" x2="134.315" y2="110.196" stroke="#FAF8F5"/>
<line y1="-0.5" x2="61.0539" y2="-0.5" transform="matrix(-0.884527 0.465205 -0.465338 -0.885809 133.836 110.34)" stroke="#FAF8F5"/>
<line y1="-0.5" x2="60.055" y2="-0.5" transform="matrix(0.344534 0.939456 -0.938203 0.344232 59.8643 82.7109)" stroke="#FAF8F5"/>
<line y1="-0.5" x2="19.3791" y2="-0.5" transform="matrix(-0.733833 -0.679794 0.678541 -0.734134 75.6064 146.653)" stroke="#FAF8F5"/>
<line y1="-0.5" x2="19.3791" y2="-0.5" transform="matrix(-0.733833 -0.679794 0.678541 -0.734134 75.6064 146.653)" stroke="#FAF8F5"/>
<line y1="-0.5" x2="15.576" y2="-0.5" transform="matrix(-0.966564 0.253906 -0.254325 -0.967783 148.893 106.387)" stroke="#FAF8F5"/>
<line y1="-0.5" x2="15.7458" y2="-0.5" transform="matrix(-0.758725 0.650743 -0.650587 -0.760005 159.729 96.4697)" stroke="#FAF8F5"/>
<line y1="-0.5" x2="10.7234" y2="-0.5" transform="matrix(0.599867 -0.799858 0.799429 0.601082 75.2227 147.373)" stroke="#FAF8F5"/>
</svg>
