<svg width="107" height="136" viewBox="0 0 107 136" fill="none" xmlns="http://www.w3.org/2000/svg">
<circle cx="103.538" cy="3.81973" r="3.26114" fill="#FAF8F5"/>
<circle cx="99.4665" cy="20.9401" r="1.63057" fill="#FAF8F5"/>
<circle cx="102.723" cy="54.3668" r="2.44585" fill="#FAF8F5"/>
<circle cx="90.8995" cy="90.6476" r="2.03821" fill="#FAF8F5"/>
<circle cx="77.4565" cy="100.024" r="3.26114" fill="#FAF8F5"/>
<circle cx="65.224" cy="93.5014" r="3.26114" fill="#FAF8F5"/>
<circle cx="46.0685" cy="83.3097" r="2.03821" fill="#FAF8F5"/>
<circle cx="35.8754" cy="61.7055" r="3.26114" fill="#FAF8F5"/>
<circle cx="24.8702" cy="59.6661" r="2.03821" fill="#FAF8F5"/>
<circle cx="12.227" cy="55.182" r="3.26114" fill="#FAF8F5"/>
<circle cx="6.51895" cy="73.933" r="3.26114" fill="#FAF8F5"/>
<circle cx="29.351" cy="113.068" r="3.26114" fill="#FAF8F5"/>
<circle cx="38.7277" cy="118.367" r="2.03821" fill="#FAF8F5"/>
<circle cx="42.392" cy="128.558" r="3.26114" fill="#FAF8F5"/>
<circle cx="26.9096" cy="131.82" r="3.26114" fill="#FAF8F5"/>
<line x1="29.8444" y1="113.132" x2="27.3986" y2="131.884" stroke="#FAF8F5"/>
<line x1="6.9563" y1="73.6826" x2="29.7843" y2="112.816" stroke="#FAF8F5"/>
<line x1="0.441176" y1="61.4698" x2="6.96346" y2="73.6991" stroke="#FAF8F5"/>
<line x1="0.568337" y1="61.271" x2="11.9823" y2="54.7487" stroke="#FAF8F5"/>
<line x1="12.4181" y1="54.7184" x2="24.6474" y2="59.6101" stroke="#FAF8F5"/>
<line x1="24.5356" y1="59.5802" x2="35.9495" y2="61.2108" stroke="#FAF8F5"/>
<line x1="36.327" y1="61.4955" x2="46.1104" y2="82.693" stroke="#FAF8F5"/>
<line x1="45.8789" y1="83.2696" x2="65.4457" y2="93.053" stroke="#FAF8F5"/>
<line x1="65.478" y1="93.0732" x2="77.7072" y2="100.411" stroke="#FAF8F5"/>
<line x1="77.1658" y1="99.615" x2="91.0256" y2="89.8315" stroke="#FAF8F5"/>
<line x1="90.8341" y1="90.9071" x2="102.248" y2="54.2193" stroke="#FAF8F5"/>
<line x1="102.229" y1="54.4047" x2="99.783" y2="20.978" stroke="#FAF8F5"/>
<line x1="104.03" y1="3.93612" x2="99.9539" y2="21.0571" stroke="#FAF8F5"/>
<line x1="27.6152" y1="131.331" x2="42.2903" y2="128.07" stroke="#FAF8F5"/>
<line x1="38.7838" y1="118.583" x2="42.8602" y2="128.367" stroke="#FAF8F5"/>
<line x1="29.6006" y1="112.635" x2="39.384" y2="118.342" stroke="#FAF8F5"/>
<circle cx="52.9916" cy="67.4125" r="3.26114" fill="#FAF8F5"/>
</svg>
