<svg width="166" height="156" viewBox="0 0 166 156" fill="none" xmlns="http://www.w3.org/2000/svg">
<circle cx="119.276" cy="75.5443" r="3.26114" transform="rotate(112.604 119.276 75.5443)" fill="#FAF8F5"/>
<circle cx="139.966" cy="68.2751" r="1.63057" transform="rotate(112.604 139.966 68.2751)" fill="#FAF8F5"/>
<circle cx="113.501" cy="66.0835" r="2.44585" transform="rotate(112.604 113.501 66.0835)" fill="#FAF8F5"/>
<circle cx="102.149" cy="55.1722" r="3.26114" transform="rotate(112.604 102.149 55.1722)" fill="#FAF8F5"/>
<circle cx="70.7867" cy="45.6537" r="3.26114" transform="rotate(112.604 70.7867 45.6537)" fill="#FAF8F5"/>
<circle cx="47.4" cy="61.5238" r="3.26114" transform="rotate(112.604 47.4 61.5238)" fill="#FAF8F5"/>
<circle cx="8.90194" cy="96.7191" r="3.26114" transform="rotate(112.604 8.90194 96.7191)" fill="#FAF8F5"/>
<circle cx="12.1609" cy="80.4059" r="1.63057" transform="rotate(112.604 12.1609 80.4059)" fill="#FAF8F5"/>
<circle cx="66.4078" cy="87.9867" r="3.26114" transform="rotate(112.604 66.4078 87.9867)" fill="#FAF8F5"/>
<circle cx="51.6682" cy="80.9663" r="2.44585" transform="rotate(112.604 51.6682 80.9663)" fill="#FAF8F5"/>
<circle cx="112.772" cy="139.957" r="2.44585" transform="rotate(112.604 112.772 139.957)" fill="#FAF8F5"/>
<circle cx="119.421" cy="151.56" r="3.26114" transform="rotate(112.604 119.421 151.56)" fill="#FAF8F5"/>
<circle cx="71.8445" cy="13.4128" r="1.63057" transform="rotate(112.604 71.8445 13.4128)" fill="#FAF8F5"/>
<line x1="71.7196" y1="14.9278" x2="70.9759" y2="46.4106" stroke="#FAF8F5"/>
<line x1="102" y1="55.6552" x2="70.6404" y2="46.1315" stroke="#FAF8F5"/>
<line x1="113.573" y1="67.4736" x2="102.093" y2="54.7458" stroke="#FAF8F5"/>
<line x1="118.397" y1="74.7366" x2="113.817" y2="66.6478" stroke="#FAF8F5"/>
<line x1="119.985" y1="151.133" x2="118.773" y2="75.5627" stroke="#FAF8F5"/>
<line x1="120.061" y1="151.389" x2="112.657" y2="139.475" stroke="#FAF8F5"/>
<line x1="66.7823" y1="87.6506" x2="113.143" y2="139.628" stroke="#FAF8F5"/>
<line x1="66.4843" y1="88.4777" x2="8.97777" y2="97.2112" stroke="#FAF8F5"/>
<line x1="47.7353" y1="61.8928" x2="9.55204" y2="96.3336" stroke="#FAF8F5"/>
<line x1="70.7477" y1="46.8225" x2="47.6731" y2="61.9431" stroke="#FAF8F5"/>
</svg>
