<svg width="194" height="194" viewBox="0 0 194 194" fill="none" xmlns="http://www.w3.org/2000/svg">
<circle cx="3.26114" cy="3.26114" r="3.26114" transform="matrix(0.868374 -0.49591 0.494752 0.869034 38.4355 99.3164)" fill="#FAF8F5"/>
<circle cx="1.63057" cy="1.63057" r="1.63057" transform="matrix(0.868374 -0.49591 0.494752 0.869034 37.9961 50.7471)" fill="#FAF8F5"/>
<circle cx="2.44585" cy="2.44585" r="2.44585" transform="matrix(0.868374 -0.49591 0.494752 0.869034 67.8564 90.0254)" fill="#FAF8F5"/>
<circle cx="3.26114" cy="3.26114" r="3.26114" transform="matrix(0.868374 -0.49591 0.494752 0.869034 77.7705 84.3643)" fill="#FAF8F5"/>
<circle cx="3.26114" cy="3.26114" r="3.26114" transform="matrix(0.868374 -0.49591 0.494752 0.869034 103.22 102.691)" fill="#FAF8F5"/>
<circle cx="3.26114" cy="3.26114" r="3.26114" transform="matrix(0.868374 -0.49591 0.494752 0.869034 120.008 89.3486)" fill="#FAF8F5"/>
<circle cx="3.26114" cy="3.26114" r="3.26114" transform="matrix(0.868374 -0.49591 0.494752 0.869034 99.8398 60.4941)" fill="#FAF8F5"/>
<circle cx="2.44585" cy="2.44585" r="2.44585" transform="matrix(0.868374 -0.49591 0.494752 0.869034 98.3486 39.752)" fill="#FAF8F5"/>
<circle cx="3.26114" cy="3.26114" r="3.26114" transform="matrix(0.868374 -0.49591 0.494752 0.869034 97.0654 16.0742)" fill="#FAF8F5"/>
<circle cx="3.26114" cy="3.26114" r="3.26114" transform="matrix(0.868374 -0.49591 0.494752 0.869034 111.715 17.0967)" fill="#FAF8F5"/>
<circle cx="1.63057" cy="1.63057" r="1.63057" transform="matrix(0.868374 -0.49591 0.494752 0.869034 130.007 17.918)" fill="#FAF8F5"/>
<circle cx="3.26114" cy="3.26114" r="3.26114" transform="matrix(-0.868374 0.49591 0.494752 0.869034 160.803 121.444)" fill="#FAF8F5"/>
<circle cx="1.63057" cy="1.63057" r="1.63057" transform="matrix(-0.868374 0.49591 0.494752 0.869034 177.573 127.826)" fill="#FAF8F5"/>
<circle cx="3.26114" cy="3.26114" r="3.26114" transform="matrix(-0.868374 0.49591 0.494752 0.869034 109.245 133.049)" fill="#FAF8F5"/>
<circle cx="2.44585" cy="2.44585" r="2.44585" transform="matrix(-0.868374 0.49591 0.494752 0.869034 73.9688 135.355)" fill="#FAF8F5"/>
<circle cx="3.26114" cy="3.26114" r="3.26114" transform="matrix(-0.868374 0.49591 0.494752 0.869034 57.3936 132.615)" fill="#FAF8F5"/>
<circle cx="1.63057" cy="1.63057" r="1.63057" transform="matrix(-0.868374 0.49591 0.494752 0.869034 45.249 144.245)" fill="#FAF8F5"/>
<line y1="-0.5" x2="48.1294" y2="-0.5" transform="matrix(0.0617299 0.998621 -0.997518 0.0624787 39.915 52.4668)" stroke="#FAF8F5"/>
<line y1="-0.5" x2="30.5596" y2="-0.5" transform="matrix(-0.936372 0.350409 -0.349371 -0.937209 71.5 89.8223)" stroke="#FAF8F5"/>
<line y1="-0.5" x2="11.5299" y2="-0.5" transform="matrix(-0.929615 0.368026 -0.366973 -0.930432 82.2197 85.5781)" stroke="#FAF8F5"/>
<line y1="-0.5" x2="32.7436" y2="-0.5" transform="matrix(-0.661479 0.750508 -0.749199 -0.661729 103.873 61.0088)" stroke="#FAF8F5"/>
<line y1="-0.5" x2="31.3752" y2="-0.5" transform="matrix(-0.810999 -0.584185 0.584066 -0.812327 107.662 103.908)" stroke="#FAF8F5"/>
<line y1="-0.5" x2="36.0205" y2="-0.5" transform="matrix(-0.571339 -0.820567 0.820015 -0.572552 124.458 90.5635)" stroke="#FAF8F5"/>
<line y1="-0.5" x2="23.0597" y2="-0.5" transform="matrix(0.789678 -0.613826 0.612586 0.790167 106.25 104.714)" stroke="#FAF8F5"/>
<line y1="-0.5" x2="19.7022" y2="-0.5" transform="matrix(-0.0910703 -0.996349 0.995268 -0.0918513 103.873 61.0088)" stroke="#FAF8F5"/>
<line y1="-0.5" x2="24.0751" y2="-0.5" transform="matrix(-0.0239193 -1.00027 0.99914 -0.0246259 102.082 41.375)" stroke="#FAF8F5"/>
<line y1="-0.5" x2="15.3828" y2="-0.5" transform="matrix(0.998598 0.040056 -0.040688 0.999771 100.8 17.6973)" stroke="#FAF8F5"/>
<line y1="-0.5" x2="16.7877" y2="-0.5" transform="matrix(-0.999368 0.0114634 -0.0107717 -1.00051 132.94 18.1191)" stroke="#FAF8F5"/>
<line y1="-0.5" x2="49.8392" y2="-0.5" transform="matrix(-0.704787 -0.708944 0.70861 -0.706078 159.587 125.894)" stroke="#FAF8F5"/>
<line x1="158.6" y1="125.111" x2="176.381" y2="129.978" stroke="#FAF8F5"/>
<line y1="-0.5" x2="35.7333" y2="-0.5" transform="matrix(0.998458 -0.044715 0.0439859 0.999574 72.3428 139.102)" stroke="#FAF8F5"/>
<line y1="-0.5" x2="34.2905" y2="-0.5" transform="matrix(0.0223103 1.00031 -0.999177 0.0230151 107.259 103.201)" stroke="#FAF8F5"/>
<line y1="-0.5" x2="17.4479" y2="-0.5" transform="matrix(0.990337 0.133965 -0.134483 0.991565 55.0654 136.763)" stroke="#FAF8F5"/>
<line y1="-0.5" x2="16.0178" y2="-0.5" transform="matrix(0.713871 -0.700746 0.699458 0.714215 44.3467 147.579)" stroke="#FAF8F5"/>
</svg>
