<svg width="159" height="136" viewBox="0 0 159 136" fill="none" xmlns="http://www.w3.org/2000/svg">
<circle cx="29.5271" cy="25.6518" r="2.76114" transform="rotate(-63.0664 29.5271 25.6518)" fill="#FAF8F5" stroke="#FAF8F5"/>
<circle cx="53.3261" cy="9.40987" r="1.13057" transform="rotate(-63.0664 53.3261 9.40987)" fill="#FAF8F5" stroke="#FAF8F5"/>
<circle cx="61.5086" cy="41.9008" r="2.76114" transform="rotate(-63.0664 61.5086 41.9008)" fill="#FAF8F5" stroke="#FAF8F5"/>
<circle cx="55.0755" cy="77.9605" r="1.94585" transform="rotate(-63.0664 55.0755 77.9605)" fill="#FAF8F5" stroke="#FAF8F5"/>
<circle cx="117.716" cy="89.6645" r="2.76114" transform="rotate(-63.0664 117.716 89.6645)" fill="#FAF8F5" stroke="#FAF8F5"/>
<circle cx="120.518" cy="107.546" r="1.94585" transform="rotate(-63.0664 120.518 107.546)" fill="#FAF8F5" stroke="#FAF8F5"/>
<circle cx="109.842" cy="123.163" r="2.76114" transform="rotate(-63.0664 109.842 123.163)" fill="#FAF8F5" stroke="#FAF8F5"/>
<circle cx="119.625" cy="132.703" r="1.94585" transform="rotate(-63.0664 119.625 132.703)" fill="#FAF8F5" stroke="#FAF8F5"/>
<line x1="61.104" y1="41.1523" x2="118.039" y2="89.283" stroke="#FAF8F5"/>
<line x1="109.355" y1="123.053" x2="116.119" y2="91.7393" stroke="#FAF8F5"/>
<line x1="110.249" y1="123.91" x2="55.1252" y2="77.6143" stroke="#FAF8F5"/>
<line x1="55.3223" y1="76.4317" x2="60.2873" y2="41.4607" stroke="#FAF8F5"/>
<line x1="28.2987" y1="24.4702" x2="61.0071" y2="41.0882" stroke="#FAF8F5"/>
<line x1="53.0884" y1="8.90926" x2="61.2655" y2="41.4125" stroke="#FAF8F5"/>
<line x1="28.1649" y1="25.5835" x2="53.7924" y2="9.34074" stroke="#FAF8F5"/>
</svg>
