<svg width="167" height="174" viewBox="0 0 167 174" fill="none" xmlns="http://www.w3.org/2000/svg">
<circle cx="28.9185" cy="95.5479" r="3.26114" transform="rotate(127.713 28.9185 95.5479)" fill="#FAF8F5"/>
<circle cx="49.0767" cy="144.115" r="3.26114" transform="rotate(127.713 49.0767 144.115)" fill="#FAF8F5"/>
<circle cx="94.9353" cy="152.782" r="1.63057" transform="rotate(127.713 94.9353 152.782)" fill="#FAF8F5"/>
<circle cx="140.541" cy="45.8216" r="2.44585" transform="rotate(127.713 140.541 45.8216)" fill="#FAF8F5"/>
<circle cx="88.353" cy="24.0157" r="3.26114" transform="rotate(127.713 88.353 24.0157)" fill="#FAF8F5"/>
<circle cx="57.7907" cy="39.5491" r="2.44585" transform="rotate(127.713 57.7907 39.5491)" fill="#FAF8F5"/>
<circle cx="43.0591" cy="65.2647" r="3.26114" transform="rotate(127.713 43.0591 65.2647)" fill="#FAF8F5"/>
<line x1="140.857" y1="45.6368" x2="88.1687" y2="24.4773" stroke="#FAF8F5"/>
<line x1="89.0747" y1="23.82" x2="56.8719" y2="40.1429" stroke="#FAF8F5"/>
<line x1="57.0909" y1="39.927" x2="43.5058" y2="65.4929" stroke="#FAF8F5"/>
<line x1="43.5136" y1="65.4743" x2="29.3697" y2="95.7611" stroke="#FAF8F5"/>
<line x1="30.0238" y1="95.8627" x2="49.5379" y2="143.931" stroke="#FAF8F5"/>
<line x1="94.2002" y1="152.777" x2="48.9856" y2="144.611" stroke="#FAF8F5"/>
</svg>
