<svg width="127" height="133" viewBox="0 0 127 133" fill="none" xmlns="http://www.w3.org/2000/svg">
<circle cx="2.44585" cy="30.1646" r="2.44585" fill="#FAF8F5"/>
<circle cx="26.0932" cy="55.4398" r="3.26114" fill="#FAF8F5"/>
<circle cx="39.9506" cy="74.1908" r="3.26114" fill="#FAF8F5"/>
<circle cx="51.3599" cy="79.898" r="2.44585" fill="#FAF8F5"/>
<circle cx="55.4418" cy="89.6811" r="3.26114" fill="#FAF8F5"/>
<circle cx="64.4076" cy="80.7133" r="3.26114" fill="#FAF8F5"/>
<circle cx="67.6742" cy="89.6811" r="3.26114" fill="#FAF8F5"/>
<circle cx="63.5923" cy="114.955" r="2.44585" fill="#FAF8F5"/>
<circle cx="73.3822" cy="117.401" r="3.26114" fill="#FAF8F5"/>
<circle cx="71.7496" cy="130.446" r="2.44585" fill="#FAF8F5"/>
<circle cx="95.3913" cy="87.2351" r="1.63057" fill="#FAF8F5"/>
<circle cx="88.8725" cy="72.5609" r="3.26114" fill="#FAF8F5"/>
<circle cx="46.4672" cy="35.8725" r="3.26114" fill="#FAF8F5"/>
<circle cx="55.4418" cy="14.6752" r="3.26114" fill="#FAF8F5"/>
<circle cx="76.6412" cy="23.6431" r="2.44585" fill="#FAF8F5"/>
<circle cx="101.913" cy="55.4398" r="3.26114" fill="#FAF8F5"/>
<circle cx="121.479" cy="55.4398" r="3.26114" fill="#FAF8F5"/>
<circle cx="118.221" cy="34.2416" r="3.26114" fill="#FAF8F5"/>
<circle cx="123.922" cy="23.6431" r="2.44585" fill="#FAF8F5"/>
<circle cx="119.032" cy="13.0446" r="1.63057" fill="#FAF8F5"/>
<circle cx="106.798" cy="10.5982" r="2.44585" fill="#FAF8F5"/>
<circle cx="121.479" cy="3.26114" r="3.26114" fill="#FAF8F5"/>
<line x1="2.80969" y1="30.633" x2="26.4529" y2="55.0915" stroke="#FAF8F5"/>
<line x1="26.4919" y1="55.1423" x2="40.3518" y2="73.8938" stroke="#FAF8F5"/>
<line x1="38.6402" y1="73.28" x2="45.9777" y2="35.7769" stroke="#FAF8F5"/>
<line x1="46.015" y1="34.8572" x2="54.9831" y2="14.4751" stroke="#FAF8F5"/>
<line x1="55.6554" y1="13.4089" x2="77.6681" y2="24.0076" stroke="#FAF8F5"/>
<line x1="77.8425" y1="24.1431" x2="102.301" y2="54.3086" stroke="#FAF8F5"/>
<line x1="101.513" y1="54.0827" x2="89.2833" y2="72.8343" stroke="#FAF8F5"/>
<line x1="88.3651" y1="72.1356" x2="67.983" y2="88.4412" stroke="#FAF8F5"/>
<line x1="64.87" y1="80.5098" x2="68.1311" y2="87.8474" stroke="#FAF8F5"/>
<line x1="55.9426" y1="88.4821" x2="65.726" y2="80.3293" stroke="#FAF8F5"/>
<line x1="54.9742" y1="89.0519" x2="51.7131" y2="80.8991" stroke="#FAF8F5"/>
<line x1="39.3545" y1="73.7432" x2="52.399" y2="80.2655" stroke="#FAF8F5"/>
<line x1="46.9391" y1="34.0621" x2="64.8754" y2="80.5334" stroke="#FAF8F5"/>
<line x1="63.0982" y1="115.67" x2="68.8052" y2="87.95" stroke="#FAF8F5"/>
<line x1="62.8537" y1="115.277" x2="72.6371" y2="116.908" stroke="#FAF8F5"/>
<line x1="73.0594" y1="117.457" x2="71.4289" y2="132.132" stroke="#FAF8F5"/>
<line x1="89.3256" y1="72.3749" x2="95.8478" y2="88.6805" stroke="#FAF8F5"/>
<line x1="101.898" y1="54.9399" x2="121.465" y2="54.1246" stroke="#FAF8F5"/>
<line x1="117.072" y1="34.1298" x2="121.964" y2="55.3272" stroke="#FAF8F5"/>
<line x1="123.535" y1="23.9066" x2="117.013" y2="34.5053" stroke="#FAF8F5"/>
<line x1="118.677" y1="12.847" x2="123.569" y2="24.261" stroke="#FAF8F5"/>
<line x1="106.9" y1="10.1083" x2="119.129" y2="12.5542" stroke="#FAF8F5"/>
<line x1="120.097" y1="3.69751" x2="107.052" y2="11.0351" stroke="#FAF8F5"/>
<line x1="120.345" y1="3.34392" x2="118.714" y2="13.1273" stroke="#FAF8F5"/>
</svg>
