<svg width="149" height="117" viewBox="0 0 149 117" fill="none" xmlns="http://www.w3.org/2000/svg">
<circle cx="2.26711" cy="2.26711" r="2.26711" transform="matrix(-0.449326 0.893368 -0.892808 -0.450438 53.7041 71.1191)" fill="#FAF8F5"/>
<circle cx="2.26711" cy="2.26711" r="2.26711" transform="matrix(-0.449326 0.893368 -0.892808 -0.450438 70.374 23.2656)" fill="#FAF8F5"/>
<circle cx="2.26711" cy="2.26711" r="2.26711" transform="matrix(-0.449326 0.893368 -0.892808 -0.450438 99.6338 56.2891)" fill="#FAF8F5"/>
<circle cx="2.26711" cy="2.26711" r="2.26711" transform="matrix(-0.449326 0.893368 -0.892808 -0.450438 114.1 98.1348)" fill="#FAF8F5"/>
<circle cx="2.26711" cy="2.26711" r="2.26711" transform="matrix(-0.449326 0.893368 -0.892808 -0.450438 30.833 4.79785)" fill="#FAF8F5"/>
<circle cx="2.26711" cy="2.26711" r="2.26711" transform="matrix(0.449326 -0.893368 -0.892808 -0.450438 120.1 116.604)" fill="#FAF8F5"/>
<circle cx="1.51141" cy="1.51141" r="1.51141" transform="matrix(0.449326 -0.893368 -0.892808 -0.450438 38.7598 72.3936)" fill="#FAF8F5"/>
<circle cx="1.51141" cy="1.51141" r="1.51141" transform="matrix(0.449326 -0.893368 -0.892808 -0.450438 25.3096 18.7217)" fill="#FAF8F5"/>
<circle cx="1.51141" cy="1.51141" r="1.51141" transform="matrix(0.449326 -0.893368 -0.892808 -0.450438 48.957 13.873)" fill="#FAF8F5"/>
<line y1="-0.5" x2="20.5402" y2="-0.5" transform="matrix(-0.467547 -0.884633 0.883402 -0.467359 110.557 97.334)" stroke="#FAF8F5"/>
<line y1="-0.5" x2="15.5224" y2="-0.5" transform="matrix(-0.136985 -0.99116 0.990068 -0.136388 99.3896 74.4268)" stroke="#FAF8F5"/>
<line y1="-0.5" x2="40.5762" y2="-0.5" transform="matrix(-0.911483 -0.411207 0.410121 -0.91209 66.041 23.0547)" stroke="#FAF8F5"/>
<line y1="-0.5" x2="41.1582" y2="-0.5" transform="matrix(-0.668009 -0.74472 0.743481 -0.668126 95.8926 55.8828)" stroke="#FAF8F5"/>
<line y1="-0.5" x2="46.7255" y2="-0.5" transform="matrix(-0.99453 -0.100388 0.0995505 -0.995451 97.415 76.3916)" stroke="#FAF8F5"/>
<circle cx="3.02281" cy="3.02281" r="3.02281" transform="matrix(-0.449326 0.893368 -0.892808 -0.450438 103.72 75.624)" fill="#FAF8F5"/>
</svg>
