<svg width="169" height="175" viewBox="0 0 169 175" fill="none" xmlns="http://www.w3.org/2000/svg">
<circle cx="2.44585" cy="2.44585" r="1.94585" transform="matrix(-0.878051 0.478567 -0.477425 -0.878673 110.62 103.454)" fill="#FAF8F5" stroke="#FAF8F5"/>
<circle cx="3.26114" cy="3.26114" r="2.76114" transform="matrix(-0.878051 0.478567 -0.477425 -0.878673 85.6074 86.4453)" fill="#FAF8F5" stroke="#FAF8F5"/>
<circle cx="3.26114" cy="3.26114" r="2.76114" transform="matrix(-0.878051 0.478567 -0.477425 -0.878673 10.2773 58.793)" fill="#FAF8F5" stroke="#FAF8F5"/>
<circle cx="2.44585" cy="2.44585" r="1.94585" transform="matrix(-0.878051 0.478567 -0.477425 -0.878673 67.5479 123.216)" fill="#FAF8F5" stroke="#FAF8F5"/>
<circle cx="3.26114" cy="3.26114" r="2.76114" transform="matrix(-0.878051 0.478567 -0.477425 -0.878673 96.3262 48.1055)" fill="#FAF8F5" stroke="#FAF8F5"/>
<circle cx="1.63057" cy="1.63057" r="1.13057" transform="matrix(-0.878051 0.478567 -0.477425 -0.878673 115.807 20.7744)" fill="#FAF8F5" stroke="#FAF8F5"/>
<circle cx="3.26114" cy="3.26114" r="2.76114" transform="matrix(-0.878051 0.478567 -0.477425 -0.878673 73.0938 157.334)" fill="#FAF8F5" stroke="#FAF8F5"/>
<circle cx="2.44585" cy="2.44585" r="1.94585" transform="matrix(-0.878051 0.478567 -0.477425 -0.878673 68.1299 172.109)" fill="#FAF8F5" stroke="#FAF8F5"/>
<line y1="-0.5" x2="31.7543" y2="-0.5" transform="matrix(-0.845097 -0.533576 0.533591 -0.846397 108.025 102.082)" stroke="#FAF8F5"/>
<line y1="-0.5" x2="40.2804" y2="-0.5" transform="matrix(0.430647 -0.903205 0.901915 0.430479 63.8398 121.521)" stroke="#FAF8F5"/>
<line y1="-0.5" x2="35.5935" y2="-0.5" transform="matrix(-0.146678 -0.989609 0.988632 -0.147538 69.0586 156.748)" stroke="#FAF8F5"/>
<line y1="-0.5" x2="81.451" y2="-0.5" transform="matrix(-0.938474 -0.343477 0.343765 -0.939743 82.2881 85.4678)" stroke="#FAF8F5"/>
<line y1="-0.5" x2="39.7822" y2="-0.5" transform="matrix(-0.269367 0.963713 -0.96247 -0.26898 92.2979 47.5156)" stroke="#FAF8F5"/>
<line y1="-0.5" x2="33.6151" y2="-0.5" transform="matrix(-0.623975 0.78204 -0.780745 -0.624105 112.877 20.5137)" stroke="#FAF8F5"/>
<line y1="-0.5" x2="13.3717" y2="-0.5" transform="matrix(0.156939 -0.988245 0.987055 0.156412 66.5732 169.244)" stroke="#FAF8F5"/>
</svg>
