<svg width="148" height="161" viewBox="0 0 148 161" fill="none" xmlns="http://www.w3.org/2000/svg">
<circle cx="143.984" cy="49.7056" r="2.89285" transform="rotate(33.6584 143.984 49.7056)" fill="#FAF8F5"/>
<circle cx="80.6024" cy="56.1597" r="2.89285" transform="rotate(33.6584 80.6024 56.1597)" fill="#FAF8F5"/>
<circle cx="47.3211" cy="87.8706" r="2.89285" transform="rotate(33.6584 47.3211 87.8706)" fill="#FAF8F5"/>
<circle cx="26.4588" cy="77.4526" r="2.89285" transform="rotate(33.6584 26.4588 77.4526)" fill="#FAF8F5"/>
<circle cx="8.82994" cy="114.373" r="2.89285" transform="rotate(33.6584 8.82994 114.373)" fill="#FAF8F5"/>
<circle cx="37.3211" cy="126.388" r="2.89285" transform="rotate(33.6584 37.3211 126.388)" fill="#FAF8F5"/>
<line x1="144.04" y1="50.2045" x2="80.6592" y2="56.6581" stroke="#FAF8F5"/>
<line x1="80.9523" y1="56.5231" x2="47.6731" y2="88.2336" stroke="#FAF8F5"/>
<line x1="47.1028" y1="88.3194" x2="26.2364" y2="77.9006" stroke="#FAF8F5"/>
<line x1="37.126" y1="126.847" x2="8.63654" y2="114.828" stroke="#FAF8F5"/>
<line x1="36.8364" y1="126.261" x2="46.8443" y2="87.7435" stroke="#FAF8F5"/>
<line x1="8.37596" y1="114.154" x2="26.0069" y2="77.2367" stroke="#FAF8F5"/>
</svg>
