<svg width="157" height="107" viewBox="0 0 157 107" fill="none" xmlns="http://www.w3.org/2000/svg">
<path d="M5.63127 97.6269C4.06538 97.202 2.73179 96.1737 1.92276 94.7673C1.11374 93.3608 0.895287 91.6909 1.31525 90.1236L23.9659 5.59041C24.3744 4.06077 25.3587 2.7485 26.7129 1.92831C28.0671 1.10812 29.6861 0.843634 31.2309 1.19027C56.8144 6.83443 83.1987 7.87621 109.148 4.26683C114.789 3.48352 120.458 2.47065 125.988 1.25656C126.941 1.04767 127.93 1.07097 128.872 1.32458C129.911 1.60485 130.859 2.15272 131.621 2.91358C132.382 3.67444 132.931 4.62168 133.212 5.66078L155.825 90.0597C156.04 90.8541 156.092 91.6838 155.978 92.4988C155.864 93.3138 155.586 94.0974 155.162 94.8025C154.742 95.5075 154.184 96.1203 153.521 96.604C152.858 97.0877 152.104 97.4323 151.305 97.6171C127.803 103.115 103.755 105.938 79.6186 106.031C54.7788 106.106 30.0141 103.299 5.82155 97.6646L5.62212 97.6112M5.3716 98.5462L5.60222 98.608C53.6001 109.814 103.536 109.797 151.527 98.5585C152.452 98.3408 153.325 97.9394 154.092 97.378C154.86 96.8167 155.506 96.1069 155.994 95.2907C156.482 94.4746 156.801 93.5688 156.932 92.6271C157.063 91.6853 157.004 90.7268 156.757 89.8085L134.144 5.40957C133.822 4.20559 133.188 3.10777 132.306 2.22655C131.425 1.34532 130.327 0.711774 129.123 0.389585C128.032 0.0973599 126.886 0.0711067 125.783 0.313062C120.246 1.52181 114.652 2.51835 109.002 3.30255C83.1665 6.90161 56.8964 5.86455 31.4253 0.240223C29.6372 -0.159573 27.7638 0.147638 26.1969 1.09748C24.63 2.04733 23.4911 3.56624 23.0184 5.33655L0.367815 89.8698C-0.118591 91.685 0.134643 93.6191 1.07202 95.2479C2.0094 96.8767 3.55441 98.0672 5.36827 98.5586L5.3716 98.5462Z" fill="#FAF8F5"/>
<path d="M54.2992 62.7247L54.0504 62.2878C53.8375 61.914 53.9509 61.5124 54.0221 61.2893C54.0568 61.1808 54.0892 61.0911 54.1184 61.0104C54.169 60.8702 54.2098 60.7572 54.2359 60.6195L54.2389 60.6034L54.243 60.5876C55.9908 53.807 57.7434 47.0254 59.5007 40.2428L59.5048 40.2271L59.5098 40.2117C59.6669 39.7353 59.7895 39.2483 59.8768 38.7544C59.9309 38.0826 59.7425 37.4133 59.3454 36.868C58.9443 36.3172 58.3574 35.9302 57.6931 35.7786L57.6835 35.7764L57.6836 35.7763C56.8983 35.5809 56.25 35.6553 55.7421 35.9287C55.2347 36.2019 54.8054 36.7069 54.5212 37.4902C54.4116 37.8145 54.3357 38.1258 54.2548 38.4575C54.2116 38.6345 54.1671 38.8172 54.1152 39.0108M54.2992 62.7247L53.6318 38.8831M54.2992 62.7247L54.7347 62.4735L85.2989 44.845L85.7319 44.5952L85.4823 44.1622C84.6808 42.7717 83.8279 41.2954 82.9518 39.7791C82.0602 38.2359 81.1446 36.6511 80.2349 35.0731L80.2301 35.0647L80.2249 35.0565C79.8363 34.4392 79.4984 33.7916 79.2144 33.1197M54.2992 62.7247L79.2144 33.1197M54.1152 39.0108C54.1151 39.0114 54.1149 39.012 54.1147 39.0126L53.6318 38.8831M54.1152 39.0108C54.1154 39.0103 54.1155 39.0097 54.1156 39.0092L53.6318 38.8831M54.1152 39.0108C53.529 41.2608 52.944 43.5113 52.3589 45.7619C50.838 51.6127 49.3168 57.4645 47.7745 63.3102M53.6318 38.8831C53.0454 41.1338 52.4602 43.3849 51.8751 45.6359C50.3536 51.4888 48.8321 57.3417 47.2894 63.1889M47.7745 63.3102C47.775 63.3081 47.7756 63.3059 47.7761 63.3038L47.2894 63.1889M47.7745 63.3102C47.3505 65.1054 46.8361 66.8781 46.2333 68.6214L46.2309 68.6283L46.2283 68.6351C46.0794 69.0283 46.0211 69.45 46.0578 69.8688C46.0945 70.2877 46.2252 70.6929 46.4402 71.0541C46.6553 71.4154 46.949 71.7235 47.2996 71.9555C47.6502 72.1874 48.0487 72.3373 48.4653 72.3938L48.4981 72.3983L48.53 72.407C53.1804 73.6798 55.4312 74.2829 62.8536 76.0415L62.8662 76.0444L62.8662 76.0446C68.4595 77.5233 73.8711 79.0904 79.341 80.6763L79.3538 80.68L79.3538 80.6802C79.9357 80.8658 80.5659 80.8276 81.1211 80.573C81.6763 80.3184 82.1166 79.8657 82.3557 79.3036L82.3609 79.2914L82.361 79.2915C82.7087 78.5306 82.7705 77.89 82.6208 77.3328C82.4699 76.7711 82.0856 76.2256 81.4126 75.6937L81.41 75.6917C80.8581 75.2496 80.2399 75.0855 79.4897 74.8864C79.429 74.8703 79.3675 74.854 79.305 74.8372C77.7174 74.4118 76.1269 73.989 74.535 73.5658C71.3467 72.7182 68.153 71.8691 64.9661 70.9951M47.7745 63.3102C47.774 63.3123 47.7734 63.3144 47.7729 63.3164L47.2894 63.1889M47.2894 63.1889L64.9661 70.9951M64.9661 70.9951C63.3181 70.5442 61.679 70.0521 60.0141 69.5522C59.2801 69.3319 58.5411 69.11 57.7941 68.8895L56.6763 68.5595L57.6857 67.9769L88.5584 50.1571L89.1087 49.8395L89.288 50.449C89.4865 51.1238 89.7371 51.7821 90.0376 52.418C91.0792 54.2722 92.145 56.1108 93.2125 57.9523C93.7843 58.9386 94.3566 59.9258 94.9259 60.9167C95.5418 61.9879 96.1743 62.6932 97.2953 62.7259L97.2974 62.7259C99.5063 62.7998 100.949 60.7032 100.007 58.5511L64.9661 70.9951ZM79.2144 33.1197C78.9295 32.3482 78.9263 31.657 79.135 31.09C79.3436 30.5234 79.7813 30.0321 80.4685 29.6894C81.1969 29.3262 81.8655 29.1926 82.4487 29.3166C83.0163 29.4374 83.5901 29.8209 84.105 30.6756C85.6266 33.2018 87.0898 35.7632 88.5518 38.3226C89.1615 39.3899 89.771 40.4569 90.3845 41.5208L90.5011 41.7231L90.7311 41.7635C91.2946 41.8624 91.7432 41.7097 92.1065 41.5072C92.2809 41.41 92.4414 41.298 92.578 41.2025L92.5809 41.2005C92.7234 41.1009 92.8397 41.0196 92.9564 40.9533L92.957 40.953C96.9294 38.6893 100.891 36.4092 104.841 34.1128M79.2144 33.1197L100.006 58.5505C99.6127 57.6546 99.1087 56.8268 98.5853 55.9672C98.3582 55.5942 98.1274 55.2152 97.9004 54.8221L97.9 54.8214C96.9671 53.1993 96.0325 51.5784 95.0856 49.9363C94.6219 49.132 94.1552 48.3227 93.6844 47.5056L93.4341 47.0713L93.869 46.8221C94.2664 46.5945 94.6619 46.3679 95.0558 46.1423C98.7149 44.0462 102.234 42.0306 105.748 40.011L105.758 40.0053L105.768 40.0001C106.559 39.592 107.326 39.1369 108.063 38.6373M104.841 34.1128C104.841 34.1129 104.84 34.113 104.84 34.1131L104.589 33.6805L104.841 34.1128ZM104.841 34.1128C105.898 33.4999 106.797 33.2503 107.759 33.8101L107.759 33.8101C108.735 34.3776 109.239 35.2624 109.295 36.1497C109.35 37.0331 108.964 37.9632 108.063 38.6373M108.063 38.6373C108.066 38.6352 108.069 38.6331 108.072 38.631L108.353 39.0448M108.063 38.6373C108.06 38.6394 108.057 38.6415 108.054 38.6436L108.353 39.0448M108.353 39.0448C110.426 37.5026 110.236 34.6723 108.011 33.378L98.3335 54.5721C97.4008 52.9505 96.4664 51.3299 95.5199 49.6884C95.1379 49.0259 94.7539 48.36 94.3672 47.6892C94.3669 47.6894 94.3665 47.6896 94.3661 47.6898L94.1176 47.256C94.1177 47.2559 94.1179 47.2558 94.118 47.2557L94.5508 47.0063C94.551 47.0067 94.5512 47.0071 94.5514 47.0074C94.8008 46.8646 95.0494 46.7222 95.2974 46.5801C98.9589 44.4826 102.48 42.4655 105.997 40.4445C106.81 40.0255 107.596 39.5581 108.353 39.0448Z" stroke="#FAF8F5"/>
</svg>
