<svg width="157" height="107" viewBox="0 0 157 107" fill="none" xmlns="http://www.w3.org/2000/svg">
<g filter="url(#filter0_b_1060_112247)">
<path d="M155.693 93.1838C155.408 94.2553 154.837 95.2293 154.042 96.0021C153.246 96.7748 152.256 97.3174 151.177 97.572C127.674 103.069 103.626 105.891 79.4888 105.984C54.6481 106.058 29.8826 103.252 5.68852 97.62C4.89003 97.4367 4.13708 97.0933 3.47522 96.6105C2.81336 96.1277 2.25634 95.5156 1.838 94.8112C1.41191 94.1059 1.13329 93.3215 1.01894 92.5054C0.904598 91.6894 0.95689 90.8586 1.17272 90.0634L23.8217 5.53632C24.23 4.00724 25.2139 2.69531 26.5674 1.87508C27.921 1.05485 29.5393 0.789881 31.0838 1.1356C56.668 6.78073 83.0534 7.82298 109.003 4.21349C114.644 3.4303 120.317 2.4183 125.858 1.2108C127.397 0.876588 129.005 1.14711 130.35 1.96632C131.694 2.78553 132.672 4.09062 133.08 5.61112L155.696 90.0078C155.975 91.0462 155.975 92.1396 155.698 93.1784M156.633 93.4289C156.955 92.2252 156.955 90.9579 156.632 89.7543L134.017 5.35764C133.544 3.59614 132.412 2.08407 130.855 1.13502C129.297 0.185961 127.434 -0.127229 125.652 0.260351C120.117 1.46952 114.523 2.46688 108.87 3.25247C83.0352 6.84412 56.7671 5.80066 31.2988 0.17107C29.5106 -0.228746 27.6372 0.0783852 26.0703 1.02817C24.5033 1.97796 23.3644 3.49683 22.8917 5.26707L0.242732 89.7941C-0.00382072 90.7125 -0.0633167 91.6711 0.06776 92.613C0.198837 93.5548 0.517867 94.4607 1.00582 95.2769C1.49378 96.0931 2.14071 96.8029 2.9083 97.3643C3.67589 97.9256 4.54849 98.327 5.47421 98.5446C53.4723 109.751 103.408 109.736 151.399 98.5001C152.65 98.2064 153.798 97.5788 154.72 96.684C155.642 95.7893 156.304 94.661 156.636 93.4195L156.633 93.4289Z" fill="white"/>
</g>
<path d="M78.1912 74.651L78.1912 74.6511C78.1412 75.9776 77.9845 76.9901 77.3792 77.6796C76.7653 78.3789 75.7944 78.6321 74.4841 78.7717C74.3941 78.7814 74.3038 78.7912 74.2132 78.8011C72.4649 78.991 70.6136 79.1921 68.7078 78.6818M78.1912 74.651L67.0359 40.7089L66.5364 40.687C66.5364 40.6871 66.5364 40.6872 66.5364 40.6873C66.1773 48.8837 65.8825 57.082 65.5876 65.279C65.4798 68.2772 65.372 71.2752 65.261 74.2728M78.1912 74.651L79.7122 33.9927L79.7123 33.9918M78.1912 74.651L79.7123 33.9918M68.7078 78.6818C68.7074 78.6816 68.7069 78.6815 68.7064 78.6814L68.8358 78.1984L68.7095 78.6822C68.709 78.6821 68.7084 78.6819 68.7078 78.6818ZM68.7078 78.6818C67.4979 78.3659 66.5667 77.9838 65.9777 77.2663C65.3783 76.5361 65.2132 75.5603 65.261 74.2728M65.261 74.2728L65.7406 74.2906L65.261 74.2728C65.261 74.2728 65.261 74.2728 65.261 74.2728ZM44.578 31.031C45.1976 30.6404 45.7927 30.2122 46.3601 29.7489L46.3721 29.7391L46.3847 29.73C47.7067 28.7809 49.1664 28.0369 51.1962 28.0694L52.279 28.0867L51.5635 28.8997C49.7284 30.9847 48.1088 33.2499 46.7295 35.6607C43.3659 41.7122 41.6657 48.5468 41.802 55.4689L41.8021 55.4713C41.871 60.0675 42.7155 64.3929 45.1321 68.2583C47.3206 71.7582 50.4341 73.7567 54.6608 73.9058L54.6609 73.9058C55.3597 73.9307 56.0116 73.7626 56.6968 73.5261C56.8903 73.4593 57.0917 73.3848 57.2989 73.3081C57.7967 73.124 58.3276 72.9276 58.8602 72.797L59.2218 72.7084L59.4104 73.0293C59.7042 73.5294 59.7486 74.0219 59.7315 74.454C59.7244 74.6337 59.706 74.813 59.6896 74.9729C59.6869 74.9993 59.6842 75.0252 59.6817 75.0505C59.6629 75.2368 59.6494 75.3974 59.6515 75.5497L59.6516 75.5505C59.6932 78.8895 61.1375 81.4509 64.0438 82.8561L64.0445 82.8564C69.1776 85.3485 74.4639 85.1631 79.6528 82.8683L79.6528 82.8682C80.1803 82.6351 80.6328 82.5199 81.1035 82.5511C81.5635 82.5815 81.9875 82.7495 82.4528 82.9716L82.4539 82.9721C88.2743 85.7686 94.0092 86.5044 99.6162 82.6876L99.6164 82.6875C99.9885 82.4344 100.405 82.1827 100.888 82.1562C101.399 82.128 101.869 82.3534 102.354 82.7675L102.355 82.7679C104.42 84.5353 106.785 85.2919 109.456 84.4536L109.467 84.4501L109.467 84.4502C111.029 83.9997 112.533 83.371 113.951 82.5766C114.841 82.0409 115.385 81.4105 115.628 80.7652C115.867 80.1284 115.833 79.423 115.465 78.6785C114.773 77.2789 113.056 76.754 111.249 77.7042C110.626 78.0318 109.971 78.3104 109.339 78.5788C109.065 78.6955 108.795 78.8102 108.534 78.9263L108.533 78.9268C108.027 79.1501 107.55 79.2008 107.092 79.0982C106.647 78.9986 106.263 78.7636 105.921 78.4894C105.249 77.9622 104.77 77.3585 104.474 76.65C104.178 75.9443 104.076 75.1645 104.112 74.3023C104.531 64.0264 104.912 53.7403 105.292 43.453C105.413 40.1795 105.534 36.9059 105.656 33.6325L105.657 33.6185L105.658 33.6045C105.706 33.098 105.721 32.589 105.704 32.0805C105.656 31.4436 105.38 30.8453 104.925 30.3959C104.469 29.9443 103.864 29.6739 103.223 29.6348L103.215 29.6343L103.215 29.6342C102.385 29.5698 101.719 29.7469 101.234 30.0931C100.755 30.435 100.407 30.9746 100.262 31.7293C100.166 32.3776 100.12 33.0324 100.125 33.6877L100.125 33.699L100.124 33.7104C100.001 36.9651 99.8744 40.2182 99.7473 43.4706C99.357 53.4625 98.9669 63.4476 98.6971 73.4526L44.578 31.031ZM44.578 31.031C44.0771 31.3151 43.4955 31.4239 42.9255 31.3398C42.3522 31.2552 41.824 30.9805 41.4256 30.5597L41.4138 30.5472L41.4012 30.5355C40.9493 30.1196 40.6562 29.5594 40.5722 28.9509C40.4881 28.3425 40.6183 27.7238 40.9405 27.2009L40.9457 27.1925L40.9506 27.1839C41.2745 26.6084 41.7602 26.2296 42.344 25.7744C42.4776 25.6702 42.6162 25.5621 42.7592 25.4467L42.7597 25.4463C45.3625 23.3411 48.4361 22.4823 51.7295 22.2916C53.0945 22.2144 54.5332 22.5943 55.9414 23.1091C56.4345 23.3129 56.9722 23.3852 57.5017 23.3188C58.0301 23.2525 58.532 23.0505 58.9589 22.7325C64.0205 19.3789 69.6931 18.762 75.6466 19.3666L75.6482 19.3668C76.4343 19.4442 77.0042 19.7532 77.3703 20.203C77.7388 20.6558 77.9425 21.3025 77.8947 22.1282C77.8478 22.9372 77.5371 23.5963 77.0637 24.0438C76.5933 24.4884 75.9357 24.7497 75.1396 24.7206C72.9926 24.5855 70.8376 24.6522 68.7031 24.9199L68.703 24.9198L68.6911 24.9215C66.6849 25.2223 64.7457 25.8668 62.9586 26.8267L63.1952 27.2672L44.578 31.031ZM79.7123 33.9918C79.7173 33.8505 79.7212 33.7129 79.7251 33.5775C79.7343 33.2571 79.7431 32.9497 79.765 32.6371L79.765 32.6364M79.7123 33.9918L79.765 32.6364M79.765 32.6364C79.9105 30.5166 81.1825 29.2848 82.6894 29.3482C84.1997 29.4117 85.3643 30.7389 85.2867 32.8343L85.2867 32.8346M79.765 32.6364L85.2867 32.8346M85.2867 32.8346C84.7921 46.3904 84.2865 59.9499 83.7699 73.5131L83.7699 73.5136M85.2867 32.8346L83.7699 73.5136M83.7699 73.5136C83.7021 75.3416 83.9499 76.7405 84.7917 77.7262C85.6345 78.7131 86.9751 79.1719 88.7944 79.375L88.7962 79.3752M83.7699 73.5136L88.7962 79.3752M88.7962 79.3752C88.9802 79.395 89.167 79.4165 89.3562 79.4383C90.7542 79.5992 92.2834 79.7751 93.748 79.4228L93.7493 79.4225M88.7962 79.3752L93.7493 79.4225M93.7493 79.4225C96.332 78.7941 98.6161 76.5313 98.6971 73.4529L93.7493 79.4225ZM60.6445 49.6906L60.6445 49.6902C60.6795 48.7483 60.7139 47.8069 60.7483 46.8658C60.8419 44.3063 60.9354 41.7492 61.0402 39.1893L61.0403 39.1868C61.1255 36.8089 60.5305 34.456 59.3252 32.4044C59.1212 32.0445 58.92 31.7383 58.7059 31.5139C58.4886 31.2861 58.2154 31.0984 57.8705 31.0725C57.5307 31.047 57.2307 31.1871 56.9769 31.3685C56.7228 31.5501 56.4613 31.8117 56.1835 32.1239C52.1758 36.6256 49.3736 41.7716 48.0812 47.7097L48.0811 47.71C46.9717 52.8218 46.8635 57.954 48.7799 62.9927C49.5727 65.0802 50.7505 66.9511 53.0372 67.9825L53.038 67.9829C53.5701 68.2218 54.0906 68.3569 54.6129 68.3102C55.1447 68.2627 55.62 68.0322 56.0675 67.6459L56.0684 67.6451C58.2968 65.7112 60.0308 63.354 60.2286 60.2039C60.3825 57.7759 60.4595 55.3367 60.5362 52.908C60.5702 51.8328 60.604 50.7597 60.6445 49.6906Z" stroke="#FAF8F5"/>
<defs>
<filter id="filter0_b_1060_112247" x="-42" y="-42" width="240.875" height="190.938" filterUnits="userSpaceOnUse" color-interpolation-filters="sRGB">
<feFlood flood-opacity="0" result="BackgroundImageFix"/>
<feGaussianBlur in="BackgroundImageFix" stdDeviation="21"/>
<feComposite in2="SourceAlpha" operator="in" result="effect1_backgroundBlur_1060_112247"/>
<feBlend mode="normal" in="SourceGraphic" in2="effect1_backgroundBlur_1060_112247" result="shape"/>
</filter>
</defs>
</svg>
