<svg width="157" height="107" viewBox="0 0 157 107" fill="none" xmlns="http://www.w3.org/2000/svg">
<path d="M25.3694 2.77009C26.093 2.04058 26.9891 1.50565 27.9747 1.21491C28.9602 0.924171 30.0032 0.887031 31.007 1.10696C46.5846 4.49197 62.4804 6.19641 78.4215 6.19103C94.362 6.19699 110.257 4.49233 125.834 1.10637C127.379 0.769939 128.995 1.04384 130.343 1.87084C131.691 2.69784 132.668 4.01398 133.068 5.54409L155.666 89.8784C155.943 90.9202 155.943 92.0165 155.664 93.0578C155.385 94.0992 154.837 95.0491 154.076 95.8126C153.269 96.6199 152.252 97.1837 151.14 97.4392C127.288 102.926 102.893 105.697 78.4187 105.697C53.9435 105.696 29.5471 102.924 5.69531 97.4344C4.8964 97.2528 4.14264 96.9107 3.47984 96.4291C2.81704 95.9475 2.25903 95.3363 1.83952 94.6325C1.41262 93.9267 1.13325 93.1416 1.01834 92.3248C0.903426 91.508 0.955376 90.6764 1.17097 89.8802L23.7678 5.54442C24.0482 4.49716 24.5989 3.54198 25.3648 2.77466M24.6804 2.09019C23.7947 2.97944 23.1596 4.0868 22.8392 5.30027L0.242375 89.6269C-0.0042184 90.5462 -0.0634169 91.5057 0.0683039 92.4483C0.200025 93.391 0.519996 94.2975 1.00914 95.114C1.49829 95.9305 2.1466 96.6403 2.9156 97.2011C3.6846 97.762 4.55855 98.1625 5.48545 98.3788C53.4844 109.425 103.365 109.425 151.363 98.3792C152.651 98.0851 153.829 97.4335 154.763 96.4993C155.647 95.6183 156.283 94.5198 156.607 93.3145C156.931 92.1092 156.931 90.8398 156.608 89.6342L134.011 5.29997C133.54 3.53292 132.408 2.01443 130.849 1.05917C129.29 0.103913 127.423 -0.214897 125.635 0.168697C110.127 3.54418 94.3 5.24116 78.4283 5.23047C62.5525 5.24152 46.7217 3.54164 31.21 0.160159C30.0476 -0.0910273 28.8407 -0.0461777 27.7002 0.29066C26.5597 0.627497 25.5221 1.24551 24.6826 2.08791L24.6804 2.09019Z" fill="#FAF8F5"/>
<path d="M77.8103 36.6L77.4429 36.0855C75.4756 33.3305 73.219 31.3249 70.6292 30.1294C68.0427 28.9354 65.0913 28.5343 61.7064 29.0385C54.532 30.1099 49.4486 36.2198 49.0154 43.0606L49.0153 43.0617C48.7828 46.6097 49.8011 50.127 51.8932 53.002C53.9849 55.8764 57.0177 57.9271 60.4644 58.7975C61.2967 58.9998 61.9846 58.9253 62.5231 58.6472C63.0609 58.3695 63.5088 57.8583 63.8052 57.0753C64.0985 56.3006 64.0863 55.61 63.8439 55.0431C63.6011 54.4755 63.1023 53.9731 62.3126 53.6239C61.9937 53.4845 61.66 53.368 61.3037 53.2436C61.2675 53.2309 61.2311 53.2182 61.1944 53.2054C60.8044 53.0689 60.3907 52.9207 59.9913 52.7295L59.9892 52.7285C55.8016 50.7008 53.5291 45.6516 54.9863 41.2123C55.705 39.0226 57.0418 37.151 58.9263 35.9271C60.8142 34.7009 63.2192 34.1461 66.0319 34.5374L66.0321 34.5374C68.1525 34.8334 70.1323 36.0603 71.5787 37.7381C73.0257 39.4167 73.9723 41.5852 73.9785 43.8104C73.9925 48.0347 73.9645 52.2628 73.9366 56.4881C73.9233 58.4929 73.91 60.4971 73.9013 62.4999L73.9013 62.4999L73.8194 80.7292L73.8194 80.7299C73.815 81.474 73.8831 82.0264 74.3133 82.5164C75.1689 83.4889 76.1298 83.7877 77.215 83.5304C77.9556 83.3546 78.4418 83.0171 78.7616 82.5856C79.0874 82.146 79.271 81.567 79.3256 80.8641L79.3256 80.8638C79.4913 78.7436 79.586 76.6179 79.6812 74.4837C79.7113 73.8077 79.7415 73.131 79.7739 72.4532C79.8549 70.7421 79.9201 69.0252 79.9854 67.3057C80.1308 63.4772 80.2766 59.6355 80.5984 55.8143M77.8103 36.6L81.0967 55.8563M77.8103 36.6L78.2263 36.1239C79.8297 34.2885 81.4402 32.6101 83.5443 31.446C91.1543 27.247 100.819 30.3381 104.597 38.0014M77.8103 36.6L104.597 38.0014M80.5984 55.8143L81.0967 55.8563M80.5984 55.8143C80.5984 55.8146 80.5984 55.8149 80.5983 55.8152L81.0967 55.8563M80.5984 55.8143C80.7594 53.8609 80.8509 51.8982 80.9373 49.9261C80.9445 49.7613 80.9517 49.5964 80.9589 49.4314C81.0376 47.6253 81.1166 45.8114 81.2457 44.0028M81.0967 55.8563C81.2721 53.7279 81.3653 51.5908 81.4584 49.4541C81.5371 47.6466 81.6158 45.8395 81.7444 44.0381M81.2457 44.0028L81.7444 44.0381M81.2457 44.0028C81.4134 41.631 82.7891 39.3072 84.6764 37.6477C86.5638 35.9881 89.036 34.9296 91.4632 35.1955L91.4638 35.1955C93.5281 35.4241 95.2704 36.0287 96.6946 37.0722C98.1203 38.117 99.1948 39.5779 99.9602 41.4664C100.733 43.3724 100.872 45.1846 100.465 46.8955C100.058 48.6007 99.1167 50.1708 97.781 51.6148M81.2457 44.0028C81.2457 44.0027 81.2457 44.0026 81.2457 44.0025L81.7444 44.0381M81.7444 44.0381L97.781 51.6148M97.781 51.6148L97.414 51.2753L97.7811 51.6147C97.7811 51.6147 97.7811 51.6148 97.781 51.6148ZM104.597 38.0014C108.652 46.2308 104.582 55.4574 97.531 58.5401L97.5294 58.5408C96.2587 59.1017 95.1012 59.5922 93.8032 59.7642L104.597 38.0014Z" stroke="#FAF8F5"/>
</svg>
