<svg width="157" height="107" viewBox="0 0 157 107" fill="none" xmlns="http://www.w3.org/2000/svg">
<path d="M131.481 2.77922C132.247 3.54653 132.797 4.50169 133.078 5.54895L155.672 89.8824C155.892 90.6795 155.946 91.5129 155.833 92.3319C155.72 93.1508 155.442 93.9382 155.015 94.6462C154.596 95.35 154.038 95.9612 153.375 96.4428C152.712 96.9244 151.958 97.2664 151.159 97.448C127.308 102.938 102.911 105.71 78.4359 105.711C53.9617 105.71 29.5662 102.94 5.71512 97.4529C4.60294 97.1974 3.5853 96.6336 2.77884 95.8262C2.01713 95.0626 1.46918 94.1124 1.18974 93.0707C0.910301 92.0289 0.909167 90.9321 1.18645 89.8898L23.7864 5.55779C24.187 4.02768 25.1635 2.71154 26.5117 1.88454C27.86 1.05753 29.4757 0.783637 31.0211 1.12007C46.5944 4.50138 62.4855 6.20219 78.4218 6.1933C94.3629 6.19868 110.259 4.49424 125.836 1.10923C126.84 0.889304 127.883 0.926444 128.869 1.21718C129.854 1.50792 130.75 2.04286 131.474 2.77237M132.158 2.0879C131.319 1.2455 130.281 0.627514 129.141 0.290677C128 -0.0461608 126.793 -0.091038 125.631 0.160148C110.122 3.53944 94.2944 5.23787 78.4218 5.22597C62.5501 5.23667 46.7235 3.53961 31.2151 0.164125C29.4272 -0.21947 27.5603 0.0993962 26.0011 1.05465C24.4419 2.00991 23.3098 3.52835 22.8395 5.2954L0.241909 89.6297C-0.0811417 90.8352 -0.080627 92.1046 0.243402 93.3099C0.567432 94.5152 1.20351 95.6137 2.08752 96.4947C3.02108 97.4289 4.19945 98.0805 5.48698 98.3746C53.4847 109.419 103.364 109.418 151.362 98.372C152.289 98.1557 153.163 97.7552 153.932 97.1943C154.701 96.6334 155.35 95.9237 155.839 95.1072C156.328 94.2907 156.648 93.3841 156.78 92.4415C156.911 91.4988 156.852 90.5393 156.605 89.62L134.011 5.28653C133.69 4.07306 133.055 2.96573 132.17 2.07648L132.158 2.0879Z" fill="#FAF8F5"/>
<path d="M60.6702 39.4877L60.5246 39.9661C67.963 42.2302 71.154 49.6605 68.4718 56.3372C66.4676 61.311 60.8148 64.3803 55.2497 63.3648L55.249 63.3646C52.651 62.8944 50.2846 61.5701 48.525 59.6019C46.7654 57.6337 45.7134 55.1342 45.5359 52.5L45.5356 52.4959C45.342 49.9381 45.9614 47.3845 47.3056 45.1996C52.8866 36.2564 60.7732 30.4886 70.9879 27.8799L70.9881 27.8799C75.1326 26.8196 79.4148 26.3998 83.6862 26.6351L83.6864 26.6351C92.4984 27.1164 100.416 29.6916 106.647 36.2005L106.649 36.2029C108.149 37.7493 109.416 39.5062 110.41 41.4181C110.488 41.5707 110.53 41.6862 110.548 41.7702C110.556 41.8109 110.558 41.839 110.557 41.8568C110.557 41.8739 110.554 41.8808 110.554 41.8813L110.554 41.8819C110.554 41.8819 110.553 41.8828 110.552 41.8847C110.549 41.8882 110.539 41.8987 110.517 41.9136C110.468 41.9457 110.372 41.9889 110.201 42.0252L110.175 42.0308L110.149 42.0391C110.056 42.0695 109.966 42.1078 109.88 42.1535C109.501 42.3111 109.125 42.4984 108.764 42.6841C108.683 42.7257 108.603 42.7671 108.523 42.8081C108.235 42.9571 107.955 43.1015 107.674 43.2342C106.953 43.5751 106.312 43.7938 105.714 43.7693L105.712 43.7693C105.2 43.7501 104.852 43.4109 104.462 42.7407C104.344 42.5389 104.242 42.3423 104.133 42.1339C104.056 41.9859 103.975 41.8319 103.884 41.6659C103.68 41.2939 103.443 40.9037 103.141 40.576C99.8514 37.0127 95.8565 34.4864 91.174 33.3678L91.1733 33.3676C82.1023 31.2141 73.2142 31.7699 64.7595 36.1356C63.1682 36.9389 61.6839 37.9386 60.3413 39.1111L60.6702 39.4877ZM63.8213 51.7819L63.8259 51.7774L63.8279 51.5733C63.8363 50.7338 63.6777 49.9011 63.3612 49.1236C63.0447 48.346 62.5768 47.6392 61.9846 47.0442C61.3924 46.4492 60.6878 45.978 59.9117 45.6579C59.1356 45.3378 58.3036 45.1753 57.4642 45.1798L57.4612 45.1798C53.9638 45.2194 51.0513 48.1192 51.0736 51.5763V51.5765C51.0982 55.1117 53.9751 58.0551 57.4552 58.0551C60.8691 58.055 63.6961 55.1375 63.8213 51.7819Z" stroke="#FAF8F5"/>
<path d="M87.6977 62.8895L87.6975 62.889C85.433 56.3589 88.7253 48.9518 96.1215 47.2846L96.1216 47.2845C101.019 46.1791 105.362 47.5194 108.561 51.7058C109.977 53.5727 110.805 55.8186 110.941 58.1578C111.076 60.4973 110.513 62.8242 109.322 64.8425C103.803 74.1584 95.697 79.9817 85.2386 82.6156L85.234 82.6168C81.5402 83.5842 77.7273 84.0198 73.9105 83.9105C66.5958 83.6321 59.6944 82.023 53.6749 77.6984L53.6749 77.6984L53.6704 77.6952C50.5549 75.5084 47.9766 72.6427 46.1301 69.3142C45.9113 68.9152 45.887 68.7309 45.9053 68.6513C45.9103 68.6294 45.9442 68.4898 46.4096 68.3319L46.4097 68.3319L46.4147 68.3301C47.6437 67.8985 48.8354 67.3583 49.9961 66.8322C50.0678 66.7997 50.1393 66.7673 50.2107 66.7349C50.5809 66.5683 50.7466 66.5792 50.8423 66.6138C50.9576 66.6553 51.1219 66.7832 51.3756 67.1739C55.4313 73.4432 61.4319 76.6229 68.5845 77.7855C75.7157 78.9447 82.6497 78.2502 89.3251 75.402C91.7565 74.378 94.0363 73.0259 96.101 71.3835L95.7898 70.9922L95.9435 70.5165C91.924 69.2181 89.0513 66.8063 87.6977 62.8895ZM98.8574 52.4865H98.8574C97.1378 52.4991 95.5167 53.2969 94.3389 54.4875C93.1614 55.6778 92.3916 57.297 92.4268 58.995L92.4268 58.9953C92.4621 60.6586 93.2991 62.2705 94.5103 63.4422C95.7218 64.6142 97.3601 65.396 99.0558 65.3226C102.913 65.157 105.304 62.1759 105.409 58.8268C105.517 55.3892 102.303 52.4619 98.8574 52.4865Z" stroke="#FAF8F5"/>
</svg>
