<svg width="157" height="107" viewBox="0 0 157 107" fill="none" xmlns="http://www.w3.org/2000/svg">
<path d="M23.8205 5.51376C24.229 3.98417 25.2134 2.67195 26.5676 1.85182C27.9218 1.03168 29.5409 0.767223 31.0857 1.11387C56.67 6.75901 83.0552 7.80131 109.005 4.19182C114.646 3.40863 120.315 2.39894 125.86 1.18916C127.4 0.854803 129.009 1.12603 130.354 1.94669C131.699 2.76735 132.677 4.07438 133.084 5.59649L155.699 89.9932C155.978 91.0316 155.979 92.125 155.701 93.1637C155.416 94.2353 154.845 95.2092 154.05 95.982C153.254 96.7548 152.264 97.2974 151.185 97.552C127.683 103.049 103.634 105.871 79.497 105.964C54.6563 106.038 29.8907 103.232 5.69662 97.6C4.89813 97.4167 4.14519 97.0733 3.48333 96.5905C2.82147 96.1077 2.26445 95.4955 1.84611 94.7912C1.41886 94.0862 1.13933 93.3017 1.02444 92.4854C0.909539 91.6691 0.961725 90.8381 1.17777 90.0426L23.8268 5.51543M22.8918 5.26489L0.242773 89.792C-0.00386599 90.7107 -0.063357 91.6695 0.0678555 92.6116C0.199068 93.5537 0.518277 94.4599 1.00656 95.2762C1.49484 96.0925 2.14222 96.8024 2.91023 97.3636C3.67823 97.9249 4.55121 98.326 5.47729 98.5433C53.4754 109.75 103.412 109.735 151.403 98.4987C152.653 98.2051 153.801 97.5774 154.723 96.6827C155.645 95.7879 156.307 94.6597 156.639 93.4182C156.957 92.2119 156.951 90.943 156.622 89.7395L134.007 5.3428C133.534 3.58131 132.402 2.06922 130.845 1.12016C129.287 0.171109 127.424 -0.142119 125.642 0.24546C120.107 1.45463 114.513 2.45208 108.86 3.23768C83.0248 6.83494 56.7553 5.79667 31.2846 0.171772C29.4961 -0.228975 27.622 0.0776231 26.0544 1.02732C24.4868 1.97701 23.3473 3.4962 22.8745 5.26695L22.8918 5.26489Z" fill="#FAF8F5"/>
<path d="M72.8584 57.0243L72.4248 56.9952L72.3356 57.4205C71.4492 61.6428 70.1319 65.5034 67.9778 69.0462L67.9762 69.0487C65.4268 73.299 61.9498 76.9181 57.8051 79.6359C57.1991 80.0331 56.6297 80.2854 56.0729 80.3558C55.5291 80.4245 54.9615 80.3244 54.3388 79.9533L54.3383 79.953C53.3519 79.3668 53.01 78.4625 53.0379 77.3088C53.0645 76.214 53.8236 75.5209 54.8422 74.8783C57.3168 73.3173 59.3139 71.289 61.1194 69.0729C63.9149 65.6518 65.6714 61.7552 66.611 57.1599L66.7257 56.5992L66.1547 56.5609L60.2483 56.164L60.2375 56.1633L60.2268 56.163C59.5633 56.1471 58.9013 56.0952 58.2435 56.0075C57.4618 55.8682 56.9298 55.5381 56.6007 55.0833C56.2669 54.622 56.097 53.9703 56.1643 53.1098C56.2341 52.2888 56.5147 51.6668 56.9306 51.2592C57.3414 50.8567 57.9284 50.6191 58.706 50.6431L58.7063 50.6431C60.2847 50.691 61.8548 50.8134 63.4385 50.9369C64.0555 50.985 64.6747 51.0333 65.2972 51.0774L65.2972 51.0774L65.3011 51.0777C65.5359 51.0924 65.7975 51.0888 66.0685 51.0852C66.2393 51.0828 66.4139 51.0805 66.5879 51.0826L67.1211 51.0891L67.0933 50.5566C66.7377 43.7316 64.128 37.96 59.5764 33.036L59.5736 33.033C58.9371 32.3556 58.2596 31.718 57.545 31.1237C57.0164 30.68 56.7714 30.185 56.6846 29.6583C56.595 29.1146 56.6703 28.5118 56.834 27.8649C57.1 26.8143 57.968 26.3756 59.159 26.1853C60.1494 26.027 60.8722 26.5779 61.7476 27.3442C64.7751 30.03 67.2672 33.2643 69.0924 36.8764L69.0946 36.8806C71.3841 41.3082 72.4898 46.0591 72.7571 51.1515L72.7804 51.5942L73.2227 51.6241C74.1531 51.687 75.0754 51.7475 75.9916 51.8076C78.4635 51.9696 80.8915 52.1288 83.3163 52.3258L83.3166 52.3258C83.8982 52.3727 84.3699 52.245 84.6695 51.8311C84.7989 51.6524 84.8705 51.4522 84.9191 51.2738C84.9595 51.1249 84.9915 50.9601 85.021 50.8075C85.0264 50.7799 85.0317 50.7526 85.0369 50.7259L85.0372 50.7243C86.2761 44.3011 89.4233 38.4007 94.0677 33.7938L94.0678 33.7939L94.0756 33.7858C95.5772 32.2274 97.2643 30.8592 99.0992 29.7118C100.01 29.1584 100.843 28.9725 101.542 29.076C102.231 29.1779 102.854 29.5695 103.348 30.3032C103.786 30.9602 103.908 31.6845 103.734 32.3711C103.56 33.0613 103.075 33.7555 102.227 34.3132L102.227 34.3136C98.2718 36.9222 95.0685 40.5203 92.9348 44.7502C91.6948 47.0974 90.8357 49.6266 90.3896 52.2434L90.2966 52.7887L90.8485 52.8263C91.4389 52.8664 92.0101 52.9045 92.5704 52.9418C93.3766 52.9956 94.1603 53.0478 94.9458 53.1026C95.3782 53.1328 95.7947 53.1545 96.2017 53.1757C97.0844 53.2218 97.9223 53.2655 98.781 53.3878L98.7821 53.388C99.5802 53.5 100.118 53.8215 100.451 54.2749C100.788 54.7351 100.961 55.3963 100.895 56.2718C100.828 57.1469 100.556 57.7711 100.151 58.1662C99.7536 58.5548 99.1696 58.7799 98.3541 58.7443L98.3501 58.7442C96.5569 58.6802 94.7729 58.5476 92.9388 58.4112C92.1505 58.3526 91.353 58.2933 90.5415 58.2384L89.9891 58.2011L90.0081 58.7544C90.1497 62.8876 91.3102 66.5271 93.0987 69.9635C94.7133 73.1543 96.9724 75.9753 99.7332 78.2483L99.7366 78.251C100.28 78.6907 100.544 79.1772 100.648 79.6943C100.755 80.2267 100.699 80.8233 100.542 81.4787C100.406 82.0503 100.127 82.4207 99.7602 82.6823C99.379 82.9542 98.8774 83.126 98.2772 83.2411C97.2754 83.4332 96.5578 82.8873 95.6714 82.1549C93.2176 80.0788 91.1134 77.6219 89.4394 74.878L89.4395 74.878L89.4344 74.8699C86.575 70.3774 84.8817 65.2424 84.5077 59.9303L84.5075 59.9277L84.5052 59.8974C84.4761 59.5115 84.4511 59.1801 84.4019 58.9189C84.3509 58.6477 84.2603 58.3671 84.0374 58.1486C83.8163 57.9317 83.5333 57.8434 83.2578 57.793C82.9838 57.7429 82.6336 57.7175 82.2189 57.6877C79.6041 57.4754 76.9915 57.3008 74.2309 57.1163C73.7776 57.086 73.3204 57.0554 72.8584 57.0243Z" stroke="#FAF8F5"/>
</svg>
