<svg width="157" height="112" viewBox="0 0 157 112" fill="none" xmlns="http://www.w3.org/2000/svg">
<path d="M154.074 100.725C153.267 101.533 152.249 102.096 151.137 102.352C127.286 107.839 102.891 110.609 78.4165 110.61C53.9422 110.608 29.5465 107.837 5.6953 102.349C4.89646 102.168 4.14286 101.826 3.48008 101.344C2.81731 100.862 2.25917 100.251 1.83952 99.5476C1.41176 98.8396 1.13265 98.0518 1.01928 97.2324C0.905902 96.413 0.960602 95.579 1.18004 94.7815L23.7747 10.448C24.0551 9.40076 24.6058 8.44561 25.3717 7.67829C26.0953 6.94878 26.9915 6.41382 27.977 6.12308C28.9625 5.83234 30.0055 5.79523 31.0093 6.01516C46.5868 9.40115 62.4827 11.1056 78.4238 11.0992C94.36 11.1081 110.251 9.4073 125.824 6.02599C127.37 5.68955 128.986 5.96345 130.334 6.79045C131.682 7.61745 132.659 8.93354 133.059 10.4636L155.659 94.7957C155.936 95.838 155.935 96.9349 155.656 97.9766C155.376 99.0184 154.828 99.9685 154.067 100.732M154.751 101.417C155.635 100.536 156.271 99.4371 156.595 98.2318C156.919 97.0265 156.92 95.7571 156.597 94.5516L133.999 10.2172C133.529 8.4502 132.397 6.93176 130.838 5.9765C129.278 5.02124 127.411 4.70243 125.624 5.08603C110.115 8.46152 94.2886 10.1585 78.4169 10.1478C62.5452 10.1595 46.7183 8.46181 31.21 5.08429C30.0474 4.83241 28.8403 4.87675 27.6993 5.2132C26.5584 5.54965 25.5202 6.16745 24.6804 7.00981C23.7936 7.89821 23.1583 9.00586 22.8393 10.2199L0.242395 94.551C-0.00419833 95.4703 -0.0634246 96.4298 0.0682962 97.3724C0.200017 98.3151 0.519961 99.2216 1.00911 100.038C1.49825 100.855 2.14662 101.564 2.91562 102.125C3.68462 102.686 4.55854 103.087 5.48544 103.303C53.4835 114.349 103.363 114.35 151.361 103.306C152.648 103.012 153.827 102.36 154.76 101.426L154.751 101.417Z" fill="#FAF8F5"/>
<path d="M99.8868 51.2111L100.7 51.2286L103.25 51.2834L103.254 51.2834C104.143 51.308 105.031 51.335 105.918 51.3619C107.842 51.4205 109.762 51.4788 111.688 51.5116C112.48 51.5206 113.065 51.311 113.472 50.9576C113.879 50.6042 114.162 50.0598 114.258 49.2956C114.387 48.2793 114.162 47.5197 113.695 47.0053C113.224 46.4861 112.434 46.136 111.271 46.0956L111.271 46.0956C107.277 45.9556 103.282 45.858 99.2829 45.7603C97.8731 45.7259 96.4629 45.6914 95.052 45.6551L95.0411 45.6548L95.0411 45.6547C94.7653 45.6416 94.4889 45.6512 94.2146 45.6834C93.7858 45.7408 93.3768 45.8996 93.0214 46.1464C92.665 46.394 92.3729 46.7229 92.1693 47.106C91.9657 47.4891 91.8565 47.9153 91.8507 48.3492C91.8449 48.7785 91.9406 49.2031 92.13 49.5883C92.4139 50.085 92.7411 50.5557 93.1079 50.9948L93.1165 51.0051L93.1246 51.0159C95.978 54.8302 97.5436 59.4536 97.5949 64.2167C97.6461 68.9797 96.1804 73.6355 93.41 77.5101C90.0847 82.1702 85.5594 85.0714 79.7478 85.4686C72.3554 85.9788 66.9094 82.3679 63.1602 76.4392C59.3254 70.3796 58.8923 63.7476 61.146 56.9859C62.1021 54.1177 63.8305 51.7501 65.6312 49.4696C66.4328 48.4542 66.5438 47.3822 66.2019 46.5465C65.8601 45.7112 65.0307 45.0258 63.7707 44.8552C63.3361 44.8122 62.8996 44.792 62.4628 44.7946L62.4544 44.7947L62.446 44.7944C57.4165 44.6559 52.3892 44.5242 47.3643 44.3994L47.3503 44.3991L47.3364 44.398C46.7736 44.3524 46.2075 44.3725 45.6493 44.4576C44.8766 44.6267 44.3475 44.9992 44.0221 45.5142C43.6891 46.0412 43.5345 46.7735 43.6283 47.7115C43.6927 48.3312 43.9536 48.8229 44.3587 49.1691C44.7672 49.5182 45.3553 49.7467 46.1136 49.7722C48.7343 49.8601 51.3515 49.9223 53.967 49.9846C54.4726 49.9966 54.9782 50.0086 55.4837 50.0208L55.4873 50.0209L57.3719 50.0803L58.179 50.1057L57.7965 50.8169C54.5478 56.8566 53.695 62.9521 54.6523 69.3421C55.5223 75.1261 57.9886 80.1304 62.177 84.2025L62.1772 84.2027C67.2174 89.1085 73.1944 91.4825 80.3004 90.9711L80.3005 90.9711C83.3321 90.7535 86.1983 90.0776 88.7977 88.6882L88.798 88.688C97.9433 83.8075 102.425 75.9129 103.088 65.7184L99.8868 51.2111ZM99.8868 51.2111L100.238 51.9444M99.8868 51.2111L100.238 51.9444M100.238 51.9444C102.448 56.5597 103.39 61.0605 103.088 65.7182L100.238 51.9444Z" stroke="#FAF8F5"/>
<path d="M79.3834 39.6887L79.3834 39.6887C90.1914 39.9809 101.002 40.2632 111.814 40.5357L111.814 40.5357C112.764 40.5599 113.414 40.3343 113.832 39.9568C114.248 39.5821 114.511 38.9884 114.546 38.1134L114.546 38.1125C114.586 37.1667 114.36 36.493 113.956 36.0422C113.553 35.5915 112.907 35.2907 111.959 35.2236C111.723 35.2081 111.5 35.2048 111.263 35.2013C111.128 35.1992 110.988 35.1972 110.838 35.1927C110.838 35.1927 110.838 35.1927 110.837 35.1927L48.2599 33.542L79.3834 39.6887ZM79.3834 39.6887C68.7197 39.401 58.0606 39.1179 47.4061 38.8393M79.3834 39.6887L47.4061 38.8393M47.4061 38.8393C47.2493 38.835 47.1021 38.8338 46.963 38.8328C46.2778 38.8276 45.7882 38.8239 45.3191 38.4426C44.4899 37.7675 44.1073 36.5723 44.4597 35.2362C44.6916 34.3841 45.6627 33.586 46.7079 33.5089C47.0428 33.4845 47.3605 33.5008 47.7108 33.5188C47.8838 33.5277 48.0647 33.537 48.2596 33.542L47.4061 38.8393ZM115.046 38.1335C114.968 40.0636 113.862 41.088 111.802 41.0355L115.046 38.1335Z" stroke="#FAF8F5"/>
</svg>
