<svg width="157" height="107" viewBox="0 0 157 107" fill="none" xmlns="http://www.w3.org/2000/svg">
<path d="M2.77202 95.8225C2.01081 95.059 1.46329 94.1091 1.18425 93.0677C0.905213 92.0264 0.904436 90.9301 1.18191 89.8883L23.7795 5.55396C24.1801 4.02386 25.1566 2.70777 26.5048 1.88077C27.8531 1.05377 29.4688 0.779869 31.0142 1.1163C46.5908 4.50226 62.4858 6.20692 78.4263 6.20096C94.3674 6.20733 110.263 4.50288 125.841 1.11689C126.845 0.896964 127.888 0.934105 128.873 1.22485C129.859 1.51559 130.755 2.05052 131.478 2.78003C132.244 3.54734 132.795 4.50253 133.075 5.54979L155.672 89.8855C155.888 90.6821 155.94 91.5143 155.825 92.3316C155.709 93.1489 155.429 93.9343 155.001 94.6402C154.582 95.3438 154.024 95.955 153.361 96.4366C152.698 96.9182 151.945 97.2602 151.146 97.4419C127.294 102.93 102.899 105.701 78.4245 105.702C53.9503 105.702 29.5548 102.932 5.70376 97.4445C4.59158 97.189 3.57391 96.6253 2.76745 95.8179M2.08298 96.5024C3.01654 97.4365 4.19485 98.0881 5.48238 98.3822C53.4799 109.431 103.36 109.434 151.36 98.391C152.287 98.1747 153.161 97.7742 153.93 97.2134C154.699 96.6525 155.347 95.9426 155.836 95.1261C156.326 94.3096 156.646 93.4031 156.777 92.4605C156.909 91.5179 156.85 90.5584 156.603 89.6391L134.013 5.2965C133.694 4.0825 133.059 2.97483 132.172 2.08643C131.332 1.24406 130.294 0.62629 129.153 0.289843C128.012 -0.0466039 126.805 -0.0909197 125.642 0.160958C110.134 3.53848 94.3072 5.23604 78.4354 5.22441C62.5638 5.2351 46.7372 3.53813 31.2288 0.162641C29.4409 -0.220954 27.574 0.097856 26.0147 1.05311C24.4555 2.00837 23.3235 3.52686 22.8532 5.29391L0.241908 89.6419C-0.0811418 90.8474 -0.0806269 92.1169 0.243403 93.3222C0.567432 94.5274 1.20354 95.6259 2.08755 96.5069L2.08298 96.5024Z" fill="#FAF8F5"/>
<path d="M89.6098 85.3106L89.9371 85.5205C90.1195 85.6375 90.2997 85.7545 90.4787 85.8708C91.0502 86.242 91.6094 86.6053 92.1877 86.9318L92.1982 86.9378L92.1981 86.9379C93.676 87.8202 95.2117 88.3322 96.8233 87.9828L96.8305 87.9812L96.8305 87.9812C99.0717 87.53 101.2 86.6359 103.091 85.3512C103.815 84.8471 104.228 84.2609 104.382 83.654C104.537 83.0481 104.449 82.3608 104.058 81.6238L104.056 81.6206C103.436 80.4309 101.836 79.8793 100.411 80.5119L100.408 80.5131C99.9857 80.6974 99.576 80.9174 99.1447 81.149L99.1285 81.1576C98.6977 81.3889 98.2452 81.6314 97.7704 81.8352L89.6098 85.3106ZM89.6098 85.3106L89.3258 85.5761M89.6098 85.3106L89.3258 85.5761M89.3258 85.5761C86.6778 88.0511 83.3101 89.0515 80.0408 89.1506C76.7663 89.25 73.6303 88.4429 71.4993 87.3515C69.7814 86.4713 68.5674 85.3037 67.7795 83.8953C66.9897 82.4833 66.6119 80.7999 66.6152 78.8677C66.6367 67.8946 66.64 56.923 66.625 45.953L66.6227 43.5599L66.6219 42.6363L65.849 43.142C65.3275 43.4832 65.0328 43.9013 64.8287 44.3009C64.7351 44.4843 64.6589 44.6673 64.5928 44.826L64.5819 44.8523C64.5103 45.024 64.451 45.1635 64.3833 45.2876L64.3823 45.2894C61.8756 49.9304 57.3205 51.6531 52.152 51.0922C47.558 50.5934 43.6961 47.163 42.3923 42.5665M89.3258 85.5761L42.3923 42.5665M42.3923 42.5665C41.0286 37.7471 42.757 33.8662 46.1325 30.4417C48.7928 27.7462 52.1788 26.3275 55.9131 25.7689C57.6811 25.5087 59.3878 25.9681 61.2524 26.4701C61.511 26.5397 61.7727 26.6101 62.038 26.6796L62.4416 26.7853L62.6178 26.4071C62.7344 26.157 62.8473 25.9088 62.959 25.6633C63.6311 24.1864 64.2585 22.8078 65.3559 21.6993L65.3563 21.699C69.6785 17.3237 74.8377 16.1378 80.7196 17.5955C82.2364 17.9796 83.7267 18.4614 85.1812 19.0377L85.1838 19.0387C86.7799 19.6612 87.4932 21.2518 87.0042 22.6388L87.0042 22.6389C86.5428 23.9485 84.9636 24.712 83.3276 24.2221L83.1842 24.7011L83.3276 24.2221C82.615 24.0087 81.9308 23.7894 81.2415 23.5686C80.6511 23.3794 80.057 23.189 79.4382 23.0001C79.4381 23.0001 79.438 23.0001 79.4379 23L79.2919 23.4783C77.1222 22.8144 74.9913 23.0015 72.8832 23.7681C70.2937 24.7059 68.8814 26.6109 68.2265 29.2187M42.3923 42.5665L72.7129 23.298M68.2265 29.2187L67.7417 29.0965M68.2265 29.2187L67.7416 29.097C67.7416 29.0968 67.7417 29.0966 67.7417 29.0965M68.2265 29.2187C68.028 30.0059 68.3885 30.3846 68.8448 30.7496M67.7417 29.0965C68.4285 26.3619 69.9368 24.3033 72.7129 23.298M67.7417 29.0965L72.1547 40.8065C72.1545 53.151 72.1551 65.4932 72.1564 77.8332L72.6564 77.8332M72.7129 23.298C72.7127 23.2981 72.7125 23.2982 72.7123 23.2982L72.8828 23.767L72.7129 23.298ZM68.8448 30.7496L68.5262 31.135C68.5272 31.1358 68.5283 31.1367 68.5293 31.1375C68.5303 31.1384 68.5314 31.1392 68.5325 31.14L68.8448 30.7496ZM68.8448 30.7496C72.032 33.3847 72.6548 36.9781 72.6547 40.8065C72.6545 53.151 72.6551 65.4932 72.6564 77.8332M72.6564 77.8332L72.1564 77.8332L97.77 81.8354C96.5572 82.3572 95.3156 82.2606 94.3397 81.6711C93.3646 81.082 92.6954 80.0256 92.5735 78.7094L92.5723 78.6973L92.5725 78.6973C92.5427 78.2609 92.553 77.8031 92.5625 77.3733C92.5667 77.188 92.5707 77.008 92.5714 76.8371C92.5714 76.8368 92.5714 76.8365 92.5714 76.8362L92.5698 37.069L92.5698 37.0689C92.5698 36.9057 92.5714 36.7466 92.5729 36.5906C92.5759 36.2926 92.5788 36.0059 92.5703 35.7229C92.4741 34.1723 91.4617 33.1304 90.0764 33.0278C89.3956 32.9906 88.7241 33.1999 88.1849 33.6174C87.6479 34.0332 87.2781 34.6279 87.1424 35.2931C87.049 35.933 87.0169 36.5804 87.0464 37.2265L87.047 37.2379L87.047 37.2493C87.0467 50.5065 87.0442 63.7629 87.0393 77.0186V77.0195C87.0357 78.6497 86.5683 80.039 85.6852 81.1227C84.8039 82.2042 83.5383 82.9453 81.9985 83.3348L81.9981 83.3349C80.3974 83.7385 78.8902 83.5441 77.4474 83.3579C77.3397 83.344 77.2323 83.3302 77.1253 83.3166C77.125 83.3166 77.1248 83.3166 77.1246 83.3165L77.1874 82.8205M72.6564 77.8332C72.6563 81.2554 73.7081 82.3894 77.1874 82.8205M77.1874 82.8205C77.2902 82.8335 77.3929 82.8467 77.4953 82.8599C78.9535 83.0473 80.3708 83.2295 81.8758 82.8501M77.1874 82.8205L81.8758 82.8501M81.8758 82.8501C84.7894 82.1131 86.5325 80.0825 86.5393 77.0184C86.5441 63.7628 86.5467 50.5064 86.547 37.2493L81.8758 82.8501ZM65.0006 21.3476C63.8352 22.5247 63.1675 23.9945 62.4981 25.4681C62.3877 25.711 62.2773 25.954 62.1646 26.1959C61.9045 26.1278 61.6454 26.0579 61.3871 25.9881C59.5335 25.4878 57.7185 24.9978 55.8403 25.2742C52.0256 25.8447 48.5302 27.3003 45.7764 30.0907L65.0006 21.3476ZM65.0006 21.3476C69.4588 16.8347 74.8044 15.614 80.8413 17.1105L65.0006 21.3476ZM59.2918 31.6808C59.0577 31.6238 58.822 31.5742 58.5849 31.5321L58.7028 31.4142L57.5293 31.3907C55.4768 31.3495 53.3789 32.0745 51.6407 33.2257C49.9062 34.3744 48.4853 35.9773 47.8242 37.7446C47.4768 38.6127 47.4236 39.5708 47.6732 40.472C48.5079 43.6259 50.7792 45.6721 53.8638 45.7442L53.8642 45.7442C56.8206 45.8113 59.2802 43.9399 60.1904 40.9214L60.1905 40.921C60.7942 38.9137 61.0351 36.8495 61.2515 34.8243C61.2997 34.3852 61.3305 34.0014 61.3166 33.6718C61.3026 33.3386 61.242 33.0232 61.0785 32.7411C60.7507 32.1751 60.1106 31.9203 59.3141 31.6868L59.303 31.6836L59.2918 31.6808Z" stroke="#FAF8F5"/>
</svg>
