<svg width="157" height="107" viewBox="0 0 157 107" fill="none" xmlns="http://www.w3.org/2000/svg">
<path d="M155.71 90.0375C155.926 90.833 155.978 91.6641 155.863 92.4804C155.748 93.2967 155.469 94.0811 155.041 94.7861C154.623 95.4905 154.066 96.1026 153.404 96.5854C152.742 97.0682 151.989 97.4116 151.191 97.5949C126.997 103.227 102.231 106.033 77.3905 105.959C53.2537 105.866 29.205 103.044 5.70241 97.5469C4.62311 97.2923 3.63307 96.7497 2.83776 95.977C2.04245 95.2042 1.47166 94.2302 1.18616 93.1587C0.908868 92.1199 0.909664 91.0265 1.18844 89.9881L23.7975 5.59312C24.206 4.07262 25.1838 2.76754 26.5283 1.94834C27.8729 1.12913 29.4811 0.858606 31.0196 1.19282C36.5609 2.40032 42.2336 3.4123 47.875 4.19548C73.8246 7.80498 100.21 6.76275 125.794 1.11761C127.339 0.770962 128.958 1.03538 130.312 1.85552C131.666 2.67565 132.651 3.98791 133.059 5.51749L155.708 90.0446M156.643 89.794L133.994 5.26696C133.522 3.49621 132.382 1.97698 130.814 1.02729C129.247 0.0775927 127.373 -0.228967 125.584 0.171779C100.116 5.80137 73.8478 6.84483 48.0134 3.25319C42.3628 2.46911 36.7687 1.47172 31.231 0.261027C29.4488 -0.126553 27.5859 0.186676 26.0284 1.13573C24.471 2.08479 23.3386 3.59687 22.8661 5.35837L0.250744 89.755C-0.077921 90.9585 -0.0835823 92.2274 0.234331 93.4338C0.565562 94.6752 1.22758 95.8035 2.14975 96.6982C3.07191 97.593 4.21966 98.2206 5.47058 98.5143C53.4614 109.75 103.398 109.766 151.396 98.5588C152.322 98.3416 153.195 97.9404 153.963 97.3792C154.731 96.8179 155.378 96.108 155.866 95.2917C156.355 94.4754 156.674 93.5693 156.805 92.6272C156.936 91.685 156.877 90.7262 156.63 89.8075L156.643 89.794Z" fill="#FAF8F5"/>
<path d="M88.3256 55.4245L88.3255 55.4246C87.9204 55.9013 87.517 56.3614 87.1163 56.8185C86.5289 57.4885 85.9471 58.1521 85.3734 58.8524C84.7368 59.6296 84.1469 60.4202 83.498 61.29C83.1714 61.7277 82.8299 62.1855 82.4599 62.6717L82.062 62.3689L81.5732 62.4742C81.4486 61.896 81.3431 61.3261 81.2406 60.7727L81.2393 60.7658C81.1359 60.2078 81.0357 59.6671 80.9203 59.1371C80.6899 58.0779 80.4036 57.0832 79.9332 56.142L79.9285 56.1327L79.9286 56.1327C78.4371 52.9876 75.8859 50.4681 72.7223 49.0161L72.722 49.0159C72.1024 48.731 71.64 48.3963 71.3264 47.9199C71.017 47.4498 70.8901 46.898 70.8276 46.2584C70.8276 46.2583 70.8275 46.2582 70.8275 46.2581L71.3252 46.2094C71.0438 43.3478 71.273 40.4589 72.002 37.6773L88.3256 55.4245ZM88.3256 55.4245C88.7913 54.8762 89.2783 54.3313 89.77 53.7809C91.1971 52.1837 92.6646 50.5413 93.7707 48.6429L93.7707 48.6429C96.7802 43.477 97.0794 37.9156 93.5848 33.8548C90.5713 30.3355 86.6637 28.5205 81.8204 28.8598L81.82 28.8598C79.4023 29.0307 77.1013 29.9654 75.2493 31.529C73.3984 33.0916 72.0916 35.2016 71.5172 37.5547L88.3256 55.4245ZM68.6087 30.6081L68.6087 30.608C71.965 25.5778 76.8928 23.3667 82.9297 23.2107C85.9082 23.1337 89.5322 24.0865 92.7807 25.9609C96.0267 27.834 98.8544 30.6019 100.294 34.1169L100.294 34.117C102.516 39.5379 101.868 44.7956 99.4291 49.9827L99.4283 49.9844C98.0912 52.8564 96.0045 55.2117 93.8654 57.6262C93.73 57.7789 93.5945 57.9319 93.4589 58.0853L93.4588 58.0854C93.0531 58.5447 92.6374 59.0027 92.219 59.4637C90.4962 61.3619 88.7275 63.3107 87.4215 65.6064L87.4214 65.6065C85.9005 68.2821 84.6297 71.1318 85.283 74.5584C85.8187 77.3734 87.1439 79.4359 89.0842 80.5525C91.0222 81.6678 93.4829 81.787 96.1858 80.9036L96.1859 80.9035C96.3908 80.8365 96.5896 80.7606 96.775 80.6899L96.7911 80.6838C96.985 80.6098 97.1643 80.5417 97.344 80.4839C97.6997 80.3695 98.0297 80.3048 98.3798 80.3331L98.382 80.3333C99.1585 80.3927 99.6858 80.5847 100.068 80.9071C100.451 81.2294 100.748 81.7323 100.964 82.5327C101.085 83.0852 101.025 83.6623 100.791 84.1777C100.556 84.6962 100.158 85.1241 99.6585 85.3965L99.6576 85.397C98.5766 85.9888 97.4048 86.3968 96.1899 86.6042L96.1839 86.6053C91.8784 87.3948 88.2482 86.7409 85.4837 84.9147C82.7196 83.0887 80.7596 80.0501 79.8716 75.9514L79.8714 75.9502C79.6032 74.7264 79.4198 73.4856 79.3225 72.2366L78.824 72.2755L78.4384 71.9571C75.1324 75.9614 70.8636 77.9205 65.9914 77.8092C60.8589 77.6906 56.5419 75.4408 53.6151 70.9686C47.7742 62.0344 52.8059 49.9608 63.2631 47.8441C63.689 47.7581 64.0503 47.6787 64.3339 47.5754C64.6236 47.4698 64.8951 47.3175 65.081 47.0458C65.2626 46.7804 65.3131 46.472 65.3239 46.1663C65.3346 45.8618 65.3066 45.4856 65.2717 45.0435C64.8668 39.8494 65.7212 34.9338 68.6087 30.6081ZM75.8568 62.9877L75.8568 62.9876C75.9929 56.9029 70.9843 53.338 66.5092 53.1327L66.5087 53.1326C64.1483 53.0266 61.6745 54.0692 59.8177 55.7756C57.9601 57.4828 56.6721 59.8993 56.7548 62.5923C56.659 67.7066 60.8992 72.1713 66.0725 72.2323C71.3321 72.2961 75.74 68.1591 75.8568 62.9877Z" stroke="#FAF8F5"/>
</svg>
