<svg width="157" height="107" viewBox="0 0 157 107" fill="none" xmlns="http://www.w3.org/2000/svg">
<path d="M151.388 97.5558L151.189 97.6093C126.996 103.243 102.232 106.051 77.3918 105.976C53.2513 105.882 29.1988 103.06 5.69238 97.5621C4.89303 97.3777 4.13936 97.033 3.47692 96.5491C2.81447 96.0652 2.25698 95.4521 1.83817 94.7466C1.4126 94.0422 1.13417 93.2588 1.0197 92.4438C0.905233 91.6288 0.957116 90.7991 1.17217 90.0047L23.8038 5.58742C24.0849 4.54832 24.6335 3.60108 25.395 2.84022C26.1564 2.07936 27.1041 1.53149 28.1434 1.25122C29.0855 0.997235 30.0748 0.973926 31.0279 1.1832C36.5698 2.39395 42.2423 3.40599 47.8679 4.19348C73.8158 7.80352 100.199 6.76201 125.782 1.11774C127.326 0.771109 128.945 1.0356 130.3 1.85579C131.654 2.67598 132.638 3.98823 133.047 5.51787L155.697 90.0511C156.117 91.6184 155.899 93.2883 155.09 94.6948C154.281 96.1012 152.947 97.1295 151.381 97.5544M151.632 98.4894C153.446 97.9981 154.991 96.8075 155.928 95.1787C156.865 93.5499 157.119 91.6158 156.632 89.8006L133.982 5.26735C133.509 3.49704 132.37 1.97815 130.803 1.0283C129.236 0.0784559 127.363 -0.228756 125.575 0.17104C100.104 5.79537 73.8335 6.83241 47.9982 3.23335C42.3499 2.44859 36.7572 1.4518 31.2202 0.243044C30.1157 0.00135861 28.9694 0.0279003 27.8772 0.320405C26.6732 0.642594 25.5752 1.27615 24.6937 2.15737C23.8122 3.03859 23.1784 4.13639 22.8558 5.34038L0.242587 89.7393C-0.00386409 90.6576 -0.0632959 91.6161 0.0677846 92.5579C0.198865 93.4996 0.517787 94.4054 1.00565 95.2216C1.49352 96.0377 2.1404 96.7475 2.90784 97.3089C3.67527 97.8702 4.54762 98.2716 5.47317 98.4893C53.4639 109.728 103.4 109.745 151.398 98.5388L151.632 98.4894Z" fill="#FAF8F5"/>
<path d="M54.9575 28.8364L54.2414 29.0298L54.6893 29.6211C55.0836 30.1415 55.4441 30.6868 55.7685 31.2534C56.2173 32.2085 56.1619 33.1071 55.7781 33.8054C55.3895 34.5125 54.6337 35.0686 53.5854 35.2587C52.2324 35.5036 50.8668 35.6116 49.4726 35.7123C49.3761 35.7192 49.2795 35.7262 49.1826 35.7331C47.8886 35.826 46.5691 35.9206 45.2497 36.124L45.2495 36.124C43.9699 36.3218 43.1452 36.2139 42.5728 35.898C42.01 35.5874 41.598 35.0236 41.2619 34.0868L41.2584 34.0769L41.2545 34.0672C41.1152 33.7247 41.0627 33.3531 41.1018 32.9854C41.4144 30.6236 41.3961 28.2474 41.3781 25.9141C41.3751 25.5211 41.3721 25.1293 41.3707 24.739C41.3684 23.9383 41.4862 23.2599 41.7586 22.7187C42.0245 22.1906 42.4517 21.7639 43.133 21.4774C43.816 21.1902 44.4423 21.1761 45.0214 21.3502C45.6103 21.5273 46.1797 21.9084 46.715 22.4564L46.7328 22.4745L46.7523 22.4908C47.0182 22.7128 47.2684 22.9529 47.5012 23.2093C47.8979 23.7343 48.3622 24.067 48.9243 24.173C49.4749 24.2769 50.0405 24.1473 50.6072 23.9185L50.6079 23.9182C58.411 20.7544 67.7635 25.8943 69.8961 34.4944L69.8972 34.4989C70.2676 35.9354 70.4716 37.4097 70.5053 38.8928C70.6824 50.4742 70.875 62.0548 71.083 73.6347C71.1106 75.2524 71.3665 76.486 72.1586 77.3007C72.9542 78.1191 74.1737 78.396 75.7955 78.4263L75.7958 78.4263C75.961 78.4294 76.1277 78.4331 76.2956 78.4369C77.9287 78.4738 79.6772 78.5134 81.3825 77.8861C81.9526 77.6771 82.4218 77.5 82.7899 77.3141C83.1632 77.1257 83.4759 76.9076 83.7028 76.5937C83.9312 76.2778 84.0373 75.9138 84.0889 75.499C84.1397 75.0918 84.1422 74.5948 84.1341 73.9914L84.1341 73.9898C83.9062 60.1991 83.6737 46.4084 83.4369 32.6179C83.4347 32.4832 83.4313 32.3523 83.428 32.2247C83.4094 31.509 83.3935 30.8974 83.5954 30.2941L83.5955 30.2941L83.598 30.2862C83.7824 29.7037 84.1613 29.202 84.6711 28.8652C85.181 28.5284 85.791 28.3767 86.3991 28.4356L86.4069 28.4364L86.4147 28.4369C87.028 28.4771 87.6097 28.7232 88.0655 29.1355C88.5169 29.5438 88.8186 30.0914 88.9228 30.6908C88.9757 31.2691 88.9906 31.8501 88.9673 32.4302L88.9668 32.4442L88.967 32.4583C89.1797 45.7185 89.4038 58.9757 89.6394 72.2298C89.6687 74.035 89.8516 75.345 90.5934 76.2626C91.3422 77.1887 92.568 77.6047 94.329 77.9149L94.3313 77.9153C96.2293 78.2405 98.2457 78.3059 100.202 77.5938C101.567 77.0975 102.639 76.3594 103.362 75.3478C104.085 74.3343 104.427 73.0893 104.407 71.6354L104.407 71.6338C104.174 58.3011 103.95 44.9675 103.733 31.633L103.732 31.6207L103.732 31.6085C103.698 31.0987 103.692 30.5874 103.714 30.0769C103.799 29.2008 104.13 28.5666 104.617 28.1564C105.109 27.7424 105.816 27.5105 106.735 27.549L106.739 27.5492C107.572 27.577 108.159 27.8168 108.546 28.2074C108.934 28.5986 109.186 29.2072 109.218 30.1047L109.218 30.1058C109.294 32.1487 109.318 34.1902 109.343 36.238C109.353 37.0845 109.363 37.932 109.377 38.7812L109.377 38.7815C109.422 41.4308 109.468 44.08 109.515 46.7291C109.663 55.1277 109.81 63.5257 109.907 71.9241L109.907 71.9243C109.919 72.8735 110.088 73.7213 110.478 74.4655C110.871 75.2134 111.469 75.8235 112.285 76.3218L112.285 76.3219C112.587 76.5066 112.92 76.6708 113.296 76.7155C113.687 76.7621 114.072 76.6731 114.467 76.4492C115.568 75.8257 116.714 75.271 117.881 74.7529L117.882 74.7524C118.644 74.4117 119.347 74.3553 119.941 74.5151C120.533 74.6742 121.061 75.0589 121.461 75.6788L121.465 75.6848L121.469 75.6907C121.855 76.2532 122.006 76.9438 121.892 77.6162C121.777 78.2885 121.405 78.8897 120.854 79.2923L120.845 79.2988L120.837 79.3057C118.943 80.8228 116.692 81.8274 114.298 82.2229C113.313 82.3722 112.307 82.3096 111.348 82.0392C110.387 81.7684 109.496 81.2957 108.733 80.6526L108.733 80.6525L108.726 80.6465C108.281 80.2861 107.831 80.0417 107.32 80.0608C106.821 80.0794 106.385 80.3462 105.961 80.6861L105.96 80.6874C102.993 83.0866 99.5864 83.8434 95.7208 83.5236L95.7203 83.5236C93.0322 83.3041 90.5651 82.9622 88.3424 81.6216C88.0099 81.4183 87.6732 81.3182 87.3145 81.344C86.9698 81.3688 86.6581 81.5067 86.3682 81.6745L86.3681 81.6744L86.3568 81.6813C82.4695 84.0716 78.2409 84.5116 73.78 83.8083C71.4533 83.4407 69.4241 82.5612 67.9699 81.0874C66.5235 79.6215 65.6032 77.5248 65.5632 74.6314C65.4017 62.7416 65.1988 50.855 64.9544 38.9717C64.8709 34.8852 63.1193 31.6148 59.4092 29.6061C58.1084 28.8694 56.6978 28.3664 54.9575 28.8364Z" stroke="#FAF8F5"/>
</svg>
