<svg width="157" height="107" viewBox="0 0 157 107" fill="none" xmlns="http://www.w3.org/2000/svg">
<path d="M1.1765 93.1605C0.899202 92.1217 0.899998 91.0283 1.17877 89.9899L23.7949 5.59639C24.2034 4.07589 25.1813 2.7708 26.5258 1.95159C27.8704 1.13239 29.4786 0.861899 31.0171 1.19611C36.5624 2.40589 42.231 3.41553 47.8724 4.19872C73.822 7.80821 100.207 6.76598 125.792 1.12085C127.336 0.775132 128.954 1.04016 130.308 1.86039C131.662 2.68062 132.645 3.99247 133.054 5.52155L155.703 90.0486C155.918 90.8439 155.971 91.6746 155.856 92.4907C155.742 93.3067 155.463 94.0911 155.037 94.7965C154.619 95.5008 154.062 96.1129 153.4 96.5957C152.738 97.0785 151.985 97.4219 151.187 97.6052C126.993 103.237 102.227 106.044 77.3866 105.969C53.2498 105.876 29.2009 103.054 5.69837 97.5573C4.61907 97.3027 3.62902 96.76 2.83371 95.9873C2.0384 95.2145 1.46762 94.2405 1.18212 93.169M0.247125 93.4196C0.578356 94.661 1.24037 95.7892 2.16253 96.684C3.08469 97.5787 4.23245 98.2064 5.48336 98.5C53.4742 109.736 103.41 109.751 151.408 98.5446C152.334 98.3269 153.207 97.9256 153.974 97.3642C154.742 96.8029 155.389 96.0931 155.877 95.2769C156.365 94.4607 156.684 93.5548 156.815 92.613C156.946 91.6712 156.886 90.7125 156.64 89.7941L133.991 5.26706C133.518 3.49682 132.379 1.97799 130.812 1.02821C129.246 0.0784156 127.372 -0.228753 125.584 0.171063C100.113 5.79596 73.8438 6.83421 48.0089 3.23695C42.3583 2.45287 36.7642 1.45544 31.2265 0.244749C29.4443 -0.142831 27.5814 0.170398 26.0239 1.11945C24.4665 2.06851 23.3342 3.58057 22.8617 5.34207L0.242312 89.7365C-0.0804991 90.94 -0.0807703 92.2074 0.241497 93.411L0.247125 93.4196Z" fill="#FAF8F5"/>
<path d="M86.4784 40.7198L86.9269 41.3561C87.057 41.5407 87.1575 41.6769 87.2413 41.7907C87.2611 41.8175 87.28 41.8431 87.2981 41.8678C87.3908 41.9941 87.4717 42.1069 87.5436 42.2323L87.5475 42.239L87.5474 42.239C88.1695 43.3639 88.7936 44.4883 89.4179 45.6131C91.3345 49.066 93.253 52.5223 95.1196 56.0064L95.1196 56.0065C95.4594 56.6409 95.857 57.0158 96.3077 57.2374C96.7673 57.4635 97.3272 57.5524 98.0258 57.5347C99.3218 57.5005 99.863 56.6006 100.559 55.4429C100.582 55.4048 100.605 55.3664 100.628 55.3277L101.057 55.5858M86.4784 40.7198L73.9523 45.412L73.5154 45.6551C73.5154 45.6553 73.5155 45.6554 73.5156 45.6556C73.5972 45.8022 73.6687 45.9632 73.7529 46.1528L73.7585 46.1657C73.8419 46.3533 73.9373 46.5672 74.0555 46.7751C74.2995 47.2042 74.6529 47.6302 75.266 47.8922L75.6725 48.0659L75.8947 47.6837L83.4086 34.7609L83.4086 34.7609L83.4119 34.7552C83.4782 34.6376 83.5316 34.5165 83.5743 34.4197L83.5808 34.4049C83.628 34.2982 83.6642 34.2181 83.7056 34.1463C84.4482 32.8646 85.1824 31.9404 86.556 31.9362C87.3115 31.9357 87.8692 32.1702 88.3288 32.553C88.8029 32.9478 89.1913 33.5162 89.5646 34.212C91.0927 37.0702 92.6522 39.9138 94.21 42.7543C94.9086 44.0282 95.6069 45.3014 96.3019 46.5751C96.5708 47.2266 97.0382 47.7772 97.638 48.1483L98.0741 48.4181L98.3328 47.9753C99.6856 45.6597 101.036 43.346 102.383 41.0342L102.383 41.0339C103.02 39.9381 103.652 38.8439 104.283 37.7505C105.054 36.4155 105.824 35.0816 106.603 33.7475L106.607 33.7412L106.61 33.7347C106.89 33.2214 107.319 32.805 107.84 32.5407C108.362 32.2764 108.951 32.1766 109.531 32.2545L109.543 32.2561L109.555 32.2571C110.58 32.3453 111.571 33.3513 111.869 34.5756L111.869 34.5763C112.087 35.4645 111.674 36.181 111.16 37.0724C111.137 37.1123 111.114 37.1526 111.091 37.1932L111.09 37.1947C109.678 39.6736 108.246 42.1392 106.814 44.6063C106.038 45.9437 105.261 47.2815 104.487 48.6221C104.023 49.4263 103.567 50.2303 103.112 51.0327C102.296 52.4721 101.483 53.9065 100.628 55.3282L101.057 55.5858M86.4784 40.7198L86.0863 41.3923C83.671 45.5345 81.3462 49.5289 79.0216 53.5231M86.4784 40.7198L79.0216 53.5231M101.057 55.5858C101.914 54.1594 102.733 52.7143 103.552 51.2706C104.006 50.4695 104.46 49.6689 104.92 48.8721C105.693 47.5337 106.469 46.1969 107.245 44.8599C108.678 42.3915 110.111 39.9227 111.525 37.4423C111.556 37.3878 111.587 37.3333 111.619 37.2786C112.109 36.4324 112.622 35.5467 112.355 34.4573L94.6789 56.2425C95.4409 57.6651 96.552 58.0721 98.0385 58.0346C99.6152 57.9932 100.295 56.8578 100.954 55.7567C100.988 55.6996 101.023 55.6425 101.057 55.5858ZM79.0216 53.5231C78.6094 54.1718 78.2304 54.841 77.886 55.5282L77.8811 55.5379L77.8767 55.5479C77.3514 56.7211 76.2946 57.2694 75.213 57.2495C74.1235 57.2293 73.0206 56.6306 72.4427 55.4904L72.4425 55.4901C70.8389 52.3308 69.1163 49.225 67.3993 46.1293C66.6875 44.8459 65.9766 43.5643 65.2756 42.2812C65.1706 42.0874 65.0585 41.8901 64.9311 41.666C64.8409 41.5072 64.743 41.3351 64.6346 41.1411L64.2604 40.4714L63.7988 41.0842C62.7605 42.4627 61.9426 43.9296 61.1562 45.3399C60.8077 45.9648 60.4654 46.5787 60.1129 47.1689L60.1127 47.1691C59.3655 48.4216 58.6404 49.667 57.9171 50.9095C57.0432 52.4106 56.1719 53.9072 55.2671 55.4066C54.5616 56.5742 53.621 57.1141 52.7558 57.138C51.8996 57.1616 50.9825 56.6833 50.3014 55.5288L50.3014 55.5286C48.6412 52.7158 47.081 49.8475 45.5158 46.9699C44.8708 45.784 44.2249 44.5966 43.5709 43.4109L43.5708 43.4108C43.1675 42.6802 42.7611 41.9553 42.3556 41.2321C41.501 39.7077 40.6507 38.191 39.8433 36.6452L79.0216 53.5231Z" stroke="#FAF8F5"/>
<path d="M74.985 72.3724L74.5581 71.6065C74.2448 71.0444 73.9702 70.5567 73.7186 70.11C73.4267 69.5918 73.1659 69.1287 72.9119 68.6685L72.9106 68.6662C72.4882 67.8912 72.0653 67.116 71.6424 66.3406C69.9931 63.3171 68.3424 60.2911 66.7162 57.2694L66.7144 57.2661C66.3483 56.5732 65.9317 56.0627 65.437 55.7423C64.9522 55.4284 64.3537 55.2718 63.5679 55.3519C62.4297 55.4718 61.7773 56.1473 61.1714 57.2011L61.1707 57.2023C59.1089 60.7654 57.0468 64.309 54.9826 67.8561C54.644 68.4379 54.3054 69.0199 53.9667 69.602L53.9656 69.6039C53.9156 69.6889 53.8723 69.7787 53.8183 69.8903C53.8069 69.9139 53.7951 69.9384 53.7826 69.9641C53.7162 70.1007 53.6338 70.2647 53.5256 70.4206C53.2914 70.7583 52.9424 71.0472 52.3742 71.1272L52.0374 71.1746L51.8696 70.8787C51.6811 70.5463 51.4898 70.2118 51.2974 69.8755C50.893 69.1683 50.484 68.4532 50.0867 67.7332L74.985 72.3724ZM74.985 72.3724L75.4268 71.6151C76.7398 69.3642 77.9928 67.207 79.2205 65.0936C80.1517 63.4903 81.0684 61.9123 81.9855 60.3375L81.986 60.3367C82.1457 60.0613 82.3038 59.7866 82.4613 59.5128C82.9074 58.7373 83.3493 57.9693 83.8114 57.2157L74.985 72.3724ZM72.1653 78.9761C70.8309 76.5807 69.5216 74.1728 68.2108 71.762C67.4932 70.4421 66.775 69.1213 66.052 67.8012C65.6937 67.1452 65.3212 66.4935 64.9189 65.7898C64.7078 65.4204 64.4885 65.0367 64.2587 64.6305L63.8314 63.8752L63.3922 64.6236C62.8779 65.5 62.3699 66.3632 61.8669 67.2178C60.7789 69.0664 59.7145 70.8749 58.6607 72.6907L58.6601 72.6917C58.3534 73.2229 58.0396 73.7547 57.7245 74.2885C56.8797 75.7198 56.0262 77.166 55.2774 78.6572C54.6415 79.9192 53.5903 80.586 52.5609 80.6212C51.5464 80.6558 50.4197 80.0797 49.6155 78.574C48.0677 75.6739 46.4766 72.7934 44.8877 69.9166C43.9826 68.278 43.0782 66.6406 42.1829 65.0016L42.1827 65.0011C41.429 63.6247 40.6913 62.2409 39.952 60.854C39.6209 60.2329 39.2894 59.6112 38.956 58.9891L38.9547 58.9866C38.6693 58.4614 38.5826 57.9764 38.6389 57.5219C38.6958 57.0623 38.9038 56.5953 39.2701 56.1212C39.6574 55.6212 40.0989 55.3246 40.5793 55.1753C41.0653 55.0243 41.6223 55.0147 42.2475 55.1412C42.2475 55.1412 42.2475 55.1412 42.2475 55.1412L72.1653 78.9761Z" stroke="#FAF8F5"/>
</svg>
