<svg width="157" height="107" viewBox="0 0 157 107" fill="none" xmlns="http://www.w3.org/2000/svg">
<path d="M28.1386 1.25515C29.0812 1.00218 30.0708 0.97994 31.0239 1.19024C36.5659 2.40099 42.2344 3.41083 47.864 4.2006C73.8128 7.81051 100.197 6.7676 125.78 1.12085C127.325 0.774216 128.944 1.03869 130.298 1.85888C131.652 2.67907 132.637 3.99136 133.045 5.521L155.695 90.0511C156.115 91.6184 155.896 93.2882 155.087 94.6947C154.278 96.1011 152.945 97.1295 151.379 97.5544L151.179 97.6078C126.986 103.241 102.221 106.047 77.3814 105.971C53.2458 105.878 29.198 103.056 5.69609 97.5604C4.89611 97.3755 4.14187 97.0305 3.47879 96.5462C2.81572 96.0619 2.25753 95.4484 1.83792 94.7426C1.41385 94.038 1.13657 93.2549 1.02279 92.4404C0.909018 91.6259 0.961124 90.7968 1.17588 90.0029L23.789 5.60405C24.0699 4.56462 24.6183 3.61699 25.3796 2.85561C26.1409 2.09423 27.0884 1.54569 28.1278 1.26473M27.8772 0.329731C26.6732 0.65192 25.5752 1.28547 24.6937 2.16669C23.8122 3.04791 23.1784 4.14572 22.8558 5.3497L0.242567 89.7486C-0.00388417 90.6669 -0.0632883 91.6254 0.0677921 92.5672C0.198872 93.5089 0.517776 94.4148 1.00564 95.2309C1.49351 96.047 2.14038 96.7568 2.90781 97.3182C3.67525 97.8795 4.54765 98.2809 5.4732 98.4986C53.4639 109.737 103.4 109.754 151.398 98.5481L151.628 98.4863C153.442 97.9949 154.987 96.8043 155.925 95.1756C156.862 93.5468 157.115 91.6127 156.629 89.7974L133.979 5.26735C133.506 3.49705 132.367 1.97812 130.801 1.02827C129.234 0.0784255 127.36 -0.228749 125.572 0.171048C100.101 5.79538 73.831 6.83238 47.9957 3.23332C42.3474 2.44856 36.7537 1.45204 31.2146 0.243846C30.1112 0.000484839 28.9655 0.0256705 27.8739 0.317252L27.8772 0.329731Z" fill="#FAF8F5"/>
<path d="M86.1235 47.6689L86.7402 47.2617C87.0936 47.0284 87.4235 46.8178 87.7359 46.6183C88.3916 46.1998 88.9708 45.83 89.5312 45.4008L89.5378 45.3958L89.5379 45.3958C93.2769 42.6293 96.0572 39.1551 97.4391 34.6729L97.4392 34.6724C97.8515 33.3404 98.0007 32.2186 97.2118 31.2372L86.1235 47.6689ZM86.1235 47.6689L86.7309 48.0899M86.1235 47.6689L86.7309 48.0899M86.7309 48.0899C93.0023 52.4368 96.3457 58.3748 96.166 65.9424L96.1659 65.9423M86.7309 48.0899L96.1659 65.9423M96.1659 65.9423L96.1659 65.949M96.1659 65.9423L96.1659 65.949M96.1659 65.949C96.1372 68.7035 95.5182 71.4197 94.3507 73.9146C93.1832 76.4095 91.4943 78.625 89.3979 80.4118L89.3979 80.4117M96.1659 65.949L89.3979 80.4117M89.3979 80.4117L89.3926 80.4163M89.3979 80.4117L89.3926 80.4163M89.3926 80.4163C85.3482 83.9616 80.0649 85.7621 74.6972 85.4246C69.3298 85.087 64.314 82.6391 60.7454 78.6154C53.183 70.0052 54.2548 56.2727 63.9957 48.9864L64.1945 48.8378M89.3926 80.4163L64.1945 48.8378M64.1945 48.8378L64.1962 48.5896M64.1945 48.8378L64.1962 48.5896M64.1962 48.5896C64.1982 48.3172 64.1327 48.0722 63.9876 47.8676M64.1962 48.5896L63.9876 47.8676M53.1988 37.321L53.2024 37.3287C55.2744 41.7058 58.5959 44.8782 62.8192 47.2337L53.1988 37.321ZM53.1988 37.321L53.1949 37.3134M53.1988 37.321L53.1949 37.3134M53.1949 37.3134C52.9289 36.7977 52.6961 36.2654 52.498 35.72C51.9002 33.887 52.5486 32.4102 53.8413 31.9024C54.6984 31.5707 55.4982 31.5918 56.1611 31.8939C56.8251 32.1966 57.4057 32.8062 57.7737 33.7513L57.7738 33.7514M53.1949 37.3134L57.7738 33.7514M57.7738 33.7514C59.7063 38.71 63.3983 41.7649 68.244 43.4594C75.6943 46.0679 84.3189 43.9575 89.2863 38.0413L89.2863 38.0414M57.7738 33.7514L89.2863 38.0414M89.2863 38.0414L89.2927 38.0335M89.2863 38.0414L89.2927 38.0335M89.2927 38.0335C90.6626 36.3335 91.6954 34.3876 92.3357 32.3004M89.2927 38.0335L92.3357 32.3004M63.9876 47.8676C63.8462 47.6681 63.66 47.5508 63.4983 47.4759M63.9876 47.8676L63.4983 47.4759M63.4983 47.4759C63.3578 47.4108 63.2067 47.3656 63.0968 47.3327M63.4983 47.4759L63.0968 47.3327M63.0968 47.3327C63.0857 47.3294 63.0751 47.3262 63.0649 47.3231M63.0968 47.3327L63.0649 47.3231M63.0649 47.3231C62.9343 47.2837 62.865 47.2592 62.8192 47.2337L63.0649 47.3231ZM92.3357 32.3004C92.7403 31.0979 93.6092 30.3941 94.5285 30.2009C95.446 30.0081 96.4642 30.3117 97.2112 31.2365L92.3357 32.3004ZM61.3017 65.8033C61.6324 75.3337 69.8793 80.4911 76.2913 79.7855C83.3317 80.1697 90.9325 73.7532 90.5977 64.876C90.5497 62.9477 90.1194 61.0481 89.3315 59.2874C88.5431 57.5258 87.4126 55.9384 86.0056 54.6174C84.5987 53.2964 82.9432 52.2681 81.1355 51.5923C79.3278 50.9164 77.4039 50.6066 75.4754 50.6806C67.9643 50.9686 60.9902 56.84 61.3017 65.8033Z" stroke="#FAF8F5"/>
</svg>
