<svg width="157" height="107" viewBox="0 0 157 107" fill="none" xmlns="http://www.w3.org/2000/svg">
<path d="M128.76 1.26267C129.8 1.54363 130.747 2.09217 131.508 2.85355C132.27 3.61493 132.818 4.56255 133.099 5.60198L155.712 90.0009C155.927 90.7947 155.979 91.6239 155.865 92.4384C155.751 93.2529 155.472 94.0358 155.047 94.7397C154.629 95.446 154.071 96.0599 153.408 96.5444C152.746 97.0288 151.992 97.3738 151.192 97.5583C127.69 103.054 103.642 105.876 79.5067 105.969C54.6667 106.045 29.9017 103.239 5.70876 97.6058L5.50934 97.5523C3.94344 97.1275 2.60985 96.0991 1.80083 94.6927C0.991803 93.2862 0.773276 91.6163 1.19324 90.049L23.843 5.51894C24.2515 3.9893 25.236 2.67701 26.5902 1.85682C27.9444 1.03663 29.5634 0.772176 31.1081 1.11881C56.6898 6.76566 83.0732 7.80827 109.021 4.1977C114.663 3.41127 120.335 2.40227 125.861 1.18734C126.814 0.977041 127.804 0.999278 128.746 1.25225M128.997 0.317249C127.904 0.0257635 126.758 0.000294 125.653 0.243007C120.118 1.45232 114.525 2.44914 108.875 3.23334C83.0398 6.8324 56.7697 5.79538 31.2986 0.171048C29.5104 -0.228749 27.637 0.0784255 26.0701 1.02827C24.5033 1.97812 23.3644 3.49707 22.8917 5.26737L0.241914 89.7975C-0.244491 91.6127 0.00874382 93.5468 0.946124 95.1756C1.8835 96.8043 3.42851 97.9949 5.24237 98.4863L5.47299 98.5481C53.4709 109.754 103.407 109.737 151.398 98.4986C152.323 98.2809 153.196 97.8795 153.963 97.3182C154.73 96.7568 155.377 96.047 155.865 95.2309C156.353 94.4148 156.672 93.5089 156.803 92.5672C156.934 91.6254 156.875 90.6669 156.628 89.7486L134.015 5.34972C133.692 4.14574 133.058 3.04791 132.177 2.16669C131.296 1.28547 130.198 0.651917 128.993 0.329728L128.997 0.317249Z" fill="#FAF8F5"/>
<path d="M65.9648 63.3279L65.9648 63.3351C65.9608 63.8572 65.9432 64.3646 65.926 64.863C65.8909 65.8778 65.8571 66.8551 65.9419 67.8426L65.9424 67.8482L65.9423 67.8482C65.9951 68.5565 65.8825 69.1293 65.5375 69.6076C65.2074 70.0651 64.7077 70.372 64.1422 70.6514L64.1368 70.6541L64.1367 70.654C60.0785 72.5978 56.5374 75.4736 53.8024 79.0468L53.8023 79.047C53.1782 79.8618 52.7485 80.5374 52.9053 81.3485C53.1285 82.4931 53.5754 83.3607 54.6412 83.7081C55.2484 83.9061 55.7913 83.962 56.2736 83.8725C56.7487 83.7844 57.199 83.5492 57.6205 83.1058L57.6213 83.1049C58.0117 82.6962 58.3746 82.264 58.7489 81.8183C58.8648 81.6803 58.9818 81.541 59.101 81.4007C59.5976 80.8164 60.1246 80.2254 60.7302 79.7101C66.622 74.6823 73.3618 72.1572 81.2733 73.5188C86.2038 74.3673 90.5519 76.382 94.1073 79.9793M65.9648 63.3279L57.9829 83.4502C58.3854 83.0288 58.7624 82.5799 59.1389 82.1315C59.7438 81.4112 60.3475 80.6922 61.0542 80.091C66.8572 75.1387 73.4517 72.6801 81.1885 74.0116C86.0323 74.8452 90.2803 76.8185 93.7517 80.3308C94.3291 80.9136 94.87 81.533 95.4111 82.1527C95.9173 82.7323 96.4237 83.3123 96.9606 83.863C97.536 84.4869 98.3341 84.859 99.182 84.8986C100.03 84.9382 100.859 84.6421 101.49 84.0745C102.705 83.0806 102.992 81.4371 102.146 79.9546M65.9648 63.3279L65.9647 63.3208C65.8317 57.0454 65.9666 50.7707 66.1017 44.4826C66.1188 43.6875 66.1359 42.8923 66.1524 42.0968L66.1524 42.0965C66.1651 41.4717 66.0742 40.9274 65.7931 40.4538C65.5124 39.9809 65.0776 39.6386 64.5201 39.3474C60.5454 37.2361 57.1117 34.2358 54.4865 30.5801L54.4847 30.5777C53.7732 29.5992 53.4599 28.718 53.9136 27.6817M65.9648 63.3279L53.9136 27.6817M94.1073 79.9793L93.7523 80.3302L94.1069 79.9789C94.1071 79.979 94.1072 79.9792 94.1073 79.9793ZM94.1073 79.9793C94.6786 80.5559 95.2128 81.1654 95.7352 81.7636L95.7843 81.8199C96.2931 82.4025 96.7915 82.9733 97.3186 83.5139L97.3283 83.5239L97.3282 83.524C97.8144 84.0513 98.4888 84.3657 99.2053 84.3992C99.9217 84.4326 100.622 84.1824 101.156 83.7028L101.164 83.6949L101.174 83.6875C102.185 82.8602 102.446 81.4909 101.714 80.2048M101.714 80.2048C101.714 80.2054 101.714 80.2061 101.715 80.2067L102.146 79.9546M101.714 80.2048C101.713 80.2039 101.713 80.2031 101.712 80.2023L102.146 79.9546M101.714 80.2048C101.385 79.6429 101.002 79.1148 100.57 78.6282L100.569 78.6266C97.917 75.6132 95.0873 72.892 91.479 71.1991M102.146 79.9546C101.801 79.3635 101.399 78.808 100.944 78.2962C98.2785 75.2671 95.3935 72.4831 91.6903 70.7459M53.9136 27.6817C54.3894 26.5989 55.2356 26.0022 56.1198 25.8793C57.0034 25.7566 57.9924 26.0978 58.7718 27.0332C60.4283 29.0265 62.1498 31.0118 64.3149 32.5862C67.6738 35.0956 71.6435 36.6597 75.8114 37.116C84.6475 38.0867 91.8494 35.0245 97.5358 28.3126L97.5363 28.3121C98.3287 27.3742 99.0391 26.7862 100.192 26.8442L53.9136 27.6817ZM91.5889 39.9884C93.8242 38.9612 95.9035 37.624 97.7654 36.0163L97.7682 36.0138C99.6327 34.428 101.449 32.871 102.57 30.8214C103.546 29.0365 102.298 26.9516 100.192 26.8442L91.5889 39.9884ZM91.5889 39.9884C91.0867 40.2172 90.696 40.5135 90.4426 40.9372C90.1928 41.355 90.1121 41.8374 90.1119 42.3688C90.0975 44.347 90.0516 46.336 90.0056 48.3295C89.9249 51.8289 89.8438 55.3424 89.9322 58.8368L89.9322 58.8373C90.0178 62.0986 90.0194 65.3523 89.9793 68.6143C89.9793 68.6145 89.9793 68.6146 89.9793 68.6148L90.4793 68.6209M91.5889 39.9884L91.479 71.1991M90.4793 68.6209C90.4643 69.6491 90.6776 70.2741 91.6903 70.7459M90.4793 68.6209C90.5194 65.3547 90.5179 62.0941 90.432 58.8242L90.4793 68.6209ZM91.6903 70.7459L91.4779 71.1986C91.4783 71.1987 91.4786 71.1989 91.479 71.1991M91.6903 70.7459L91.4791 71.1991C91.4791 71.1991 91.479 71.1991 91.479 71.1991M97.1544 27.9894C97.9713 27.0225 98.8198 26.2744 100.217 26.3449C102.649 26.4687 104.181 28.9168 103.009 31.0612L97.1544 27.9894ZM72.285 42.2035L71.6661 42.0377L71.6557 42.6783C71.6281 44.3706 71.593 46.0379 71.5582 47.6874C71.4727 51.7454 71.3894 55.6951 71.4267 59.6393L71.4267 59.6395C71.4449 61.5187 71.4401 63.3983 71.4353 65.2808C71.4343 65.6725 71.4333 66.0643 71.4325 66.4563L71.4325 66.4569C71.4321 66.9295 71.5014 67.4539 71.8782 67.7762C72.2745 68.1152 72.8085 68.0683 73.2907 67.9361L73.2957 67.9347C74.2839 67.6529 75.2825 67.6565 76.3601 67.6605C76.6454 67.6615 76.9361 67.6626 77.2337 67.6584C79.3966 67.6516 81.5556 67.8412 83.6842 68.2247L84.0933 68.2984L84.2405 67.9096C84.5397 67.1189 84.5198 66.3677 84.5033 65.7495C84.4999 65.6191 84.4965 65.4946 84.4964 65.3768C84.4979 62.9061 84.4919 60.4438 84.4859 57.9825C84.4793 55.2892 84.4727 52.597 84.476 49.8962C84.4795 48.3851 84.5088 46.8751 84.5392 45.3136C84.5542 44.5406 84.5695 43.755 84.582 42.9503L84.5914 42.3464L83.9963 42.45C80.1136 43.1259 76.1368 43.0423 72.2861 42.2038L72.285 42.2035Z" stroke="#FAF8F5"/>
</svg>
