<svg width="238" height="253" viewBox="0 0 238 253" fill="none" xmlns="http://www.w3.org/2000/svg">
<ellipse cx="5.43884" cy="51.2015" rx="4.52869" ry="4.51786" fill="#F2E9DD"/>
<ellipse cx="29.5929" cy="73.7914" rx="6.03825" ry="6.02381" fill="#F2E9DD"/>
<ellipse cx="97.5209" cy="99.3929" rx="4.52869" ry="4.51786" fill="#F2E9DD"/>
<ellipse cx="133.753" cy="88.85" rx="6.03825" ry="6.02381" fill="#F2E9DD"/>
<ellipse cx="130.73" cy="30.1176" rx="6.03825" ry="6.02381" fill="#F2E9DD"/>
<ellipse cx="44.6905" cy="3.01191" rx="3.01865" ry="3.01191" fill="#F2E9DD"/>
<ellipse cx="132.244" cy="146.078" rx="4.52869" ry="4.51786" fill="#F2E9DD"/>
<ellipse cx="198.663" cy="123.489" rx="6.03825" ry="6.02381" fill="#F2E9DD"/>
<ellipse cx="233.38" cy="182.219" rx="4.52869" ry="4.51786" fill="#F2E9DD"/>
<ellipse cx="165.452" cy="246.977" rx="6.03825" ry="6.02381" fill="#F2E9DD"/>
<line y1="-0.5" x2="32.0605" y2="-0.5" transform="matrix(0.753357 0.657611 -0.659397 0.751795 5.4375 52.709)" stroke="#F2E9DD"/>
<line y1="-0.5" x2="75.104" y2="-0.5" transform="matrix(0.924583 0.38098 -0.382542 0.923938 29.5898 72.2852)" stroke="#F2E9DD"/>
<line y1="-0.5" x2="38.1801" y2="-0.5" transform="matrix(0.94891 -0.315547 0.31691 0.948456 97.5234 100.898)" stroke="#F2E9DD"/>
<line y1="-0.5" x2="73.5743" y2="-0.5" transform="matrix(0.882254 0.470775 -0.472531 0.881314 133.75 88.8516)" stroke="#F2E9DD"/>
<line y1="-0.5" x2="70.2937" y2="-0.5" transform="matrix(0.515402 0.856949 -0.858036 0.51359 198.66 123.488)" stroke="#F2E9DD"/>
<line y1="-0.5" x2="94.9486" y2="-0.5" transform="matrix(-0.731342 0.682011 -0.683756 -0.729711 234.891 182.221)" stroke="#F2E9DD"/>
<line y1="-0.5" x2="102.892" y2="-0.5" transform="matrix(-0.308098 -0.951355 0.951785 -0.306765 165.453 245.469)" stroke="#F2E9DD"/>
<line y1="-0.5" x2="56.0717" y2="-0.5" transform="matrix(-0.592284 -0.805729 0.807079 -0.590443 132.242 146.076)" stroke="#F2E9DD"/>
<line y1="-0.5" x2="58.7516" y2="-0.5" transform="matrix(-0.025694 -0.99967 0.999673 -0.0255713 133.75 88.8516)" stroke="#F2E9DD"/>
<line y1="-0.5" x2="88.7753" y2="-0.5" transform="matrix(-0.952242 -0.305346 0.306674 -0.951815 130.734 30.1172)" stroke="#F2E9DD"/>
</svg>
