<svg width="188" height="263" viewBox="0 0 188 263" fill="none" xmlns="http://www.w3.org/2000/svg">
<ellipse cx="181.558" cy="6.37573" rx="5.7099" ry="6.37573" fill="black"/>
<ellipse cx="174.417" cy="39.848" rx="2.85495" ry="3.18787" fill="black"/>
<ellipse cx="180.13" cy="105.2" rx="4.28242" ry="4.7818" fill="black"/>
<ellipse cx="159.436" cy="176.129" rx="3.56868" ry="3.98483" fill="black"/>
<ellipse cx="135.882" cy="194.46" rx="5.7099" ry="6.37573" fill="black"/>
<ellipse cx="114.468" cy="181.71" rx="5.7099" ry="6.37573" fill="black"/>
<ellipse cx="80.9163" cy="161.782" rx="3.56868" ry="3.98483" fill="black"/>
<ellipse cx="63.0771" cy="119.546" rx="5.7099" ry="6.37573" fill="black"/>
<ellipse cx="43.8109" cy="115.559" rx="3.56868" ry="3.98483" fill="black"/>
<ellipse cx="21.6865" cy="106.794" rx="5.7099" ry="6.37573" fill="black"/>
<ellipse cx="11.6865" cy="143.454" rx="5.7099" ry="6.37573" fill="black"/>
<ellipse cx="51.6591" cy="219.964" rx="5.7099" ry="6.37573" fill="black"/>
<ellipse cx="68.0726" cy="230.327" rx="3.56868" ry="3.98483" fill="black"/>
<ellipse cx="74.5068" cy="250.249" rx="5.7099" ry="6.37573" fill="black"/>
<ellipse cx="47.3779" cy="256.624" rx="5.7099" ry="6.37573" fill="black"/>
<line y1="-0.5" x2="36.9099" y2="-0.5" transform="matrix(-0.116024 0.993246 -0.98956 -0.144124 51.6562 219.961)" stroke="black"/>
<line y1="-0.5" x2="86.32" y2="-0.5" transform="matrix(0.463036 0.886339 -0.837924 0.545787 11.6875 143.455)" stroke="black"/>
<line y1="-0.5" x2="26.4963" y2="-0.5" transform="matrix(0.430997 0.902354 -0.859184 0.511666 0.269531 119.545)" stroke="black"/>
<line y1="-0.5" x2="23.7062" y2="-0.5" transform="matrix(0.843012 -0.537895 0.455564 0.890203 1.69922 119.545)" stroke="black"/>
<line y1="-0.5" x2="23.4508" y2="-0.5" transform="matrix(0.913065 0.407815 -0.337241 0.941418 21.6797 106.793)" stroke="black"/>
<line y1="-0.5" x2="20.2373" y2="-0.5" transform="matrix(0.987515 0.157524 -0.126904 0.991915 43.0977 116.357)" stroke="black"/>
<line y1="-0.5" x2="44.8429" y2="-0.5" transform="matrix(0.381993 0.924165 -0.8889 0.458102 63.082 119.545)" stroke="black"/>
<line y1="-0.5" x2="39.2372" y2="-0.5" transform="matrix(0.873136 0.487477 -0.408682 0.912677 80.207 162.582)" stroke="black"/>
<line y1="-0.5" x2="25.7734" y2="-0.5" transform="matrix(0.830783 0.556597 -0.473334 0.880883 114.473 181.709)" stroke="black"/>
<line y1="-0.5" x2="30.8989" y2="-0.5" transform="matrix(0.785371 -0.619026 0.534347 0.845265 135.883 194.461)" stroke="black"/>
<line y1="-0.5" x2="74.459" y2="-0.5" transform="matrix(0.268398 -0.963308 0.944625 0.328153 160.148 176.93)" stroke="black"/>
<line y1="-0.5" x2="65.4915" y2="-0.5" transform="matrix(-0.0653891 -0.99786 0.996679 -0.0814319 180.133 105.197)" stroke="black"/>
<line y1="-0.5" x2="34.2256" y2="-0.5" transform="matrix(-0.208542 0.978014 -0.966429 -0.256935 181.562 6.375)" stroke="black"/>
<line y1="-0.5" x2="26.4737" y2="-0.5" transform="matrix(0.970567 -0.240832 0.195187 0.980766 48.8086 256.621)" stroke="black"/>
<line y1="-0.5" x2="20.4164" y2="-0.5" transform="matrix(0.349606 0.936897 -0.906673 0.421834 67.3672 231.121)" stroke="black"/>
<line y1="-0.5" x2="20.443" y2="-0.5" transform="matrix(0.837924 0.545787 -0.463036 0.886339 51.6562 219.961)" stroke="black"/>
<ellipse cx="93.0536" cy="130.7" rx="5.7099" ry="6.37573" fill="black"/>
</svg>
