<svg width="187" height="210" viewBox="0 0 187 210" fill="none" xmlns="http://www.w3.org/2000/svg">
<ellipse cx="73.0065" cy="66.5856" rx="3.84246" ry="3.84146" fill="white"/>
<ellipse cx="96.053" cy="110.122" rx="5.12328" ry="5.12195" fill="white"/>
<ellipse cx="179.326" cy="204.878" rx="5.12329" ry="5.12195" fill="white"/>
<ellipse cx="147.288" cy="71.7086" rx="3.84246" ry="3.84146" fill="white"/>
<ellipse cx="52.5139" cy="154.94" rx="5.12329" ry="5.12195" fill="white"/>
<ellipse cx="2.56164" cy="175.428" rx="2.56164" ry="2.56098" fill="white"/>
<ellipse cx="166.514" cy="21.7684" rx="5.12329" ry="5.12195" fill="white"/>
<ellipse cx="181.405" cy="3.84146" rx="3.84246" ry="3.84146" fill="white"/>
<line y1="-0.75" x2="49.8764" y2="-0.75" transform="matrix(0.487918 0.872889 -0.872998 0.487724 71.7344 66.5859)" stroke="white" stroke-width="1.5"/>
<line y1="-0.75" x2="63.2752" y2="-0.75" transform="matrix(-0.809683 0.586867 -0.587068 -0.809538 147.289 72.9863)" stroke="white" stroke-width="1.5"/>
<line y1="-0.75" x2="55.9049" y2="-0.75" transform="matrix(-0.343661 0.939094 -0.939152 -0.343502 166.516 20.4902)" stroke="white" stroke-width="1.5"/>
<line y1="-0.75" x2="127.942" y2="-0.75" transform="matrix(0.660725 0.750628 -0.750799 0.660531 94.7812 108.842)" stroke="white" stroke-width="1.5"/>
<line y1="-0.75" x2="62.49" y2="-0.75" transform="matrix(0.696879 -0.717188 0.71737 0.696692 52.5156 153.66)" stroke="white" stroke-width="1.5"/>
<line y1="-0.75" x2="52.8076" y2="-0.75" transform="matrix(0.921672 -0.387971 0.388143 0.921599 3.84375 175.428)" stroke="white" stroke-width="1.5"/>
<line y1="-0.75" x2="21.0036" y2="-0.75" transform="matrix(-0.609811 0.792547 -0.792701 -0.609611 179.32 5.12305)" stroke="white" stroke-width="1.5"/>
</svg>
