<svg width="192" height="234" viewBox="0 0 192 234" fill="none" xmlns="http://www.w3.org/2000/svg">
<ellipse cx="186.312" cy="5.67273" rx="5.67939" ry="5.67273" fill="white"/>
<ellipse cx="179.215" cy="35.4575" rx="2.8397" ry="2.83636" fill="white"/>
<ellipse cx="184.892" cy="93.6022" rx="4.25954" ry="4.25454" fill="white"/>
<ellipse cx="164.323" cy="156.708" rx="3.54962" ry="3.54546" fill="white"/>
<ellipse cx="140.89" cy="173.018" rx="5.67939" ry="5.67273" fill="white"/>
<ellipse cx="119.593" cy="161.675" rx="5.67939" ry="5.67273" fill="white"/>
<ellipse cx="86.2215" cy="143.944" rx="3.54962" ry="3.54546" fill="white"/>
<ellipse cx="68.4763" cy="106.366" rx="5.67939" ry="5.67273" fill="white"/>
<ellipse cx="49.2996" cy="102.819" rx="3.54962" ry="3.54546" fill="white"/>
<ellipse cx="27.2888" cy="95.0204" rx="5.67939" ry="5.67273" fill="white"/>
<ellipse cx="5.67939" cy="104.673" rx="5.67939" ry="5.67273" fill="white"/>
<ellipse cx="57.1169" cy="195.71" rx="5.67939" ry="5.67273" fill="white"/>
<ellipse cx="73.4402" cy="204.93" rx="3.54962" ry="3.54546" fill="white"/>
<ellipse cx="79.8278" cy="222.655" rx="5.67939" ry="5.67273" fill="white"/>
<ellipse cx="52.8591" cy="228.327" rx="5.67939" ry="5.67273" fill="white"/>
<line y1="-0.75" x2="32.8951" y2="-0.75" transform="matrix(-0.129489 0.991581 -0.99162 -0.12919 57.1016 195.709)" stroke="white" stroke-width="1.5"/>
<line y1="-0.75" x2="78.8315" y2="-0.75" transform="matrix(0.504312 0.863521 -0.864036 0.50343 17.3516 127.637)" stroke="white" stroke-width="1.5"/>
<line y1="-0.75" x2="25.2103" y2="-0.75" transform="matrix(0.450561 0.892746 -0.89338 0.449302 6 105.131)" stroke="white" stroke-width="1.5"/>
<line y1="-0.75" x2="23.6069" y2="-0.75" transform="matrix(0.865928 -0.50017 0.501486 0.865166 6.85156 106.826)" stroke="white" stroke-width="1.5"/>
<line y1="-0.75" x2="22.9346" y2="-0.75" transform="matrix(0.928627 0.371015 -0.371766 0.928326 27.2969 95.0215)" stroke="white" stroke-width="1.5"/>
<line y1="-0.75" x2="20.0792" y2="-0.75" transform="matrix(0.989973 0.141259 -0.141584 0.989926 48.5938 103.527)" stroke="white" stroke-width="1.5"/>
<line y1="-0.75" x2="40.6189" y2="-0.75" transform="matrix(0.419464 0.907772 -0.908146 0.418653 68.4766 106.365)" stroke="white" stroke-width="1.5"/>
<line y1="-0.75" x2="38.0896" y2="-0.75" transform="matrix(0.894637 0.446794 -0.447634 0.894217 85.5078 144.656)" stroke="white" stroke-width="1.5"/>
<line y1="-0.75" x2="24.8295" y2="-0.75" transform="matrix(0.857759 0.514052 -0.51494 0.857226 119.586 161.674)" stroke="white" stroke-width="1.5"/>
<line y1="-0.75" x2="29.5336" y2="-0.75" transform="matrix(0.817287 -0.576231 0.577135 0.816649 140.883 173.02)" stroke="white" stroke-width="1.5"/>
<line y1="-0.75" x2="66.8423" y2="-0.75" transform="matrix(0.297385 -0.954758 0.954956 0.296749 165.023 157.422)" stroke="white" stroke-width="1.5"/>
<line y1="-0.75" x2="58.3013" y2="-0.75" transform="matrix(-0.0730607 -0.997328 0.99734 -0.0728906 184.906 93.6016)" stroke="white" stroke-width="1.5"/>
<line y1="-0.75" x2="30.6163" y2="-0.75" transform="matrix(-0.231878 0.972745 -0.972867 -0.231363 186.32 5.67188)" stroke="white" stroke-width="1.5"/>
<line y1="-0.75" x2="26.1792" y2="-0.75" transform="matrix(0.976241 -0.216688 0.217173 0.976133 54.2812 228.328)" stroke="white" stroke-width="1.5"/>
<line y1="-0.75" x2="18.4396" y2="-0.75" transform="matrix(0.385 0.922916 -0.923237 0.384231 72.7344 205.637)" stroke="white" stroke-width="1.5"/>
<line y1="-0.75" x2="19.7193" y2="-0.75" transform="matrix(0.864036 0.50343 -0.504312 0.863521 57.1016 195.709)" stroke="white" stroke-width="1.5"/>
<ellipse cx="98.281" cy="116.292" rx="5.67939" ry="5.67273" fill="white"/>
</svg>
