<svg width="192" height="234" viewBox="0 0 192 234" fill="none" xmlns="http://www.w3.org/2000/svg">
<ellipse cx="186.312" cy="5.67273" rx="5.67939" ry="5.67273" fill="white"/>
<ellipse cx="179.215" cy="35.4575" rx="2.8397" ry="2.83636" fill="white"/>
<ellipse cx="184.892" cy="93.6022" rx="4.25954" ry="4.25454" fill="white"/>
<ellipse cx="164.323" cy="156.708" rx="3.54962" ry="3.54546" fill="white"/>
<ellipse cx="140.89" cy="173.018" rx="5.67939" ry="5.67273" fill="white"/>
<ellipse cx="119.593" cy="161.675" rx="5.67939" ry="5.67273" fill="white"/>
<ellipse cx="86.2215" cy="143.944" rx="3.54962" ry="3.54546" fill="white"/>
<ellipse cx="68.4763" cy="106.366" rx="5.67939" ry="5.67273" fill="white"/>
<ellipse cx="49.2996" cy="102.819" rx="3.54962" ry="3.54546" fill="white"/>
<ellipse cx="27.2888" cy="95.0204" rx="5.67939" ry="5.67273" fill="white"/>
<ellipse cx="5.67939" cy="104.673" rx="5.67939" ry="5.67273" fill="white"/>
<ellipse cx="57.1169" cy="195.71" rx="5.67939" ry="5.67273" fill="white"/>
<ellipse cx="73.4402" cy="204.93" rx="3.54962" ry="3.54546" fill="white"/>
<ellipse cx="79.8278" cy="222.655" rx="5.67939" ry="5.67273" fill="white"/>
<ellipse cx="52.8591" cy="228.327" rx="5.67939" ry="5.67273" fill="white"/>
<ellipse cx="98.281" cy="116.292" rx="5.67939" ry="5.67273" fill="white"/>
</svg>
