<svg width="186" height="214" viewBox="0 0 186 214" fill="none" xmlns="http://www.w3.org/2000/svg">
<ellipse cx="66.4237" cy="53.1683" rx="5.31429" ry="5.31677" fill="white"/>
<ellipse cx="42.5165" cy="26.5822" rx="2.65714" ry="2.65839" fill="white"/>
<ellipse cx="55.7982" cy="67.7903" rx="3.98571" ry="3.98758" fill="white"/>
<ellipse cx="46.494" cy="91.7133" rx="5.31429" ry="5.31677" fill="white"/>
<ellipse cx="51.8065" cy="144.881" rx="5.31428" ry="5.31677" fill="white"/>
<ellipse cx="90.3455" cy="170.137" rx="5.31429" ry="5.31677" fill="white"/>
<ellipse cx="167.408" cy="206.026" rx="5.31429" ry="5.31677" fill="white"/>
<ellipse cx="140.821" cy="211.34" rx="2.65715" ry="2.65839" fill="white"/>
<ellipse cx="118.252" cy="124.944" rx="5.31429" ry="5.31677" fill="white"/>
<ellipse cx="116.923" cy="151.529" rx="3.98571" ry="3.98757" fill="white"/>
<ellipse cx="167.4" cy="22.595" rx="3.98571" ry="3.98758" fill="white"/>
<ellipse cx="180.681" cy="5.31677" rx="5.31429" ry="5.31677" fill="white"/>
<ellipse cx="2.65714" cy="163.492" rx="2.65714" ry="2.65839" fill="white"/>
<line y1="-0.75" x2="51.3211" y2="-0.75" transform="matrix(0.931947 -0.362593 0.362299 0.932062 5.32031 163.492)" stroke="white" stroke-width="1.5"/>
<line y1="-0.75" x2="53.4326" y2="-0.75" transform="matrix(0.0994577 0.995042 -0.995033 0.0995498 46.4922 91.7129)" stroke="white" stroke-width="1.5"/>
<line y1="-0.75" x2="27.9423" y2="-0.75" transform="matrix(-0.427923 0.903815 -0.90366 -0.42825 57.125 66.459)" stroke="white" stroke-width="1.5"/>
<line y1="-0.75" x2="15.1525" y2="-0.75" transform="matrix(-0.613762 0.789491 -0.789213 -0.614119 65.1016 54.4961)" stroke="white" stroke-width="1.5"/>
<line y1="-0.75" x2="123.173" y2="-0.75" transform="matrix(-0.91683 0.399277 -0.398964 -0.916967 179.359 3.98633)" stroke="white" stroke-width="1.5"/>
<line y1="-0.75" x2="22.8647" y2="-0.75" transform="matrix(-0.581058 0.813862 -0.813605 -0.581418 179.359 3.98633)" stroke="white" stroke-width="1.5"/>
<line y1="-0.75" x2="113.541" y2="-0.75" transform="matrix(0.432947 -0.901419 0.901261 0.433276 118.234 124.941)" stroke="white" stroke-width="1.5"/>
<line y1="-0.75" x2="94.8183" y2="-0.75" transform="matrix(0.518435 0.855117 -0.854902 0.518789 118.234 124.941)" stroke="white" stroke-width="1.5"/>
<line y1="-0.75" x2="83.802" y2="-0.75" transform="matrix(0.90366 0.42825 -0.427923 0.903815 90.3516 170.137)" stroke="white" stroke-width="1.5"/>
<line y1="-0.75" x2="44.9626" y2="-0.75" transform="matrix(0.827354 0.561681 -0.561322 0.827598 53.1484 144.883)" stroke="white" stroke-width="1.5"/>
</svg>
