<svg width="186" height="183" viewBox="0 0 186 183" fill="none" xmlns="http://www.w3.org/2000/svg">
<ellipse cx="29.7592" cy="60.3146" rx="4.25143" ry="4.23256" fill="white"/>
<ellipse cx="58.4538" cy="3.17683" rx="2.12571" ry="2.11628" fill="white"/>
<ellipse cx="68.0245" cy="67.7213" rx="3.18857" ry="3.17442" fill="white"/>
<ellipse cx="83.9624" cy="68.7794" rx="4.25143" ry="4.23256" fill="white"/>
<ellipse cx="100.97" cy="105.813" rx="4.25143" ry="4.23256" fill="white"/>
<ellipse cx="128.603" cy="101.582" rx="4.25143" ry="4.23256" fill="white"/>
<ellipse cx="124.353" cy="56.0822" rx="4.25143" ry="4.23256" fill="white"/>
<ellipse cx="134.978" cy="30.6861" rx="3.18857" ry="3.17442" fill="white"/>
<ellipse cx="149.861" cy="4.23256" rx="4.25143" ry="4.23256" fill="white"/>
<ellipse cx="165.806" cy="14.8126" rx="4.25143" ry="4.23256" fill="white"/>
<ellipse cx="183.868" cy="25.3956" rx="2.12572" ry="2.11628" fill="white"/>
<ellipse rx="4.25143" ry="4.23255" transform="matrix(-1 0 0 1 145.616 164.012)" fill="white"/>
<ellipse rx="2.12571" ry="2.11628" transform="matrix(-1 0 0 1 162.616 179.886)" fill="white"/>
<ellipse rx="4.25143" ry="4.23255" transform="matrix(-1 0 0 1 79.7173 143.908)" fill="white"/>
<ellipse rx="3.18857" ry="3.17441" transform="matrix(-1 0 0 1 39.3271 122.747)" fill="white"/>
<ellipse rx="4.25143" ry="4.23256" transform="matrix(-1 0 0 1 21.2564 110.045)" fill="white"/>
<ellipse rx="2.12571" ry="2.11628" transform="matrix(-1 0 0 1 2.12429 113.22)" fill="white"/>
<line y1="-0.75" x2="62.5202" y2="-0.75" transform="matrix(-0.442006 0.897012 -0.898562 -0.438847 57.3906 4.23242)" stroke="white" stroke-width="1.5"/>
<line y1="-0.75" x2="39.8349" y2="-0.75" transform="matrix(-0.987217 -0.159379 0.160766 -0.986992 69.0938 66.6621)" stroke="white" stroke-width="1.5"/>
<line y1="-0.75" x2="15.0297" y2="-0.75" transform="matrix(-0.990037 -0.140806 0.142039 -0.989861 83.9688 68.7773)" stroke="white" stroke-width="1.5"/>
<line y1="-0.75" x2="42.6668" y2="-0.75" transform="matrix(-0.946603 0.322401 -0.324979 -0.945721 124.352 55.0215)" stroke="white" stroke-width="1.5"/>
<line y1="-0.75" x2="40.7526" y2="-0.75" transform="matrix(-0.417291 -0.908773 0.910172 -0.414232 100.969 105.812)" stroke="white" stroke-width="1.5"/>
<line y1="-0.75" x2="46.7518" y2="-0.75" transform="matrix(-0.090936 -0.995857 0.995929 -0.0901372 128.609 101.58)" stroke="white" stroke-width="1.5"/>
<line y1="-0.75" x2="30.0595" y2="-0.75" transform="matrix(0.990037 -0.140806 0.142039 0.989861 98.8438 105.812)" stroke="white" stroke-width="1.5"/>
<line y1="-0.75" x2="25.5907" y2="-0.75" transform="matrix(0.41533 -0.909671 0.911057 0.412279 124.352 55.0215)" stroke="white" stroke-width="1.5"/>
<line y1="-0.75" x2="31.2779" y2="-0.75" transform="matrix(0.475736 -0.879588 0.881349 0.472466 134.977 31.7441)" stroke="white" stroke-width="1.5"/>
<line y1="-0.75" x2="20.029" y2="-0.75" transform="matrix(0.849055 0.528304 -0.531695 0.846936 148.805 4.23242)" stroke="white" stroke-width="1.5"/>
<line y1="-0.75" x2="21.8627" y2="-0.75" transform="matrix(-0.875072 -0.483993 0.487295 -0.873237 184.938 25.3945)" stroke="white" stroke-width="1.5"/>
<line y1="-0.75" x2="64.7049" y2="-0.75" transform="matrix(-0.26282 -0.964845 0.965433 -0.26065 145.609 164.01)" stroke="white" stroke-width="1.5"/>
<line y1="-0.75" x2="23.9964" y2="-0.75" transform="matrix(0.708678 0.705532 -0.708678 0.705532 144.555 162.955)" stroke="white" stroke-width="1.5"/>
<line y1="-0.75" x2="46.5412" y2="-0.75" transform="matrix(0.890639 0.454711 -0.457925 0.888991 38.2578 122.744)" stroke="white" stroke-width="1.5"/>
<line y1="-0.75" x2="44.5497" y2="-0.75" transform="matrix(-0.477155 0.878819 -0.880589 -0.473881 100.969 104.756)" stroke="white" stroke-width="1.5"/>
<line y1="-0.75" x2="22.7089" y2="-0.75" transform="matrix(0.795659 0.605745 -0.609155 0.793051 20.1875 108.988)" stroke="white" stroke-width="1.5"/>
<line y1="-0.75" x2="20.8758" y2="-0.75" transform="matrix(0.967352 -0.253437 0.255554 0.966795 1.07031 114.279)" stroke="white" stroke-width="1.5"/>
</svg>
