<svg width="252" height="276" viewBox="0 0 252 276" fill="none" xmlns="http://www.w3.org/2000/svg">
<ellipse cx="41.0692" cy="91.4635" rx="5.73718" ry="6.41858" fill="black"/>
<ellipse cx="79.7983" cy="4.81476" rx="2.86859" ry="3.20929" fill="black"/>
<ellipse cx="92.7052" cy="102.699" rx="4.30289" ry="4.81393" fill="black"/>
<ellipse cx="114.218" cy="104.303" rx="5.73718" ry="6.41858" fill="black"/>
<ellipse cx="137.171" cy="160.465" rx="5.73718" ry="6.41858" fill="black"/>
<ellipse cx="174.464" cy="154.046" rx="5.73718" ry="6.41858" fill="black"/>
<ellipse cx="168.725" cy="85.0494" rx="5.73718" ry="6.41858" fill="black"/>
<ellipse cx="183.069" cy="46.5327" rx="4.30289" ry="4.81393" fill="black"/>
<ellipse cx="203.147" cy="6.41858" rx="5.73718" ry="6.41858" fill="black"/>
<ellipse cx="224.663" cy="22.4655" rx="5.73718" ry="6.41858" fill="black"/>
<ellipse cx="249.044" cy="38.512" rx="2.86859" ry="3.20929" fill="black"/>
<ellipse rx="5.73718" ry="6.41858" transform="matrix(-1 0 0 1 197.411 248.717)" fill="black"/>
<ellipse rx="2.86859" ry="3.20929" transform="matrix(-1 0 0 1 220.358 272.791)" fill="black"/>
<ellipse rx="5.73718" ry="6.41858" transform="matrix(-1 0 0 1 108.482 218.233)" fill="black"/>
<ellipse rx="4.30289" ry="4.81393" transform="matrix(-1 0 0 1 53.9784 186.138)" fill="black"/>
<ellipse rx="5.73718" ry="6.41858" transform="matrix(-1 0 0 1 29.5948 166.883)" fill="black"/>
<ellipse rx="2.86859" ry="3.20929" transform="matrix(-1 0 0 1 3.77985 171.696)" fill="black"/>
<line y1="-0.5" x2="92.8629" y2="-0.5" transform="matrix(-0.401578 0.915825 -0.876649 -0.481131 78.3594 6.41797)" stroke="black"/>
<line y1="-0.5" x2="53.9352" y2="-0.5" transform="matrix(-0.983938 -0.178508 0.143448 -0.989658 94.1406 101.094)" stroke="black"/>
<line y1="-0.5" x2="20.3356" y2="-0.5" transform="matrix(-0.987468 -0.157821 0.126663 -0.991946 114.219 104.299)" stroke="black"/>
<line y1="-0.5" x2="58.3589" y2="-0.5" transform="matrix(-0.933932 0.35745 -0.292421 -0.95629 168.727 83.4434)" stroke="black"/>
<line y1="-0.5" x2="60.6702" y2="-0.5" transform="matrix(-0.378254 -0.925702 0.890317 -0.455341 137.168 160.465)" stroke="black"/>
<line y1="-0.5" x2="70.8371" y2="-0.5" transform="matrix(-0.0809912 -0.996715 0.994868 -0.101184 174.461 154.047)" stroke="black"/>
<line y1="-0.5" x2="40.67" y2="-0.5" transform="matrix(0.987468 -0.157821 0.126663 0.991946 134.301 160.465)" stroke="black"/>
<line y1="-0.5" x2="38.1047" y2="-0.5" transform="matrix(0.37641 -0.926453 0.891365 0.453287 168.727 83.4434)" stroke="black"/>
<line y1="-0.5" x2="46.3016" y2="-0.5" transform="matrix(0.433682 -0.901066 0.856579 0.516015 183.066 48.1387)" stroke="black"/>
<line y1="-0.5" x2="28.0024" y2="-0.5" transform="matrix(0.819528 0.573039 -0.487706 0.873008 201.711 6.41797)" stroke="black"/>
<line y1="-0.5" x2="30.3977" y2="-0.5" transform="matrix(-0.849317 -0.527883 0.44476 -0.89565 250.48 38.5098)" stroke="black"/>
<line y1="-0.5" x2="97.4157" y2="-0.5" transform="matrix(-0.235575 -0.971856 0.956928 -0.290327 197.41 248.721)" stroke="black"/>
<line y1="-0.5" x2="34.4357" y2="-0.5" transform="matrix(0.666423 0.745573 -0.666423 0.745573 195.977 247.115)" stroke="black"/>
<line y1="-0.5" x2="64.49" y2="-0.5" transform="matrix(0.867383 0.497641 -0.416689 0.909049 52.543 186.139)" stroke="black"/>
<line y1="-0.5" x2="65.9386" y2="-0.5" transform="matrix(-0.43504 0.900411 -0.855699 -0.517475 137.168 158.857)" stroke="black"/>
<line y1="-0.5" x2="32.0887" y2="-0.5" transform="matrix(0.759862 0.650084 -0.564298 0.825571 28.1641 165.279)" stroke="black"/>
<line y1="-0.5" x2="28.4082" y2="-0.5" transform="matrix(0.959289 -0.282427 0.228972 0.973433 2.34766 173.303)" stroke="black"/>
<mask id="mask0_799_19564" style="mask-type:alpha" maskUnits="userSpaceOnUse" x="0" y="0" width="252" height="276">
<ellipse cx="41.0692" cy="91.4635" rx="5.73718" ry="6.41858" fill="black"/>
<ellipse cx="79.7983" cy="4.81476" rx="2.86859" ry="3.20929" fill="black"/>
<ellipse cx="92.7052" cy="102.699" rx="4.30289" ry="4.81393" fill="black"/>
<ellipse cx="114.218" cy="104.303" rx="5.73718" ry="6.41858" fill="black"/>
<ellipse cx="137.171" cy="160.465" rx="5.73718" ry="6.41858" fill="black"/>
<ellipse cx="174.464" cy="154.046" rx="5.73718" ry="6.41858" fill="black"/>
<ellipse cx="168.725" cy="85.0494" rx="5.73718" ry="6.41858" fill="black"/>
<ellipse cx="183.069" cy="46.5327" rx="4.30289" ry="4.81393" fill="black"/>
<ellipse cx="203.147" cy="6.41858" rx="5.73718" ry="6.41858" fill="black"/>
<ellipse cx="224.663" cy="22.4655" rx="5.73718" ry="6.41858" fill="black"/>
<ellipse cx="249.044" cy="38.512" rx="2.86859" ry="3.20929" fill="black"/>
<ellipse rx="5.73718" ry="6.41858" transform="matrix(-1 0 0 1 197.411 248.717)" fill="black"/>
<ellipse rx="2.86859" ry="3.20929" transform="matrix(-1 0 0 1 220.358 272.791)" fill="black"/>
<ellipse rx="5.73718" ry="6.41858" transform="matrix(-1 0 0 1 108.482 218.233)" fill="black"/>
<ellipse rx="4.30289" ry="4.81393" transform="matrix(-1 0 0 1 53.9784 186.138)" fill="black"/>
<ellipse rx="5.73718" ry="6.41858" transform="matrix(-1 0 0 1 29.5948 166.883)" fill="black"/>
<ellipse rx="2.86859" ry="3.20929" transform="matrix(-1 0 0 1 3.77985 171.696)" fill="black"/>
<line y1="-0.5" x2="92.8629" y2="-0.5" transform="matrix(-0.401578 0.915825 -0.876649 -0.481131 78.3594 6.41797)" stroke="black"/>
<line y1="-0.5" x2="53.9352" y2="-0.5" transform="matrix(-0.983938 -0.178508 0.143448 -0.989658 94.1406 101.094)" stroke="black"/>
<line y1="-0.5" x2="20.3356" y2="-0.5" transform="matrix(-0.987468 -0.157821 0.126663 -0.991946 114.219 104.299)" stroke="black"/>
<line y1="-0.5" x2="58.3589" y2="-0.5" transform="matrix(-0.933932 0.35745 -0.292421 -0.95629 168.727 83.4434)" stroke="black"/>
<line y1="-0.5" x2="60.6702" y2="-0.5" transform="matrix(-0.378254 -0.925702 0.890317 -0.455341 137.168 160.465)" stroke="black"/>
<line y1="-0.5" x2="70.8371" y2="-0.5" transform="matrix(-0.0809912 -0.996715 0.994868 -0.101184 174.461 154.047)" stroke="black"/>
<line y1="-0.5" x2="40.67" y2="-0.5" transform="matrix(0.987468 -0.157821 0.126663 0.991946 134.301 160.465)" stroke="black"/>
<line y1="-0.5" x2="38.1047" y2="-0.5" transform="matrix(0.37641 -0.926453 0.891365 0.453287 168.727 83.4434)" stroke="black"/>
<line y1="-0.5" x2="46.3016" y2="-0.5" transform="matrix(0.433682 -0.901066 0.856579 0.516015 183.066 48.1387)" stroke="black"/>
<line y1="-0.5" x2="28.0024" y2="-0.5" transform="matrix(0.819528 0.573039 -0.487706 0.873008 201.711 6.41797)" stroke="black"/>
<line y1="-0.5" x2="30.3977" y2="-0.5" transform="matrix(-0.849317 -0.527883 0.44476 -0.89565 250.48 38.5098)" stroke="black"/>
<line y1="-0.5" x2="97.4157" y2="-0.5" transform="matrix(-0.235575 -0.971856 0.956928 -0.290327 197.41 248.721)" stroke="black"/>
<line y1="-0.5" x2="34.4357" y2="-0.5" transform="matrix(0.666423 0.745573 -0.666423 0.745573 195.977 247.115)" stroke="black"/>
<line y1="-0.5" x2="64.49" y2="-0.5" transform="matrix(0.867383 0.497641 -0.416689 0.909049 52.543 186.139)" stroke="black"/>
<line y1="-0.5" x2="65.9386" y2="-0.5" transform="matrix(-0.43504 0.900411 -0.855699 -0.517475 137.168 158.857)" stroke="black"/>
<line y1="-0.5" x2="32.0887" y2="-0.5" transform="matrix(0.759862 0.650084 -0.564298 0.825571 28.1641 165.279)" stroke="black"/>
<line y1="-0.5" x2="28.4082" y2="-0.5" transform="matrix(0.959289 -0.282427 0.228972 0.973433 2.34766 173.303)" stroke="black"/>
</mask>
<g mask="url(#mask0_799_19564)">
<rect width="315.912" height="181.79" transform="matrix(1 0 0 -1 -25 319.631)" fill="#F2E9DD"/>
</g>
</svg>
