<svg width="357" height="416" viewBox="0 0 357 416" fill="none" xmlns="http://www.w3.org/2000/svg">
<ellipse rx="4.21687" ry="4.21594" transform="matrix(0.418449 0.90824 -0.908132 0.418684 6.50623 98.267)" fill="black"/>
<ellipse rx="6.32531" ry="6.32391" transform="matrix(0.418449 0.90824 -0.908132 0.418684 55.0797 113.018)" fill="black"/>
<ellipse rx="8.43375" ry="8.43188" transform="matrix(0.418449 0.90824 -0.908132 0.418684 73.1414 197.561)" fill="black"/>
<ellipse rx="6.32531" ry="6.32391" transform="matrix(0.418449 0.90824 -0.908132 0.418684 92.4195 214.213)" fill="black"/>
<ellipse rx="4.21687" ry="4.21594" transform="matrix(0.418449 0.90824 -0.908132 0.418684 120.537 219.826)" fill="black"/>
<ellipse rx="8.43375" ry="8.43188" transform="matrix(0.418449 0.90824 -0.908132 0.418684 179.43 206.6)" fill="black"/>
<ellipse rx="6.32531" ry="6.32391" transform="matrix(0.418449 0.90824 -0.908132 0.418684 190.169 224.869)" fill="black"/>
<ellipse rx="8.43375" ry="8.43188" transform="matrix(0.418449 0.90824 -0.908132 0.418684 194.13 248.581)" fill="black"/>
<ellipse rx="8.43375" ry="8.43188" transform="matrix(0.418449 0.90824 -0.908132 0.418684 226.372 243.003)" fill="black"/>
<ellipse rx="6.32531" ry="6.32391" transform="matrix(0.418449 0.90824 -0.908132 0.418684 222.677 270.244)" fill="black"/>
<ellipse rx="8.43375" ry="8.43188" transform="matrix(0.418449 0.90824 -0.908132 0.418684 251.677 277.77)" fill="black"/>
<ellipse rx="8.43375" ry="8.43188" transform="matrix(0.418449 0.90824 -0.908132 0.418684 281.872 247.596)" fill="black"/>
<ellipse rx="6.32531" ry="6.32391" transform="matrix(0.418449 0.90824 -0.908132 0.418684 300.267 262.334)" fill="black"/>
<ellipse rx="8.43375" ry="8.43188" transform="matrix(0.418449 0.90824 -0.908132 0.418684 316.598 282.665)" fill="black"/>
<ellipse rx="6.32531" ry="6.32391" transform="matrix(0.418449 0.90824 -0.908132 0.418684 304.361 311.523)" fill="black"/>
<ellipse rx="4.21687" ry="4.21594" transform="matrix(0.418449 0.90824 -0.908132 0.418684 320.69 331.857)" fill="black"/>
<ellipse rx="6.32531" ry="6.32391" transform="matrix(0.418449 0.90824 -0.908132 0.418684 338.22 314.486)" fill="black"/>
<ellipse rx="6.32531" ry="6.32391" transform="matrix(0.418449 0.90824 -0.908132 0.418684 337.056 291.809)" fill="black"/>
<line y1="-0.5" x2="53.6661" y2="-0.5" transform="matrix(0.937996 0.346272 -0.346155 0.938315 3.71094 97.2324)" stroke="black"/>
<line y1="-0.5" x2="83.9404" y2="-0.5" transform="matrix(0.227472 0.973837 -0.973703 0.227596 54.0508 115.816)" stroke="black"/>
<line y1="-0.5" x2="26.0796" y2="-0.5" transform="matrix(0.626169 0.779609 -0.779496 0.626504 75.0586 196.678)" stroke="black"/>
<line y1="-0.5" x2="30.4037" y2="-0.5" transform="matrix(0.987709 0.155536 -0.15547 0.987962 91.3867 217.01)" stroke="black"/>
<line y1="-0.5" x2="60.3637" y2="-0.5" transform="matrix(0.975661 -0.219043 0.218925 0.975796 121.418 221.738)" stroke="black"/>
<line y1="-0.5" x2="21.1895" y2="-0.5" transform="matrix(0.32603 0.945386 -0.94527 0.326212 182.23 207.635)" stroke="black"/>
<line y1="-0.5" x2="21.5017" y2="-0.5" transform="matrix(0.232265 0.972704 -0.972571 0.232391 189.137 227.666)" stroke="black"/>
<line y1="-0.5" x2="32.725" y2="-0.5" transform="matrix(0.985297 -0.170473 0.170382 0.985443 194.129 248.582)" stroke="black"/>
<line y1="-0.5" x2="31.624" y2="-0.5" transform="matrix(-0.210016 0.977825 -0.977553 -0.210101 228.289 242.119)" stroke="black"/>
<line y1="-0.5" x2="30.4037" y2="-0.5" transform="matrix(0.987709 0.155536 -0.15547 0.987962 221.648 273.043)" stroke="black"/>
<line y1="-0.5" x2="39.9968" y2="-0.5" transform="matrix(0.729159 -0.684458 0.684104 0.729278 253.59 276.889)" stroke="black"/>
<line y1="-0.5" x2="24.678" y2="-0.5" transform="matrix(0.703553 0.710526 -0.710405 0.703912 281.871 247.598)" stroke="black"/>
<line y1="-0.5" x2="24.0395" y2="-0.5" transform="matrix(0.642607 0.76611 -0.765996 0.642948 301.148 264.25)" stroke="black"/>
<line y1="-0.5" x2="21.7066" y2="-0.5" transform="matrix(0.806763 0.59069 -0.590558 0.807131 318.508 281.783)" stroke="black"/>
<line y1="-0.5" x2="23.572" y2="-0.5" transform="matrix(-0.0317685 0.999599 -0.999391 -0.0317835 337.938 293.723)" stroke="black"/>
<line y1="-0.5" x2="19.4347" y2="-0.5" transform="matrix(-0.795704 0.605776 -0.605449 -0.795815 335.273 318.168)" stroke="black"/>
<line y1="-0.5" x2="25.4754" y2="-0.5" transform="matrix(-0.756675 -0.653642 0.653515 -0.757043 322.605 330.973)" stroke="black"/>
<line y1="-0.5" x2="34.3187" y2="-0.5" transform="matrix(0.386576 -0.922397 0.922066 0.3867 303.332 314.32)" stroke="black"/>
<mask id="mask0_799_19638" style="mask-type:alpha" maskUnits="userSpaceOnUse" x="2" y="94" width="343" height="243">
<ellipse rx="8.43375" ry="8.43188" transform="matrix(0.418449 0.90824 -0.908132 0.418684 73.1335 197.561)" fill="black"/>
<ellipse rx="6.32531" ry="6.32391" transform="matrix(0.418449 0.90824 -0.908132 0.418684 92.4117 214.213)" fill="black"/>
<ellipse rx="4.21687" ry="4.21594" transform="matrix(0.418449 0.90824 -0.908132 0.418684 120.53 219.826)" fill="black"/>
<ellipse rx="8.43375" ry="8.43188" transform="matrix(0.418449 0.90824 -0.908132 0.418684 179.423 206.602)" fill="black"/>
<ellipse rx="6.32531" ry="6.32391" transform="matrix(0.418449 0.90824 -0.908132 0.418684 190.162 224.869)" fill="black"/>
<ellipse rx="8.43375" ry="8.43188" transform="matrix(0.418449 0.90824 -0.908132 0.418684 194.122 248.581)" fill="black"/>
<ellipse rx="8.43375" ry="8.43188" transform="matrix(0.418449 0.90824 -0.908132 0.418684 226.364 243.003)" fill="black"/>
<ellipse rx="6.32531" ry="6.32391" transform="matrix(0.418449 0.90824 -0.908132 0.418684 222.669 270.244)" fill="black"/>
<ellipse rx="8.43375" ry="8.43188" transform="matrix(0.418449 0.90824 -0.908132 0.418684 251.669 277.77)" fill="black"/>
<ellipse rx="8.43375" ry="8.43188" transform="matrix(0.418449 0.90824 -0.908132 0.418684 281.864 247.598)" fill="black"/>
<ellipse rx="6.32531" ry="6.32391" transform="matrix(0.418449 0.90824 -0.908132 0.418684 300.259 262.334)" fill="black"/>
<ellipse rx="8.43375" ry="8.43188" transform="matrix(0.418449 0.90824 -0.908132 0.418684 316.591 282.667)" fill="black"/>
<ellipse rx="6.32531" ry="6.32391" transform="matrix(0.418449 0.90824 -0.908132 0.418684 304.353 311.525)" fill="black"/>
<ellipse rx="4.21687" ry="4.21594" transform="matrix(0.418449 0.90824 -0.908132 0.418684 320.682 331.857)" fill="black"/>
<ellipse rx="6.32531" ry="6.32391" transform="matrix(0.418449 0.90824 -0.908132 0.418684 338.212 314.488)" fill="black"/>
<ellipse rx="6.32531" ry="6.32391" transform="matrix(0.418449 0.90824 -0.908132 0.418684 337.048 291.809)" fill="black"/>
<ellipse rx="4.21687" ry="4.21594" transform="matrix(0.418449 0.90824 -0.908132 0.418684 6.50232 98.2689)" fill="black"/>
<ellipse rx="6.32531" ry="6.32391" transform="matrix(0.418449 0.90824 -0.908132 0.418684 55.0757 113.02)" fill="black"/>
<line y1="-0.5" x2="53.6661" y2="-0.5" transform="matrix(0.937996 0.346272 -0.346155 0.938315 3.70703 97.2344)" stroke="black"/>
<line y1="-0.5" x2="83.9404" y2="-0.5" transform="matrix(0.227472 0.973837 -0.973703 0.227596 54.0469 115.818)" stroke="black"/>
<line y1="-0.5" x2="26.0796" y2="-0.5" transform="matrix(0.626169 0.779609 -0.779496 0.626504 75.0547 196.678)" stroke="black"/>
<line y1="-0.5" x2="30.4037" y2="-0.5" transform="matrix(0.987709 0.155536 -0.15547 0.987962 91.3789 217.012)" stroke="black"/>
<line y1="-0.5" x2="60.3637" y2="-0.5" transform="matrix(0.975661 -0.219043 0.218925 0.975796 121.41 221.738)" stroke="black"/>
<line y1="-0.5" x2="21.1895" y2="-0.5" transform="matrix(0.32603 0.945386 -0.94527 0.326212 182.223 207.635)" stroke="black"/>
<line y1="-0.5" x2="21.5017" y2="-0.5" transform="matrix(0.232265 0.972704 -0.972571 0.232391 189.129 227.666)" stroke="black"/>
<line y1="-0.5" x2="32.725" y2="-0.5" transform="matrix(0.985297 -0.170473 0.170382 0.985443 194.121 248.582)" stroke="black"/>
<line y1="-0.5" x2="31.624" y2="-0.5" transform="matrix(-0.210016 0.977825 -0.977553 -0.210101 228.281 242.121)" stroke="black"/>
<line y1="-0.5" x2="30.4037" y2="-0.5" transform="matrix(0.987709 0.155536 -0.15547 0.987962 221.641 273.043)" stroke="black"/>
<line y1="-0.5" x2="39.9968" y2="-0.5" transform="matrix(0.729159 -0.684458 0.684104 0.729278 253.582 276.891)" stroke="black"/>
<line y1="-0.5" x2="24.678" y2="-0.5" transform="matrix(0.703553 0.710526 -0.710405 0.703912 281.863 247.6)" stroke="black"/>
<line y1="-0.5" x2="24.0395" y2="-0.5" transform="matrix(0.642607 0.76611 -0.765996 0.642948 301.141 264.25)" stroke="black"/>
<line y1="-0.5" x2="21.7066" y2="-0.5" transform="matrix(0.806763 0.59069 -0.590558 0.807131 318.5 281.785)" stroke="black"/>
<line y1="-0.5" x2="23.572" y2="-0.5" transform="matrix(-0.0317685 0.999599 -0.999391 -0.0317835 337.93 293.723)" stroke="black"/>
<line y1="-0.5" x2="19.4347" y2="-0.5" transform="matrix(-0.795704 0.605776 -0.605449 -0.795815 335.266 318.168)" stroke="black"/>
<line y1="-0.5" x2="25.4754" y2="-0.5" transform="matrix(-0.756675 -0.653642 0.653515 -0.757043 322.598 330.975)" stroke="black"/>
<line y1="-0.5" x2="34.3187" y2="-0.5" transform="matrix(0.386576 -0.922397 0.922066 0.3867 303.324 314.322)" stroke="black"/>
</mask>
<g mask="url(#mask0_799_19638)">
<rect width="338.639" height="217.842" transform="matrix(1 0 0 -1 33.875 347.748)" fill="#F2E9DD"/>
</g>
</svg>
