<svg width="1536" height="117" viewBox="0 0 1536 117" fill="none" xmlns="http://www.w3.org/2000/svg">
<ellipse cx="1.83795" cy="46.2276" rx="1.83795" ry="1.84089" fill="#FAF8F5"/>
<ellipse cx="121.304" cy="112.484" rx="2.75693" ry="2.76134" fill="#FAF8F5"/>
<ellipse cx="121.309" cy="96.8393" rx="3.6759" ry="3.68112" fill="#FAF8F5"/>
<ellipse cx="105.671" cy="67.3883" rx="2.75693" ry="2.76134" fill="#FAF8F5"/>
<ellipse cx="39.5275" cy="11.2534" rx="3.6759" ry="3.68112" fill="#FAF8F5"/>
<line y1="-0.5" x2="50.7363" y2="-0.5" transform="matrix(0.724512 -0.689262 0.688236 0.725487 2.74219 46.2266)" stroke="#FAF8F5"/>
<line y1="-0.5" x2="89.3643" y2="-0.5" transform="matrix(0.760977 0.648778 -0.647713 0.761885 38.5859 10.334)" stroke="#FAF8F5"/>
<line y1="-0.5" x2="32.5261" y2="-0.5" transform="matrix(0.480309 0.8771 -0.876525 0.481357 105.688 68.3086)" stroke="#FAF8F5"/>
<line x1="121.812" y1="95.9199" x2="121.812" y2="113.405" stroke="#FAF8F5"/>
<path d="M151.265 31.9336C151.265 33.1015 150.32 34.047 149.156 34.047C147.992 34.047 147.047 33.1015 147.047 31.9336C147.047 30.7657 147.992 29.8203 149.156 29.8203C150.32 29.8203 151.265 30.7657 151.265 31.9336Z" fill="#FAF8F5" stroke="#FAF8F5"/>
<path d="M178.223 4.06582C178.223 5.71439 176.889 7.04961 175.244 7.04961C173.6 7.04961 172.266 5.71439 172.266 4.06582C172.266 2.41725 173.6 1.08203 175.244 1.08203C176.889 1.08203 178.223 2.41725 178.223 4.06582Z" fill="#FAF8F5" stroke="#FAF8F5"/>
<path d="M210.406 36.2891C210.406 37.457 209.461 38.4024 208.297 38.4024C207.133 38.4024 206.188 37.457 206.188 36.2891C206.188 35.1212 207.133 34.1758 208.297 34.1758C209.461 34.1758 210.406 35.1212 210.406 36.2891Z" fill="#FAF8F5" stroke="#FAF8F5"/>
<path d="M213.882 79.8379C213.882 81.0058 212.937 81.9513 211.773 81.9513C210.609 81.9513 209.664 81.0058 209.664 79.8379C209.664 78.67 210.609 77.7246 211.773 77.7246C212.937 77.7246 213.882 78.67 213.882 79.8379Z" fill="#FAF8F5" stroke="#FAF8F5"/>
<path d="M222.591 63.2924C222.591 64.941 221.256 66.2762 219.612 66.2762C217.967 66.2762 216.633 64.941 216.633 63.2924C216.633 61.6438 217.967 60.3086 219.612 60.3086C221.256 60.3086 222.591 61.6438 222.591 63.2924Z" fill="#FAF8F5" stroke="#FAF8F5"/>
<path d="M233.012 66.7709C233.012 68.4195 231.678 69.7547 230.034 69.7547C228.389 69.7547 227.055 68.4195 227.055 66.7709C227.055 65.1223 228.389 63.7871 230.034 63.7871C231.678 63.7871 233.012 65.1223 233.012 66.7709Z" fill="#FAF8F5" stroke="#FAF8F5"/>
<path d="M238.231 81.5795C238.231 83.2281 236.897 84.5633 235.252 84.5633C233.608 84.5633 232.273 83.2281 232.273 81.5795C232.273 79.9309 233.608 78.5957 235.252 78.5957C236.897 78.5957 238.231 79.9309 238.231 81.5795Z" fill="#FAF8F5" stroke="#FAF8F5"/>
<path d="M226.934 81.5795C226.934 83.2281 225.6 84.5633 223.955 84.5633C222.311 84.5633 220.977 83.2281 220.977 81.5795C220.977 79.9309 222.311 78.5957 223.955 78.5957C225.6 78.5957 226.934 79.9309 226.934 81.5795Z" fill="#FAF8F5" stroke="#FAF8F5"/>
<path d="M254.765 92.9004C254.765 94.0683 253.82 95.0138 252.656 95.0138C251.492 95.0138 250.547 94.0683 250.547 92.9004C250.547 91.7325 251.492 90.7871 252.656 90.7871C253.82 90.7871 254.765 91.7325 254.765 92.9004Z" fill="#FAF8F5" stroke="#FAF8F5"/>
<path d="M294.768 114.678C294.768 115.366 294.212 115.921 293.528 115.921C292.845 115.921 292.289 115.366 292.289 114.678C292.289 113.991 292.845 113.436 293.528 113.436C294.212 113.436 294.768 113.991 294.768 114.678Z" fill="#FAF8F5" stroke="#FAF8F5"/>
<line y1="-0.5" x2="47.3902" y2="-0.5" transform="matrix(0.715735 0.698372 -0.697357 0.716724 174.391 4.0625)" stroke="#FAF8F5"/>
<line y1="-0.5" x2="28.4698" y2="-0.5" transform="matrix(0.397133 0.917761 -0.91735 0.398082 208.281 37.168)" stroke="#FAF8F5"/>
<line y1="-0.5" x2="11.0017" y2="-0.5" transform="matrix(0.948549 0.316631 -0.315825 0.948818 219.594 63.2871)" stroke="#FAF8F5"/>
<line y1="-0.5" x2="16.5227" y2="-0.5" transform="matrix(0.315825 0.948818 -0.948549 0.316631 230.023 65.9023)" stroke="#FAF8F5"/>
<line y1="-0.5" x2="21.9602" y2="-0.5" transform="matrix(0.831687 0.555245 -0.554156 0.832413 235.266 81.582)" stroke="#FAF8F5"/>
<line y1="-0.5" x2="46.314" y2="-0.5" transform="matrix(0.882596 0.470132 -0.469094 0.883148 253.523 93.7754)" stroke="#FAF8F5"/>
<line y1="-0.5" x2="11.3391" y2="-0.5" transform="matrix(-0.997046 0.0768047 -0.0765885 -0.997063 235.266 80.7051)" stroke="#FAF8F5"/>
<line y1="-0.5" x2="12.2068" y2="-0.5" transform="matrix(-0.997451 -0.0713476 0.0711466 -0.997466 223.961 80.7051)" stroke="#FAF8F5"/>
<line y1="-0.5" x2="78.3143" y2="-0.5" transform="matrix(0.799591 0.600544 -0.599456 0.800408 149.156 32.8086)" stroke="#FAF8F5"/>
<path d="M1123.31 2.71219C1123.31 3.61326 1122.58 4.34236 1121.68 4.34236C1120.78 4.34236 1120.05 3.61326 1120.05 2.71219C1120.05 1.81113 1120.78 1.08203 1121.68 1.08203C1122.58 1.08203 1123.31 1.81113 1123.31 2.71219Z" fill="#FAF8F5" stroke="#FAF8F5"/>
<path d="M1134.64 18.3313C1134.64 19.2324 1133.92 19.9615 1133.02 19.9615C1132.12 19.9615 1131.39 19.2324 1131.39 18.3313C1131.39 17.4303 1132.12 16.7012 1133.02 16.7012C1133.92 16.7012 1134.64 17.4303 1134.64 18.3313Z" fill="#FAF8F5" stroke="#FAF8F5"/>
<path d="M1144.56 24.7172C1144.56 26.0104 1143.52 27.0574 1142.23 27.0574C1140.94 27.0574 1139.89 26.0104 1139.89 24.7172C1139.89 23.4239 1140.94 22.377 1142.23 22.377C1143.52 22.377 1144.56 23.4239 1144.56 24.7172Z" fill="#FAF8F5" stroke="#FAF8F5"/>
<path d="M1154.48 19.7493C1154.48 20.6504 1153.75 21.3795 1152.85 21.3795C1151.96 21.3795 1151.23 20.6504 1151.23 19.7493C1151.23 18.8482 1151.96 18.1191 1152.85 18.1191C1153.75 18.1191 1154.48 18.8482 1154.48 19.7493Z" fill="#FAF8F5" stroke="#FAF8F5"/>
<path d="M1155.19 45.307C1155.19 46.6002 1154.15 47.6472 1152.86 47.6472C1151.57 47.6472 1150.52 46.6002 1150.52 45.307C1150.52 44.0138 1151.57 42.9668 1152.86 42.9668C1154.15 42.9668 1155.19 44.0138 1155.19 45.307Z" fill="#FAF8F5" stroke="#FAF8F5"/>
<path d="M1167.96 53.1176C1167.96 54.4108 1166.91 55.4578 1165.62 55.4578C1164.34 55.4578 1163.29 54.4108 1163.29 53.1176C1163.29 51.8243 1164.34 50.7773 1165.62 50.7773C1166.91 50.7773 1167.96 51.8243 1167.96 53.1176Z" fill="#FAF8F5" stroke="#FAF8F5"/>
<path d="M1189.23 45.307C1189.23 46.6002 1188.19 47.6472 1186.9 47.6472C1185.61 47.6472 1184.56 46.6002 1184.56 45.307C1184.56 44.0138 1185.61 42.9668 1186.9 42.9668C1188.19 42.9668 1189.23 44.0138 1189.23 45.307Z" fill="#FAF8F5" stroke="#FAF8F5"/>
<path d="M1206.96 24.72C1206.96 25.6211 1206.23 26.3502 1205.33 26.3502C1204.43 26.3502 1203.7 25.6211 1203.7 24.72C1203.7 23.8189 1204.43 23.0898 1205.33 23.0898C1206.23 23.0898 1206.96 23.8189 1206.96 24.72Z" fill="#FAF8F5" stroke="#FAF8F5"/>
<path d="M1196.3 70.1586C1196.3 71.4518 1195.26 72.4988 1193.97 72.4988C1192.68 72.4988 1191.63 71.4518 1191.63 70.1586C1191.63 68.8654 1192.68 67.8184 1193.97 67.8184C1195.26 67.8184 1196.3 68.8654 1196.3 70.1586Z" fill="#FAF8F5" stroke="#FAF8F5"/>
<path d="M1211.9 74.4114C1211.9 75.3125 1211.17 76.0416 1210.28 76.0416C1209.38 76.0416 1208.65 75.3125 1208.65 74.4114C1208.65 73.5103 1209.38 72.7812 1210.28 72.7812C1211.17 72.7812 1211.9 73.5103 1211.9 74.4114Z" fill="#FAF8F5" stroke="#FAF8F5"/>
<path d="M1189.23 94.2933C1189.23 95.5866 1188.19 96.6336 1186.9 96.6336C1185.61 96.6336 1184.56 95.5866 1184.56 94.2933C1184.56 93.0001 1185.61 91.9531 1186.9 91.9531C1188.19 91.9531 1189.23 93.0001 1189.23 94.2933Z" fill="#FAF8F5" stroke="#FAF8F5"/>
<path d="M1194.91 107.073C1194.91 107.583 1194.49 107.994 1193.99 107.994C1193.48 107.994 1193.07 107.583 1193.07 107.073C1193.07 106.564 1193.48 106.152 1193.99 106.152C1194.49 106.152 1194.91 106.564 1194.91 107.073Z" fill="#FAF8F5" stroke="#FAF8F5"/>
<path d="M1150.23 114.878C1150.23 115.387 1149.81 115.799 1149.31 115.799C1148.8 115.799 1148.39 115.387 1148.39 114.878C1148.39 114.368 1148.8 113.957 1149.31 113.957C1149.81 113.957 1150.23 114.368 1150.23 114.878Z" fill="#FAF8F5" stroke="#FAF8F5"/>
<path d="M1155.18 102.103C1155.18 103.004 1154.45 103.733 1153.56 103.733C1152.66 103.733 1151.93 103.004 1151.93 102.103C1151.93 101.202 1152.66 100.473 1153.56 100.473C1154.45 100.473 1155.18 101.202 1155.18 102.103Z" fill="#FAF8F5" stroke="#FAF8F5"/>
<path d="M1138.9 106.362C1138.9 107.655 1137.85 108.702 1136.56 108.702C1135.27 108.702 1134.23 107.655 1134.23 106.362C1134.23 105.068 1135.27 104.021 1136.56 104.021C1137.85 104.021 1138.9 105.068 1138.9 106.362Z" fill="#FAF8F5" stroke="#FAF8F5"/>
<path d="M1119.75 89.3235C1119.75 90.2246 1119.02 90.9537 1118.12 90.9537C1117.22 90.9537 1116.49 90.2246 1116.49 89.3235C1116.49 88.4225 1117.22 87.6934 1118.12 87.6934C1119.02 87.6934 1119.75 88.4225 1119.75 89.3235Z" fill="#FAF8F5" stroke="#FAF8F5"/>
<path d="M1111.95 64.475C1111.95 65.7682 1110.91 66.8152 1109.62 66.8152C1108.33 66.8152 1107.28 65.7682 1107.28 64.475C1107.28 63.1818 1108.33 62.1348 1109.62 62.1348C1110.91 62.1348 1111.95 63.1818 1111.95 64.475Z" fill="#FAF8F5" stroke="#FAF8F5"/>
<path d="M1128.96 53.1165C1128.96 54.0176 1128.24 54.7467 1127.34 54.7467C1126.44 54.7467 1125.71 54.0176 1125.71 53.1165C1125.71 52.2154 1126.44 51.4863 1127.34 51.4863C1128.24 51.4863 1128.96 52.2154 1128.96 53.1165Z" fill="#FAF8F5" stroke="#FAF8F5"/>
<path d="M1143.16 56.6664C1143.16 57.9596 1142.11 59.0066 1140.82 59.0066C1139.53 59.0066 1138.48 57.9596 1138.48 56.6664C1138.48 55.3732 1139.53 54.3262 1140.82 54.3262C1142.11 54.3262 1143.16 55.3732 1143.16 56.6664Z" fill="#FAF8F5" stroke="#FAF8F5"/>
<path d="M1147.41 68.7337C1147.41 69.6347 1146.68 70.3638 1145.78 70.3638C1144.89 70.3638 1144.16 69.6347 1144.16 68.7337C1144.16 67.8326 1144.89 67.1035 1145.78 67.1035C1146.68 67.1035 1147.41 67.8326 1147.41 68.7337Z" fill="#FAF8F5" stroke="#FAF8F5"/>
<line y1="-0.5" x2="20.723" y2="-0.5" transform="matrix(0.615766 0.787929 -0.787081 0.61685 1120.96 2.70898)" stroke="#FAF8F5"/>
<line y1="-0.5" x2="10.2304" y2="-0.5" transform="matrix(0.831687 0.555245 -0.554156 0.832413 1133.73 19.043)" stroke="#FAF8F5"/>
<line y1="-0.5" x2="11.2095" y2="-0.5" transform="matrix(0.948549 -0.316631 0.315825 0.948818 1142.23 24.0117)" stroke="#FAF8F5"/>
<line y1="-0.5" x2="23.1719" y2="-0.5" transform="matrix(0.458909 0.888483 -0.887952 0.459937 1142.23 24.7227)" stroke="#FAF8F5"/>
<line y1="-0.5" x2="15.5711" y2="-0.5" transform="matrix(0.865118 0.501568 -0.500504 0.865734 1152.15 45.3086)" stroke="#FAF8F5"/>
<line y1="-0.5" x2="22.6574" y2="-0.5" transform="matrix(0.938718 -0.344685 0.343825 0.939034 1165.62 53.1133)" stroke="#FAF8F5"/>
<line y1="-0.5" x2="27.6332" y2="-0.5" transform="matrix(0.66702 -0.745039 0.744099 0.66807 1186.9 45.3086)" stroke="#FAF8F5"/>
<line y1="-0.5" x2="25.8389" y2="-0.5" transform="matrix(0.274361 0.961627 -0.961421 0.275081 1186.9 45.3086)" stroke="#FAF8F5"/>
<line y1="-0.5" x2="18.2229" y2="-0.5" transform="matrix(0.972312 0.233686 -0.23306 0.972462 1193.27 70.1562)" stroke="#FAF8F5"/>
<line y1="-0.5" x2="24.9664" y2="-0.5" transform="matrix(-0.255554 0.966795 -0.966615 -0.256232 1193.27 70.1562)" stroke="#FAF8F5"/>
<line y1="-0.5" x2="15.238" y2="-0.5" transform="matrix(0.46523 0.88519 -0.884646 0.466264 1186.9 94.291)" stroke="#FAF8F5"/>
<line y1="-0.5" x2="16.5623" y2="-0.5" transform="matrix(-0.684849 0.728685 -0.727715 -0.68588 1152.15 44.5996)" stroke="#FAF8F5"/>
<line y1="-0.5" x2="14.8219" y2="-0.5" transform="matrix(0.286974 0.957938 -0.957714 0.287722 1140.82 55.959)" stroke="#FAF8F5"/>
<line y1="-0.5" x2="27.2509" y2="-0.5" transform="matrix(0.780437 -0.625235 0.624155 0.781301 1144.36 70.1562)" stroke="#FAF8F5"/>
<line y1="-0.5" x2="13.9249" y2="-0.5" transform="matrix(0.966986 0.254831 -0.254156 0.967163 1127.34 53.1133)" stroke="#FAF8F5"/>
<line y1="-0.5" x2="21.6517" y2="-0.5" transform="matrix(0.851327 -0.524636 0.523559 0.85199 1109.62 64.4785)" stroke="#FAF8F5"/>
<line y1="-0.5" x2="27.1681" y2="-0.5" transform="matrix(0.339219 0.940708 -0.9404 0.340071 1108.91 64.4785)" stroke="#FAF8F5"/>
<line y1="-0.5" x2="25.1005" y2="-0.5" transform="matrix(0.734324 0.678799 -0.677761 0.735282 1118.12 89.3184)" stroke="#FAF8F5"/>
<line y1="-0.5" x2="18.2229" y2="-0.5" transform="matrix(0.972312 -0.233686 0.23306 0.972462 1137.26 106.367)" stroke="#FAF8F5"/>
<line y1="-0.5" x2="16.3287" y2="-0.5" transform="matrix(0.824934 0.565229 -0.564139 0.82568 1136.56 106.367)" stroke="#FAF8F5"/>
<path d="M335.955 15.6067C335.955 16.8702 334.932 17.8932 333.673 17.8932C332.413 17.8932 331.391 16.8702 331.391 15.6067C331.391 14.3432 332.413 13.3203 333.673 13.3203C334.932 13.3203 335.955 14.3432 335.955 15.6067Z" fill="#FAF8F5" stroke="#FAF8F5"/>
<path d="M320.65 34.207C320.65 35.0858 319.938 35.7968 319.063 35.7968C318.188 35.7968 317.477 35.0858 317.477 34.207C317.477 33.3282 318.188 32.6172 319.063 32.6172C319.938 32.6172 320.65 33.3282 320.65 34.207Z" fill="#FAF8F5" stroke="#FAF8F5"/>
<path d="M417.337 62.7343C417.337 63.6131 416.626 64.3242 415.751 64.3242C414.875 64.3242 414.164 63.6131 414.164 62.7343C414.164 61.8556 414.875 61.1445 415.751 61.1445C416.626 61.1445 417.337 61.8556 417.337 62.7343Z" fill="#FAF8F5" stroke="#FAF8F5"/>
<path d="M400.65 97.4082C400.65 98.287 399.938 98.998 399.063 98.998C398.188 98.998 397.477 98.287 397.477 97.4082C397.477 96.5294 398.188 95.8184 399.063 95.8184C399.938 95.8184 400.65 96.5294 400.65 97.4082Z" fill="#FAF8F5" stroke="#FAF8F5"/>
<path d="M379.408 5.35165C379.408 5.95236 378.922 6.43767 378.325 6.43767C377.728 6.43767 377.242 5.95236 377.242 5.35165C377.242 4.75094 377.728 4.26562 378.325 4.26562C378.922 4.26562 379.408 4.75094 379.408 5.35165Z" fill="#FAF8F5" stroke="#FAF8F5"/>
<path d="M319.302 53.154C319.302 53.6089 318.935 53.9759 318.483 53.9759C318.032 53.9759 317.664 53.6089 317.664 53.154C317.664 52.699 318.032 52.332 318.483 52.332C318.935 52.332 319.302 52.699 319.302 53.154Z" fill="#FAF8F5" stroke="#FAF8F5"/>
<path d="M344.228 36.6543C344.228 37.5331 343.517 38.2441 342.641 38.2441C341.766 38.2441 341.055 37.5331 341.055 36.6543C341.055 35.7755 341.766 35.0645 342.641 35.0645C343.517 35.0645 344.228 35.7755 344.228 36.6543Z" fill="#FAF8F5" stroke="#FAF8F5"/>
<path d="M329.571 41.4447C329.571 41.9394 329.171 42.3386 328.68 42.3386C328.189 42.3386 327.789 41.9394 327.789 41.4447C327.789 40.95 328.189 40.5508 328.68 40.5508C329.171 40.5508 329.571 40.95 329.571 41.4447Z" fill="#FAF8F5" stroke="#FAF8F5"/>
<path d="M358.759 24.4955C358.759 24.9902 358.359 25.3894 357.868 25.3894C357.376 25.3894 356.977 24.9902 356.977 24.4955C356.977 24.0008 357.376 23.6016 357.868 23.6016C358.359 23.6016 358.759 24.0008 358.759 24.4955Z" fill="#FAF8F5" stroke="#FAF8F5"/>
<path d="M391.259 52.0527C391.259 52.7396 390.703 53.2948 390.02 53.2948C389.337 53.2948 388.781 52.7396 388.781 52.0527C388.781 51.3657 389.337 50.8105 390.02 50.8105C390.703 50.8105 391.259 51.3657 391.259 52.0527Z" fill="#FAF8F5" stroke="#FAF8F5"/>
<path d="M409.368 75.2279C409.368 75.7226 408.968 76.1219 408.477 76.1219C407.986 76.1219 407.586 75.7226 407.586 75.2279C407.586 74.7332 407.986 74.334 408.477 74.334C408.968 74.334 409.368 74.7332 409.368 75.2279Z" fill="#FAF8F5" stroke="#FAF8F5"/>
<path d="M438.946 56.8501C438.946 57.1524 438.702 57.3956 438.403 57.3956C438.104 57.3956 437.859 57.1524 437.859 56.8501C437.859 56.5479 438.104 56.3047 438.403 56.3047C438.702 56.3047 438.946 56.5479 438.946 56.8501Z" fill="#FAF8F5" stroke="#FAF8F5"/>
<path d="M427.759 62.2695C427.759 63.1483 427.048 63.8593 426.172 63.8593C425.297 63.8593 424.586 63.1483 424.586 62.2695C424.586 61.3907 425.297 60.6797 426.172 60.6797C427.048 60.6797 427.759 61.3907 427.759 62.2695Z" fill="#FAF8F5" stroke="#FAF8F5"/>
<path d="M367.376 75.5033C367.376 75.998 366.976 76.3972 366.485 76.3972C365.994 76.3972 365.594 75.998 365.594 75.5033C365.594 75.0086 365.994 74.6094 366.485 74.6094C366.976 74.6094 367.376 75.0086 367.376 75.5033Z" fill="#FAF8F5" stroke="#FAF8F5"/>
<path d="M350.165 97.101C350.165 97.5957 349.765 97.9949 349.274 97.9949C348.783 97.9949 348.383 97.5957 348.383 97.101C348.383 96.6063 348.783 96.207 349.274 96.207C349.765 96.207 350.165 96.6063 350.165 97.101Z" fill="#FAF8F5" stroke="#FAF8F5"/>
<path d="M349.439 68.7676C349.439 69.6463 348.728 70.3574 347.852 70.3574C346.977 70.3574 346.266 69.6463 346.266 68.7676C346.266 67.8888 346.977 67.1777 347.852 67.1777C348.728 67.1777 349.439 67.8888 349.439 68.7676Z" fill="#FAF8F5" stroke="#FAF8F5"/>
<path d="M389.602 115.235C389.602 115.548 389.349 115.8 389.039 115.8C388.73 115.8 388.477 115.548 388.477 115.235C388.477 114.922 388.73 114.67 389.039 114.67C389.349 114.67 389.602 114.922 389.602 115.235Z" fill="#FAF8F5" stroke="#FAF8F5"/>
<line y1="-0.5" x2="12.5217" y2="-0.5" transform="matrix(0.821814 0.569755 -0.568664 0.82257 318.562 34.416)" stroke="#FAF8F5"/>
<line y1="-0.5" x2="31.717" y2="-0.5" transform="matrix(0.56563 0.824659 -0.82391 0.566721 328.852 41.5449)" stroke="#FAF8F5"/>
<line y1="-0.5" x2="20.5843" y2="-0.5" transform="matrix(0.922883 0.38508 -0.384151 0.92327 346.789 67.7012)" stroke="#FAF8F5"/>
<line y1="-0.5" x2="28.8569" y2="-0.5" transform="matrix(0.0639977 0.99795 -0.997939 0.0641787 346.789 67.7012)" stroke="#FAF8F5"/>
<line y1="-0.5" x2="45.4516" y2="-0.5" transform="matrix(0.905507 0.424332 -0.423346 0.905968 348.648 96.7598)" stroke="#FAF8F5"/>
<line y1="-0.5" x2="45.4516" y2="-0.5" transform="matrix(0.905507 0.424332 -0.423346 0.905968 348.648 96.7598)" stroke="#FAF8F5"/>
<line y1="-0.5" x2="38.9481" y2="-0.5" transform="matrix(0.839946 0.54267 -0.541584 0.840646 365.781 75.627)" stroke="#FAF8F5"/>
<line y1="-0.5" x2="30.8049" y2="-0.5" transform="matrix(0.6252 0.780465 -0.779599 0.626279 389 51.8496)" stroke="#FAF8F5"/>
<line y1="-0.5" x2="29.3144" y2="-0.5" transform="matrix(0.918007 0.396565 -0.395618 0.918415 389 51.8496)" stroke="#FAF8F5"/>
<line y1="-0.5" x2="9.26727" y2="-0.5" transform="matrix(0.996336 -0.0855214 0.085281 0.996357 415.914 63.7363)" stroke="#FAF8F5"/>
<line y1="-0.5" x2="14.2122" y2="-0.5" transform="matrix(0.928295 -0.371845 0.370937 0.928658 424.883 62.9473)" stroke="#FAF8F5"/>
<line y1="-0.5" x2="13.1001" y2="-0.5" transform="matrix(0.94651 -0.322673 0.321855 0.946789 328.852 41.5449)" stroke="#FAF8F5"/>
<line y1="-0.5" x2="20.5902" y2="-0.5" transform="matrix(0.807228 -0.59024 0.58915 0.808024 341.242 37.3145)" stroke="#FAF8F5"/>
<line y1="-0.5" x2="27.3958" y2="-0.5" transform="matrix(0.934167 0.356837 -0.355955 0.934503 332.273 15.3887)" stroke="#FAF8F5"/>
<line y1="-0.5" x2="27.3958" y2="-0.5" transform="matrix(0.934167 0.356837 -0.355955 0.934503 332.273 15.3887)" stroke="#FAF8F5"/>
<line y1="-0.5" x2="28.3849" y2="-0.5" transform="matrix(0.724976 -0.688774 0.687747 0.725951 357.859 25.166)" stroke="#FAF8F5"/>
<line y1="-0.5" x2="41.0025" y2="-0.5" transform="matrix(0.759255 0.650793 -0.649729 0.760166 357.859 25.166)" stroke="#FAF8F5"/>
<line y1="-0.5" x2="15.897" y2="-0.5" transform="matrix(0.663837 -0.747877 0.746941 0.66489 318.297 53.4336)" stroke="#FAF8F5"/>
<ellipse cx="474.702" cy="2.22428" rx="1.63906" ry="1.64224" fill="#FAF8F5"/>
<ellipse cx="480.42" cy="41.6168" rx="2.45859" ry="2.46253" fill="#FAF8F5"/>
<ellipse cx="478.794" cy="63.7769" rx="3.27812" ry="3.28277" fill="#FAF8F5"/>
<ellipse cx="519.786" cy="113.017" rx="3.27812" ry="3.28277" fill="#FAF8F5"/>
<ellipse cx="458.31" cy="99.8864" rx="2.45859" ry="2.46253" fill="#FAF8F5"/>
<line y1="-0.5" x2="39.8088" y2="-0.5" transform="matrix(0.144107 0.989562 -0.989504 0.144507 474.711 3.04297)" stroke="#FAF8F5"/>
<line y1="-0.5" x2="21.4009" y2="-0.5" transform="matrix(-0.0765885 0.997063 -0.997046 -0.0768047 480.43 42.4375)" stroke="#FAF8F5"/>
<line y1="-0.5" x2="41.5179" y2="-0.5" transform="matrix(-0.49348 0.869757 -0.869156 -0.494539 478.805 63.7773)" stroke="#FAF8F5"/>
<line y1="-0.5" x2="64.694" y2="-0.5" transform="matrix(0.63339 0.773832 -0.772951 0.634465 478.805 62.9551)" stroke="#FAF8F5"/>
<ellipse cx="698.713" cy="49.6105" rx="3.27573" ry="3.28038" fill="#FAF8F5"/>
<ellipse cx="717.551" cy="60.2713" rx="2.4568" ry="2.46073" fill="#FAF8F5"/>
<ellipse cx="721.659" cy="74.2159" rx="3.27573" ry="3.28038" fill="#FAF8F5"/>
<ellipse cx="709.349" cy="96.3578" rx="1.63787" ry="1.64105" fill="#FAF8F5"/>
<ellipse cx="744.574" cy="29.9295" rx="2.4568" ry="2.46073" fill="#FAF8F5"/>
<ellipse cx="754.401" cy="27.4698" rx="3.27573" ry="3.28038" fill="#FAF8F5"/>
<ellipse cx="760.136" cy="33.2107" rx="2.4568" ry="2.46073" fill="#FAF8F5"/>
<ellipse cx="775.69" cy="29.1085" rx="3.27573" ry="3.28038" fill="#FAF8F5"/>
<ellipse cx="764.229" cy="61.0909" rx="3.27573" ry="3.28038" fill="#FAF8F5"/>
<ellipse cx="766.682" cy="75.8566" rx="3.27573" ry="3.28038" fill="#FAF8F5"/>
<ellipse cx="770.76" cy="82.4151" rx="3.27573" ry="3.28038" fill="#FAF8F5"/>
<ellipse cx="847.769" cy="62.7322" rx="2.4568" ry="2.46073" fill="#FAF8F5"/>
<ellipse cx="812.557" cy="52.0714" rx="3.27573" ry="3.28038" fill="#FAF8F5"/>
<line y1="-0.5" x2="50.2346" y2="-0.5" transform="matrix(0.912923 -0.408133 0.407169 0.913353 698.711 50.4336)" stroke="#FAF8F5"/>
<line y1="-0.5" x2="9.33699" y2="-0.5" transform="matrix(0.964669 -0.263465 0.26277 0.964858 745.391 29.9297)" stroke="#FAF8F5"/>
<line y1="-0.5" x2="9.87" y2="-0.5" transform="matrix(0.663837 0.747877 -0.746941 0.66489 754.406 26.6504)" stroke="#FAF8F5"/>
<line y1="-0.5" x2="15.099" y2="-0.5" transform="matrix(0.976122 -0.217224 0.216638 0.976252 760.953 33.2109)" stroke="#FAF8F5"/>
<line y1="-0.5" x2="45.2448" y2="-0.5" transform="matrix(0.850703 0.525647 -0.524568 0.851368 774.047 29.1113)" stroke="#FAF8F5"/>
<line y1="-0.5" x2="38.1447" y2="-0.5" transform="matrix(0.966144 0.258004 -0.257322 0.966326 811.727 52.8926)" stroke="#FAF8F5"/>
<line y1="-0.5" x2="33.4594" y2="-0.5" transform="matrix(-0.293705 0.955896 -0.955662 -0.294467 774.047 29.1113)" stroke="#FAF8F5"/>
<line y1="-0.5" x2="15.7743" y2="-0.5" transform="matrix(0.155747 0.987797 -0.987729 0.156178 764.234 60.2715)" stroke="#FAF8F5"/>
<line y1="-0.5" x2="7.73464" y2="-0.5" transform="matrix(0.529459 0.848336 -0.84766 0.530539 766.68 75.8516)" stroke="#FAF8F5"/>
<line y1="-0.5" x2="21.9812" y2="-0.5" transform="matrix(0.894173 0.447721 -0.446706 0.894681 698.711 50.4336)" stroke="#FAF8F5"/>
<line y1="-0.5" x2="14.5305" y2="-0.5" transform="matrix(0.281798 0.959474 -0.959257 0.282535 717.547 60.2715)" stroke="#FAF8F5"/>
<line y1="-0.5" x2="26.4389" y2="-0.5" transform="matrix(-0.471454 0.88189 -0.881334 -0.472494 721.32 73.2188)" stroke="#FAF8F5"/>
<path d="M870.206 33.3791C870.206 33.788 869.876 34.1176 869.47 34.1176C869.065 34.1176 868.734 33.788 868.734 33.3791C868.734 32.9703 869.065 32.6406 869.47 32.6406C869.876 32.6406 870.206 32.9703 870.206 33.3791Z" fill="#FAF8F5" stroke="#FAF8F5"/>
<path d="M876.387 43.8978C876.387 44.6479 875.78 45.2546 875.033 45.2546C874.287 45.2546 873.68 44.6479 873.68 43.8978C873.68 43.1477 874.287 42.541 875.033 42.541C875.78 42.541 876.387 43.1477 876.387 43.8978Z" fill="#FAF8F5" stroke="#FAF8F5"/>
<path d="M889.358 39.5694C889.358 40.6613 888.474 41.5451 887.386 41.5451C886.298 41.5451 885.414 40.6613 885.414 39.5694C885.414 38.4775 886.298 37.5938 887.386 37.5938C888.474 37.5938 889.358 38.4775 889.358 39.5694Z" fill="#FAF8F5" stroke="#FAF8F5"/>
<path d="M898.622 32.7591C898.622 33.5092 898.015 34.1159 897.268 34.1159C896.521 34.1159 895.914 33.5092 895.914 32.7591C895.914 32.009 896.521 31.4023 897.268 31.4023C898.015 31.4023 898.622 32.009 898.622 32.7591Z" fill="#FAF8F5" stroke="#FAF8F5"/>
<path d="M922.733 3.05773C922.733 4.14963 921.849 5.03342 920.761 5.03342C919.673 5.03342 918.789 4.14963 918.789 3.05773C918.789 1.96583 919.673 1.08203 920.761 1.08203C921.849 1.08203 922.733 1.96583 922.733 3.05773Z" fill="#FAF8F5" stroke="#FAF8F5"/>
<path d="M956.106 38.3275C956.106 39.0776 955.499 39.6842 954.752 39.6842C954.005 39.6842 953.398 39.0776 953.398 38.3275C953.398 37.5774 954.005 36.9707 954.752 36.9707C955.499 36.9707 956.106 37.5774 956.106 38.3275Z" fill="#FAF8F5" stroke="#FAF8F5"/>
<path d="M941.272 88.4503C941.272 89.5422 940.388 90.426 939.3 90.426C938.212 90.426 937.328 89.5422 937.328 88.4503C937.328 87.3584 938.212 86.4746 939.3 86.4746C940.388 86.4746 941.272 87.3584 941.272 88.4503Z" fill="#FAF8F5" stroke="#FAF8F5"/>
<path d="M909.754 102.066C909.754 102.816 909.148 103.423 908.401 103.423C907.654 103.423 907.047 102.816 907.047 102.066C907.047 101.316 907.654 100.709 908.401 100.709C909.148 100.709 909.754 101.316 909.754 102.066Z" fill="#FAF8F5" stroke="#FAF8F5"/>
<path d="M902.334 104.548C902.334 105.64 901.451 106.524 900.362 106.524C899.274 106.524 898.391 105.64 898.391 104.548C898.391 103.456 899.274 102.572 900.362 102.572C901.451 102.572 902.334 103.456 902.334 104.548Z" fill="#FAF8F5" stroke="#FAF8F5"/>
<path d="M902.333 114.447C902.333 115.197 901.726 115.803 900.979 115.803C900.232 115.803 899.625 115.197 899.625 114.447C899.625 113.697 900.232 113.09 900.979 113.09C901.726 113.09 902.333 113.697 902.333 114.447Z" fill="#FAF8F5" stroke="#FAF8F5"/>
<line y1="-0.5" x2="12.2004" y2="-0.5" transform="matrix(0.506486 0.862248 -0.86162 0.507554 869.469 34.002)" stroke="#FAF8F5"/>
<line y1="-0.5" x2="12.7437" y2="-0.5" transform="matrix(0.921438 -0.388525 0.38759 0.921832 875.641 44.5137)" stroke="#FAF8F5"/>
<line y1="-0.5" x2="11.8913" y2="-0.5" transform="matrix(0.883513 -0.468406 0.46737 0.884062 887.383 38.9531)" stroke="#FAF8F5"/>
<line y1="-0.5" x2="37.9757" y2="-0.5" transform="matrix(0.602058 -0.798452 0.79763 0.603147 897.891 33.3789)" stroke="#FAF8F5"/>
<line y1="-0.5" x2="49.4292" y2="-0.5" transform="matrix(0.687578 0.726111 -0.725137 0.688605 920.758 2.43359)" stroke="#FAF8F5"/>
<line y1="-0.5" x2="52.4503" y2="-0.5" transform="matrix(-0.294533 0.955641 -0.955406 -0.295297 954.742 38.332)" stroke="#FAF8F5"/>
<line y1="-0.5" x2="33.1994" y2="-0.5" transform="matrix(-0.912052 0.410074 -0.409107 -0.912486 938.68 88.4551)" stroke="#FAF8F5"/>
<line y1="-0.5" x2="8.40348" y2="-0.5" transform="matrix(-0.955662 0.294467 -0.293705 -0.955896 908.398 102.072)" stroke="#FAF8F5"/>
<line y1="-0.5" x2="9.92024" y2="-0.5" transform="matrix(0.0622903 0.998058 -0.998047 0.0624665 899.742 103.922)" stroke="#FAF8F5"/>
<line y1="-0.5" x2="87.9898" y2="-0.5" transform="matrix(0.210684 0.977554 -0.977431 0.211256 920.758 2.43359)" stroke="#FAF8F5"/>
<ellipse cx="977.314" cy="100.313" rx="3.04089" ry="3.04521" fill="#FAF8F5"/>
<ellipse cx="987.96" cy="85.0871" rx="2.28067" ry="2.28432" fill="#FAF8F5"/>
<ellipse cx="996.317" cy="86.6113" rx="1.52045" ry="1.5234" fill="#FAF8F5"/>
<ellipse cx="987.96" cy="112.499" rx="2.28067" ry="2.28432" fill="#FAF8F5"/>
<ellipse cx="1010.75" cy="113.26" rx="3.04089" ry="3.04521" fill="#FAF8F5"/>
<ellipse cx="1025.21" cy="107.163" rx="2.28067" ry="2.28432" fill="#FAF8F5"/>
<ellipse cx="1031.29" cy="68.3421" rx="3.04089" ry="3.04521" fill="#FAF8F5"/>
<ellipse cx="1045.73" cy="39.4113" rx="2.28067" ry="2.28432" fill="#FAF8F5"/>
<ellipse cx="1052.57" cy="30.2757" rx="3.04089" ry="3.04521" fill="#FAF8F5"/>
<ellipse cx="1063.21" cy="27.2249" rx="3.04089" ry="3.04521" fill="#FAF8F5"/>
<ellipse cx="1082.22" cy="2.10543" rx="1.52045" ry="1.5234" fill="#FAF8F5"/>
<ellipse cx="1086.02" cy="15.8039" rx="2.28067" ry="2.28432" fill="#FAF8F5"/>
<ellipse cx="1086.03" cy="33.3147" rx="3.04089" ry="3.04521" fill="#FAF8F5"/>
<line y1="-0.5" x2="7.63853" y2="-0.5" transform="matrix(-0.995023 -0.0996435 0.0993642 -0.995051 996.328 85.8477)" stroke="#FAF8F5"/>
<line y1="-0.5" x2="19.206" y2="-0.5" transform="matrix(-0.554156 0.832413 -0.831687 -0.555245 987.961 84.3242)" stroke="#FAF8F5"/>
<line y1="-0.5" x2="17.2492" y2="-0.5" transform="matrix(0.661094 0.750303 -0.749372 0.662149 976.555 100.311)" stroke="#FAF8F5"/>
<line x1="987.961" y1="112.754" x2="1010.77" y2="112.754" stroke="#FAF8F5"/>
<line y1="-0.5" x2="16.1131" y2="-0.5" transform="matrix(0.943712 -0.330768 0.329933 0.944004 1010.76 113.254)" stroke="#FAF8F5"/>
<line y1="-0.5" x2="39.9438" y2="-0.5" transform="matrix(0.133226 -0.991086 0.991036 0.133598 1025.98 107.924)" stroke="#FAF8F5"/>
<line y1="-0.5" x2="32.6817" y2="-0.5" transform="matrix(0.46523 -0.88519 0.884646 0.466264 1031.3 68.3359)" stroke="#FAF8F5"/>
<line y1="-0.5" x2="10.3498" y2="-0.5" transform="matrix(0.587626 -0.809132 0.808339 0.588717 1046.49 38.6465)" stroke="#FAF8F5"/>
<line y1="-0.5" x2="11.0661" y2="-0.5" transform="matrix(0.961421 -0.275081 0.274361 0.961627 1052.58 30.2695)" stroke="#FAF8F5"/>
<line y1="-0.5" x2="31.9664" y2="-0.5" transform="matrix(0.618331 -0.785918 0.785065 0.619414 1063.22 26.4668)" stroke="#FAF8F5"/>
<line y1="-0.5" x2="25.5067" y2="-0.5" transform="matrix(0.894173 -0.447721 0.446707 0.894681 1063.22 27.2305)" stroke="#FAF8F5"/>
<line y1="-0.5" x2="25.2755" y2="-0.5" transform="matrix(0.962551 0.271101 -0.27039 0.962751 1063.22 26.4668)" stroke="#FAF8F5"/>
<ellipse cx="1232.12" cy="51.312" rx="2.3649" ry="2.36868" fill="#FAF8F5"/>
<ellipse cx="1251.83" cy="63.1538" rx="3.1532" ry="3.15767" fill="#FAF8F5"/>
<ellipse cx="1254.99" cy="76.5756" rx="3.1532" ry="3.15767" fill="#FAF8F5"/>
<ellipse cx="1242.38" cy="97.8921" rx="2.3649" ry="2.36868" fill="#FAF8F5"/>
<ellipse cx="1277.84" cy="33.1518" rx="3.1532" ry="3.15767" fill="#FAF8F5"/>
<ellipse cx="1288.09" cy="28.4214" rx="2.3649" ry="2.36868" fill="#FAF8F5"/>
<ellipse cx="1293.61" cy="36.312" rx="3.1532" ry="3.15767" fill="#FAF8F5"/>
<ellipse cx="1307.79" cy="31.5756" rx="3.1532" ry="3.15767" fill="#FAF8F5"/>
<ellipse cx="1296.77" cy="62.3706" rx="3.1532" ry="3.15767" fill="#FAF8F5"/>
<ellipse cx="1299.91" cy="76.5756" rx="3.1532" ry="3.15767" fill="#FAF8F5"/>
<ellipse cx="1303.86" cy="83.6831" rx="2.3649" ry="2.36868" fill="#FAF8F5"/>
<ellipse cx="1345.64" cy="55.2573" rx="3.1532" ry="3.15767" fill="#FAF8F5"/>
<ellipse cx="1381.11" cy="64.7359" rx="2.3649" ry="2.36868" fill="#FAF8F5"/>
<line y1="-0.5" x2="25.4491" y2="-0.5" transform="matrix(0.495609 -0.868546 0.86794 0.496669 1242.37 98.6777)" stroke="#FAF8F5"/>
<line y1="-0.5" x2="14.746" y2="-0.5" transform="matrix(0.267292 0.963615 -0.96342 0.267996 1251.04 62.3672)" stroke="#FAF8F5"/>
<line y1="-0.5" x2="20.8346" y2="-0.5" transform="matrix(0.870264 0.492586 -0.491529 0.870861 1233.7 52.8926)" stroke="#FAF8F5"/>
<line y1="-0.5" x2="49.1945" y2="-0.5" transform="matrix(-0.929399 0.369077 -0.368174 -0.929757 1277.84 33.1543)" stroke="#FAF8F5"/>
<line y1="-0.5" x2="10.2506" y2="-0.5" transform="matrix(0.922883 -0.38508 0.384151 0.92327 1277.84 33.9473)" stroke="#FAF8F5"/>
<line y1="-0.5" x2="10.1049" y2="-0.5" transform="matrix(0.624155 0.781301 -0.780437 0.625235 1287.3 28.418)" stroke="#FAF8F5"/>
<line y1="-0.5" x2="15.7083" y2="-0.5" transform="matrix(0.95346 -0.30152 0.300743 0.953705 1292.81 36.3164)" stroke="#FAF8F5"/>
<line y1="-0.5" x2="32.448" y2="-0.5" transform="matrix(-0.315825 0.948818 -0.948549 -0.316631 1307 31.5762)" stroke="#FAF8F5"/>
<line y1="-0.5" x2="15.3268" y2="-0.5" transform="matrix(0.205731 0.978608 -0.978491 0.20629 1296.76 61.5762)" stroke="#FAF8F5"/>
<line y1="-0.5" x2="8.82346" y2="-0.5" transform="matrix(0.446706 0.894681 -0.894173 0.447721 1299.91 76.5742)" stroke="#FAF8F5"/>
<line y1="-0.5" x2="44.6386" y2="-0.5" transform="matrix(0.84766 0.530539 -0.529459 0.848336 1307.8 31.5762)" stroke="#FAF8F5"/>
<line y1="-0.5" x2="38.665" y2="-0.5" transform="matrix(0.958275 0.285849 -0.285105 0.958496 1344.84 54.4727)" stroke="#FAF8F5"/>
<ellipse cx="1533.29" cy="56.6345" rx="2.70829" ry="2.71263" fill="#FAF8F5"/>
<ellipse cx="1475.52" cy="77.4243" rx="1.80553" ry="1.80903" fill="#FAF8F5"/>
<ellipse cx="1402.4" cy="113.586" rx="2.70829" ry="2.71263" fill="#FAF8F5"/>
<ellipse cx="1402.4" cy="16.8552" rx="2.70829" ry="2.71263" fill="#FAF8F5"/>
<ellipse cx="1412.34" cy="4.19821" rx="3.61106" ry="3.61618" fill="#FAF8F5"/>
<ellipse cx="1415.95" cy="28.6045" rx="3.61106" ry="3.61618" fill="#FAF8F5"/>
<ellipse cx="1420.45" cy="55.7322" rx="2.70829" ry="2.71263" fill="#FAF8F5"/>
<ellipse cx="1416.86" cy="80.1372" rx="1.80553" ry="1.80903" fill="#FAF8F5"/>
<ellipse cx="1430.38" cy="100.032" rx="3.61106" ry="3.61618" fill="#FAF8F5"/>
<ellipse cx="1449.36" cy="91.8884" rx="2.70829" ry="2.71263" fill="#FAF8F5"/>
<ellipse cx="1507.12" cy="63.8623" rx="3.61106" ry="3.61618" fill="#FAF8F5"/>
<ellipse cx="1517.06" cy="51.2114" rx="1.80553" ry="1.80903" fill="#FAF8F5"/>
<ellipse cx="1527.9" cy="70.1943" rx="3.61106" ry="3.61618" fill="#FAF8F5"/>
<ellipse cx="1515.25" cy="74.7094" rx="1.80553" ry="1.80903" fill="#FAF8F5"/>
<line y1="-0.5" x2="24.6749" y2="-0.5" transform="matrix(0.146345 0.989233 -0.989173 0.146752 1412.34 4.19922)" stroke="#FAF8F5"/>
<line y1="-0.5" x2="16.8079" y2="-0.5" transform="matrix(0.590818 -0.806804 0.806005 0.591909 1402.41 17.7598)" stroke="#FAF8F5"/>
<line y1="-0.5" x2="17.3511" y2="-0.5" transform="matrix(0.780437 0.625235 -0.624155 0.781301 1402.41 17.7598)" stroke="#FAF8F5"/>
<line y1="-0.5" x2="28.544" y2="-0.5" transform="matrix(0.189762 0.98183 -0.981729 0.190282 1415.95 28.6055)" stroke="#FAF8F5"/>
<line y1="-0.5" x2="25.003" y2="-0.5" transform="matrix(-0.216638 0.976252 -0.976122 -0.217224 1421.35 56.6309)" stroke="#FAF8F5"/>
<line y1="-0.5" x2="36.6048" y2="-0.5" transform="matrix(-0.345274 0.938502 -0.938184 -0.346137 1415.95 80.1367)" stroke="#FAF8F5"/>
<line y1="-0.5" x2="31.5028" y2="-0.5" transform="matrix(0.888355 -0.459156 0.45813 0.888885 1402.41 114.49)" stroke="#FAF8F5"/>
<line y1="-0.5" x2="21.138" y2="-0.5" transform="matrix(0.939638 -0.342171 0.341315 0.939949 1430.39 100.031)" stroke="#FAF8F5"/>
<line y1="-0.5" x2="28.3434" y2="-0.5" transform="matrix(0.859974 -0.510337 0.509268 0.860608 1450.26 92.7969)" stroke="#FAF8F5"/>
<line y1="-0.5" x2="34.7512" y2="-0.5" transform="matrix(0.909251 -0.416247 0.415272 0.909697 1475.53 78.3281)" stroke="#FAF8F5"/>
<line y1="-0.5" x2="14.8196" y2="-0.5" transform="matrix(0.609168 0.793041 -0.792206 0.610254 1506.22 63.8652)" stroke="#FAF8F5"/>
<line y1="-0.5" x2="14.2755" y2="-0.5" transform="matrix(0.948549 -0.316631 0.315825 0.948818 1515.25 75.6152)" stroke="#FAF8F5"/>
<line y1="-0.5" x2="14.6024" y2="-0.5" transform="matrix(0.370937 -0.928658 0.928295 0.371845 1528.79 71.1016)" stroke="#FAF8F5"/>
<line y1="-0.5" x2="17.9904" y2="-0.5" transform="matrix(0.95346 0.30152 -0.300743 0.953705 1517.05 52.1133)" stroke="#FAF8F5"/>
<line y1="-0.5" x2="15.3862" y2="-0.5" transform="matrix(0.645409 -0.763838 0.762935 0.646476 1507.12 63.8652)" stroke="#FAF8F5"/>
<ellipse cx="655.029" cy="87.1622" rx="2.84908" ry="2.85364" fill="#FAF8F5"/>
<ellipse cx="655.433" cy="65.5609" rx="1.62805" ry="1.63121" fill="#FAF8F5"/>
<ellipse cx="641.061" cy="51.973" rx="2.17073" ry="2.17421" fill="#FAF8F5"/>
<ellipse cx="644.316" cy="35.6742" rx="1.62805" ry="1.63121" fill="#FAF8F5"/>
<ellipse cx="667.919" cy="22.9006" rx="1.35671" ry="1.35959" fill="#FAF8F5"/>
<ellipse cx="675.792" cy="32.4125" rx="1.62805" ry="1.63121" fill="#FAF8F5"/>
<ellipse cx="583.794" cy="48.4401" rx="2.44207" ry="2.44598" fill="#FAF8F5"/>
<ellipse cx="582.582" cy="71.6731" rx="2.03506" ry="2.03832" fill="#FAF8F5"/>
<path d="M583.99 48.6055L544.609 73.3497" stroke="#FAF8F5"/>
<path d="M543.844 73.3476L582.452 71.4121" stroke="#FAF8F5"/>
<path d="M582.445 71.4121L653.484 86.8772" stroke="#FAF8F5"/>
<path d="M655.023 87.2664V65.6152" stroke="#FAF8F5"/>
<path d="M583.992 48.6055L641.132 52.0869" stroke="#FAF8F5"/>
<path d="M655.016 65.2293L641.117 52.084" stroke="#FAF8F5"/>
<path d="M641.117 52.0821L644.206 35.8438" stroke="#FAF8F5"/>
<path d="M644.219 35.8486L667.77 23.0898" stroke="#FAF8F5"/>
<path d="M675.87 32.3689L668.148 23.0898" stroke="#FAF8F5"/>
<ellipse cx="544.327" cy="74.1175" rx="3.66311" ry="3.6683" fill="#FAF8F5"/>
</svg>
