<svg width="1536" height="130" viewBox="0 0 1536 130" fill="none" xmlns="http://www.w3.org/2000/svg">
<circle cx="405.83" cy="18.762" r="1.38505" fill="#FAF8F5"/>
<circle cx="413.786" cy="29.495" r="1.73131" fill="#FAF8F5"/>
<circle cx="422.437" cy="24.9955" r="2.07757" fill="#FAF8F5"/>
<circle cx="434.208" cy="47.8482" r="2.77009" fill="#FAF8F5"/>
<circle cx="428.671" cy="56.1596" r="2.07757" fill="#FAF8F5"/>
<circle cx="419.676" cy="66.5455" r="2.77009" fill="#FAF8F5"/>
<circle cx="385.041" cy="36.0765" r="1.38505" fill="#FAF8F5"/>
<circle cx="402.692" cy="41.9618" r="1.73131" fill="#FAF8F5"/>
<circle cx="442.52" cy="83.1666" r="2.77009" fill="#FAF8F5"/>
<circle cx="444.598" cy="74.1646" r="2.77009" fill="#FAF8F5"/>
<circle cx="457.749" cy="62.394" r="2.07757" fill="#FAF8F5"/>
<circle cx="456.372" cy="54.0845" r="2.77009" fill="#FAF8F5"/>
<circle cx="479.908" cy="23.6097" r="1.38505" fill="#FAF8F5"/>
<circle cx="477.148" cy="29.8412" r="2.07757" fill="#FAF8F5"/>
<circle cx="480.606" cy="37.4615" r="2.77009" fill="#FAF8F5"/>
<circle cx="504.158" cy="33.303" r="1.38505" fill="#FAF8F5"/>
<circle cx="466.073" cy="88.0159" r="1.38505" fill="#FAF8F5"/>
<circle cx="442.531" cy="92.8588" r="2.07757" fill="#FAF8F5"/>
<circle cx="436.981" cy="107.403" r="2.77009" fill="#FAF8F5"/>
<circle cx="425.901" cy="110.869" r="1.38505" fill="#FAF8F5"/>
<line x1="386.068" y1="37.0833" x2="420.001" y2="66.1692" stroke="#FAF8F5"/>
<line x1="419.958" y1="66.1406" x2="442.811" y2="82.7611" stroke="#FAF8F5"/>
<line x1="444.27" y1="73.785" x2="458.12" y2="62.0122" stroke="#FAF8F5"/>
<line x1="442.036" y1="83.0555" x2="444.114" y2="74.0527" stroke="#FAF8F5"/>
<line x1="442.635" y1="82.6805" x2="466.873" y2="88.2207" stroke="#FAF8F5"/>
<line x1="443.023" y1="83.168" x2="443.023" y2="91.4782" stroke="#FAF8F5"/>
<line x1="442.993" y1="92.3427" x2="437.453" y2="107.578" stroke="#FAF8F5"/>
<line x1="437.105" y1="107.887" x2="426.718" y2="110.658" stroke="#FAF8F5"/>
<line x1="457.397" y1="62.0528" x2="480.25" y2="37.1219" stroke="#FAF8F5"/>
<line x1="480.145" y1="37.666" x2="477.375" y2="31.4333" stroke="#FAF8F5"/>
<line x1="479.687" y1="24.4763" x2="477.609" y2="30.0165" stroke="#FAF8F5"/>
<line x1="504.228" y1="33.799" x2="480.682" y2="37.9542" stroke="#FAF8F5"/>
<line x1="419.311" y1="66.1914" x2="429.006" y2="56.4961" stroke="#FAF8F5"/>
<line x1="428.927" y1="56.5996" x2="433.775" y2="48.2894" stroke="#FAF8F5"/>
<line x1="433.761" y1="48.0677" x2="422.681" y2="25.2145" stroke="#FAF8F5"/>
<line x1="422.942" y1="25.4643" x2="406.321" y2="19.2316" stroke="#FAF8F5"/>
<circle cx="2.77009" cy="54.0806" r="2.77009" fill="#FAF8F5"/>
<circle cx="70.6373" cy="60.3131" r="2.77009" fill="#FAF8F5"/>
<circle cx="27.7026" cy="48.5405" r="2.07757" fill="#FAF8F5"/>
<circle cx="49.1713" cy="52.6948" r="2.07757" fill="#FAF8F5"/>
<circle cx="81.7182" cy="81.7787" r="2.07757" fill="#FAF8F5"/>
<circle cx="115.64" cy="54.7709" r="2.07757" fill="#FAF8F5"/>
<circle cx="113.57" cy="81.7787" r="2.07757" fill="#FAF8F5"/>
<line x1="2.65716" y1="53.5939" x2="27.588" y2="48.0538" stroke="#FAF8F5"/>
<line x1="27.7903" y1="48.0501" x2="49.2585" y2="52.2053" stroke="#FAF8F5"/>
<line x1="49.3391" y1="52.2221" x2="70.8073" y2="59.8399" stroke="#FAF8F5"/>
<line x1="71.0584" y1="60.7686" x2="82.1387" y2="81.5443" stroke="#FAF8F5"/>
<line x1="71.0584" y1="60.7686" x2="82.1387" y2="81.5443" stroke="#FAF8F5"/>
<line x1="81.7188" y1="81.2832" x2="113.575" y2="81.2832" stroke="#FAF8F5"/>
<line x1="116.147" y1="54.8137" x2="114.069" y2="81.8221" stroke="#FAF8F5"/>
<line x1="70.5561" y1="59.8182" x2="115.57" y2="54.278" stroke="#FAF8F5"/>
<circle cx="1224.72" cy="3.86803" r="1.73131" fill="#FAF8F5"/>
<circle cx="1171.74" cy="6.29325" r="1.38505" fill="#FAF8F5"/>
<circle cx="1164.82" cy="62.3853" r="2.77009" fill="#FAF8F5"/>
<circle cx="1208.44" cy="126.097" r="2.07757" fill="#FAF8F5"/>
<circle cx="1252.08" cy="94.2416" r="2.07757" fill="#FAF8F5"/>
<line x1="1165.22" y1="62.1013" x2="1209.55" y2="126.506" stroke="#FAF8F5"/>
<line x1="1208.15" y1="126.387" x2="1252.47" y2="94.5309" stroke="#FAF8F5"/>
<line x1="1225.53" y1="4.76116" x2="1253.23" y2="94.7891" stroke="#FAF8F5"/>
<line x1="1171.73" y1="5.79139" x2="1225.05" y2="3.71383" stroke="#FAF8F5"/>
<line x1="1171.56" y1="7.04027" x2="1165.33" y2="62.4421" stroke="#FAF8F5"/>
<circle cx="529.781" cy="30.5346" r="2.07757" fill="#FAF8F5"/>
<circle cx="540.856" cy="40.9185" r="2.77009" fill="#FAF8F5"/>
<circle cx="572.046" cy="52.6928" r="2.07757" fill="#FAF8F5"/>
<circle cx="588.645" cy="47.8463" r="2.77009" fill="#FAF8F5"/>
<circle cx="587.27" cy="20.8365" r="2.77009" fill="#FAF8F5"/>
<circle cx="547.791" cy="8.37137" r="1.38505" fill="#FAF8F5"/>
<circle cx="587.953" cy="74.1635" r="2.07757" fill="#FAF8F5"/>
<circle cx="618.426" cy="63.774" r="2.77009" fill="#FAF8F5"/>
<circle cx="634.367" cy="90.7807" r="2.07757" fill="#FAF8F5"/>
<circle cx="603.184" cy="120.563" r="2.77009" fill="#FAF8F5"/>
<line x1="530.118" y1="30.8464" x2="541.199" y2="40.5417" stroke="#FAF8F5"/>
<line x1="541.042" y1="39.7625" x2="572.898" y2="52.9204" stroke="#FAF8F5"/>
<line x1="571.865" y1="52.9104" x2="588.486" y2="47.3702" stroke="#FAF8F5"/>
<line x1="588.876" y1="47.4048" x2="618.655" y2="63.3328" stroke="#FAF8F5"/>
<line x1="618.866" y1="63.5181" x2="635.487" y2="91.219" stroke="#FAF8F5"/>
<line x1="635.381" y1="91.1465" x2="603.524" y2="120.925" stroke="#FAF8F5"/>
<line x1="602.696" y1="120.019" x2="588.153" y2="75.005" stroke="#FAF8F5"/>
<line x1="587.542" y1="74.4558" x2="572.307" y2="53.6802" stroke="#FAF8F5"/>
<line x1="588.141" y1="47.8585" x2="587.448" y2="20.8501" stroke="#FAF8F5"/>
<line x1="587.105" y1="21.3139" x2="548.324" y2="8.8485" stroke="#FAF8F5"/>
<circle cx="675.911" cy="15.9908" r="2.77009" fill="#FAF8F5"/>
<circle cx="720.234" cy="27.7651" r="2.07757" fill="#FAF8F5"/>
<circle cx="734.778" cy="88.7037" r="2.77009" fill="#FAF8F5"/>
<circle cx="737.544" cy="113.637" r="2.77009" fill="#FAF8F5"/>
<circle cx="660.679" cy="97.0151" r="2.07757" fill="#FAF8F5"/>
<circle cx="702.252" cy="79.7054" r="1.38505" fill="#FAF8F5"/>
<circle cx="706.377" cy="49.9261" r="1.38505" fill="#FAF8F5"/>
<circle cx="743.082" cy="49.2321" r="0.691064" fill="#FAF8F5"/>
<circle cx="729.244" cy="99.7874" r="1.38505" fill="#FAF8F5"/>
<line x1="675.377" y1="14.8195" x2="719.698" y2="27.9774" stroke="#FAF8F5"/>
<line x1="720.024" y1="27.6405" x2="735.26" y2="88.5825" stroke="#FAF8F5"/>
<line x1="734.132" y1="88.5118" x2="661.417" y2="97.5146" stroke="#FAF8F5"/>
<line x1="675.727" y1="15.3824" x2="661.877" y2="97.1001" stroke="#FAF8F5"/>
<line x1="734.566" y1="87.9487" x2="738.028" y2="113.572" stroke="#FAF8F5"/>
<circle cx="785.325" cy="45.0787" r="2.77009" fill="#FAF8F5"/>
<circle cx="804.018" cy="7.67997" r="1.38505" fill="#FAF8F5"/>
<circle cx="810.249" cy="49.9233" r="2.07757" fill="#FAF8F5"/>
<circle cx="820.645" cy="50.6158" r="2.77009" fill="#FAF8F5"/>
<circle cx="831.723" cy="74.8541" r="2.77009" fill="#FAF8F5"/>
<circle cx="849.723" cy="72.0845" r="2.77009" fill="#FAF8F5"/>
<circle cx="846.958" cy="42.3111" r="2.77009" fill="#FAF8F5"/>
<circle cx="853.882" cy="25.6869" r="2.07757" fill="#FAF8F5"/>
<circle cx="863.567" cy="8.37361" r="2.77009" fill="#FAF8F5"/>
<circle cx="873.958" cy="15.2974" r="2.77009" fill="#FAF8F5"/>
<circle cx="885.729" cy="22.221" r="1.38505" fill="#FAF8F5"/>
<circle r="2.77009" transform="matrix(-1 0 0 1 860.808 112.944)" fill="#FAF8F5"/>
<circle r="1.38505" transform="matrix(-1 0 0 1 871.873 123.332)" fill="#FAF8F5"/>
<circle r="2.77009" transform="matrix(-1 0 0 1 817.871 99.7877)" fill="#FAF8F5"/>
<circle r="2.07757" transform="matrix(-1 0 0 1 791.555 85.9369)" fill="#FAF8F5"/>
<circle r="2.77009" transform="matrix(-1 0 0 1 779.785 77.6275)" fill="#FAF8F5"/>
<circle r="1.38505" transform="matrix(-1 0 0 1 767.31 79.7015)" fill="#FAF8F5"/>
<line x1="803.769" y1="8.59521" x2="785.764" y2="45.2989" stroke="#FAF8F5"/>
<line x1="810.865" y1="49.726" x2="785.242" y2="45.5708" stroke="#FAF8F5"/>
<line x1="820.57" y1="51.1122" x2="810.875" y2="49.7271" stroke="#FAF8F5"/>
<line x1="847.115" y1="42.0844" x2="820.799" y2="51.0872" stroke="#FAF8F5"/>
<line x1="831.256" y1="75.0653" x2="820.176" y2="50.827" stroke="#FAF8F5"/>
<line x1="849.221" y1="72.1293" x2="846.451" y2="41.6583" stroke="#FAF8F5"/>
<line x1="830.273" y1="74.3624" x2="849.664" y2="71.5924" stroke="#FAF8F5"/>
<line x1="846.498" y1="41.4044" x2="853.423" y2="26.1689" stroke="#FAF8F5"/>
<line x1="853.45" y1="26.1419" x2="863.146" y2="8.13626" stroke="#FAF8F5"/>
<line x1="863.148" y1="7.951" x2="874.228" y2="14.8762" stroke="#FAF8F5"/>
<line x1="886.187" y1="22.6656" x2="873.721" y2="15.7404" stroke="#FAF8F5"/>
<line x1="860.314" y1="113.074" x2="849.234" y2="72.2154" stroke="#FAF8F5"/>
<line x1="860.455" y1="111.898" x2="871.535" y2="122.979" stroke="#FAF8F5"/>
<line x1="791.072" y1="85.4906" x2="818.08" y2="99.3411" stroke="#FAF8F5"/>
<line x1="832.151" y1="74.3999" x2="818.3" y2="100.023" stroke="#FAF8F5"/>
<line x1="779.382" y1="76.5364" x2="791.155" y2="85.5392" stroke="#FAF8F5"/>
<line x1="766.498" y1="79.9149" x2="779.656" y2="76.4523" stroke="#FAF8F5"/>
<circle cx="911.351" cy="13.2221" r="2.07757" fill="#FAF8F5"/>
<circle cx="928.656" cy="35.3803" r="2.07757" fill="#FAF8F5"/>
<circle cx="949.45" cy="18.0689" r="2.77009" fill="#FAF8F5"/>
<circle cx="961.215" cy="47.8521" r="2.77009" fill="#FAF8F5"/>
<circle cx="984.76" cy="117.793" r="1.38505" fill="#FAF8F5"/>
<line x1="911.747" y1="12.9074" x2="929.753" y2="35.0681" stroke="#FAF8F5"/>
<line x1="949.374" y1="17.8719" x2="911.978" y2="13.7168" stroke="#FAF8F5"/>
<line x1="928.161" y1="34.2245" x2="961.402" y2="47.3825" stroke="#FAF8F5"/>
<line x1="949.896" y1="17.1948" x2="961.669" y2="47.6658" stroke="#FAF8F5"/>
<line x1="961.677" y1="47.6915" x2="985.223" y2="118.329" stroke="#FAF8F5"/>
<circle cx="259.02" cy="45.7662" r="2.77009" fill="#FAF8F5"/>
<circle cx="240.304" cy="54.0756" r="2.07757" fill="#FAF8F5"/>
<circle cx="276.325" cy="48.5357" r="2.77009" fill="#FAF8F5"/>
<circle cx="306.101" cy="70.6987" r="2.07757" fill="#FAF8F5"/>
<circle cx="273.559" cy="97.0142" r="2.77009" fill="#FAF8F5"/>
<circle cx="285.328" cy="109.482" r="2.07757" fill="#FAF8F5"/>
<circle cx="316.465" cy="94.2427" r="2.77009" fill="#FAF8F5"/>
<circle cx="358.731" cy="104.635" r="2.77009" fill="#FAF8F5"/>
<circle cx="342.794" cy="54.7681" r="2.77009" fill="#FAF8F5"/>
<circle cx="329.637" cy="33.9967" r="2.77009" fill="#FAF8F5"/>
<circle cx="342.101" cy="30.5307" r="2.07757" fill="#FAF8F5"/>
<circle cx="342.119" cy="20.1448" r="1.38505" fill="#FAF8F5"/>
<circle cx="326.187" cy="25.685" r="2.07757" fill="#FAF8F5"/>
<line x1="240.769" y1="54.3204" x2="258.774" y2="45.3176" stroke="#FAF8F5"/>
<line x1="259.114" y1="44.5859" x2="276.427" y2="48.0485" stroke="#FAF8F5"/>
<line x1="276.619" y1="48.1379" x2="306.397" y2="70.2987" stroke="#FAF8F5"/>
<line x1="306.551" y1="70.4994" x2="316.939" y2="94.0451" stroke="#FAF8F5"/>
<line x1="316.732" y1="94.6873" x2="286.261" y2="110.615" stroke="#FAF8F5"/>
<line x1="284.948" y1="110.507" x2="273.175" y2="97.3493" stroke="#FAF8F5"/>
<line x1="273.245" y1="95.9274" x2="305.794" y2="70.3041" stroke="#FAF8F5"/>
<line x1="305.895" y1="70.2425" x2="342.598" y2="54.3145" stroke="#FAF8F5"/>
<line x1="343.289" y1="53.9298" x2="359.217" y2="104.484" stroke="#FAF8F5"/>
<line x1="358.592" y1="105.118" x2="316.348" y2="94.7305" stroke="#FAF8F5"/>
<line x1="342.312" y1="54.7676" x2="342.312" y2="31.2218" stroke="#FAF8F5"/>
<line x1="342.312" y1="30.5332" x2="342.312" y2="20.8379" stroke="#FAF8F5"/>
<line x1="326.641" y1="25.4913" x2="330.104" y2="33.8016" stroke="#FAF8F5"/>
<line x1="330.067" y1="33.0395" x2="343.225" y2="54.5077" stroke="#FAF8F5"/>
<circle cx="1278.41" cy="33.9955" r="2.07757" fill="#FAF8F5"/>
<circle cx="1298.5" cy="55.4654" r="2.77009" fill="#FAF8F5"/>
<circle cx="1310.26" cy="71.3912" r="2.77009" fill="#FAF8F5"/>
<circle cx="1319.95" cy="76.2416" r="2.07757" fill="#FAF8F5"/>
<circle cx="1323.42" cy="84.5474" r="2.77009" fill="#FAF8F5"/>
<circle cx="1331.03" cy="76.9342" r="2.77009" fill="#FAF8F5"/>
<circle cx="1333.81" cy="84.5474" r="2.77009" fill="#FAF8F5"/>
<circle cx="1330.34" cy="106.017" r="2.07757" fill="#FAF8F5"/>
<circle cx="1338.65" cy="108.098" r="2.77009" fill="#FAF8F5"/>
<circle cx="1337.27" cy="119.173" r="2.07757" fill="#FAF8F5"/>
<circle cx="1357.35" cy="82.471" r="1.38505" fill="#FAF8F5"/>
<circle cx="1351.81" cy="70.0064" r="2.77009" fill="#FAF8F5"/>
<circle cx="1315.8" cy="38.8443" r="2.77009" fill="#FAF8F5"/>
<circle cx="1323.42" cy="20.8365" r="2.77009" fill="#FAF8F5"/>
<circle cx="1341.41" cy="28.4565" r="2.07757" fill="#FAF8F5"/>
<circle cx="1362.89" cy="55.4654" r="2.77009" fill="#FAF8F5"/>
<circle cx="1379.51" cy="55.4654" r="2.77009" fill="#FAF8F5"/>
<circle cx="1376.76" cy="37.4595" r="2.77009" fill="#FAF8F5"/>
<circle cx="1381.59" cy="28.4565" r="2.07757" fill="#FAF8F5"/>
<circle cx="1377.44" cy="19.4515" r="1.38505" fill="#FAF8F5"/>
<circle cx="1367.05" cy="17.3744" r="2.07757" fill="#FAF8F5"/>
<circle cx="1379.51" cy="11.1431" r="2.77009" fill="#FAF8F5"/>
<line x1="1278.77" y1="34.3419" x2="1298.86" y2="55.1176" stroke="#FAF8F5"/>
<line x1="1298.89" y1="55.1657" x2="1310.67" y2="71.0937" stroke="#FAF8F5"/>
<line x1="1309.09" y1="70.6052" x2="1315.32" y2="38.7491" stroke="#FAF8F5"/>
<line x1="1315.33" y1="37.951" x2="1322.95" y2="20.6379" stroke="#FAF8F5"/>
<line x1="1323.64" y1="19.696" x2="1342.34" y2="28.6988" stroke="#FAF8F5"/>
<line x1="1342.51" y1="28.8335" x2="1363.29" y2="54.4569" stroke="#FAF8F5"/>
<line x1="1362.63" y1="54.3532" x2="1352.24" y2="70.2812" stroke="#FAF8F5"/>
<line x1="1351.42" y1="69.7068" x2="1334.11" y2="83.5573" stroke="#FAF8F5"/>
<line x1="1331.5" y1="76.7286" x2="1334.27" y2="82.9613" stroke="#FAF8F5"/>
<line x1="1323.79" y1="83.4733" x2="1332.1" y2="76.5481" stroke="#FAF8F5"/>
<line x1="1322.96" y1="84.0431" x2="1320.19" y2="77.1179" stroke="#FAF8F5"/>
<line x1="1309.8" y1="70.9454" x2="1320.88" y2="76.4855" stroke="#FAF8F5"/>
<line x1="1316.26" y1="37.2809" x2="1331.49" y2="76.7547" stroke="#FAF8F5"/>
<line x1="1329.88" y1="106.612" x2="1334.73" y2="83.0663" stroke="#FAF8F5"/>
<line x1="1329.73" y1="106.22" x2="1338.04" y2="107.605" stroke="#FAF8F5"/>
<line x1="1338.46" y1="108.149" x2="1337.07" y2="120.614" stroke="#FAF8F5"/>
<line x1="1352.26" y1="69.8221" x2="1357.8" y2="83.6726" stroke="#FAF8F5"/>
<line x1="1362.88" y1="54.9633" x2="1379.5" y2="54.2708" stroke="#FAF8F5"/>
<line x1="1375.85" y1="37.3485" x2="1380.01" y2="55.3541" stroke="#FAF8F5"/>
<line x1="1381.34" y1="28.721" x2="1375.8" y2="37.7238" stroke="#FAF8F5"/>
<line x1="1377.2" y1="19.2562" x2="1381.36" y2="28.9515" stroke="#FAF8F5"/>
<line x1="1367.16" y1="16.8847" x2="1377.55" y2="18.9623" stroke="#FAF8F5"/>
<line x1="1378.37" y1="11.5803" x2="1367.29" y2="17.813" stroke="#FAF8F5"/>
<line x1="1378.62" y1="11.2267" x2="1377.23" y2="19.537" stroke="#FAF8F5"/>
<circle cx="1423.82" cy="41.6155" r="1.38505" fill="#FAF8F5"/>
<circle cx="1426.6" cy="52.0025" r="2.77009" fill="#FAF8F5"/>
<circle cx="1429.36" cy="35.3814" r="2.77009" fill="#FAF8F5"/>
<circle cx="1434.53" cy="26.0321" r="1.73131" fill="#FAF8F5"/>
<circle cx="1421.73" cy="20.1448" r="1.38505" fill="#FAF8F5"/>
<circle cx="1409.97" cy="23.608" r="2.77009" fill="#FAF8F5"/>
<circle cx="1407.54" cy="40.577" r="1.73131" fill="#FAF8F5"/>
<circle cx="1448.05" cy="23.6077" r="1.38505" fill="#FAF8F5"/>
<circle cx="1442.15" cy="59.9657" r="1.73131" fill="#FAF8F5"/>
<circle cx="1462.61" cy="83.1646" r="2.77009" fill="#FAF8F5"/>
<circle cx="1482.32" cy="76.5829" r="1.73131" fill="#FAF8F5"/>
<circle cx="1495.15" cy="84.5494" r="2.77009" fill="#FAF8F5"/>
<circle cx="1533.22" cy="83.1646" r="2.77009" fill="#FAF8F5"/>
<circle cx="1511.41" cy="109.136" r="1.73131" fill="#FAF8F5"/>
<circle cx="1468.13" cy="99.7854" r="1.38505" fill="#FAF8F5"/>
<line x1="1408.07" y1="40.1889" x2="1409.46" y2="23.5684" stroke="#FAF8F5"/>
<line x1="1409.84" y1="23.1193" x2="1422.31" y2="20.3492" stroke="#FAF8F5"/>
<line x1="1422.64" y1="20.381" x2="1435.11" y2="25.9212" stroke="#FAF8F5"/>
<line x1="1428.93" y1="35.1227" x2="1434.47" y2="26.1199" stroke="#FAF8F5"/>
<line x1="1423.44" y1="41.9923" x2="1428.98" y2="35.0671" stroke="#FAF8F5"/>
<line x1="1408.62" y1="40.42" x2="1423.85" y2="41.8051" stroke="#FAF8F5"/>
<line x1="1424.31" y1="42.1673" x2="1427.08" y2="51.8626" stroke="#FAF8F5"/>
<line x1="1426.84" y1="51.5628" x2="1442.77" y2="60.5656" stroke="#FAF8F5"/>
<line x1="1442.88" y1="60.6662" x2="1462.96" y2="82.8269" stroke="#FAF8F5"/>
<line x1="1463.08" y1="83.004" x2="1468.62" y2="99.6245" stroke="#FAF8F5"/>
<line x1="1462.47" y1="82.6801" x2="1482.55" y2="77.1399" stroke="#FAF8F5"/>
<line x1="1482.91" y1="77.186" x2="1495.38" y2="84.1112" stroke="#FAF8F5"/>
<line x1="1468.24" y1="99.2951" x2="1511.87" y2="108.99" stroke="#FAF8F5"/>
<line x1="1511.37" y1="109.164" x2="1532.84" y2="82.8485" stroke="#FAF8F5"/>
<line x1="1495.11" y1="84.0511" x2="1533.2" y2="82.6661" stroke="#FAF8F5"/>
<circle cx="1138.51" cy="53.3909" r="1.38505" fill="#FAF8F5"/>
<circle cx="1131.59" cy="52.0053" r="2.07757" fill="#FAF8F5"/>
<circle cx="1124.65" cy="51.3131" r="2.77009" fill="#FAF8F5"/>
<circle cx="1093.49" cy="38.1537" r="2.07757" fill="#FAF8F5"/>
<circle cx="1074.8" cy="56.8521" r="2.77009" fill="#FAF8F5"/>
<circle cx="1065.1" cy="56.1596" r="2.07757" fill="#FAF8F5"/>
<circle cx="1049.18" cy="54.0787" r="2.77009" fill="#FAF8F5"/>
<circle cx="1036.02" cy="72.7807" r="2.07757" fill="#FAF8F5"/>
<circle cx="1047.09" cy="90.7866" r="2.07757" fill="#FAF8F5"/>
<circle cx="1024.93" cy="91.4791" r="2.77009" fill="#FAF8F5"/>
<circle cx="1010.39" cy="70.7006" r="2.07757" fill="#FAF8F5"/>
<circle cx="1013.17" cy="61.6998" r="2.77009" fill="#FAF8F5"/>
<circle cx="1022.16" cy="58.9322" r="2.77009" fill="#FAF8F5"/>
<line x1="1009.92" y1="70.5561" x2="1012.69" y2="61.5533" stroke="#FAF8F5"/>
<line x1="1013.01" y1="61.2252" x2="1022.01" y2="58.4551" stroke="#FAF8F5"/>
<line x1="1022.08" y1="58.4376" x2="1049.08" y2="53.5899" stroke="#FAF8F5"/>
<line x1="1049.25" y1="53.5888" x2="1065.87" y2="56.3589" stroke="#FAF8F5"/>
<line x1="1065.8" y1="56.3516" x2="1074.8" y2="56.3516" stroke="#FAF8F5"/>
<line x1="1074.45" y1="56.498" x2="1093.15" y2="37.7999" stroke="#FAF8F5"/>
<line x1="1093.69" y1="37.6937" x2="1124.85" y2="50.8516" stroke="#FAF8F5"/>
<line x1="1124.76" y1="50.8183" x2="1131.69" y2="52.2034" stroke="#FAF8F5"/>
<line x1="1130.98" y1="52.2092" x2="1138.6" y2="53.5943" stroke="#FAF8F5"/>
<line x1="1049.58" y1="54.3727" x2="1035.73" y2="73.7633" stroke="#FAF8F5"/>
<line x1="1035.72" y1="73.1861" x2="1048.18" y2="91.1917" stroke="#FAF8F5"/>
<line x1="1047.79" y1="91.283" x2="1024.94" y2="91.9755" stroke="#FAF8F5"/>
<line x1="1024.54" y1="91.7633" x2="1009.99" y2="70.9876" stroke="#FAF8F5"/>
<line x1="1009.92" y1="70.5561" x2="1012.69" y2="61.5533" stroke="#FAF8F5"/>
<circle cx="141.291" cy="36.0745" r="1.38505" fill="#FAF8F5"/>
<circle cx="151.692" cy="30.5338" r="2.77009" fill="#FAF8F5"/>
<circle cx="155.83" cy="38.1526" r="1.38505" fill="#FAF8F5"/>
<circle cx="161.382" cy="32.6127" r="2.07757" fill="#FAF8F5"/>
<circle cx="164.84" cy="44.3834" r="2.77009" fill="#FAF8F5"/>
<circle cx="180.083" cy="79.7037" r="2.77009" fill="#FAF8F5"/>
<circle cx="148.226" cy="90.7846" r="2.07757" fill="#FAF8F5"/>
<circle cx="171.075" cy="100.479" r="2.77009" fill="#FAF8F5"/>
<circle cx="191.848" cy="126.794" r="2.77009" fill="#FAF8F5"/>
<circle cx="204.312" cy="103.249" r="2.07757" fill="#FAF8F5"/>
<circle cx="160.69" cy="6.98856" r="1.38505" fill="#FAF8F5"/>
<circle cx="166.916" cy="1.44755" r="1.38505" fill="#FAF8F5"/>
<line x1="142.41" y1="35.6445" x2="151.413" y2="30.1043" stroke="#FAF8F5"/>
<line x1="151.4" y1="30.2578" x2="156.941" y2="38.5681" stroke="#FAF8F5"/>
<line x1="156.816" y1="38.4297" x2="165.127" y2="43.9699" stroke="#FAF8F5"/>
<line x1="165.289" y1="43.4966" x2="180.524" y2="79.5078" stroke="#FAF8F5"/>
<line x1="179.71" y1="79.3396" x2="204.641" y2="102.885" stroke="#FAF8F5"/>
<line x1="204.072" y1="103.474" x2="192.299" y2="127.019" stroke="#FAF8F5"/>
<line x1="192.844" y1="127.115" x2="170.683" y2="100.799" stroke="#FAF8F5"/>
<line x1="170.882" y1="100.246" x2="148.721" y2="91.2436" stroke="#FAF8F5"/>
<line x1="148.754" y1="90.3121" x2="179.918" y2="79.2317" stroke="#FAF8F5"/>
</svg>
