<svg width="414" height="80" viewBox="0 0 414 80" fill="none" xmlns="http://www.w3.org/2000/svg">
<path d="M5.32958 56V78.3562H15.9887V56H31.1247L37.3071 78.3562H42.6366H50.098V56H56.4935C55.4276 58.7397 54.7881 61.6986 54.7881 65.0959C54.7881 69.8082 56.0672 74.5205 58.732 78.3562H73.2284C86.4458 78.3562 86.7655 56.8767 86.7655 47.4521V25.2055C86.7655 11.8356 80.7964 0.109587 66.4066 0.109587C52.5497 0.109587 48.286 11.726 47.2201 23.5616H33.15L27.0743 1.64384H5.32958V23.5616H0V23.6712H5.32958V55.8904H0V56H5.32958ZM50.098 55.8904V31.4521C50.098 29.0411 50.2046 26.411 50.5244 23.6712H75.2537C73.5482 36.9315 61.2902 44.274 56.6001 55.8904H50.098ZM50.5244 23.5616C51.5903 15.3425 54.8947 6.79452 64.0615 6.79452C72.0559 6.79452 75.4668 13.1507 75.4668 20.6027C75.4668 21.589 75.3602 22.5753 75.2537 23.5616H50.5244ZM15.9887 55.8904V23.6712H22.0645L31.0181 55.8904H15.9887ZM83.781 56C83.248 64.4384 81.1162 75.0685 73.4416 75.0685C68.3252 75.0685 65.4472 70.5753 65.4472 65.7534C65.4472 62.3562 66.7263 59.1781 68.645 56H83.781ZM42.1037 55.8904L33.15 23.6712H47.2201C47.0069 26.3014 46.9003 28.9315 46.9003 31.4521V55.8904H42.1037ZM68.7516 55.8904C74.0812 47.0137 84.1008 37.9178 84.3139 24.4384L84.1008 48.4384C84.1008 50.3014 83.9942 52.9315 83.781 55.8904H68.7516ZM15.9887 23.5616V1.64384L22.0645 23.5616H15.9887ZM46.9003 56V72.9863L42.2103 56H46.9003Z" fill="#FAF8F5"/>
<path d="M149.509 55.8904V23.6712H175.73V23.5616H149.509V1.64384H127.764L121.688 23.5616H106.446V1.64384H95.7867V23.5616H90.4571V23.6712H95.7867V55.8904H90.4571V56H95.7867V78.3562H117.531L123.714 56H138.85V78.3562H149.509V56H175.73V55.8904H149.509ZM106.446 55.8904V23.6712H121.688L112.735 55.8904H106.446ZM123.82 55.8904L132.774 23.6712H138.85V55.8904H123.82ZM112.628 56L106.446 78.3562V56H112.628ZM132.774 23.5616L138.85 1.64384V23.5616H132.774Z" fill="#FAF8F5"/>
<path d="M161.715 56C165.553 61.4795 171.415 65.5342 178.237 67.3973L169.816 78.3562H197.423H227.376V67.3973H178.237L187.724 56H203.393C207.55 59.8356 212.986 62.0274 219.062 62.0274C225.35 62.0274 230.68 59.8356 234.624 56H240.06V55.8904H234.73C238.994 51.726 241.446 45.6986 241.446 38.7945C241.446 33.0959 239.74 27.9452 236.756 23.6712H240.06V23.5616H236.649C232.918 18.1918 227.162 14.3562 220.554 12.6027L228.442 1.64384H170.882V12.6027H220.554L211.493 23.5616H194.226C190.069 20.0548 184.846 17.9726 178.983 17.9726C173.014 17.9726 167.898 20.0548 163.954 23.5616H154.787V23.6712H163.847C159.477 27.726 156.919 33.6438 156.919 40.6575C156.919 46.4658 158.624 51.6164 161.609 55.8904H154.787V56H161.715ZM203.179 37.2603C207.55 32.1096 213.199 25.4247 220.447 25.4247C227.589 25.4247 231.852 32.6575 231.852 39.3425C231.852 47.3425 226.31 52.1644 218.742 52.1644C210.428 52.1644 204.672 45.1507 203.179 37.2603ZM178.663 27.8356C187.404 27.8356 192.947 35.2877 195.292 43.1781C190.921 48.3288 186.658 53.3699 179.409 53.3699C172.055 53.3699 166.512 47.7808 166.512 40.2192C166.512 32.9863 171.628 27.8356 178.663 27.8356ZM211.387 23.6712L202.22 34.7397C200.408 30.3562 197.743 26.5205 194.332 23.6712H211.387ZM187.83 55.8904L196.251 45.6986C197.85 49.7534 200.301 53.1507 203.179 55.8904H187.83Z" fill="#FAF8F5"/>
<path d="M250.457 23.6712C248.325 28.6027 247.259 34.0822 247.259 40C247.259 45.6986 248.325 51.0685 250.244 55.8904H245.66V56H250.244C256 70.3562 269.537 80 286.165 80C302.793 80 316.33 70.3562 322.086 56H330.934V55.8904H322.086C324.005 51.0685 325.071 45.6986 325.071 40C325.071 34.0822 324.005 28.6027 321.873 23.6712H330.934V23.5616H321.873C316.011 9.42466 302.58 0 286.165 0C269.75 0 256.319 9.42466 250.457 23.5616H245.66V23.6712H250.457ZM309.828 23.6712C312.706 28.274 314.412 33.863 314.412 40C314.412 45.9178 312.813 51.3973 310.042 55.8904H262.289C259.517 51.3973 257.918 45.9178 257.918 40C257.918 33.863 259.624 28.274 262.502 23.6712H309.828ZM310.042 56C305.032 64 296.398 69.0411 286.165 69.0411C275.932 69.0411 267.298 64 262.289 56H310.042ZM262.608 23.5616C267.618 15.8904 276.145 10.9589 286.165 10.9589C296.185 10.9589 304.712 15.8904 309.722 23.5616H262.608Z" fill="#FAF8F5"/>
<path d="M333.523 23.6712C331.392 28.6027 330.326 34.0822 330.326 40C330.326 45.6986 331.392 51.0685 333.31 55.8904H328.727V56H333.31C339.066 70.3562 352.603 80 369.232 80C379.251 80 389.058 76.3836 396.412 69.1507V56H414V55.8904H396.412V48.2192C395.666 51.0685 394.6 53.589 393.108 55.8904H345.355C342.584 51.3973 340.985 45.9178 340.985 40C340.985 33.863 342.69 28.274 345.568 23.6712H392.895C394.387 26.0822 395.666 28.8219 396.412 31.7808V23.6712H414V23.5616H396.412V10.8493C389.058 3.61644 379.251 0 369.232 0C352.816 0 339.386 9.42466 333.523 23.5616H328.727V23.6712H333.523ZM393.108 56C388.098 64.2192 379.145 69.0411 369.232 69.0411C358.999 69.0411 350.365 64 345.355 56H393.108ZM345.675 23.5616C350.685 15.8904 359.212 10.9589 369.232 10.9589C379.038 10.9589 387.778 15.6712 392.788 23.5616H345.675Z" fill="#FAF8F5"/>
</svg>
