<svg width="433" height="80" viewBox="0 0 433 80" fill="none" xmlns="http://www.w3.org/2000/svg">
<path d="M0 23.6712H5.47945V55.8904H0V56H5.47945V78.3562H16.4384V56H32L38.3562 78.3562H43.8356H61.1507L67.5069 56H83.0685V78.3562H94.0274V1.64384H71.6712L65.4247 23.5616H34.0822L27.8356 1.64384H5.47945V23.5616H0V23.6712ZM43.2877 55.8904L34.0822 23.6712H65.4247L56.2192 55.8904H43.2877ZM67.6164 55.8904L76.8219 23.6712H83.0685V55.8904H67.6164ZM16.4384 55.8904V23.6712H22.6849L31.8904 55.8904H16.4384ZM56.1096 56L49.7534 78.3562L43.3973 56H56.1096ZM16.4384 23.5616V1.64384L22.6849 23.5616H16.4384ZM76.8219 23.5616L83.0685 1.64384V23.5616H76.8219Z" fill="#FAF8F5"/>
<path d="M160.241 55.8904V23.6712H187.2V23.5616H160.241V1.64384H137.885L131.639 23.5616H115.967V1.64384H105.009V23.5616H99.5291V23.6712H105.009V55.8904H99.5291V56H105.009V78.3562H127.365L133.721 56H149.283V78.3562H160.241V56H187.2V55.8904H160.241ZM115.967 55.8904V23.6712H131.639L122.433 55.8904H115.967ZM133.83 55.8904L143.036 23.6712H149.283V55.8904H133.83ZM122.324 56L115.967 78.3562V56H122.324ZM143.036 23.5616L149.283 1.64384V23.5616H143.036Z" fill="#FAF8F5"/>
<path d="M172.791 56C176.736 61.4795 182.764 65.5342 189.777 67.3973L181.12 78.3562H209.503H240.298V67.3973H189.777L199.531 56H215.64C219.914 59.8356 225.503 62.0274 231.75 62.0274C238.216 62.0274 243.695 59.8356 247.75 56H253.339V55.8904H247.86C252.243 51.726 254.764 45.6986 254.764 38.7945C254.764 33.0959 253.01 27.9452 249.942 23.6712H253.339V23.5616H249.832C245.997 18.1918 240.079 14.3562 233.284 12.6027L241.394 1.64384H182.216V12.6027H233.284L223.969 23.5616H206.216C201.942 20.0548 196.572 17.9726 190.545 17.9726C184.408 17.9726 179.147 20.0548 175.092 23.5616H165.668V23.6712H174.983C170.49 27.726 167.86 33.6438 167.86 40.6575C167.86 46.4658 169.613 51.6164 172.682 55.8904H165.668V56H172.791ZM215.421 37.2603C219.914 32.1096 225.723 25.4247 233.175 25.4247C240.517 25.4247 244.901 32.6575 244.901 39.3425C244.901 47.3425 239.202 52.1644 231.421 52.1644C222.873 52.1644 216.955 45.1507 215.421 37.2603ZM190.216 27.8356C199.202 27.8356 204.901 35.2877 207.312 43.1781C202.818 48.3288 198.435 53.3699 190.983 53.3699C183.421 53.3699 177.723 47.7808 177.723 40.2192C177.723 32.9863 182.983 27.8356 190.216 27.8356ZM223.86 23.6712L214.435 34.7397C212.572 30.3562 209.832 26.5205 206.325 23.6712H223.86ZM199.64 55.8904L208.298 45.6986C209.942 49.7534 212.462 53.1507 215.421 55.8904H199.64Z" fill="#FAF8F5"/>
<path d="M264.028 23.6712C261.836 28.6027 260.741 34.0822 260.741 40C260.741 45.6986 261.836 51.0685 263.809 55.8904H259.097V56H263.809C269.727 70.3562 283.645 80 300.741 80C317.836 80 331.754 70.3562 337.672 56H346.768V55.8904H337.672C339.645 51.0685 340.741 45.6986 340.741 40C340.741 34.0822 339.645 28.6027 337.453 23.6712H346.768V23.5616H337.453C331.426 9.42466 317.617 0 300.741 0C283.864 0 270.056 9.42466 264.028 23.5616H259.097V23.6712H264.028ZM325.069 23.6712C328.028 28.274 329.782 33.863 329.782 40C329.782 45.9178 328.138 51.3973 325.289 55.8904H276.193C273.343 51.3973 271.699 45.9178 271.699 40C271.699 33.863 273.453 28.274 276.412 23.6712H325.069ZM325.289 56C320.138 64 311.261 69.0411 300.741 69.0411C290.22 69.0411 281.343 64 276.193 56H325.289ZM276.521 23.5616C281.672 15.8904 290.439 10.9589 300.741 10.9589C311.042 10.9589 319.809 15.8904 324.96 23.5616H276.521Z" fill="#FAF8F5"/>
<path d="M349.431 23.6712C347.239 28.6027 346.143 34.0822 346.143 40C346.143 45.6986 347.239 51.0685 349.211 55.8904H344.499V56H349.211C355.129 70.3562 369.047 80 386.143 80C396.444 80 406.527 76.3836 414.088 69.1507V56H432.17V55.8904H414.088V48.2192C413.321 51.0685 412.225 53.589 410.691 55.8904H361.595C358.746 51.3973 357.102 45.9178 357.102 40C357.102 33.863 358.855 28.274 361.814 23.6712H410.472C412.006 26.0822 413.321 28.8219 414.088 31.7808V23.6712H432.17V23.5616H414.088V10.8493C406.527 3.61644 396.444 0 386.143 0C369.266 0 355.458 9.42466 349.431 23.5616H344.499V23.6712H349.431ZM410.691 56C405.54 64.2192 396.335 69.0411 386.143 69.0411C375.622 69.0411 366.746 64 361.595 56H410.691ZM361.924 23.5616C367.074 15.8904 375.842 10.9589 386.143 10.9589C396.225 10.9589 405.211 15.6712 410.362 23.5616H361.924Z" fill="#FAF8F5"/>
</svg>
