<svg width="380" height="313" viewBox="0 0 380 313" fill="none" xmlns="http://www.w3.org/2000/svg">
<ellipse rx="7.11624" ry="6.51257" transform="matrix(0.278128 0.960544 -0.940658 0.339356 277.963 23.778)" fill="black"/>
<ellipse rx="9.48832" ry="8.68342" transform="matrix(0.278128 0.960544 -0.940658 0.339356 342.486 98.6428)" fill="black"/>
<ellipse rx="9.48832" ry="8.68342" transform="matrix(0.278128 0.960544 -0.940658 0.339356 298.51 164.838)" fill="black"/>
<ellipse rx="9.48832" ry="8.68342" transform="matrix(0.278128 0.960544 -0.940658 0.339356 186.51 167.502)" fill="black"/>
<ellipse rx="7.11624" ry="6.51257" transform="matrix(0.278128 0.960544 -0.940658 0.339356 161.541 151.342)" fill="black"/>
<ellipse rx="7.11624" ry="6.51257" transform="matrix(0.278128 0.960544 -0.940658 0.339356 142.677 132.977)" fill="black"/>
<ellipse rx="4.74416" ry="4.34171" transform="matrix(0.278128 0.960544 -0.940658 0.339356 224.524 166.364)" fill="black"/>
<ellipse rx="7.11624" ry="6.51257" transform="matrix(0.278128 0.960544 -0.940658 0.339356 161.029 211.919)" fill="black"/>
<ellipse rx="4.74416" ry="4.34171" transform="matrix(0.278128 0.960544 -0.940658 0.339356 82.2667 298.216)" fill="black"/>
<ellipse rx="7.11624" ry="6.51257" transform="matrix(0.278128 0.960544 -0.940658 0.339356 16.9781 150.641)" fill="black"/>
<line y1="-0.5" x2="101.29" y2="-0.5" transform="matrix(0.637071 0.739108 -0.699642 0.750919 277.957 23.7793)" stroke="black"/>
<line y1="-0.5" x2="78.829" y2="-0.5" transform="matrix(-0.583847 0.849102 -0.737261 -0.63116 344.531 97.9043)" stroke="black"/>
<line y1="-0.5" x2="78.2855" y2="-0.5" transform="matrix(-0.979572 -0.00020178 0.00036968 -1.01736 298.508 164.842)" stroke="black"/>
<line y1="-0.5" x2="36.0064" y2="-0.5" transform="matrix(-0.980702 0.0742408 -0.0613284 -1.01204 221.816 164.828)" stroke="black"/>
<line y1="-0.5" x2="27.5205" y2="-0.5" transform="matrix(-0.80936 -0.530981 0.480982 -0.912672 186.504 167.496)" stroke="black"/>
<line y1="-0.5" x2="28.1708" y2="-0.5" transform="matrix(-0.741607 -0.625755 0.57818 -0.853116 166.285 152.146)" stroke="black"/>
<line y1="-0.5" x2="166.347" y2="-0.5" transform="matrix(0.788669 -0.647597 0.540493 0.819728 146.766 131.504)" stroke="black"/>
<line y1="-0.5" x2="133.325" y2="-0.5" transform="matrix(0.97835 -0.126456 0.104225 1.00595 14.9453 151.385)" stroke="black"/>
<line y1="-0.5" x2="51.2809" y2="-0.5" transform="matrix(-0.536655 0.880626 -0.772072 -0.585755 187.168 169.775)" stroke="black"/>
<line y1="-0.5" x2="109.656" y2="-0.5" transform="matrix(-0.711651 0.738668 -0.625231 -0.75007 159.652 214.936)" stroke="black"/>
</svg>
