<svg width="229" height="173" viewBox="0 0 229 173" fill="none" xmlns="http://www.w3.org/2000/svg">
<ellipse cx="38.5992" cy="50.3517" rx="5.14607" ry="5.16418" fill="#FAF8F5"/>
<ellipse cx="3.85955" cy="65.8438" rx="3.85955" ry="3.87313" fill="#FAF8F5"/>
<ellipse cx="70.7554" cy="55.5157" rx="5.14607" ry="5.16418" fill="#FAF8F5"/>
<ellipse cx="126.078" cy="96.8282" rx="3.85955" ry="3.87313" fill="#FAF8F5"/>
<ellipse cx="65.6148" cy="145.889" rx="5.14607" ry="5.16418" fill="#FAF8F5"/>
<ellipse cx="87.4846" cy="169.127" rx="3.85955" ry="3.87313" fill="#FAF8F5"/>
<ellipse cx="145.373" cy="140.725" rx="5.14607" ry="5.16418" fill="#FAF8F5"/>
<ellipse cx="223.857" cy="160.09" rx="5.14607" ry="5.16418" fill="#FAF8F5"/>
<ellipse cx="194.263" cy="67.1349" rx="5.14607" ry="5.16418" fill="#FAF8F5"/>
<ellipse cx="169.818" cy="28.4025" rx="5.14607" ry="5.16418" fill="#FAF8F5"/>
<ellipse cx="192.977" cy="21.9474" rx="3.85955" ry="3.87313" fill="#FAF8F5"/>
<ellipse cx="192.979" cy="2.58209" rx="2.57303" ry="2.58209" fill="#FAF8F5"/>
<ellipse cx="163.391" cy="12.9102" rx="3.85955" ry="3.87313" fill="#FAF8F5"/>
<line y1="-0.75" x2="37.424" y2="-0.75" transform="matrix(0.893797 -0.448471 0.445958 0.895054 5.14844 67.1348)" stroke="#FAF8F5" stroke-width="1.5"/>
<line y1="-0.75" x2="32.8043" y2="-0.75" transform="matrix(0.980448 0.19678 -0.195455 0.980713 38.5938 49.0605)" stroke="#FAF8F5" stroke-width="1.5"/>
<line y1="-0.75" x2="69.0444" y2="-0.75" transform="matrix(0.801227 0.59836 -0.595661 0.803236 70.7578 55.5156)" stroke="#FAF8F5" stroke-width="1.5"/>
<line y1="-0.75" x2="47.9502" y2="-0.75" transform="matrix(0.402454 0.91544 -0.914393 0.404828 126.078 96.8281)" stroke="#FAF8F5" stroke-width="1.5"/>
<line y1="-0.75" x2="63.9223" y2="-0.75" transform="matrix(-0.885556 0.464533 -0.461977 -0.886892 145.375 140.725)" stroke="#FAF8F5" stroke-width="1.5"/>
<line y1="-0.75" x2="32.864" y2="-0.75" transform="matrix(-0.665493 -0.746404 0.744076 -0.668095 87.4844 170.418)" stroke="#FAF8F5" stroke-width="1.5"/>
<line y1="-0.75" x2="77.0585" y2="-0.75" transform="matrix(0.78468 -0.619901 0.617218 0.786793 65.6094 144.598)" stroke="#FAF8F5" stroke-width="1.5"/>
<line y1="-0.75" x2="74.3706" y2="-0.75" transform="matrix(0.916833 -0.399271 0.396917 0.917854 126.078 96.8281)" stroke="#FAF8F5" stroke-width="1.5"/>
<line y1="-0.75" x2="98.7822" y2="-0.75" transform="matrix(0.299547 0.954082 -0.953476 0.301468 194.266 65.8438)" stroke="#FAF8F5" stroke-width="1.5"/>
<line y1="-0.75" x2="80.8316" y2="-0.75" transform="matrix(-0.970877 -0.23958 0.237998 -0.971266 223.852 160.09)" stroke="#FAF8F5" stroke-width="1.5"/>
<line x1="193.516" y1="67.1348" x2="193.516" y2="23.2392" stroke="#FAF8F5" stroke-width="1.5"/>
<line x1="193.516" y1="21.9473" x2="193.516" y2="3.87264" stroke="#FAF8F5" stroke-width="1.5"/>
<line y1="-0.75" x2="16.7749" y2="-0.75" transform="matrix(0.383465 0.923555 -0.922596 0.385768 163.391 12.9102)" stroke="#FAF8F5" stroke-width="1.5"/>
<line y1="-0.75" x2="46.8966" y2="-0.75" transform="matrix(0.521228 0.853418 -0.851782 0.523897 169.82 27.1113)" stroke="#FAF8F5" stroke-width="1.5"/>
</svg>
