<svg width="89" height="97" viewBox="0 0 89 97" fill="none" xmlns="http://www.w3.org/2000/svg">
<rect width="89" height="97" fill="black"/>
<path d="M6.06108 51.7777L6.06115 51.7778C10.6815 57.0412 16.7759 59.8629 23.662 61.1444C24.2485 61.253 24.7399 61.3463 25.1243 61.464C25.51 61.5821 25.8712 61.7477 26.1344 62.0544C26.4033 62.3679 26.5028 62.7493 26.5382 63.1518C26.5729 63.5468 26.5509 64.0353 26.5145 64.6181C25.6223 78.9706 39.5856 89.7324 53.2547 85.245L6.06108 51.7777ZM6.06108 51.7777C0.684016 45.6548 -0.472782 38.4683 1.42691 30.5677C2.36604 26.662 4.86893 22.2819 8.43624 18.713C12.0013 15.1464 16.5882 12.4304 21.669 11.7817L21.6691 11.7817M6.06108 51.7777L21.6691 11.7817M21.6691 11.7817C29.4976 10.7809 36.1113 13.4595 42.001 18.433L42.0027 18.4344M21.6691 11.7817L42.0027 18.4344M42.0027 18.4344C45.2711 21.1733 47.6057 24.706 49.9896 28.3131C50.1412 28.5425 50.293 28.7721 50.4452 29.0019L50.4453 29.0021M42.0027 18.4344L50.4453 29.0021M50.4453 29.0021C50.9012 29.6896 51.3514 30.3889 51.8041 31.0921C53.6652 33.9826 55.5689 36.9394 58.0817 39.4203L58.0818 39.4204L50.4453 29.0021ZM80.7806 33.4494L80.7806 33.4495C80.9859 37.2389 79.9818 40.3561 77.8883 42.4554C75.7927 44.5569 72.6908 45.5529 68.8778 45.2713L80.7806 33.4494ZM80.7806 33.4494C80.765 33.163 80.7359 32.881 80.7086 32.6158L80.7063 32.5936C80.6779 32.3171 80.6516 32.0586 80.639 31.8027C80.6139 31.2954 80.6445 30.8313 80.8087 30.3709L80.8095 30.3685M80.7806 33.4494L80.8095 30.3685M80.8095 30.3685C81.1601 29.3717 81.6016 28.7348 82.1744 28.3356C82.7471 27.9366 83.5244 27.7239 84.6492 27.7223C85.429 27.7571 86.1767 28.0437 86.7802 28.5392C87.3867 29.0372 87.8144 29.7191 87.9988 30.4819L87.9991 30.483C88.3932 32.0995 88.5158 33.7703 88.3617 35.427L88.3611 35.434C87.8877 41.3058 85.772 45.8078 82.4234 48.7757C79.0751 51.7433 74.4309 53.2331 68.7919 52.9596L68.7906 52.9595C67.1073 52.8819 65.4315 52.6882 63.7749 52.38L63.6699 52.9441M80.8095 30.3685L63.6699 52.9441M68.7641 53.5328C80.2769 54.0911 87.9679 47.4517 88.9331 35.4801L68.7641 53.5328ZM68.7641 53.5328C67.3237 53.4663 65.8887 53.3162 64.4662 53.0833L68.7641 53.5328ZM63.6699 52.9441L63.2025 53.277C67.2596 58.9738 68.3222 65.2155 66.4778 71.5192C64.5336 78.1575 60.0972 82.9949 53.2549 85.2449L63.6699 52.9441ZM45.055 34.838L45.0549 34.8379C44.5032 34.0398 43.9643 33.2169 43.4208 32.387C41.8482 29.9857 40.2375 27.5262 38.1692 25.4416L37.7619 25.8457L38.1692 25.4416C32.5381 19.7664 25.479 17.4734 19.0541 20.5675C13.4737 23.2378 9.78643 27.6462 8.55076 34.0074L8.5507 34.0077C7.93658 37.1795 8.34618 40.4645 9.7204 43.3883C11.0939 46.3107 13.36 48.7212 16.1919 50.2725C19.6007 52.215 23.3273 53.537 27.1983 54.1767C28.0429 54.3168 28.7838 54.3413 29.4783 54.1109C30.1811 53.8777 30.7613 53.4093 31.339 52.7132L31.3392 52.713C34.3335 49.1006 38.5041 46.6579 43.1194 45.8132L43.1195 45.8133L43.1311 45.8109C44.5252 45.5259 45.9225 45.5005 47.3786 45.5698C48.1073 45.6045 48.8441 45.6624 49.6028 45.7222L49.6115 45.7229C50.3646 45.7822 51.1385 45.8432 51.9296 45.8825L51.958 45.3094L52.4119 44.9582C51.9117 44.3118 51.4378 43.7112 50.9843 43.1364C50.0817 41.9925 49.2598 40.9509 48.4726 39.8545C47.7639 38.8675 47.104 37.8802 46.4387 36.885C45.9856 36.2071 45.5301 35.5256 45.055 34.838ZM50.5782 53.6571L50.5781 53.6571C42.803 51.3863 36.4906 56.5948 34.683 62.2835L34.6828 62.284C33.735 65.2767 34.2212 68.8172 35.7779 71.7969C37.3351 74.7776 39.9993 77.2635 43.4855 78.0831C50.0287 79.9697 57.2328 76.0548 59.0935 69.425C60.9886 62.6812 57.1854 55.5884 50.5782 53.6571Z" stroke="#FAF8F5" stroke-width="1.14765"/>
</svg>
