<svg width="89" height="97" viewBox="0 0 89 97" fill="none" xmlns="http://www.w3.org/2000/svg">
<rect width="89" height="97" fill="black"/>
<path d="M30.7955 63.9338L30.7978 63.9427C30.9861 64.6613 31.1507 65.3668 31.3126 66.061C31.6433 67.4792 31.963 68.8499 32.4515 70.1875L32.454 70.1943C32.7884 71.143 32.8414 71.9575 32.5475 72.7245C32.2655 73.4603 31.6965 74.0587 31.0147 74.6523L31.0089 74.6573C26.068 78.8552 22.1989 84.1516 19.7165 90.114L19.7164 90.1142C19.152 91.4686 18.7896 92.5918 19.3274 93.6885C20.07 95.1961 21.0372 96.2658 22.7018 96.3539C23.6326 96.4031 24.4263 96.2783 25.0822 95.968C25.7295 95.6617 26.2818 95.1566 26.7109 94.3745L26.7117 94.3732C27.1045 93.6613 27.4504 92.9266 27.8059 92.1715C27.9157 91.9382 28.0265 91.703 28.1398 91.4659C28.6134 90.4751 29.125 89.4679 29.7728 88.537C36.097 79.4213 44.5273 73.4538 56.0311 72.4087C63.2044 71.7569 69.9979 72.9284 76.2791 76.5729M30.7955 63.9338L64.9417 0.737794C67.9811 0.0927688 70.5513 2.56667 69.8443 5.44924C69.0437 8.71306 67.0843 11.5492 65.0791 14.4293L65.0765 14.4333C63.0773 17.3511 60.673 19.9751 57.9347 22.2277C57.329 22.7228 56.9072 23.2641 56.7179 23.924C56.5308 24.5759 56.5955 25.2579 56.7921 25.9857C57.5115 28.7277 58.1906 31.4946 58.8711 34.2672C60.0652 39.1322 61.2635 44.0145 62.6915 48.81L62.6916 48.8106C64.0295 53.2877 65.2471 57.7851 66.4098 62.3091C66.5994 63.0534 66.8549 63.7303 67.3394 64.2567C67.8382 64.7987 68.5125 65.111 69.3971 65.2654C75.0778 66.2721 80.051 68.9934 84.8755 72.1781L84.8779 72.1796C85.6668 72.6953 86.4023 73.2869 87.0737 73.9458C88.6003 75.478 88.7546 77.5077 87.6304 79.0581L87.6216 79.0702L87.6134 79.0827C87.0378 79.9606 86.1355 80.5796 85.1009 80.8038C84.0662 81.028 82.9844 80.8387 82.0902 80.2778L82.0828 80.2731L82.0752 80.2686C81.1365 79.7154 80.2269 79.11 79.3008 78.4937L79.2104 78.4335C78.2583 77.7999 77.2881 77.1567 76.2791 76.5729M30.7955 63.9338L30.7929 63.9249M30.7955 63.9338L30.7929 63.9249M76.2791 76.5729C76.2792 76.573 76.2793 76.573 76.2795 76.5731L75.9604 77.1229L76.2788 76.5727C76.2789 76.5728 76.279 76.5728 76.2791 76.5729ZM30.7929 63.9249C28.2634 55.2995 26.1074 46.5758 23.9472 37.8353C23.6741 36.7302 23.4009 35.6248 23.1269 34.5193L23.1268 34.5189M30.7929 63.9249L23.1268 34.5189M23.1268 34.5189C22.9129 33.6579 22.588 32.9549 22.0342 32.4189C21.4816 31.8841 20.765 31.5775 19.8882 31.3835C13.5458 29.9345 7.62664 27.0533 2.59191 22.9647L2.58896 22.9623M23.1268 34.5189L2.58896 22.9623M2.58896 22.9623C1.22119 21.865 0.431013 20.7384 0.682438 19.0998C0.944642 17.4043 1.91687 16.2404 3.13414 15.7303C4.35136 15.2203 5.89035 15.3323 7.34826 16.3519C10.4019 18.4936 13.5353 20.5942 17.1301 21.964C22.7345 24.1825 28.8356 24.8723 34.7995 23.962C47.4471 22.0362 56.3194 15.1568 61.7284 3.79644L61.7288 3.79563M2.58896 22.9623L61.7288 3.79563M61.7288 3.79563C62.4848 2.20202 63.2705 1.09357 64.9414 0.737861L61.7288 3.79563ZM31.7985 32.4576H30.9822L31.1822 33.249C31.7759 35.5988 32.3498 37.9167 32.9175 40.2096C34.3138 45.8492 35.6724 51.337 37.1972 56.7733L37.1973 56.7734C37.9246 59.3644 38.62 61.9643 39.3164 64.5678C39.4613 65.1096 39.6062 65.6515 39.7515 66.1935L39.7517 66.1943C39.9277 66.8476 40.2132 67.5126 40.8214 67.8009C41.4566 68.1019 42.1466 67.8613 42.7657 67.5022L42.7714 67.4989C44.0553 66.7364 45.464 66.3677 46.9695 65.9737C47.3661 65.8699 47.7695 65.7643 48.1791 65.6493C51.1968 64.8375 54.2825 64.299 57.3985 64.0402L57.9251 63.9965L57.9783 63.4707C58.0985 62.2832 57.7954 61.2691 57.5418 60.4208C57.488 60.2408 57.4364 60.0684 57.3916 59.9033C56.4712 56.4889 55.543 53.0876 54.6152 49.6875C53.5999 45.967 52.5851 42.2479 51.5811 38.5146C51.0213 36.424 50.498 34.325 49.9569 32.1551C49.6892 31.0814 49.4172 29.9903 49.1343 28.8743L48.9465 28.1339L48.2525 28.4529C43.082 30.83 37.4954 32.1901 31.8023 32.4576H31.7985Z" stroke="#FAF8F5" stroke-width="1.27143"/>
<rect width="89" height="97" fill="black"/>
<path d="M30.7955 63.9338L30.7978 63.9427C30.9861 64.6613 31.1507 65.3668 31.3126 66.061C31.6433 67.4792 31.963 68.8499 32.4515 70.1875L32.454 70.1943C32.7884 71.143 32.8414 71.9575 32.5475 72.7245C32.2655 73.4603 31.6965 74.0587 31.0147 74.6523L31.0089 74.6573C26.068 78.8552 22.1989 84.1516 19.7165 90.114L19.7164 90.1142C19.152 91.4686 18.7896 92.5918 19.3274 93.6885C20.07 95.1961 21.0372 96.2658 22.7018 96.3539C23.6326 96.4031 24.4263 96.2783 25.0822 95.968C25.7295 95.6617 26.2818 95.1566 26.7109 94.3745L26.7117 94.3732C27.1045 93.6613 27.4504 92.9266 27.8059 92.1715C27.9157 91.9382 28.0265 91.703 28.1398 91.4659C28.6134 90.4751 29.125 89.4679 29.7728 88.537C36.097 79.4213 44.5273 73.4538 56.0311 72.4087C63.2044 71.7569 69.9979 72.9284 76.2791 76.5729M30.7955 63.9338L64.9417 0.737794C67.9811 0.0927688 70.5513 2.56667 69.8443 5.44924C69.0437 8.71306 67.0843 11.5492 65.0791 14.4293L65.0765 14.4333C63.0773 17.3511 60.673 19.9751 57.9347 22.2277C57.329 22.7228 56.9072 23.2641 56.7179 23.924C56.5308 24.5759 56.5955 25.2579 56.7921 25.9857C57.5115 28.7277 58.1906 31.4946 58.8711 34.2672C60.0652 39.1322 61.2635 44.0145 62.6915 48.81L62.6916 48.8106C64.0295 53.2877 65.2471 57.7851 66.4098 62.3091C66.5994 63.0534 66.8549 63.7303 67.3394 64.2567C67.8382 64.7987 68.5125 65.111 69.3971 65.2654C75.0778 66.2721 80.051 68.9934 84.8755 72.1781L84.8779 72.1796C85.6668 72.6953 86.4023 73.2869 87.0737 73.9458C88.6003 75.478 88.7546 77.5077 87.6304 79.0581L87.6216 79.0702L87.6134 79.0827C87.0378 79.9606 86.1355 80.5796 85.1009 80.8038C84.0662 81.028 82.9844 80.8387 82.0902 80.2778L82.0828 80.2731L82.0752 80.2686C81.1365 79.7154 80.2269 79.11 79.3008 78.4937L79.2104 78.4335C78.2583 77.7999 77.2881 77.1567 76.2791 76.5729M30.7955 63.9338L30.7929 63.9249M30.7955 63.9338L30.7929 63.9249M76.2791 76.5729C76.2792 76.573 76.2793 76.573 76.2795 76.5731L75.9604 77.1229L76.2788 76.5727C76.2789 76.5728 76.279 76.5728 76.2791 76.5729ZM30.7929 63.9249C28.2634 55.2995 26.1074 46.5758 23.9472 37.8353C23.6741 36.7302 23.4009 35.6248 23.1269 34.5193L23.1268 34.5189M30.7929 63.9249L23.1268 34.5189M23.1268 34.5189C22.9129 33.6579 22.588 32.9549 22.0342 32.4189C21.4816 31.8841 20.765 31.5775 19.8882 31.3835C13.5458 29.9345 7.62664 27.0533 2.59191 22.9647L2.58896 22.9623M23.1268 34.5189L2.58896 22.9623M2.58896 22.9623C1.22119 21.865 0.431013 20.7384 0.682438 19.0998C0.944642 17.4043 1.91687 16.2404 3.13414 15.7303C4.35136 15.2203 5.89035 15.3323 7.34826 16.3519C10.4019 18.4936 13.5353 20.5942 17.1301 21.964C22.7345 24.1825 28.8356 24.8723 34.7995 23.962C47.4471 22.0362 56.3194 15.1568 61.7284 3.79644L61.7288 3.79563M2.58896 22.9623L61.7288 3.79563M61.7288 3.79563C62.4848 2.20202 63.2705 1.09357 64.9414 0.737861L61.7288 3.79563ZM31.7985 32.4576H30.9822L31.1822 33.249C31.7759 35.5988 32.3498 37.9167 32.9175 40.2096C34.3138 45.8492 35.6724 51.337 37.1972 56.7733L37.1973 56.7734C37.9246 59.3644 38.62 61.9643 39.3164 64.5678C39.4613 65.1096 39.6062 65.6515 39.7515 66.1935L39.7517 66.1943C39.9277 66.8476 40.2132 67.5126 40.8214 67.8009C41.4566 68.1019 42.1466 67.8613 42.7657 67.5022L42.7714 67.4989C44.0553 66.7364 45.464 66.3677 46.9695 65.9737C47.3661 65.8699 47.7695 65.7643 48.1791 65.6493C51.1968 64.8375 54.2825 64.299 57.3985 64.0402L57.9251 63.9965L57.9783 63.4707C58.0985 62.2832 57.7954 61.2691 57.5418 60.4208C57.488 60.2408 57.4364 60.0684 57.3916 59.9033C56.4712 56.4889 55.543 53.0876 54.6152 49.6875C53.5999 45.967 52.5851 42.2479 51.5811 38.5146C51.0213 36.424 50.498 34.325 49.9569 32.1551C49.6892 31.0814 49.4172 29.9903 49.1343 28.8743L48.9465 28.1339L48.2525 28.4529C43.082 30.83 37.4954 32.1901 31.8023 32.4576H31.7985Z" stroke="#FAF8F5" stroke-width="1.27143"/>
</svg>
