<svg width="89" height="97" viewBox="0 0 89 97" fill="none" xmlns="http://www.w3.org/2000/svg">
<rect width="89" height="97" fill="black"/>
<mask id="path-2-inside-1_1815_25475" fill="white">
<path d="M10.7038 33.5521C10.9867 25.1276 18.4477 19.2675 23.688 17.5675C27.954 16.1844 31.6147 17.3873 34.7452 20.5461C43.3417 29.224 51.9512 37.8863 60.574 46.533L62.4544 48.4203C62.6873 47.3002 62.1464 46.5762 61.9315 45.8415C60.1764 39.931 62.5333 34.7551 67.161 31.0129C71.3482 27.6272 77.3192 27.2851 82.1332 29.9864C87.2159 32.8426 88.9602 37.4961 88.9996 42.9924C89.0283 47.3686 87.4272 51.2766 84.8805 54.7379C83.4477 56.6756 81.2986 57.7633 79.1924 59.0023C79.9088 60.9797 80.7614 62.9139 80.7721 65.0678C80.8151 72.1489 77.577 77.3318 71.6634 80.9156C70.1503 81.8222 68.5807 82.6295 66.964 83.3324C64.9725 84.2112 62.8306 83.4333 61.9853 81.6576C61.1686 79.9431 61.9853 77.7929 63.8658 76.7736C65.1946 76.0532 66.5486 75.3796 67.881 74.6665C70.1053 73.4779 71.6312 71.6482 72.6842 69.3791C73.9809 66.5949 73.594 63.9764 72.061 61.4012C71.5989 60.6232 71.0187 60.6088 70.374 60.6808C65.8035 61.1166 62.4938 58.7718 59.4886 55.7499C49.7985 46.0059 40.1096 36.2643 30.4219 26.5251C27.7355 23.8237 26.0198 23.7589 22.9501 26.1649C21.5639 27.2454 20.1921 28.2503 19.2465 29.8423C17.538 32.7237 17.7637 35.7024 20.1635 38.1264C30.5652 48.5932 40.9693 59.0588 51.3758 69.5232C51.9359 70.0372 52.4457 70.604 52.8981 71.216C53.3934 71.9623 53.6042 72.8632 53.4917 73.7533C53.3791 74.6433 52.9508 75.4625 52.2856 76.0604C50.8851 77.2778 48.9545 77.2166 47.4716 75.8947C47.1134 75.5562 46.7552 75.1744 46.397 74.8142L15.1775 43.4246C14.7011 42.942 14.2498 42.4269 13.7448 41.9839C11.7389 40.3091 9.04175 40.9719 8.08182 43.3959C7.67707 44.4152 7.44787 45.4993 7.05028 46.5186C6.33391 48.3879 4.36386 49.4 2.63382 48.8525C0.649476 48.2402 -0.299671 46.659 0.0835878 44.5124C0.573196 41.9316 1.57054 39.4752 3.01711 37.2872C4.11674 35.5692 5.88263 34.7084 7.79892 34.2221C8.7517 33.9556 9.73666 33.7647 10.7038 33.5521ZM78.3687 50.8407C81.4634 47.8512 82.4986 42.3657 80.876 38.7928C80.5151 37.9421 79.8857 37.2345 79.0851 36.7793C76.13 35.0505 73.0174 35.245 70.7465 37.4241C68.5687 39.5167 68.1246 42.6575 69.6719 45.5569C70.7465 47.5667 72.147 49.3496 73.5689 51.1217C74.7904 52.6524 75.2022 52.8361 76.8535 51.9285C77.3856 51.603 77.8922 51.2369 78.3687 50.8335V50.8407Z"/>
</mask>
<path d="M10.7038 33.5521L10.9184 34.5288L11.6771 34.3621L11.7032 33.5857L10.7038 33.5521ZM23.688 17.5675L23.3796 16.6162L23.3794 16.6163L23.688 17.5675ZM34.7452 20.5461L35.4557 19.8423L35.4555 19.8421L34.7452 20.5461ZM60.574 46.533L61.2824 45.8272L61.282 45.8269L60.574 46.533ZM62.4544 48.4203L61.746 49.1261L63.0559 50.4407L63.4335 48.6238L62.4544 48.4203ZM61.9315 45.8415L62.8913 45.5607L62.8901 45.5568L61.9315 45.8415ZM67.161 31.0129L66.5323 30.2353L66.5323 30.2353L67.161 31.0129ZM82.1332 29.9864L82.6231 29.1146L82.6226 29.1143L82.1332 29.9864ZM88.9996 42.9924L89.9996 42.9859L89.9996 42.9852L88.9996 42.9924ZM84.8805 54.7379L85.6846 55.3324L85.686 55.3305L84.8805 54.7379ZM79.1924 59.0023L78.6854 58.1404L77.9692 58.5617L78.2522 59.3429L79.1924 59.0023ZM80.7721 65.0678L79.7721 65.0727L79.7721 65.0738L80.7721 65.0678ZM71.6634 80.9156L72.1774 81.7734L72.1817 81.7708L71.6634 80.9156ZM66.964 83.3324L66.5653 82.4153L66.5603 82.4175L66.964 83.3324ZM61.9853 81.6576L62.8882 81.2278L62.8881 81.2275L61.9853 81.6576ZM63.8658 76.7736L64.3423 77.6527L64.3423 77.6527L63.8658 76.7736ZM67.881 74.6665L67.4097 73.7845L67.4091 73.7848L67.881 74.6665ZM72.6842 69.3791L71.7777 68.9569L71.7772 68.9581L72.6842 69.3791ZM72.061 61.4012L71.2012 61.9118L71.2017 61.9127L72.061 61.4012ZM70.374 60.6808L70.4689 61.6763L70.4769 61.6755L70.485 61.6746L70.374 60.6808ZM30.4219 26.5251L29.7128 27.2302L29.7129 27.2303L30.4219 26.5251ZM22.9501 26.1649L23.5649 26.9536L23.567 26.9519L22.9501 26.1649ZM19.2465 29.8423L18.3868 29.3316L18.3864 29.3323L19.2465 29.8423ZM20.1635 38.1264L19.4529 38.83L19.4542 38.8313L20.1635 38.1264ZM51.3758 69.5232L50.6667 70.2283L50.6828 70.2446L50.6997 70.26L51.3758 69.5232ZM52.8981 71.216L53.7312 70.663L53.7173 70.6419L53.7022 70.6216L52.8981 71.216ZM52.2856 76.0604L52.9416 76.8151L52.9479 76.8097L52.954 76.8042L52.2856 76.0604ZM47.4716 75.8947L46.7847 76.6215L46.7953 76.6315L46.8062 76.6412L47.4716 75.8947ZM46.397 74.8142L47.1061 74.1091L47.1061 74.109L46.397 74.8142ZM15.1775 43.4246L14.4658 44.1271L14.4685 44.1298L15.1775 43.4246ZM13.7448 41.9839L14.4042 41.2321L14.395 41.2241L14.3857 41.2163L13.7448 41.9839ZM8.08182 43.3959L9.01123 43.7649L9.01157 43.764L8.08182 43.3959ZM7.05028 46.5186L6.11863 46.1552L6.1165 46.1607L7.05028 46.5186ZM2.63382 48.8525L2.93554 47.8991L2.92867 47.897L2.63382 48.8525ZM0.0835878 44.5124L-0.898946 44.326L-0.900846 44.3366L0.0835878 44.5124ZM3.01711 37.2872L3.85127 37.8388L3.85536 37.8326L3.85936 37.8263L3.01711 37.2872ZM7.79892 34.2221L8.04487 35.1914L8.05663 35.1884L8.06832 35.1851L7.79892 34.2221ZM78.3687 50.8407H77.3687V53.1971L79.0635 51.5599L78.3687 50.8407ZM80.876 38.7928L79.9554 39.1833L79.9603 39.1948L79.9655 39.2062L80.876 38.7928ZM79.0851 36.7793L78.58 37.6425L78.5909 37.6487L79.0851 36.7793ZM70.7465 37.4241L70.0541 36.7025L70.0536 36.703L70.7465 37.4241ZM69.6719 45.5569L68.7897 46.0277L68.7901 46.0284L69.6719 45.5569ZM73.5689 51.1217L74.3506 50.498L74.3489 50.4958L73.5689 51.1217ZM76.8535 51.9285L77.3352 52.8048L77.3555 52.7936L77.3753 52.7815L76.8535 51.9285ZM78.3687 50.8335H79.3687V48.6765L77.7225 50.0703L78.3687 50.8335ZM11.7032 33.5857C11.8346 29.6737 13.6321 26.323 16.067 23.7214C18.5092 21.1121 21.5402 19.3156 23.9966 18.5187L23.3794 16.6163C20.5955 17.5194 17.2759 19.5029 14.6068 22.3548C11.9304 25.2144 9.85589 29.006 9.70432 33.5186L11.7032 33.5857ZM23.9964 18.5187C25.9602 17.882 27.7387 17.8523 29.3691 18.3155C31.0075 18.781 32.5614 19.7631 34.035 21.25L35.4555 19.8421C33.7985 18.1702 31.9568 16.9715 29.9157 16.3916C27.8666 15.8095 25.6818 15.8698 23.3796 16.6162L23.9964 18.5187ZM34.0348 21.2498C42.632 29.9285 51.2424 38.5916 59.8659 47.2391L61.282 45.8269C52.6601 37.181 44.0513 28.5194 35.4557 19.8423L34.0348 21.2498ZM59.8656 47.2388L61.746 49.1261L63.1628 47.7145L61.2824 45.8272L59.8656 47.2388ZM63.4335 48.6238C63.5947 47.8484 63.4823 47.2063 63.3127 46.6798C63.2322 46.4297 63.1358 46.1981 63.062 46.0179C62.9823 45.8233 62.9282 45.6868 62.8913 45.5607L60.9717 46.1222C61.0423 46.3635 61.1363 46.5931 61.2112 46.7759C61.292 46.973 61.3566 47.1302 61.409 47.293C61.5054 47.5921 61.547 47.8721 61.4754 48.2168L63.4335 48.6238ZM62.8901 45.5568C61.277 40.1245 63.3969 35.3428 67.7898 31.7904L66.5323 30.2353C61.6697 34.1674 59.0757 39.7374 60.9729 46.1261L62.8901 45.5568ZM67.7898 31.7905C71.6352 28.6811 77.1596 28.3422 81.6439 30.8585L82.6226 29.1143C77.4788 26.2279 71.0613 26.5732 66.5323 30.2353L67.7898 31.7905ZM81.6433 30.8582C86.3139 33.4829 87.9619 37.7316 87.9996 42.9996L89.9996 42.9852C89.9586 37.2606 88.1178 32.2024 82.6231 29.1146L81.6433 30.8582ZM87.9996 42.999C88.0266 47.1113 86.526 50.814 84.075 54.1452L85.686 55.3305C88.3283 51.7392 90.03 47.6259 89.9996 42.9859L87.9996 42.999ZM84.0764 54.1433C82.7961 55.8749 80.8834 56.8474 78.6854 58.1404L79.6995 59.8642C81.7138 58.6792 84.0994 57.4764 85.6846 55.3324L84.0764 54.1433ZM78.2522 59.3429C79.0031 61.4155 79.7625 63.1386 79.7721 65.0727L81.7721 65.0628C81.7602 62.6892 80.8145 60.5439 80.1327 58.6617L78.2522 59.3429ZM79.7721 65.0738C79.8128 71.7716 76.7858 76.642 71.1451 80.0604L72.1817 81.7708C78.3683 78.0216 81.8174 72.5261 81.7721 65.0617L79.7721 65.0738ZM71.1494 80.0578C69.6734 80.9422 68.1422 81.7297 66.5653 82.4153L67.3628 84.2494C69.0191 83.5293 70.6273 82.7022 72.1774 81.7734L71.1494 80.0578ZM66.5603 82.4175C65.023 83.0959 63.4822 82.4755 62.8882 81.2278L61.0824 82.0874C62.179 84.391 64.922 85.3265 67.3678 84.2473L66.5603 82.4175ZM62.8881 81.2275C62.3397 80.0763 62.8443 78.4647 64.3423 77.6527L63.3892 75.8944C61.1262 77.121 59.9975 79.81 61.0825 82.0876L62.8881 81.2275ZM64.3423 77.6527C65.7086 76.912 66.9447 76.3018 68.3529 75.5481L67.4091 73.7848C66.1524 74.4575 64.6806 75.1944 63.3892 75.8944L64.3423 77.6527ZM68.3523 75.5485C70.8041 74.2383 72.4657 72.2255 73.5913 69.8L71.7772 68.9581C70.7967 71.0709 69.4066 72.7174 67.4097 73.7845L68.3523 75.5485ZM73.5908 69.8013C75.0542 66.6589 74.5868 63.6891 72.9203 60.8896L71.2017 61.9127C72.6013 64.2638 72.9076 66.5309 71.7777 68.9569L73.5908 69.8013ZM72.9208 60.8905C72.5872 60.3288 72.1462 59.9498 71.5943 59.7709C71.0922 59.6082 70.6001 59.6493 70.2629 59.687L70.485 61.6746C70.7925 61.6403 70.913 61.6526 70.9777 61.6735C70.999 61.6804 71.0195 61.6902 71.0469 61.7134C71.0773 61.7391 71.1319 61.7951 71.2012 61.9118L72.9208 60.8905ZM70.279 59.6853C66.1676 60.0774 63.1414 58.0048 60.1977 55.0448L58.7796 56.455C61.8462 59.5388 65.4395 62.1559 70.4689 61.6763L70.279 59.6853ZM60.1977 55.0448C50.5076 45.3007 40.8186 35.5591 31.1309 25.8198L29.7129 27.2303C39.4006 36.9695 49.0895 46.711 58.7796 56.455L60.1977 55.0448ZM31.131 25.8199C29.7491 24.4303 28.4177 23.5021 26.8759 23.4308C25.3461 23.36 23.9016 24.1485 22.3332 25.3778L23.567 26.9519C25.0683 25.7753 26.0164 25.3932 26.7835 25.4287C27.5386 25.4636 28.4083 25.9185 29.7128 27.2302L31.131 25.8199ZM22.3353 25.3762C20.9915 26.4237 19.4479 27.5452 18.3868 29.3316L20.1063 30.353C20.9364 28.9554 22.1363 28.0672 23.5649 26.9536L22.3353 25.3762ZM18.3864 29.3323C17.4449 30.9201 17.0011 32.5971 17.1695 34.2568C17.3384 35.9223 18.1148 37.4784 19.4529 38.83L20.8741 37.4228C19.8124 36.3504 19.276 35.2052 19.1593 34.0549C19.042 32.899 19.3396 31.6459 20.1067 30.3523L18.3864 29.3323ZM19.4542 38.8313C29.856 49.2982 40.2601 59.7639 50.6667 70.2283L52.0848 68.8181C41.6784 58.3538 31.2744 47.8882 20.8728 37.4215L19.4542 38.8313ZM50.6997 70.26C51.2127 70.7307 51.6795 71.2499 52.0939 71.8104L53.7022 70.6216C53.2119 69.9582 52.6592 69.3436 52.0518 68.7864L50.6997 70.26ZM52.0649 71.769C52.4274 72.3152 52.5821 72.9753 52.4996 73.6278L54.4838 73.8787C54.6263 72.7512 54.3594 71.6094 53.7312 70.663L52.0649 71.769ZM52.4996 73.6278C52.4171 74.2803 52.1032 74.8798 51.6172 75.3166L52.954 76.8042C53.7985 76.0453 54.3412 75.0063 54.4838 73.8787L52.4996 73.6278ZM51.6295 75.3057C50.645 76.1615 49.2811 76.1681 48.137 75.1483L46.8062 76.6412C48.6278 78.2651 51.1252 78.3941 52.9416 76.8151L51.6295 75.3057ZM48.1585 75.168C47.8136 74.842 47.4945 74.4996 47.1061 74.1091L45.688 75.5193C46.0159 75.8491 46.4132 76.2704 46.7847 76.6215L48.1585 75.168ZM47.1061 74.109L15.8865 42.7194L14.4685 44.1298L45.688 75.5194L47.1061 74.109ZM15.8892 42.7221C15.4712 42.2986 14.9432 41.7049 14.4042 41.2321L13.0853 42.7357C13.5564 43.1489 13.9311 43.5853 14.4658 44.1271L15.8892 42.7221ZM14.3857 41.2163C13.1559 40.1895 11.6567 39.8407 10.2802 40.1823C8.90203 40.5243 7.74324 41.5349 7.15207 43.0277L9.01157 43.764C9.38033 42.8329 10.0501 42.3 10.7619 42.1234C11.4755 41.9463 12.3278 42.1035 13.1038 42.7515L14.3857 41.2163ZM7.15241 43.0268C6.93152 43.5831 6.76139 44.1498 6.60545 44.6701C6.44544 45.2041 6.30012 45.6899 6.11865 46.1552L7.98192 46.882C8.19803 46.3279 8.3661 45.7621 8.52127 45.2443C8.68052 44.7129 8.82736 44.2279 9.01122 43.7649L7.15241 43.0268ZM6.1165 46.1607C5.56721 47.5941 4.1037 48.2688 2.93553 47.8991L2.33212 49.8059C4.62403 50.5312 7.10062 49.1817 7.98406 46.8764L6.1165 46.1607ZM2.92867 47.897C2.12993 47.6505 1.62089 47.2383 1.33175 46.749C1.04071 46.2566 0.909095 45.5783 1.06802 44.6881L-0.900846 44.3366C-1.12518 45.5931 -0.973845 46.7787 -0.390048 47.7666C0.195664 48.7577 1.15337 49.4422 2.33898 49.8081L2.92867 47.897ZM1.06606 44.6987C1.53098 42.2481 2.47798 39.9158 3.85127 37.8388L2.18294 36.7357C0.663091 39.0345 -0.38459 41.615 -0.898889 44.326L1.06606 44.6987ZM3.85936 37.8263C4.7636 36.4136 6.24434 35.6483 8.04487 35.1914L7.55298 33.2528C5.52092 33.7684 3.46988 34.7248 2.17485 36.7482L3.85936 37.8263ZM8.06832 35.1851C8.98488 34.9287 9.91839 34.7486 10.9184 34.5288L10.4891 32.5754C9.55493 32.7807 8.51851 32.9824 7.52952 33.2591L8.06832 35.1851ZM79.0635 51.5599C80.7834 49.8985 81.8967 47.5838 82.3715 45.2336C82.8455 42.8877 82.7043 40.4003 81.7865 38.3793L79.9655 39.2062C80.6702 40.7582 80.8228 42.8001 80.4111 44.8375C80.0004 46.8706 79.0487 48.7935 77.6739 50.1215L79.0635 51.5599ZM81.7966 38.4022C81.3503 37.3502 80.5715 36.474 79.5792 35.91L78.5909 37.6487C79.2 37.9949 79.6799 38.5339 79.9554 39.1833L81.7966 38.4022ZM79.59 35.9162C76.3152 34.0003 72.6997 34.1639 70.0541 36.7025L71.4389 38.1456C73.3351 36.3261 75.9448 36.1007 78.5801 37.6425L79.59 35.9162ZM70.0536 36.703C67.525 39.1327 67.0505 42.7688 68.7897 46.0277L70.5542 45.0861C69.1986 42.5461 69.6124 39.9007 71.4394 38.1451L70.0536 36.703ZM68.7901 46.0284C69.9139 48.1305 71.3703 49.9796 72.789 51.7475L74.3489 50.4958C72.9236 48.7196 71.579 47.003 70.5538 45.0854L68.7901 46.0284ZM72.7873 51.7454C73.0954 52.1315 73.3903 52.4817 73.6865 52.7555C73.988 53.0342 74.3454 53.2859 74.7912 53.4054C75.6871 53.6455 76.541 53.2414 77.3352 52.8048L76.3718 51.0521C75.5148 51.5232 75.337 51.4811 75.3089 51.4735C75.2926 51.4692 75.2149 51.4447 75.044 51.2868C74.8679 51.124 74.6532 50.8772 74.3506 50.498L72.7873 51.7454ZM77.3753 52.7815C77.9511 52.4293 78.4993 52.0332 79.0149 51.5967L77.7225 50.0703C77.2852 50.4406 76.8201 50.7766 76.3317 51.0754L77.3753 52.7815ZM77.3687 50.8335V50.8407H79.3687V50.8335H77.3687Z" fill="#FAF8F5" mask="url(#path-2-inside-1_1815_25475)"/>
</svg>
