<svg width="89" height="97" viewBox="0 0 89 97" fill="none" xmlns="http://www.w3.org/2000/svg">
<rect width="89" height="97" fill="black"/>
<path d="M15.7348 34.8785L15.7344 34.8779C13.7541 31.9545 12.7831 28.4363 12.9774 24.8816C13.1718 21.3269 14.52 17.9421 16.806 15.2639L16.8089 15.2605C19.0083 12.6401 21.9586 10.8 25.2374 10.0006C38.6688 6.81763 51.2992 8.82357 63.1597 16.0251L63.1599 16.0252C67.9737 18.9453 72.3231 22.6027 76.0568 26.8706L76.057 26.8708C83.7597 35.6669 88.7114 45.6132 88.454 57.6983L88.4539 57.7018C88.4113 60.5948 87.9569 63.4659 87.1051 66.2245C86.9527 66.7088 86.8076 66.8462 86.7465 66.8759C86.7324 66.8827 86.5985 66.9465 86.1835 66.6704L86.1593 66.6543L86.1336 66.6409C86.0239 66.584 85.9095 66.5368 85.7918 66.5C85.2995 66.2917 84.7821 66.1149 84.2755 65.9481C84.1629 65.911 84.0512 65.8746 83.9403 65.8384C83.5361 65.7064 83.1425 65.578 82.759 65.4374C81.7763 65.0772 80.9602 64.6707 80.4098 64.0592L80.4086 64.0578C79.9034 63.5005 79.913 62.7834 80.1731 61.7738C80.2512 61.4704 80.3399 61.1812 80.433 60.8779C80.4982 60.6651 80.5656 60.4454 80.633 60.209C80.7873 59.6675 80.9246 59.0884 80.9472 58.511C81.1992 52.0615 79.8493 45.9284 76.5752 40.473L76.5749 40.4723C70.2039 29.8898 61.5091 22.0373 49.7043 18.1832C47.5025 17.4414 45.2183 16.9851 42.9053 16.825L42.8683 17.3601L42.3925 17.608C47.2098 26.855 43.2544 36.9753 34.5588 40.7747C28.0724 43.6006 19.967 41.1451 15.7348 34.8785ZM34.3872 31.8221H34.3939L34.5512 31.6643C35.3221 30.8907 35.9344 29.9686 36.3529 28.952C36.7715 27.9353 36.9882 26.844 36.9907 25.7415C36.9932 24.639 36.7816 23.5467 36.3676 22.528C35.9537 21.5094 35.3456 20.5843 34.5782 19.8071L34.576 19.8048C31.3547 16.581 26.0565 16.5712 22.9316 19.8116L22.9314 19.8118C19.7397 23.1249 19.6825 28.5346 22.8414 31.7683C25.9574 34.9581 31.2202 34.8644 34.3872 31.8221Z" stroke="#FAF8F5" stroke-width="1.07286"/>
<path d="M46.1124 64.9588L46.1126 64.9583C50.0804 56.5838 60.0275 52.6714 68.4501 58.1214L68.4502 58.1215C74.0254 61.7266 76.8278 67.1461 75.9087 74.1863C75.4885 77.3165 74.1682 80.2464 72.1177 82.6038C70.0672 84.9612 67.3794 86.6392 64.3974 87.4263C50.6773 91.0216 37.7918 88.8596 25.6833 81.4516L25.6789 81.449C21.3672 78.8673 17.4369 75.669 14.0068 71.9504C7.50234 64.765 2.59977 56.7003 1.02952 46.8898L1.02855 46.8842C0.16774 41.8529 0.434189 36.6873 1.80768 31.777C1.97478 31.1904 2.13356 30.9477 2.26608 30.8627C2.33951 30.8156 2.54377 30.7354 3.13029 31.0317L3.13028 31.0317L3.13549 31.0343C4.66372 31.7855 6.25806 32.3995 7.81603 32.9995C7.91139 33.0362 8.00661 33.0729 8.10168 33.1095C8.6061 33.3051 8.78568 33.4867 8.86361 33.6565C8.95185 33.8488 8.9766 34.1651 8.84857 34.7808C6.81593 44.4876 9.40344 53.1212 14.9156 60.9545C20.4145 68.7689 27.4378 74.6496 36.2075 78.2573C39.3877 79.5833 42.7305 80.4575 46.1427 80.8555L46.2049 80.3226L46.6847 80.0828C44.1577 75.0272 43.724 69.986 46.1124 64.9588ZM66.0396 65.8341L66.0395 65.8341C62.9172 62.6841 57.2514 62.7066 54.2537 65.9053L54.2535 65.9054C52.7784 67.4808 52.0727 69.7569 52.1087 71.9776C52.1446 74.1986 52.9242 76.4463 54.5264 77.9502C58.1916 81.3936 63.0867 80.8443 66.2367 77.8165C69.4483 74.7294 69.1969 69.0204 66.0396 65.8341Z" stroke="#FAF8F5" stroke-width="1.07286"/>
</svg>
