<svg width="90" height="347" viewBox="0 0 90 347" fill="none" xmlns="http://www.w3.org/2000/svg">
<path d="M13.3639 39.1266L13.364 39.1267C17.39 44.1662 22.694 46.8621 28.6832 48.0869C29.1935 48.1907 29.6298 48.2815 29.9731 48.397C30.3218 48.5143 30.6524 48.681 30.8907 48.9863C31.1286 49.291 31.2137 49.6559 31.2442 50.0362C31.2743 50.4127 31.2552 50.8792 31.2234 51.4386L13.3639 39.1266ZM13.3639 39.1266C8.67308 33.2574 7.65835 26.357 9.3193 18.767C10.1402 15.0155 12.3264 10.815 15.436 7.39668C18.5457 3.97833 22.5341 1.38972 26.9361 0.772114L26.9362 0.772102M13.3639 39.1266L26.9362 0.772102M26.9362 0.772102C33.7248 -0.181435 39.4701 2.36646 44.6053 7.13117L44.6069 7.13265M26.9362 0.772102L44.6069 7.13265M44.6069 7.13265C47.4557 9.75583 49.492 13.1413 51.5749 16.6042C51.7068 16.8236 51.8389 17.0433 51.9715 17.2631L51.9716 17.2632M44.6069 7.13265L51.9716 17.2632M51.9716 17.2632C52.3691 17.9221 52.7619 18.5924 53.157 19.2667C54.7819 22.0399 56.446 24.8799 58.6429 27.2632L58.643 27.2633M51.9716 17.2632L58.643 27.2633M58.643 27.2633C61.2018 30.0373 64.0416 32.572 68.1296 32.9023C71.4921 33.1752 74.2318 32.2076 76.0767 30.1748C77.9111 28.1536 78.7835 25.1644 78.6047 21.5393L78.6047 21.5392M58.643 27.2633L78.6047 21.5392M78.6047 21.5392C78.5911 21.2649 78.5658 20.9947 78.5419 20.7399L78.54 20.7194C78.5151 20.4543 78.4922 20.2055 78.4811 19.9592C78.4591 19.4701 78.486 19.0212 78.6303 18.5764L78.631 18.5742M78.6047 21.5392L78.631 18.5742M78.631 18.5742C78.9388 17.6125 79.3242 17.0084 79.8113 16.6355C80.2915 16.2678 80.9446 16.0683 81.9068 16.0665C82.557 16.099 83.1879 16.362 83.7038 16.8274C84.2241 17.2968 84.5987 17.9471 84.7609 18.6846L84.7611 18.6856M78.631 18.5742L84.7611 18.6856M84.7611 18.6856C85.1058 20.2389 85.2131 21.8449 85.0783 23.4375L85.0778 23.4439M84.7611 18.6856L85.0778 23.4439M85.0778 23.4439C84.6638 29.0867 82.8129 33.4039 79.8982 36.2424C76.99 39.0745 72.9632 40.4931 68.0705 40.2323L68.069 40.2323M85.0778 23.4439L68.069 40.2323M68.069 40.2323C66.6053 40.1581 65.1478 39.973 63.707 39.6784L63.5921 40.2406L63.1105 40.5527C66.6513 46.0157 67.583 52.011 65.9701 58.0684M68.069 40.2323L65.9701 58.0684M65.9701 58.0684C64.2698 64.447 60.3974 69.0675 54.46 71.2128M65.9701 58.0684L54.46 71.2128M54.46 71.2128C42.6563 75.4708 30.4406 65.2755 31.2234 51.4387L54.46 71.2128ZM47.4124 22.8773L47.4123 22.8772C46.9314 22.1128 46.4614 21.3242 45.9872 20.5285C44.6137 18.224 43.2053 15.861 41.3969 13.8582L40.971 14.2428L41.3969 13.8582C36.4767 8.40966 30.2613 6.16454 24.5858 9.1677C19.6868 11.7435 16.4696 15.9861 15.3927 22.0781L15.3926 22.0784C14.8575 25.1151 15.2139 28.2611 16.413 31.0644C17.6116 33.8665 19.5934 36.188 22.0819 37.686C25.0668 39.5549 28.3324 40.8282 31.7267 41.4446C32.4723 41.5804 33.1435 41.6076 33.7772 41.3766C34.4153 41.144 34.931 40.681 35.4353 40.0134L35.4355 40.0131C38.0457 36.5531 41.6721 34.2247 45.6718 33.4203L45.6718 33.4204L45.6844 33.4176C46.8872 33.1474 48.0952 33.1227 49.3615 33.1889C49.9954 33.2221 50.6367 33.2775 51.2995 33.3349L51.3084 33.3356C51.9653 33.3925 52.6424 33.4511 53.3348 33.4889L53.3661 32.9159L53.8352 32.5855C53.3982 31.9649 52.9843 31.3885 52.5882 30.837C51.8003 29.7398 51.0833 28.7412 50.3962 27.6898C49.7775 26.743 49.2016 25.7963 48.6209 24.8418C48.2253 24.1915 47.8275 23.5375 47.4124 22.8773ZM52.1962 40.9067L52.1961 40.9067C48.7777 39.8097 45.6587 40.519 43.2089 42.1928C40.773 43.8571 39.0006 46.4705 38.209 49.208L38.2088 49.2085C37.3835 52.0717 37.8057 55.4612 39.1645 58.3192C40.5216 61.1733 42.8549 63.5804 45.9367 64.3775C51.7393 66.2141 58.0507 62.3844 59.6698 56.0453C61.3154 49.6111 58.0273 42.7795 52.1962 40.9067ZM26.8572 0.209722L26.8564 0.203868L26.8572 0.209722ZM52.0556 16.2901C52.1913 16.5158 52.327 16.7414 52.4629 16.9668L26.8564 0.203855C33.8626 -0.780248 39.773 1.86475 44.9956 6.71052C47.9074 9.39173 49.9838 12.8447 52.0556 16.2901Z" stroke="#FAF8F5" stroke-width="1.14765"/>
<path d="M47.4219 140.778L46.8959 141.034C51.2995 150.107 47.6659 160.005 39.7742 163.707L47.4219 140.778ZM47.4219 140.778L47.4652 140.195C49.5912 140.353 51.6901 140.804 53.7127 141.535C64.5364 145.328 72.4976 153.053 78.3249 163.443L78.3253 163.444C81.3227 168.805 82.5569 174.828 82.3264 181.159C82.3057 181.728 82.1796 182.298 82.0384 182.83C81.9765 183.063 81.9148 183.279 81.8551 183.488C81.7703 183.785 81.6895 184.067 81.6181 184.365C81.3798 185.358 81.3772 186.049 81.8231 186.577L81.8244 186.579C82.3143 187.163 83.042 187.554 83.9337 187.905C84.2821 188.042 84.6393 188.167 85.0085 188.296C85.1101 188.332 85.2127 188.368 85.3162 188.404C85.778 188.568 86.253 188.742 86.7063 188.947C86.8189 188.986 86.9279 189.034 87.032 189.092L87.0606 189.108L87.0872 189.127C87.2639 189.253 87.3791 189.3 87.442 189.314C87.4629 189.319 87.4751 189.32 87.4802 189.32C87.4813 189.319 87.4826 189.318 87.4842 189.317C87.4886 189.313 87.4953 189.308 87.5042 189.298C87.5224 189.28 87.5475 189.248 87.5773 189.198C87.6385 189.095 87.7037 188.941 87.7683 188.721C88.5462 186.016 88.9613 183.201 89.0003 180.364L89.0004 180.36C89.2356 168.507 84.711 158.755 77.6777 150.134L77.6775 150.133C74.2685 145.951 70.2988 142.368 65.907 139.508L65.9068 139.508C55.0886 132.457 43.578 130.497 31.3358 133.611C28.3665 134.388 25.6866 136.179 23.6843 138.74L23.6814 138.744C21.6001 141.361 20.3686 144.675 20.1911 148.16C20.0136 151.645 20.9009 155.092 22.7056 157.951L22.706 157.952C26.5616 164.08 33.9135 166.448 39.7737 163.707L47.4219 140.778ZM39.7187 155.028H39.7263L39.8998 154.841C40.6112 154.075 41.1741 153.164 41.5582 152.162C41.9424 151.16 42.1408 150.087 42.1431 149.003C42.1454 147.919 41.9516 146.844 41.5717 145.841C41.1918 144.837 40.6328 143.923 39.9248 143.154L39.9224 143.151C36.9387 139.946 32.0114 139.934 29.1146 143.159L29.1144 143.159C26.1806 146.428 26.1275 151.75 29.0325 154.942C31.913 158.107 36.7826 158.021 39.7187 155.028Z" stroke="#FAF8F5" stroke-width="1.16926"/>
<path d="M50.4788 187.497L50.479 187.497C52.288 183.398 55.4599 180.404 59.1121 179.096C62.7523 177.792 66.9033 178.151 70.7403 180.816L70.7405 180.816C75.8078 184.333 78.3717 189.632 77.5317 196.539C77.1479 199.607 75.9426 202.475 74.076 204.778C72.2097 207.081 69.7689 208.714 67.0686 209.479C54.5648 212.996 42.8223 210.884 31.7766 203.631L31.7718 203.627C27.8386 201.1 24.2518 197.967 21.1205 194.323C15.1809 187.28 10.7027 179.374 9.2681 169.753L9.26717 169.747C8.48064 164.813 8.72424 159.747 9.97912 154.932C10.0506 154.662 10.1221 154.457 10.1976 154.306C10.2737 154.154 10.3363 154.092 10.3713 154.068L10.3722 154.067C10.3887 154.056 10.5222 153.96 11.037 154.239L11.0369 154.239L11.0428 154.243C12.4445 154.982 13.9066 155.587 15.3299 156.175C15.4175 156.211 15.5049 156.247 15.5922 156.283C16.0355 156.468 16.1801 156.632 16.2438 156.781C16.3209 156.961 16.3451 157.266 16.2281 157.87C14.369 167.4 16.7348 175.879 21.7803 183.575C26.8119 191.25 33.2435 197.034 41.2824 200.584C44.1996 201.889 47.267 202.75 50.399 203.143L50.4717 202.562L51.0016 202.316C48.695 197.362 48.2993 192.422 50.4788 187.497ZM68.685 188.319L68.685 188.319C65.7911 185.186 60.5267 185.207 57.747 188.391L57.7468 188.391C56.3861 189.951 55.7416 192.194 55.7744 194.374C55.8073 196.554 56.5193 198.771 57.9993 200.262C59.6767 201.954 61.6626 202.693 63.6135 202.608C65.5558 202.524 67.4153 201.625 68.8639 200.131C70.3531 198.594 71.0209 196.414 70.9715 194.26C70.922 192.106 70.1544 189.911 68.685 188.319Z" stroke="#FAF8F5" stroke-width="1.16926"/>
<path d="M39.5724 286.462L39.5723 286.462C39.2742 284.996 39.1685 283.859 39.5844 282.944C40.0124 282.002 40.9212 281.438 42.2005 280.903M39.5724 286.462L48.01 279.897L48.0122 279.331C48.0112 279.331 48.0102 279.331 48.0092 279.331C45.9585 279.322 44.1526 280.081 42.4666 280.791C42.3775 280.828 42.2888 280.866 42.2005 280.903M39.5724 286.462L48.7168 331.383L48.717 331.384C48.7489 331.54 48.781 331.691 48.8126 331.84C48.8876 332.194 48.9597 332.534 49.02 332.883L49.0201 332.884C49.439 335.291 48.4617 336.984 47.0002 337.335C46.2496 337.516 45.5327 337.328 44.9316 336.821C44.3207 336.307 43.8138 335.445 43.5759 334.278L43.5759 334.278C40.5145 319.305 37.4631 304.324 34.4218 289.336L34.4216 289.336C34.0121 287.327 33.4022 285.867 32.2969 285.024C31.1755 284.17 29.689 284.056 27.8135 284.36L27.8113 284.36C27.6238 284.391 27.4327 284.421 27.2387 284.452C25.8056 284.678 24.2195 284.929 22.84 285.744L22.8387 285.745C20.4075 287.191 18.7503 290.323 19.4693 293.68C21.8237 304.704 24.0531 315.742 26.284 326.786C27.0101 330.381 27.7364 333.976 28.4672 337.572L28.4695 337.584L28.4723 337.596C28.6496 338.313 28.7761 339.046 28.8506 339.786C28.9054 340.667 28.6953 341.367 28.3074 341.88C27.9185 342.394 27.314 342.77 26.4918 342.934L26.4918 342.934L26.4818 342.936C25.8603 343.072 25.2122 342.957 24.6545 342.604C24.0973 342.252 23.6632 341.681 23.4456 340.988C23.2949 340.435 23.1762 339.872 23.0903 339.302L23.0881 339.287L23.0852 339.273C22.3489 335.657 21.6112 332.041 20.8736 328.425C18.5553 317.06 16.2372 305.696 13.9611 294.332L39.5724 286.462ZM42.2005 280.903L42.4194 281.426L42.1999 280.903C42.2001 280.903 42.2003 280.903 42.2005 280.903ZM80.832 296.964C82.7843 304.506 82.8835 312.482 81.119 320.08L5.85618 292.673C5.08396 293.451 4.24366 293.802 3.4964 293.814C2.75849 293.825 2.05319 293.506 1.51273 292.824C0.952876 292.118 0.727264 291.347 0.800093 290.564C0.873525 289.774 1.25563 288.924 1.99738 288.085C3.19959 286.809 4.53036 285.69 5.96312 284.75L5.96321 284.75L5.97449 284.742C8.3852 283.076 10.8987 283.218 13.3971 284.545L13.3977 284.545C13.9967 284.862 14.5534 284.987 15.0912 284.796C15.5857 284.621 15.9417 284.213 16.242 283.833L16.2421 283.833C18.545 280.923 21.1604 279.285 23.988 278.533C26.8266 277.778 29.9186 277.905 33.1799 278.596L33.1814 278.597C33.7051 278.706 34.1882 278.771 34.6749 278.668C35.1725 278.562 35.6032 278.296 36.0683 277.888L36.0683 277.888C40.6252 273.89 45.813 272.18 51.5394 273.42L51.5404 273.42C54.7592 274.111 56.873 276.473 57.7953 280.136L57.7955 280.136C57.8382 280.305 57.8672 280.487 57.8974 280.696C57.9015 280.725 57.9056 280.754 57.9099 280.784C57.9354 280.963 57.9639 281.163 58.0036 281.36C58.0985 281.831 58.2693 282.354 58.6949 282.819L59.007 283.159L59.4034 282.923C59.9026 282.624 60.3842 282.253 60.8326 281.907C61.0181 281.764 61.1978 281.626 61.3709 281.499C61.9908 281.043 62.5865 280.678 63.2722 280.508L63.2724 280.508C67.478 279.464 71.0726 280.734 74.1625 283.926C77.5792 287.456 79.5561 291.946 80.8313 296.962L80.832 296.964ZM63.5866 308.716L63.5866 308.716C63.7986 309.757 64.0111 310.796 64.2234 311.835C64.8014 314.663 65.3788 317.488 65.9456 320.319L65.9461 320.322C66.4829 322.939 67.6891 325.34 69.4297 327.24C69.7268 327.575 70.01 327.855 70.2875 328.043C70.5681 328.232 70.9148 328.375 71.3019 328.296C71.6771 328.22 71.9485 327.964 72.1505 327.696C72.356 327.424 72.5475 327.064 72.7417 326.643C75.5504 320.566 76.9889 314.137 76.7194 307.278L76.7194 307.277C76.4842 301.373 75.2487 295.734 72.0213 290.776C70.6891 288.727 69.0173 287 66.4355 286.524L66.4344 286.523C65.8315 286.413 65.2578 286.414 64.729 286.624C64.1929 286.836 63.7756 287.235 63.4332 287.784L63.4325 287.785C61.7199 290.544 60.6192 293.611 61.2447 297.095C61.7279 299.795 62.2904 302.485 62.8507 305.164C63.0988 306.35 63.3464 307.534 63.5866 308.716Z" stroke="#FAF8F5" stroke-width="1.13324"/>
</svg>
