<svg width="91" height="97" viewBox="0 0 91 97" fill="none" xmlns="http://www.w3.org/2000/svg">
<rect x="1" width="89" height="97" fill="black"/>
<path d="M40.1567 24.3445L40.1566 24.3444C39.8612 23.0222 39.7525 21.9812 40.1713 21.1422C40.596 20.2914 41.4894 19.7889 42.7464 19.3105C42.8327 19.2775 42.9194 19.2444 43.0063 19.2111C44.6822 18.5694 46.4575 17.8896 48.4715 17.898M40.1567 24.3445L48.4709 18.4115M40.1567 24.3445L49.2208 64.8673L49.221 64.8683M40.1567 24.3445L49.221 64.8683M48.4715 17.898C48.472 17.898 48.4726 17.898 48.4731 17.898L48.4709 18.4115M48.4715 17.898C48.4709 17.898 48.4703 17.898 48.4698 17.898L48.4709 18.4115M48.4715 17.898C49.7478 17.8954 50.767 18.0304 51.5356 18.5861C52.3179 19.1518 52.7347 20.0729 53.0221 21.3562M48.4709 18.4115C50.9999 18.406 51.9622 18.9733 52.5211 21.4684C53.1908 24.4573 53.8637 27.4452 54.5365 30.433C56.3754 38.5987 58.214 46.7636 59.9891 54.944M53.0221 21.3562L52.5247 21.4676L53.0221 21.3562C53.0221 21.3562 53.0221 21.3562 53.0221 21.3562ZM53.0221 21.3562C53.6915 24.3435 54.3641 27.3304 55.0368 30.3174C56.8758 38.4839 58.7152 46.6518 60.4907 54.8345M60.4907 54.8345L59.9891 54.944M60.4907 54.8345C60.4908 54.8347 60.4908 54.8349 60.4908 54.8351L59.9891 54.944M60.4907 54.8345L59.9891 54.944M78.784 62.8069C79.0184 62.7491 79.2418 62.6824 79.4551 62.6075C79.3852 62.751 79.3145 62.8941 79.2431 63.0368L78.784 62.8069ZM78.784 62.8069C78.8867 62.6017 78.9878 62.3957 79.0872 62.189C78.9496 62.2324 78.8078 62.2722 78.6612 62.3083L78.784 62.8069ZM67.2725 67.2122C67.1451 67.331 67.0161 67.4477 66.8854 67.5625C66.9106 67.5819 66.9359 67.6013 66.9612 67.6206L67.2725 67.2122ZM67.2725 67.2122L66.9224 66.8367C66.9027 66.855 66.8829 66.8733 66.8632 66.8916C66.9973 66.9995 67.1337 67.1064 67.2725 67.2122ZM49.221 64.8683C49.2528 65.0091 49.2846 65.146 49.316 65.2806C49.3902 65.5992 49.4614 65.9048 49.521 66.2189L49.5211 66.2196M49.221 64.8683L49.5211 66.2196M49.5211 66.2196C49.9282 68.3484 48.9933 69.8926 47.4919 70.2212C45.9871 70.5505 44.4942 69.545 44.0265 67.4579L44.0264 67.4576M49.5211 66.2196L44.0264 67.4576M44.0264 67.4576C40.992 53.9502 37.9674 40.4363 34.9528 26.9158L34.9527 26.9153M44.0264 67.4576L34.9527 26.9153M34.9527 26.9153C34.5446 25.0934 33.9363 23.7761 32.8483 23.0213C31.7591 22.2656 30.3157 22.1613 28.4672 22.4337L28.4654 22.434M34.9527 26.9153L28.4654 22.434M28.4654 22.434C28.2787 22.4622 28.0888 22.4895 27.8964 22.5172C26.4749 22.7217 24.9194 22.9455 23.565 23.6741L23.5638 23.6748M28.4654 22.434L23.5638 23.6748M23.5638 23.6748C21.1771 24.9667 19.51 27.7949 20.2304 30.8557L23.5638 23.6748ZM29.1516 70.4618L29.1491 70.4505C28.4247 67.2063 27.7048 63.9628 26.9851 60.7199C24.7738 50.7569 22.5641 40.8007 20.2304 30.856L29.1516 70.4618ZM29.1516 70.4618L29.1546 70.473M29.1516 70.4618L29.1546 70.473M29.1546 70.473C29.3297 71.1184 29.4546 71.7763 29.5282 72.441C29.5814 73.2227 29.3778 73.845 28.9946 74.3062C28.6066 74.7731 27.9963 75.1207 27.1604 75.2728L27.1604 75.2728M29.1546 70.473L27.1604 75.2728M27.1604 75.2728L27.1521 75.2744C26.5103 75.4022 25.8439 75.2926 25.2768 74.9659C24.7125 74.6408 24.2847 74.1228 24.0722 73.5073M27.1604 75.2728L24.0722 73.5073M24.0722 73.5073C23.9233 73.0101 23.8062 72.5039 23.7214 71.9918L23.719 71.9776L23.7159 71.9635C22.986 68.7013 22.2548 65.4392 21.5237 62.1772C19.2258 51.925 16.9281 41.6739 14.672 31.4228C14.4831 30.5623 14.1796 29.8189 13.7043 29.1988C13.2271 28.5761 12.5972 28.1045 11.7962 27.7587C11.3874 27.5768 10.947 27.4444 10.4813 27.4617C10.0021 27.4795 9.54327 27.6539 9.1022 28.006L9.10126 28.0068C8.87403 28.189 8.63746 28.3724 8.39696 28.5589C7.84338 28.988 7.26894 29.4333 6.73939 29.9185L24.0722 73.5073ZM6.74846 22.8028L6.74839 22.8027C5.32447 23.653 4.00308 24.6643 2.81024 25.8166C2.07189 26.5761 1.69887 27.3391 1.62745 28.0381C1.55699 28.7278 1.77337 29.4143 2.32941 30.0529C3.37418 31.2528 5.20376 31.325 6.73929 29.9186L6.74846 22.8028ZM6.74846 22.8028L6.75859 22.7964M6.74846 22.8028L6.75859 22.7964M6.75859 22.7964C9.17518 21.2758 11.7046 21.4078 14.2018 22.6149L14.2024 22.6152M6.75859 22.7964L14.2024 22.6152M14.2024 22.6152C14.7891 22.898 15.3122 22.9986 15.8109 22.8376C16.2811 22.6857 16.6275 22.3284 16.929 21.9819L16.9291 21.9817M14.2024 22.6152L16.9291 21.9817M16.9291 21.9817C21.47 16.7588 27.3197 15.9948 33.7899 17.2421L33.7912 17.2423M16.9291 21.9817L33.7912 17.2423M33.7912 17.2423C34.3081 17.3406 34.7707 17.3963 35.2333 17.3067C35.7066 17.215 36.1237 16.9834 36.5839 16.616L36.584 16.616M33.7912 17.2423L36.584 16.616M36.584 16.616C41.108 13.0032 46.2759 11.4469 51.9884 12.5723L51.9893 12.5724M36.584 16.616L51.9893 12.5724M51.9893 12.5724C55.2213 13.2038 57.3115 15.3554 58.2199 18.639L58.2202 18.6398M51.9893 12.5724L58.2202 18.6398M58.2202 18.6398C58.2618 18.7894 58.2902 18.9513 58.3201 19.14C58.3241 19.1656 58.3283 19.1919 58.3324 19.2187C58.3578 19.3807 58.3862 19.5626 58.4259 19.7419C58.5215 20.173 58.6934 20.6482 59.114 21.066L59.3852 21.3354M58.2202 18.6398L59.3852 21.3354M59.3852 21.3354L59.7211 21.1528M59.3852 21.3354L59.7211 21.1528M59.7211 21.1528C60.2129 20.8855 60.6861 20.5535 61.1296 20.2424C61.3141 20.1129 61.4935 19.9871 61.6669 19.871C62.2816 19.4596 62.8809 19.1244 63.5764 18.9676L63.5766 18.9675M59.7211 21.1528L63.5766 18.9675M63.5766 18.9675C67.7856 18.0167 71.3766 19.1795 74.4452 22.0644C77.8341 25.2509 79.7913 29.2997 81.0535 33.8177L81.0542 33.8201M63.5766 18.9675L81.0542 33.8201M81.0542 33.8201C82.9873 40.6158 83.0854 47.8024 81.3386 54.6483C80.6038 57.386 79.5941 60.0424 78.3249 62.5769L77.8269 63.5714M81.0542 33.8201L77.8269 63.5714M77.8269 63.5714L78.9068 63.3054M77.8269 63.5714L78.9068 63.3054M78.9068 63.3054C80.9193 62.8098 82.1671 61.6956 83.2254 60.4151L83.2356 60.4028M78.9068 63.3054L83.2356 60.4028M83.2356 60.4028L83.245 60.3899M83.2356 60.4028L83.245 60.3899M83.245 60.3899C83.6844 59.7853 84.1604 59.2082 84.6703 58.6617C85.0903 58.2517 85.6354 57.9936 86.2189 57.9285C86.806 57.8631 87.398 57.9968 87.8999 58.3083L87.9149 58.3176M83.245 60.3899L87.9149 58.3176M87.9149 58.3176L87.9305 58.3258C88.4839 58.6186 88.9182 59.0947 89.1589 59.6727C89.3997 60.2507 89.4319 60.8944 89.2501 61.4935L89.2471 61.5032L89.2445 61.513C89.0746 62.1645 88.6941 62.664 88.2363 63.265C88.1315 63.4025 88.0227 63.5453 87.9115 63.6965L87.9111 63.697C85.8899 66.4506 83.08 68.0966 79.8794 69.1406M87.9149 58.3176L79.8794 69.1406M79.8794 69.1406C78.5531 69.571 77.0353 69.57 75.5122 69.4279C74.9721 69.3549 74.4221 69.4233 73.9162 69.6267C73.4116 69.8295 72.9682 70.1597 72.6293 70.5848L79.8794 69.1406ZM63.9599 44.4197L63.9598 44.4193C63.7219 43.3537 63.4765 42.2858 63.2307 41.2159C62.6752 38.7989 62.1174 36.3714 61.6383 33.9351C61.0147 30.7735 62.114 27.9956 63.8109 25.5075L63.8116 25.5065C64.1531 25.0085 64.5628 24.657 65.0761 24.4716C65.5801 24.2896 66.1295 24.2877 66.7171 24.3853L66.718 24.3854C69.2438 24.8094 70.893 26.3504 72.218 28.2048C75.4193 32.6805 76.6463 37.7746 76.8798 43.1084L76.8798 43.1087C77.1473 49.3058 75.7189 55.1133 72.9332 60.5983M63.9599 44.4197L72.4754 60.3658M63.9599 44.4197C64.1701 45.3583 64.3807 46.2962 64.5913 47.2338C65.1641 49.7844 65.7363 52.3325 66.2981 54.8863L66.2987 54.8889C66.8326 57.2584 68.0315 59.4264 69.7544 61.1384M63.9599 44.4197L70.1192 60.777M72.9332 60.5983L72.4754 60.3658M72.9332 60.5983C72.9332 60.5982 72.9332 60.5982 72.9333 60.5982L72.4754 60.3658M72.9332 60.5983C72.7401 60.9786 72.5499 61.305 72.3461 61.5505C72.1425 61.7958 71.8822 62.0127 71.5392 62.076C71.1911 62.1402 70.8718 62.0256 70.5978 61.857C70.3278 61.6909 70.0494 61.4408 69.7544 61.1384M72.4754 60.3658C71.7215 61.8509 71.2699 61.9576 70.1192 60.777M69.7544 61.1384C69.7554 61.1394 69.7564 61.1404 69.7574 61.1414L70.1192 60.777M69.7544 61.1384C69.7534 61.1374 69.7525 61.1364 69.7515 61.1354L70.1192 60.777M56.1467 72.8327C56.1487 72.8322 56.1507 72.8318 56.1526 72.8313L56.0411 72.3301L56.1403 72.8339C56.1424 72.8335 56.1446 72.8331 56.1467 72.8327Z" stroke="#FAF8F5" stroke-width="1.02692"/>
</svg>
