<svg width="90" height="97" viewBox="0 0 90 97" fill="none" xmlns="http://www.w3.org/2000/svg">
<rect width="89" height="97" fill="black"/>
<path d="M26.2746 30.2603L25.649 29.6072L23.4574 27.3194L23.455 27.317C22.6955 26.5144 21.9399 25.7114 21.185 24.9092C19.5463 23.1679 17.9114 21.4304 16.2484 19.7099C15.5531 18.9987 14.8411 18.6594 14.1542 18.6111C13.4673 18.5627 12.7255 18.7997 11.96 19.3932L26.2746 30.2603ZM26.2746 30.2603L26.5752 29.4074M26.2746 30.2603L26.5752 29.4074M26.5752 29.4074C28.6905 23.4053 31.8215 18.617 36.1854 14.7843C45.7338 6.40228 56.6235 3.39791 68.9629 7.14978L68.9633 7.14988M26.5752 29.4074L68.9633 7.14988M68.9633 7.14988C72.4764 8.21554 75.5944 10.1441 78.4523 12.6191L78.4524 12.6192C85.1559 18.4223 88.3267 25.7725 88.4449 34.5226L88.4449 34.5229C88.5473 41.7909 86.3138 48.3641 81.991 54.2173C77.2131 60.6786 71.1008 65.2904 62.9308 67.7454L62.0705 68.0039L62.6854 68.6587L64.288 70.3655L64.2908 70.3685C64.7242 70.8234 65.1579 71.2781 65.5916 71.7329C67.8332 74.0837 70.0765 76.4363 72.3003 78.8144C72.9518 79.5112 73.2754 80.2415 73.3289 80.924C73.3821 81.6016 73.1733 82.2788 72.6756 82.8915C71.9282 83.8048 71.138 84.3223 70.365 84.4967C69.6074 84.6676 68.7977 84.5247 67.9576 83.9858M68.9633 7.14988L67.9576 83.9858M67.9576 83.9858C67.3881 83.5673 66.8691 83.084 66.4113 82.5455L66.4012 82.5337L66.3905 82.5224C62.0878 78.0008 57.7892 73.471 53.4946 68.9333L53.4881 68.9266L53.4815 68.92C53.0938 68.537 52.7265 68.134 52.381 67.7125C51.4116 66.4401 51.279 65.0855 51.7225 64.0278C52.1662 62.9696 53.2267 62.1131 54.8423 61.9232C58.4252 61.5019 62.0118 60.9416 65.3589 59.268C73.26 55.3175 78.6886 49.1288 80.6372 40.4626C82.5468 31.9832 80.9386 24.0575 74.0216 18.0337C68.5866 13.2941 62.0861 11.8712 55.0908 13.0404C49.2694 14.0075 43.9068 16.802 39.779 21.0194C35.6513 25.2368 32.9727 30.6582 32.1309 36.4991L32.1288 36.5138L32.1274 36.5287C32.0635 37.2408 31.9367 37.9458 31.7486 38.6355C31.5733 39.1504 31.2789 39.6166 30.8891 39.9961C30.4957 40.3791 30.0165 40.6628 29.4915 40.8234C28.9665 40.984 28.4108 41.0169 27.8704 40.9196C27.3312 40.8224 26.823 40.5983 26.3878 40.2659C26.1158 40.051 25.8619 39.8142 25.6288 39.5578L25.6289 39.5577L25.6205 39.5489C24.4138 38.2784 23.2059 37.01 21.9983 35.7421C18.5725 32.1449 15.1497 28.5508 11.7655 24.9208L11.7654 24.9207C10.7721 23.856 10.3753 22.8388 10.4188 21.9467C10.462 21.0619 10.9443 20.1812 11.96 19.3933L67.9576 83.9858Z" stroke="#FAF8F5" stroke-width="1.11237"/>
<path d="M61.5624 87.2788C61.6937 87.4176 61.8205 87.5462 61.941 87.6684C62.5396 88.2755 62.9844 88.7267 63.0639 89.4977C63.2022 90.8479 62.4719 92.2557 60.9709 93.1301C59.9931 93.6894 58.4103 93.5317 57.4061 92.6658C57.0875 92.3905 56.8185 92.0924 56.5249 91.7671C56.3812 91.6078 56.2316 91.442 56.0675 91.2692L2.57013 34.8752C2.56991 34.875 2.56969 34.8748 2.56948 34.8745C2.44367 34.741 2.32326 34.6169 2.20633 34.4964C2.00048 34.2843 1.80543 34.0834 1.61077 33.8613C0.829682 32.9614 0.517277 32.1145 0.560053 31.343C0.602835 30.5713 1.00692 29.7664 1.88062 28.9631L1.88062 28.9631L1.88134 28.9624C2.68908 28.2171 3.45804 27.917 4.17407 27.9537C4.89466 27.9907 5.67785 28.3745 6.49777 29.2373L6.49788 29.2374C15.7527 38.9703 24.9968 48.7099 34.2303 58.4562L34.2303 58.4562C43.341 68.0717 52.4517 77.6793 61.5624 87.2788ZM61.5624 87.2788L61.9665 86.8967L61.5631 87.2795C61.5629 87.2793 61.5627 87.2791 61.5624 87.2788Z" stroke="#FAF8F5" stroke-width="1.11237"/>
</svg>
