<svg width="584" height="604" viewBox="0 0 584 604" fill="none" xmlns="http://www.w3.org/2000/svg">
<circle cx="30" cy="257" r="4" fill="#FAF8F5"/>
<circle cx="3" cy="269" r="3" fill="#FAF8F5"/>
<circle cx="55" cy="261" r="4" fill="#FAF8F5"/>
<circle cx="98" cy="293" r="3" fill="#FAF8F5"/>
<circle cx="51" cy="331" r="4" fill="#FAF8F5"/>
<circle cx="68" cy="349" r="3" fill="#FAF8F5"/>
<circle cx="113" cy="327" r="4" fill="#FAF8F5"/>
<circle cx="174" cy="342" r="4" fill="#FAF8F5"/>
<circle cx="151" cy="270" r="4" fill="#FAF8F5"/>
<circle cx="132" cy="240" r="4" fill="#FAF8F5"/>
<circle cx="150" cy="235" r="3" fill="#FAF8F5"/>
<circle cx="150" cy="220" r="2" fill="#FAF8F5"/>
<circle cx="127" cy="228" r="3" fill="#FAF8F5"/>
<circle cx="154" cy="543" r="3" fill="#FAF8F5"/>
<circle cx="149" cy="525" r="4" fill="#FAF8F5"/>
<circle cx="135" cy="511" r="2" fill="#FAF8F5"/>
<circle cx="132" cy="497" r="4" fill="#FAF8F5"/>
<circle cx="132" cy="486" r="3" fill="#FAF8F5"/>
<circle cx="121" cy="486" r="4" fill="#FAF8F5"/>
<circle cx="111" cy="494" r="2" fill="#FAF8F5"/>
<circle cx="100" cy="486" r="4" fill="#FAF8F5"/>
<circle cx="92" cy="473" r="4" fill="#FAF8F5"/>
<circle cx="76" cy="468" r="2" fill="#FAF8F5"/>
<circle cx="69" cy="471" r="4" fill="#FAF8F5"/>
<circle cx="60" cy="458" r="3" fill="#FAF8F5"/>
<circle cx="80" cy="439" r="4" fill="#FAF8F5"/>
<circle cx="88" cy="440" r="2" fill="#FAF8F5"/>
<circle cx="94" cy="433" r="4" fill="#FAF8F5"/>
<circle cx="103" cy="429" r="3" fill="#FAF8F5"/>
<circle cx="114" cy="433" r="4" fill="#FAF8F5"/>
<circle cx="124" cy="439" r="2" fill="#FAF8F5"/>
<circle cx="132" cy="430" r="3" fill="#FAF8F5"/>
<circle cx="136" cy="421" r="4" fill="#FAF8F5"/>
<circle cx="141" cy="410" r="3" fill="#FAF8F5"/>
<circle cx="132" cy="396" r="4" fill="#FAF8F5"/>
<circle cx="117" cy="393" r="3" fill="#FAF8F5"/>
<circle cx="105" cy="394" r="4" fill="#FAF8F5"/>
<circle cx="96" cy="395" r="3" fill="#FAF8F5"/>
<circle cx="92" cy="404" r="4" fill="#FAF8F5"/>
<circle cx="81" cy="407" r="3" fill="#FAF8F5"/>
<circle cx="72" cy="390" r="4" fill="#FAF8F5"/>
<circle cx="57" cy="413" r="4" fill="#FAF8F5"/>
<circle cx="54" cy="382" r="3" fill="#FAF8F5"/>
<circle cx="44" cy="380" r="4" fill="#FAF8F5"/>
<circle cx="28" cy="388" r="3" fill="#FAF8F5"/>
<circle cx="356" cy="402.677" r="2" fill="#FAF8F5"/>
<circle cx="346" cy="400.677" r="3" fill="#FAF8F5"/>
<circle cx="336" cy="399.677" r="4" fill="#FAF8F5"/>
<circle cx="291" cy="380.677" r="3" fill="#FAF8F5"/>
<circle cx="264" cy="407.677" r="4" fill="#FAF8F5"/>
<circle cx="250" cy="406.677" r="3" fill="#FAF8F5"/>
<circle cx="227" cy="403.677" r="4" fill="#FAF8F5"/>
<circle cx="208" cy="430.677" r="3" fill="#FAF8F5"/>
<circle cx="224" cy="456.677" r="3" fill="#FAF8F5"/>
<circle cx="192" cy="457.677" r="4" fill="#FAF8F5"/>
<circle cx="171" cy="427.677" r="3" fill="#FAF8F5"/>
<circle cx="175" cy="414.677" r="4" fill="#FAF8F5"/>
<circle cx="188" cy="410.677" r="4" fill="#FAF8F5"/>
<circle cx="3" cy="3" r="3" transform="matrix(0.59572 -0.803192 0.802308 0.596911 362.956 496.268)" fill="#FAF8F5"/>
<circle cx="4" cy="4" r="4" transform="matrix(0.59572 -0.803192 0.802308 0.596911 383.124 492.577)" fill="#FAF8F5"/>
<circle cx="3" cy="3" r="3" transform="matrix(0.59572 -0.803192 0.802308 0.596911 424.968 466.374)" fill="#FAF8F5"/>
<circle cx="4" cy="4" r="4" transform="matrix(0.59572 -0.803192 0.802308 0.596911 432.251 443.126)" fill="#FAF8F5"/>
<circle cx="4" cy="4" r="4" transform="matrix(0.59572 -0.803192 0.802308 0.596911 399.77 421.452)" fill="#FAF8F5"/>
<circle cx="2" cy="2" r="2" transform="matrix(0.59572 -0.803192 0.802308 0.596911 354.168 456.077)" fill="#FAF8F5"/>
<circle cx="3" cy="3" r="3" transform="matrix(0.59572 -0.803192 0.802308 0.596911 463.542 466.405)" fill="#FAF8F5"/>
<circle cx="4" cy="4" r="4" transform="matrix(0.59572 -0.803192 0.802308 0.596911 476.32 422.317)" fill="#FAF8F5"/>
<circle cx="3" cy="3" r="3" transform="matrix(0.59572 -0.803192 0.802308 0.596911 522.71 426.917)" fill="#FAF8F5"/>
<circle cx="4" cy="4" r="4" transform="matrix(0.59572 -0.803192 0.802308 0.596911 529.004 488.935)" fill="#FAF8F5"/>
<circle cx="363" cy="234.499" r="4" fill="#FAF8F5"/>
<circle cx="427" cy="251.499" r="3" fill="#FAF8F5"/>
<circle cx="448" cy="339.499" r="4" fill="#FAF8F5"/>
<circle cx="452" cy="375.499" r="4" fill="#FAF8F5"/>
<circle cx="341" cy="351.499" r="3" fill="#FAF8F5"/>
<circle cx="401" cy="326.499" r="2" fill="#FAF8F5"/>
<circle cx="407" cy="283.499" r="2" fill="#FAF8F5"/>
<circle cx="460" cy="282.499" r="1" fill="#FAF8F5"/>
<circle cx="440" cy="355.499" r="2" fill="#FAF8F5"/>
<circle cx="501" cy="253.506" r="3" fill="#FAF8F5"/>
<circle cx="540" cy="234.506" r="4" fill="#FAF8F5"/>
<circle cx="560" cy="262.506" r="4" fill="#FAF8F5"/>
<circle cx="545" cy="312.506" r="4" fill="#FAF8F5"/>
<circle cx="535" cy="321.506" r="3" fill="#FAF8F5"/>
<circle cx="525" cy="327.506" r="3" fill="#FAF8F5"/>
<circle cx="550" cy="295.506" r="2" fill="#FAF8F5"/>
<circle cx="559" cy="329.506" r="3" fill="#FAF8F5"/>
<circle cx="582" cy="375.506" r="2" fill="#FAF8F5"/>
<circle cx="514" cy="385.506" r="3" fill="#FAF8F5"/>
<circle cx="2" cy="2" r="2" transform="matrix(-0.987061 -0.160344 0.159861 -0.98714 351.751 150.631)" fill="#FAF8F5"/>
<circle cx="4" cy="4" r="4" transform="matrix(-0.987061 -0.160344 0.159861 -0.98714 337.32 158.418)" fill="#FAF8F5"/>
<circle cx="2" cy="2" r="2" transform="matrix(-0.987061 -0.160344 0.159861 -0.98714 331.502 144.303)" fill="#FAF8F5"/>
<circle cx="3" cy="3" r="3" transform="matrix(-0.987061 -0.160344 0.159861 -0.98714 323.154 152.064)" fill="#FAF8F5"/>
<circle cx="4" cy="4" r="4" transform="matrix(-0.987061 -0.160344 0.159861 -0.98714 321.764 135.629)" fill="#FAF8F5"/>
<circle cx="4" cy="4" r="4" transform="matrix(-0.987061 -0.160344 0.159861 -0.98714 308.201 81.7568)" fill="#FAF8F5"/>
<circle cx="3" cy="3" r="3" transform="matrix(-0.987061 -0.160344 0.159861 -0.98714 355.336 72.1914)" fill="#FAF8F5"/>
<circle cx="4" cy="4" r="4" transform="matrix(-0.987061 -0.160344 0.159861 -0.98714 325.829 54.2275)" fill="#FAF8F5"/>
<circle cx="4" cy="4" r="4" transform="matrix(-0.987061 -0.160344 0.159861 -0.98714 302.292 11.9062)" fill="#FAF8F5"/>
<circle cx="3" cy="3" r="3" transform="matrix(-0.987061 -0.160344 0.159861 -0.98714 278.262 41.4346)" fill="#FAF8F5"/>
<circle cx="2" cy="2" r="2" transform="matrix(-0.987061 -0.160344 0.159861 -0.98714 317.399 187.602)" fill="#FAF8F5"/>
<circle cx="2" cy="2" r="2" transform="matrix(-0.987061 -0.160344 0.159861 -0.98714 307.236 194.056)" fill="#FAF8F5"/>
<circle cx="266.707" cy="185.524" r="2" transform="rotate(-74.7048 266.707 185.524)" fill="#FAF8F5"/>
<circle cx="262.14" cy="194.643" r="3" transform="rotate(-74.7048 262.14 194.643)" fill="#FAF8F5"/>
<circle cx="258.538" cy="204.025" r="4" transform="rotate(-74.7048 258.538 204.025)" fill="#FAF8F5"/>
<circle cx="228.34" cy="242.418" r="3" transform="rotate(-74.7048 228.34 242.418)" fill="#FAF8F5"/>
<circle cx="247.262" cy="275.585" r="4" transform="rotate(-74.7048 247.262 275.585)" fill="#FAF8F5"/>
<circle cx="242.604" cy="288.825" r="3" transform="rotate(-74.7048 242.604 288.825)" fill="#FAF8F5"/>
<circle cx="233.643" cy="310.219" r="4" transform="rotate(-74.7048 233.643 310.219)" fill="#FAF8F5"/>
<circle cx="254.674" cy="335.668" r="3" transform="rotate(-74.7048 254.674 335.668)" fill="#FAF8F5"/>
<circle cx="283.974" cy="327.094" r="3" transform="rotate(-74.7048 283.974 327.094)" fill="#FAF8F5"/>
<circle cx="276.497" cy="358.224" r="4" transform="rotate(-74.7048 276.497 358.224)" fill="#FAF8F5"/>
<circle cx="242.021" cy="370.567" r="3" transform="rotate(-74.7048 242.021 370.567)" fill="#FAF8F5"/>
<circle cx="230.536" cy="363.279" r="4" transform="rotate(-74.7048 230.536 363.279)" fill="#FAF8F5"/>
<circle cx="230.107" cy="349.684" r="4" transform="rotate(-74.7048 230.107 349.684)" fill="#FAF8F5"/>
<circle cx="244" cy="462" r="2" fill="#FAF8F5"/>
<circle cx="276" cy="474" r="4" fill="#FAF8F5"/>
<circle cx="289" cy="514" r="3" fill="#FAF8F5"/>
<circle cx="276" cy="545" r="4" fill="#FAF8F5"/>
<circle cx="306" cy="601" r="3" fill="#FAF8F5"/>
<circle cx="337" cy="555" r="4" fill="#FAF8F5"/>
<circle cx="362" cy="533" r="2" fill="#FAF8F5"/>
<circle cx="226" cy="553" r="4" fill="#FAF8F5"/>
<circle cx="194" cy="540" r="3" fill="#FAF8F5"/>
<circle cx="545.059" cy="177.531" r="2" transform="rotate(-127.767 545.059 177.531)" fill="#FAF8F5"/>
<circle cx="521.03" cy="175.906" r="3" transform="rotate(-127.767 521.03 175.906)" fill="#FAF8F5"/>
<circle cx="503.647" cy="138.774" r="4" transform="rotate(-127.767 503.647 138.774)" fill="#FAF8F5"/>
<circle cx="492.958" cy="133.141" r="3" transform="rotate(-127.767 492.958 133.141)" fill="#FAF8F5"/>
<circle cx="479.362" cy="133.553" r="2" transform="rotate(-127.767 479.362 133.553)" fill="#FAF8F5"/>
<circle cx="453.554" cy="145.958" r="4" transform="rotate(-127.767 453.554 145.958)" fill="#FAF8F5"/>
<circle cx="446.638" cy="138.666" r="3" transform="rotate(-127.767 446.638 138.666)" fill="#FAF8F5"/>
<circle cx="442.273" cy="128.133" r="4" transform="rotate(-127.767 442.273 128.133)" fill="#FAF8F5"/>
<circle cx="427.966" cy="134.158" r="4" transform="rotate(-127.767 427.966 134.158)" fill="#FAF8F5"/>
<circle cx="426.762" cy="121.175" r="3" transform="rotate(-127.767 426.762 121.175)" fill="#FAF8F5"/>
<circle cx="412.555" cy="120.797" r="4" transform="rotate(-127.767 412.555 120.797)" fill="#FAF8F5"/>
<circle cx="401.822" cy="137.967" r="4" transform="rotate(-127.767 401.822 137.967)" fill="#FAF8F5"/>
<circle cx="391.745" cy="133.124" r="3" transform="rotate(-127.767 391.745 133.124)" fill="#FAF8F5"/>
<circle cx="382.024" cy="125.476" r="4" transform="rotate(-127.767 382.024 125.476)" fill="#FAF8F5"/>
<circle cx="384.595" cy="110.834" r="3" transform="rotate(-127.767 384.595 110.834)" fill="#FAF8F5"/>
<circle cx="374.874" cy="103.185" r="2" transform="rotate(-127.767 374.874 103.185)" fill="#FAF8F5"/>
<circle cx="368.628" cy="113.084" r="3" transform="rotate(-127.767 368.628 113.084)" fill="#FAF8F5"/>
<circle cx="371.591" cy="123.439" r="3" transform="rotate(-127.767 371.591 123.439)" fill="#FAF8F5"/>
<circle cx="109.228" cy="141.34" r="4" transform="rotate(-32.7251 109.228 141.34)" fill="#FAF8F5"/>
<circle cx="93.0011" cy="166.032" r="3" transform="rotate(-32.7251 93.0011 166.032)" fill="#FAF8F5"/>
<circle cx="132.423" cy="131.19" r="4" transform="rotate(-32.7251 132.423 131.19)" fill="#FAF8F5"/>
<circle cx="185.897" cy="134.865" r="3" transform="rotate(-32.7251 185.897 134.865)" fill="#FAF8F5"/>
<circle cx="166.9" cy="192.242" r="4" transform="rotate(-32.7251 166.9 192.242)" fill="#FAF8F5"/>
<circle cx="190.933" cy="198.195" r="3" transform="rotate(-32.7251 190.933 198.195)" fill="#FAF8F5"/>
<circle cx="216.897" cy="155.359" r="4" transform="rotate(-32.7251 216.897 155.359)" fill="#FAF8F5"/>
<circle cx="276.323" cy="135.001" r="4" transform="rotate(-32.7251 276.323 135.001)" fill="#FAF8F5"/>
<circle cx="218.05" cy="86.8638" r="4" transform="rotate(-32.7251 218.05 86.8638)" fill="#FAF8F5"/>
<circle cx="185.848" cy="71.897" r="4" transform="rotate(-32.7251 185.848 71.897)" fill="#FAF8F5"/>
<circle cx="198.288" cy="57.9596" r="3" transform="rotate(-32.7251 198.288 57.9596)" fill="#FAF8F5"/>
<circle cx="190.179" cy="45.3406" r="2" transform="rotate(-32.7251 190.179 45.3406)" fill="#FAF8F5"/>
<circle cx="175.154" cy="64.5045" r="3" transform="rotate(-32.7251 175.154 64.5045)" fill="#FAF8F5"/>
</svg>
