<svg width="746" height="1333" viewBox="0 0 746 1333" fill="none" xmlns="http://www.w3.org/2000/svg">
<ellipse cx="140.403" cy="85.6897" rx="7.12929" ry="7.97096" fill="black"/>
<ellipse cx="101.19" cy="97.6456" rx="3.56465" ry="3.98548" fill="black"/>
<ellipse cx="154.657" cy="37.8616" rx="7.12929" ry="7.97096" fill="black"/>
<ellipse cx="174.266" cy="15.9417" rx="7.12929" ry="7.97096" fill="black"/>
<ellipse cx="213.473" cy="57.7893" rx="7.12929" ry="7.97096" fill="black"/>
<ellipse cx="215.256" cy="73.7296" rx="3.56465" ry="3.98548" fill="black"/>
<ellipse cx="195.653" cy="69.7444" rx="7.12929" ry="7.97096" fill="black"/>
<ellipse cx="215.253" cy="115.576" rx="5.34697" ry="5.97822" fill="black"/>
<ellipse cx="320.418" cy="127.535" rx="7.12929" ry="7.97096" fill="black"/>
<ellipse cx="341.8" cy="141.484" rx="5.34697" ry="5.97822" fill="black"/>
<ellipse cx="357.852" cy="169.383" rx="7.12929" ry="7.97096" fill="black"/>
<ellipse cx="372.102" cy="149.457" rx="7.12929" ry="7.97096" fill="black"/>
<ellipse cx="423.791" cy="203.261" rx="3.56465" ry="3.98548" fill="black"/>
<ellipse cx="397.049" cy="247.101" rx="3.56465" ry="3.98548" fill="black"/>
<ellipse cx="240.207" cy="173.369" rx="7.12929" ry="7.97096" fill="black"/>
<ellipse cx="220.602" cy="251.086" rx="7.12929" ry="7.97096" fill="black"/>
<ellipse cx="179.617" cy="269.021" rx="5.34697" ry="5.97822" fill="black"/>
<ellipse cx="240.207" cy="37.8616" rx="7.12929" ry="7.97096" fill="black"/>
<ellipse cx="258.039" cy="7.97096" rx="7.12929" ry="7.97096" fill="black"/>
<ellipse cx="327.546" cy="35.8688" rx="5.34697" ry="5.97822" fill="black"/>
<line y1="-0.5" x2="40.9935" y2="-0.5" transform="matrix(0.95652 -0.291667 0.236981 0.971514 101.191 97.6445)" stroke="black"/>
<line y1="-0.5" x2="57.5059" y2="-0.5" transform="matrix(0.960806 -0.277222 0.224902 0.974381 140.402 85.6855)" stroke="black"/>
<line y1="-0.5" x2="51.933" y2="-0.5" transform="matrix(-0.789352 -0.613941 0.528287 -0.849066 195.648 69.7441)" stroke="black"/>
<line y1="-0.5" x2="30.6257" y2="-0.5" transform="matrix(0.698364 -0.715743 0.634022 0.773315 152.875 37.8613)" stroke="black"/>
<line y1="-0.5" x2="58.8173" y2="-0.5" transform="matrix(0.666659 0.745363 -0.666659 0.745363 174.27 13.9492)" stroke="black"/>
<line y1="-0.5" x2="34.7898" y2="-0.5" transform="matrix(0.819699 -0.572794 0.487942 0.872876 211.691 57.791)" stroke="black"/>
<line y1="-0.5" x2="34.8015" y2="-0.5" transform="matrix(0.51214 -0.858902 0.801778 0.597622 240.215 37.8613)" stroke="black"/>
<line y1="-0.5" x2="78.9523" y2="-0.5" transform="matrix(0.925562 0.378597 -0.310996 0.950411 256.254 7.9707)" stroke="black"/>
<line x1="213.973" y1="55.7969" x2="213.973" y2="73.7315" stroke="black"/>
<line x1="213.973" y1="73.7324" x2="213.973" y2="119.565" stroke="black"/>
<line y1="-0.5" x2="51.0389" y2="-0.5" transform="matrix(-0.349209 -0.937045 0.906464 -0.422283 213.473 117.572)" stroke="black"/>
<line y1="-0.5" x2="63.6739" y2="-0.5" transform="matrix(0.419871 0.907584 -0.865667 0.50062 213.473 115.58)" stroke="black"/>
<line y1="-0.5" x2="79.7344" y2="-0.5" transform="matrix(-0.223533 0.974696 -0.961278 -0.27558 238.426 173.365)" stroke="black"/>
<line y1="-0.5" x2="40.6824" y2="-0.5" transform="matrix(-0.920024 0.391862 -0.32252 -0.946563 218.816 251.084)" stroke="black"/>
<line y1="-0.5" x2="93.9282" y2="-0.5" transform="matrix(0.872867 -0.487958 0.408241 0.912874 238.426 173.365)" stroke="black"/>
<line y1="-0.5" x2="107.403" y2="-0.5" transform="matrix(0.995688 0.0927696 -0.0743279 0.997234 213.473 117.572)" stroke="black"/>
<line y1="-0.5" x2="29.6104" y2="-0.5" transform="matrix(0.842696 0.53839 -0.455097 0.890442 318.637 127.533)" stroke="black"/>
<line y1="-0.5" x2="30.8836" y2="-0.5" transform="matrix(0.981086 0.193572 -0.155907 0.987772 341.805 143.477)" stroke="black"/>
<line y1="-0.5" x2="74.8584" y2="-0.5" transform="matrix(0.666659 0.745363 -0.666659 0.745363 372.102 149.457)" stroke="black"/>
<line y1="-0.5" x2="30.4698" y2="-0.5" transform="matrix(0.526452 0.850205 -0.790783 0.612097 341.805 143.477)" stroke="black"/>
<line y1="-0.5" x2="92.425" y2="-0.5" transform="matrix(0.424248 0.905546 -0.862908 0.505361 357.848 167.389)" stroke="black"/>
<ellipse rx="7.11579" ry="6.50783" transform="matrix(0.277917 0.960605 -0.940569 0.339603 277.439 336.778)" fill="black"/>
<ellipse rx="9.48772" ry="8.6771" transform="matrix(0.277917 0.960605 -0.940569 0.339603 341.909 411.643)" fill="black"/>
<ellipse rx="9.48772" ry="8.6771" transform="matrix(0.277917 0.960605 -0.940569 0.339603 297.968 477.838)" fill="black"/>
<ellipse rx="9.48772" ry="8.6771" transform="matrix(0.277917 0.960605 -0.940569 0.339603 186.061 480.502)" fill="black"/>
<ellipse rx="7.11579" ry="6.50783" transform="matrix(0.277917 0.960605 -0.940569 0.339603 161.11 464.342)" fill="black"/>
<ellipse rx="7.11579" ry="6.50783" transform="matrix(0.277917 0.960605 -0.940569 0.339603 142.263 445.977)" fill="black"/>
<ellipse rx="4.74386" ry="4.33855" transform="matrix(0.277917 0.960605 -0.940569 0.339603 224.042 479.364)" fill="black"/>
<ellipse rx="7.11579" ry="6.50783" transform="matrix(0.277917 0.960605 -0.940569 0.339603 160.599 524.919)" fill="black"/>
<ellipse rx="4.74386" ry="4.33855" transform="matrix(0.277917 0.960605 -0.940569 0.339603 81.9018 611.216)" fill="black"/>
<ellipse rx="7.11579" ry="6.50783" transform="matrix(0.277917 0.960605 -0.940569 0.339603 16.669 463.641)" fill="black"/>
<line y1="-0.5" x2="101.272" y2="-0.5" transform="matrix(0.636657 0.739236 -0.699472 0.751356 277.43 336.779)" stroke="black"/>
<line y1="-0.5" x2="78.7906" y2="-0.5" transform="matrix(-0.583651 0.849515 -0.736841 -0.63132 343.949 410.904)" stroke="black"/>
<line y1="-0.5" x2="78.2343" y2="-0.5" transform="matrix(-0.979407 -0.000201935 0.000369434 -1.01748 297.965 477.842)" stroke="black"/>
<line y1="-0.5" x2="35.9818" y2="-0.5" transform="matrix(-0.980563 0.0742914 -0.0612839 -1.01213 221.336 477.828)" stroke="black"/>
<line y1="-0.5" x2="27.5114" y2="-0.5" transform="matrix(-0.808959 -0.531155 0.480782 -0.913043 186.055 480.496)" stroke="black"/>
<line y1="-0.5" x2="28.1636" y2="-0.5" transform="matrix(-0.741187 -0.625916 0.577983 -0.853528 165.852 465.146)" stroke="black"/>
<line y1="-0.5" x2="166.239" y2="-0.5" transform="matrix(0.788533 -0.648018 0.540113 0.819826 146.348 444.504)" stroke="black"/>
<line y1="-0.5" x2="133.232" y2="-0.5" transform="matrix(0.978227 -0.126544 0.104148 1.00603 14.6367 464.385)" stroke="black"/>
<line y1="-0.5" x2="51.2579" y2="-0.5" transform="matrix(-0.536455 0.881022 -0.771658 -0.585923 186.719 482.775)" stroke="black"/>
<line y1="-0.5" x2="109.591" y2="-0.5" transform="matrix(-0.711486 0.739105 -0.62482 -0.750195 159.223 527.936)" stroke="black"/>
<ellipse cx="691.693" cy="16.3757" rx="5.7052" ry="6.37573" fill="black"/>
<ellipse cx="684.56" cy="49.848" rx="2.8526" ry="3.18787" fill="black"/>
<ellipse cx="690.267" cy="115.2" rx="4.2789" ry="4.7818" fill="black"/>
<ellipse cx="669.589" cy="186.129" rx="3.56575" ry="3.98483" fill="black"/>
<ellipse cx="646.057" cy="204.46" rx="5.7052" ry="6.37573" fill="black"/>
<ellipse cx="624.658" cy="191.71" rx="5.7052" ry="6.37573" fill="black"/>
<ellipse cx="591.136" cy="171.782" rx="3.56575" ry="3.98483" fill="black"/>
<ellipse cx="573.311" cy="129.546" rx="5.7052" ry="6.37573" fill="black"/>
<ellipse cx="554.062" cy="125.559" rx="3.56575" ry="3.98483" fill="black"/>
<ellipse cx="531.955" cy="116.794" rx="5.7052" ry="6.37573" fill="black"/>
<ellipse cx="521.963" cy="153.454" rx="5.7052" ry="6.37573" fill="black"/>
<ellipse cx="561.901" cy="229.964" rx="5.7052" ry="6.37573" fill="black"/>
<ellipse cx="578.3" cy="240.327" rx="3.56575" ry="3.98483" fill="black"/>
<ellipse cx="584.733" cy="260.249" rx="5.7052" ry="6.37573" fill="black"/>
<ellipse cx="557.623" cy="266.624" rx="5.7052" ry="6.37573" fill="black"/>
<line y1="-0.5" x2="36.9099" y2="-0.5" transform="matrix(-0.11593 0.993257 -0.989543 -0.14424 561.898 229.961)" stroke="black"/>
<line y1="-0.5" x2="86.3047" y2="-0.5" transform="matrix(0.462737 0.886496 -0.837718 0.546102 521.965 153.455)" stroke="black"/>
<line y1="-0.5" x2="26.4922" y2="-0.5" transform="matrix(0.430708 0.902492 -0.858999 0.511977 510.555 129.545)" stroke="black"/>
<line y1="-0.5" x2="23.6924" y2="-0.5" transform="matrix(0.842811 -0.53821 0.455267 0.890355 511.984 129.545)" stroke="black"/>
<line y1="-0.5" x2="23.4347" y2="-0.5" transform="matrix(0.912939 0.408095 -0.336995 0.941506 531.945 116.793)" stroke="black"/>
<line y1="-0.5" x2="20.2211" y2="-0.5" transform="matrix(0.987495 0.157651 -0.126801 0.991928 553.348 126.357)" stroke="black"/>
<line y1="-0.5" x2="44.8375" y2="-0.5" transform="matrix(0.381725 0.924276 -0.888746 0.4584 573.316 129.545)" stroke="black"/>
<line y1="-0.5" x2="39.2126" y2="-0.5" transform="matrix(0.872965 0.487782 -0.408402 0.912802 590.426 172.582)" stroke="black"/>
<line y1="-0.5" x2="25.7588" y2="-0.5" transform="matrix(0.830571 0.556913 -0.473032 0.881045 624.664 191.709)" stroke="black"/>
<line y1="-0.5" x2="30.8832" y2="-0.5" transform="matrix(0.785123 -0.61934 0.534033 0.845464 646.055 204.461)" stroke="black"/>
<line y1="-0.5" x2="74.4546" y2="-0.5" transform="matrix(0.268193 -0.963365 0.944541 0.328394 670.301 186.93)" stroke="black"/>
<line y1="-0.5" x2="65.4915" y2="-0.5" transform="matrix(-0.0653355 -0.997863 0.996674 -0.0814985 690.27 115.197)" stroke="black"/>
<line y1="-0.5" x2="34.2244" y2="-0.5" transform="matrix(-0.208378 0.978049 -0.966376 -0.257132 691.699 16.375)" stroke="black"/>
<line y1="-0.5" x2="26.4532" y2="-0.5" transform="matrix(0.97052 -0.241019 0.195033 0.980797 559.055 266.621)" stroke="black"/>
<line y1="-0.5" x2="20.4143" y2="-0.5" transform="matrix(0.349353 0.936991 -0.90654 0.422119 577.598 241.121)" stroke="black"/>
<line y1="-0.5" x2="20.4312" y2="-0.5" transform="matrix(0.837718 0.546102 -0.462737 0.886496 561.898 229.961)" stroke="black"/>
<ellipse cx="603.264" cy="140.7" rx="5.7052" ry="6.37573" fill="black"/>
<ellipse cx="714.022" cy="708.294" rx="5.99501" ry="6.70586" fill="black"/>
<ellipse cx="704.032" cy="668.058" rx="7.99335" ry="8.94114" fill="black"/>
<ellipse cx="676.047" cy="636.766" rx="3.99668" ry="4.47057" fill="black"/>
<ellipse cx="670.06" cy="605.47" rx="7.99335" ry="8.94114" fill="black"/>
<ellipse cx="670.054" cy="580.882" rx="5.99501" ry="6.70586" fill="black"/>
<ellipse cx="648.071" cy="580.881" rx="7.99335" ry="8.94114" fill="black"/>
<ellipse cx="628.094" cy="598.764" rx="3.99668" ry="4.47057" fill="black"/>
<ellipse cx="606.107" cy="580.881" rx="7.99335" ry="8.94114" fill="black"/>
<ellipse cx="590.118" cy="551.822" rx="7.99335" ry="8.94114" fill="black"/>
<ellipse cx="558.145" cy="540.646" rx="3.99668" ry="4.47057" fill="black"/>
<ellipse cx="544.165" cy="547.351" rx="7.99335" ry="8.94114" fill="black"/>
<ellipse cx="526.182" cy="518.294" rx="5.99501" ry="6.70586" fill="black"/>
<ellipse cx="566.146" cy="475.824" rx="7.99335" ry="8.94114" fill="black"/>
<ellipse cx="582.126" cy="478.06" rx="3.99668" ry="4.47057" fill="black"/>
<ellipse cx="594.114" cy="462.41" rx="7.99335" ry="8.94114" fill="black"/>
<ellipse cx="612.097" cy="453.473" rx="5.99501" ry="6.70586" fill="black"/>
<ellipse cx="634.087" cy="462.41" rx="7.99335" ry="8.94114" fill="black"/>
<ellipse cx="654.067" cy="475.822" rx="3.99668" ry="4.47057" fill="black"/>
<ellipse cx="670.054" cy="455.706" rx="5.99501" ry="6.70586" fill="black"/>
<ellipse cx="678.048" cy="435.588" rx="7.99335" ry="8.94114" fill="black"/>
<ellipse cx="688.042" cy="411.001" rx="5.99501" ry="6.70586" fill="black"/>
<ellipse cx="670.06" cy="379.709" rx="7.99335" ry="8.94114" fill="black"/>
<ellipse cx="640.085" cy="372.999" rx="5.99501" ry="6.70586" fill="black"/>
<ellipse cx="616.099" cy="375.234" rx="7.99335" ry="8.94114" fill="black"/>
<ellipse cx="598.112" cy="377.473" rx="5.99501" ry="6.70586" fill="black"/>
<ellipse cx="590.118" cy="397.586" rx="7.99335" ry="8.94114" fill="black"/>
<ellipse cx="568.14" cy="404.294" rx="5.99501" ry="6.70586" fill="black"/>
<ellipse cx="550.157" cy="366.293" rx="7.99335" ry="8.94114" fill="black"/>
<ellipse cx="520.185" cy="417.705" rx="7.99335" ry="8.94114" fill="black"/>
<ellipse cx="514.186" cy="348.413" rx="5.99501" ry="6.70586" fill="black"/>
<ellipse cx="494.204" cy="343.941" rx="7.99335" ry="8.94114" fill="black"/>
<ellipse cx="462.229" cy="361.823" rx="5.99501" ry="6.70586" fill="black"/>
<line y1="-0.5" x2="38.3908" y2="-0.5" transform="matrix(0.884892 -0.465796 0.387784 0.92175 460.227 361.824)" stroke="black"/>
<line y1="-0.5" x2="22.4319" y2="-0.5" transform="matrix(0.979939 0.199297 -0.160439 0.987046 494.207 343.941)" stroke="black"/>
<line y1="-0.5" x2="41.9688" y2="-0.5" transform="matrix(0.904683 0.426086 -0.352288 0.935892 512.191 348.414)" stroke="black"/>
<line y1="-0.5" x2="44.9244" y2="-0.5" transform="matrix(0.444822 0.895619 -0.849358 0.527816 550.16 366.293)" stroke="black"/>
<line y1="-0.5" x2="23.7312" y2="-0.5" transform="matrix(0.926304 -0.376778 0.309163 0.951009 568.141 406.527)" stroke="black"/>
<line y1="-0.5" x2="21.6474" y2="-0.5" transform="matrix(0.369252 -0.929329 0.895448 0.445166 590.121 399.826)" stroke="black"/>
<line y1="-0.5" x2="18.5325" y2="-0.5" transform="matrix(0.970468 -0.241231 0.194858 0.980832 598.113 379.705)" stroke="black"/>
<line x1="614.109" y1="374.734" x2="642.086" y2="374.734" stroke="black"/>
<line y1="-0.5" x2="28.0659" y2="-0.5" transform="matrix(0.996823 0.0796443 -0.0637271 0.997967 642.082 375.234)" stroke="black"/>
<line y1="-0.5" x2="42.0411" y2="-0.5" transform="matrix(0.427797 0.903875 -0.860445 0.509543 670.055 375.234)" stroke="black"/>
<line y1="-0.5" x2="26.5407" y2="-0.5" transform="matrix(-0.376466 0.92643 -0.891397 -0.453224 688.047 410.998)" stroke="black"/>
<line y1="-0.5" x2="19.5875" y2="-0.5" transform="matrix(-0.408084 0.912944 -0.872771 -0.488129 678.055 435.588)" stroke="black"/>
<line y1="-0.5" x2="27.4814" y2="-0.5" transform="matrix(-0.581729 0.813383 -0.745196 -0.666845 670.055 453.469)" stroke="black"/>
<line y1="-0.5" x2="24.0668" y2="-0.5" transform="matrix(0.830331 0.557271 -0.472689 0.881229 634.09 462.408)" stroke="black"/>
<line y1="-0.5" x2="23.7312" y2="-0.5" transform="matrix(0.926304 0.376778 -0.309163 0.951009 612.098 453.469)" stroke="black"/>
<line y1="-0.5" x2="22.9822" y2="-0.5" transform="matrix(0.956482 -0.29179 0.236878 0.971539 592.117 460.172)" stroke="black"/>
<line y1="-0.5" x2="21.5299" y2="-0.5" transform="matrix(0.556901 -0.830579 0.766109 0.642711 582.125 480.293)" stroke="black"/>
<line y1="-0.5" x2="16.6002" y2="-0.5" transform="matrix(0.963053 0.269311 -0.218118 0.975923 566.141 475.824)" stroke="black"/>
<line y1="-0.5" x2="58.6532" y2="-0.5" transform="matrix(0.647337 -0.762204 0.685315 0.728246 528.18 520.529)" stroke="black"/>
<line y1="-0.5" x2="30.2518" y2="-0.5" transform="matrix(0.462398 0.886673 -0.837485 0.54646 528.18 520.529)" stroke="black"/>
<line y1="-0.5" x2="16.6026" y2="-0.5" transform="matrix(-0.842583 0.538566 -0.45493 -0.890527 558.152 538.41)" stroke="black"/>
<line y1="-0.5" x2="33.8712" y2="-0.5" transform="matrix(-0.94399 -0.329975 0.269071 -0.96312 590.121 549.588)" stroke="black"/>
<line y1="-0.5" x2="33.166" y2="-0.5" transform="matrix(-0.482021 -0.87616 0.823714 -0.567006 606.102 580.883)" stroke="black"/>
<line y1="-0.5" x2="28.3368" y2="-0.5" transform="matrix(-0.775731 -0.631063 0.545094 -0.838375 628.09 598.764)" stroke="black"/>
<line y1="-0.5" x2="26.8163" y2="-0.5" transform="matrix(-0.745196 0.666845 -0.581729 -0.813383 648.074 580.883)" stroke="black"/>
<line x1="670.055" y1="581.383" x2="648.073" y2="581.383" stroke="black"/>
<line x1="669.555" y1="605.473" x2="669.555" y2="580.885" stroke="black"/>
<line y1="-0.5" x2="32.2987" y2="-0.5" transform="matrix(-0.247482 -0.968893 0.952537 -0.304423 678.055 636.762)" stroke="black"/>
<line y1="-0.5" x2="40.6718" y2="-0.5" transform="matrix(-0.638733 -0.769429 0.693568 -0.720391 704.031 668.055)" stroke="black"/>
<line y1="-0.5" x2="44.1305" y2="-0.5" transform="matrix(-0.271695 -0.962383 0.942904 -0.333065 716.02 710.529)" stroke="black"/>
<ellipse cx="125.666" cy="725.464" rx="5.73246" ry="6.41858" fill="black"/>
<ellipse cx="164.366" cy="638.815" rx="2.86623" ry="3.20929" fill="black"/>
<ellipse cx="177.26" cy="736.699" rx="4.29935" ry="4.81393" fill="black"/>
<ellipse cx="198.756" cy="738.303" rx="5.73246" ry="6.41858" fill="black"/>
<ellipse cx="221.689" cy="794.465" rx="5.73246" ry="6.41858" fill="black"/>
<ellipse cx="258.951" cy="788.046" rx="5.73246" ry="6.41858" fill="black"/>
<ellipse cx="253.221" cy="719.049" rx="5.73246" ry="6.41858" fill="black"/>
<ellipse cx="267.549" cy="680.533" rx="4.29935" ry="4.81393" fill="black"/>
<ellipse cx="287.611" cy="640.419" rx="5.73246" ry="6.41858" fill="black"/>
<ellipse cx="309.111" cy="656.465" rx="5.73246" ry="6.41858" fill="black"/>
<ellipse cx="333.472" cy="672.512" rx="2.86623" ry="3.20929" fill="black"/>
<ellipse rx="5.73246" ry="6.41858" transform="matrix(-1 0 0 1 281.881 882.717)" fill="black"/>
<ellipse rx="2.86623" ry="3.20929" transform="matrix(-1 0 0 1 304.81 906.791)" fill="black"/>
<ellipse rx="5.73246" ry="6.41858" transform="matrix(-1 0 0 1 193.025 852.233)" fill="black"/>
<ellipse rx="4.29935" ry="4.81393" transform="matrix(-1 0 0 1 138.568 820.138)" fill="black"/>
<ellipse rx="5.73246" ry="6.41858" transform="matrix(-1 0 0 1 114.201 800.883)" fill="black"/>
<ellipse rx="2.86623" ry="3.20929" transform="matrix(-1 0 0 1 88.4111 805.696)" fill="black"/>
<line y1="-0.5" x2="92.8506" y2="-0.5" transform="matrix(-0.401301 0.915946 -0.876482 -0.481435 162.926 640.418)" stroke="black"/>
<line y1="-0.5" x2="53.8923" y2="-0.5" transform="matrix(-0.983913 -0.17865 0.143332 -0.989675 178.695 735.094)" stroke="black"/>
<line y1="-0.5" x2="20.3193" y2="-0.5" transform="matrix(-0.987447 -0.157948 0.12656 -0.991959 198.758 738.299)" stroke="black"/>
<line y1="-0.5" x2="58.317" y2="-0.5" transform="matrix(-0.933834 0.357707 -0.292201 -0.956357 253.219 717.443)" stroke="black"/>
<line y1="-0.5" x2="60.6631" y2="-0.5" transform="matrix(-0.377987 -0.925811 0.890165 -0.455638 221.688 794.465)" stroke="black"/>
<line y1="-0.5" x2="70.8371" y2="-0.5" transform="matrix(-0.080925 -0.99672 0.994859 -0.101267 258.949 788.047)" stroke="black"/>
<line y1="-0.5" x2="40.6374" y2="-0.5" transform="matrix(0.987447 -0.157948 0.12656 0.991959 218.824 794.465)" stroke="black"/>
<line y1="-0.5" x2="38.1002" y2="-0.5" transform="matrix(0.376144 -0.926561 0.891214 0.453583 253.219 717.443)" stroke="black"/>
<line y1="-0.5" x2="46.2944" y2="-0.5" transform="matrix(0.433392 -0.901205 0.856392 0.516327 267.547 682.139)" stroke="black"/>
<line y1="-0.5" x2="27.9869" y2="-0.5" transform="matrix(0.819307 0.573356 -0.4874 0.873179 286.176 640.418)" stroke="black"/>
<line y1="-0.5" x2="30.3797" y2="-0.5" transform="matrix(-0.849122 -0.528196 0.444466 -0.895796 334.906 672.51)" stroke="black"/>
<line y1="-0.5" x2="97.4113" y2="-0.5" transform="matrix(-0.235392 -0.9719 0.956861 -0.290546 281.879 882.721)" stroke="black"/>
<line y1="-0.5" x2="34.4231" y2="-0.5" transform="matrix(0.666119 0.745846 -0.666119 0.745846 280.449 881.115)" stroke="black"/>
<line y1="-0.5" x2="64.4501" y2="-0.5" transform="matrix(0.867206 0.497949 -0.416406 0.909179 137.133 820.139)" stroke="black"/>
<line y1="-0.5" x2="65.9284" y2="-0.5" transform="matrix(-0.43475 0.900551 -0.85551 -0.517787 221.688 792.857)" stroke="black"/>
<line y1="-0.5" x2="32.0735" y2="-0.5" transform="matrix(0.759598 0.650393 -0.563982 0.825787 112.773 799.279)" stroke="black"/>
<line y1="-0.5" x2="28.3866" y2="-0.5" transform="matrix(0.959226 -0.282641 0.228793 0.973475 86.9766 807.303)" stroke="black"/>
<mask id="mask0_851_24505" style="mask-type:alpha" maskUnits="userSpaceOnUse" x="85" y="634" width="252" height="276">
<ellipse cx="125.666" cy="725.464" rx="5.73246" ry="6.41858" fill="black"/>
<ellipse cx="164.366" cy="638.815" rx="2.86623" ry="3.20929" fill="black"/>
<ellipse cx="177.26" cy="736.699" rx="4.29935" ry="4.81393" fill="black"/>
<ellipse cx="198.756" cy="738.303" rx="5.73246" ry="6.41858" fill="black"/>
<ellipse cx="221.689" cy="794.465" rx="5.73246" ry="6.41858" fill="black"/>
<ellipse cx="258.951" cy="788.046" rx="5.73246" ry="6.41858" fill="black"/>
<ellipse cx="253.221" cy="719.049" rx="5.73246" ry="6.41858" fill="black"/>
<ellipse cx="267.549" cy="680.533" rx="4.29935" ry="4.81393" fill="black"/>
<ellipse cx="287.611" cy="640.419" rx="5.73246" ry="6.41858" fill="black"/>
<ellipse cx="309.111" cy="656.465" rx="5.73246" ry="6.41858" fill="black"/>
<ellipse cx="333.472" cy="672.512" rx="2.86623" ry="3.20929" fill="black"/>
<ellipse rx="5.73246" ry="6.41858" transform="matrix(-1 0 0 1 281.881 882.717)" fill="black"/>
<ellipse rx="2.86623" ry="3.20929" transform="matrix(-1 0 0 1 304.81 906.791)" fill="black"/>
<ellipse rx="5.73246" ry="6.41858" transform="matrix(-1 0 0 1 193.025 852.233)" fill="black"/>
<ellipse rx="4.29935" ry="4.81393" transform="matrix(-1 0 0 1 138.568 820.138)" fill="black"/>
<ellipse rx="5.73246" ry="6.41858" transform="matrix(-1 0 0 1 114.201 800.883)" fill="black"/>
<ellipse rx="2.86623" ry="3.20929" transform="matrix(-1 0 0 1 88.4111 805.696)" fill="black"/>
<line y1="-0.5" x2="92.8506" y2="-0.5" transform="matrix(-0.401301 0.915946 -0.876482 -0.481435 162.926 640.418)" stroke="black"/>
<line y1="-0.5" x2="53.8923" y2="-0.5" transform="matrix(-0.983913 -0.17865 0.143332 -0.989675 178.695 735.094)" stroke="black"/>
<line y1="-0.5" x2="20.3193" y2="-0.5" transform="matrix(-0.987447 -0.157948 0.12656 -0.991959 198.758 738.299)" stroke="black"/>
<line y1="-0.5" x2="58.317" y2="-0.5" transform="matrix(-0.933834 0.357707 -0.292201 -0.956357 253.219 717.443)" stroke="black"/>
<line y1="-0.5" x2="60.6631" y2="-0.5" transform="matrix(-0.377987 -0.925811 0.890165 -0.455638 221.688 794.465)" stroke="black"/>
<line y1="-0.5" x2="70.8371" y2="-0.5" transform="matrix(-0.080925 -0.99672 0.994859 -0.101267 258.949 788.047)" stroke="black"/>
<line y1="-0.5" x2="40.6374" y2="-0.5" transform="matrix(0.987447 -0.157948 0.12656 0.991959 218.824 794.465)" stroke="black"/>
<line y1="-0.5" x2="38.1002" y2="-0.5" transform="matrix(0.376144 -0.926561 0.891214 0.453583 253.219 717.443)" stroke="black"/>
<line y1="-0.5" x2="46.2944" y2="-0.5" transform="matrix(0.433392 -0.901205 0.856392 0.516327 267.547 682.139)" stroke="black"/>
<line y1="-0.5" x2="27.9869" y2="-0.5" transform="matrix(0.819307 0.573356 -0.4874 0.873179 286.176 640.418)" stroke="black"/>
<line y1="-0.5" x2="30.3797" y2="-0.5" transform="matrix(-0.849122 -0.528196 0.444466 -0.895796 334.906 672.51)" stroke="black"/>
<line y1="-0.5" x2="97.4113" y2="-0.5" transform="matrix(-0.235392 -0.9719 0.956861 -0.290546 281.879 882.721)" stroke="black"/>
<line y1="-0.5" x2="34.4231" y2="-0.5" transform="matrix(0.666119 0.745846 -0.666119 0.745846 280.449 881.115)" stroke="black"/>
<line y1="-0.5" x2="64.4501" y2="-0.5" transform="matrix(0.867206 0.497949 -0.416406 0.909179 137.133 820.139)" stroke="black"/>
<line y1="-0.5" x2="65.9284" y2="-0.5" transform="matrix(-0.43475 0.900551 -0.85551 -0.517787 221.688 792.857)" stroke="black"/>
<line y1="-0.5" x2="32.0735" y2="-0.5" transform="matrix(0.759598 0.650393 -0.563982 0.825787 112.773 799.279)" stroke="black"/>
<line y1="-0.5" x2="28.3866" y2="-0.5" transform="matrix(0.959226 -0.282641 0.228793 0.973475 86.9766 807.303)" stroke="black"/>
</mask>
<g mask="url(#mask0_851_24505)">
<rect width="315.652" height="181.79" transform="matrix(1 0 0 -1 59.6523 953.631)" fill="black"/>
</g>
<ellipse rx="4.21627" ry="4.21308" transform="matrix(0.418165 0.908371 -0.908001 0.418968 395.883 739.267)" fill="black"/>
<ellipse rx="6.3244" ry="6.31962" transform="matrix(0.418165 0.908371 -0.908001 0.418968 444.414 754.018)" fill="black"/>
<ellipse rx="8.43253" ry="8.42616" transform="matrix(0.418165 0.908371 -0.908001 0.418968 462.461 838.561)" fill="black"/>
<ellipse rx="6.3244" ry="6.31962" transform="matrix(0.418165 0.908371 -0.908001 0.418968 481.727 855.213)" fill="black"/>
<ellipse rx="4.21627" ry="4.21308" transform="matrix(0.418165 0.908371 -0.908001 0.418968 509.82 860.826)" fill="black"/>
<ellipse rx="8.43253" ry="8.42616" transform="matrix(0.418165 0.908371 -0.908001 0.418968 568.664 847.6)" fill="black"/>
<ellipse rx="6.3244" ry="6.31962" transform="matrix(0.418165 0.908371 -0.908001 0.418968 579.395 865.869)" fill="black"/>
<ellipse rx="8.43253" ry="8.42616" transform="matrix(0.418165 0.908371 -0.908001 0.418968 583.352 889.581)" fill="black"/>
<ellipse rx="8.43253" ry="8.42616" transform="matrix(0.418165 0.908371 -0.908001 0.418968 615.567 884.003)" fill="black"/>
<ellipse rx="6.3244" ry="6.31962" transform="matrix(0.418165 0.908371 -0.908001 0.418968 611.875 911.244)" fill="black"/>
<ellipse rx="8.43253" ry="8.42616" transform="matrix(0.418165 0.908371 -0.908001 0.418968 640.852 918.77)" fill="black"/>
<ellipse rx="8.43253" ry="8.42616" transform="matrix(0.418165 0.908371 -0.908001 0.418968 671.024 888.596)" fill="black"/>
<ellipse rx="6.3244" ry="6.31962" transform="matrix(0.418165 0.908371 -0.908001 0.418968 689.403 903.334)" fill="black"/>
<ellipse rx="8.43253" ry="8.42616" transform="matrix(0.418165 0.908371 -0.908001 0.418968 705.719 923.665)" fill="black"/>
<ellipse rx="6.3244" ry="6.31962" transform="matrix(0.418165 0.908371 -0.908001 0.418968 693.492 952.523)" fill="black"/>
<ellipse rx="4.21627" ry="4.21308" transform="matrix(0.418165 0.908371 -0.908001 0.418968 709.809 972.857)" fill="black"/>
<ellipse rx="6.3244" ry="6.31962" transform="matrix(0.418165 0.908371 -0.908001 0.418968 727.324 955.486)" fill="black"/>
<ellipse rx="6.3244" ry="6.31962" transform="matrix(0.418165 0.908371 -0.908001 0.418968 726.16 932.809)" fill="black"/>
<line y1="-0.5" x2="53.644" y2="-0.5" transform="matrix(0.93761 0.346415 -0.346012 0.938701 393.09 738.232)" stroke="black"/>
<line y1="-0.5" x2="83.9265" y2="-0.5" transform="matrix(0.227323 0.973998 -0.973542 0.227746 443.387 756.816)" stroke="black"/>
<line y1="-0.5" x2="26.075" y2="-0.5" transform="matrix(0.625764 0.779746 -0.779359 0.62691 464.379 837.678)" stroke="black"/>
<line y1="-0.5" x2="30.388" y2="-0.5" transform="matrix(0.987404 0.155616 -0.15539 0.988266 480.691 858.01)" stroke="black"/>
<line y1="-0.5" x2="60.3241" y2="-0.5" transform="matrix(0.975497 -0.219187 0.218781 0.97596 510.699 862.738)" stroke="black"/>
<line y1="-0.5" x2="21.1863" y2="-0.5" transform="matrix(0.325811 0.945527 -0.945128 0.326432 571.461 848.635)" stroke="black"/>
<line y1="-0.5" x2="21.4982" y2="-0.5" transform="matrix(0.232112 0.972864 -0.972411 0.232544 578.363 868.666)" stroke="black"/>
<line y1="-0.5" x2="32.7039" y2="-0.5" transform="matrix(0.98512 -0.170583 0.170273 0.98562 583.352 889.582)" stroke="black"/>
<line y1="-0.5" x2="31.6134" y2="-0.5" transform="matrix(-0.209914 0.978154 -0.977223 -0.210203 617.484 883.119)" stroke="black"/>
<line y1="-0.5" x2="30.388" y2="-0.5" transform="matrix(0.987404 0.155616 -0.15539 0.988266 610.848 914.043)" stroke="black"/>
<line y1="-0.5" x2="39.9718" y2="-0.5" transform="matrix(0.729015 -0.684886 0.683676 0.729422 642.762 917.889)" stroke="black"/>
<line y1="-0.5" x2="24.6729" y2="-0.5" transform="matrix(0.703119 0.710673 -0.710258 0.704345 671.02 888.598)" stroke="black"/>
<line y1="-0.5" x2="24.0352" y2="-0.5" transform="matrix(0.642194 0.766249 -0.765857 0.64336 690.281 905.25)" stroke="black"/>
<line y1="-0.5" x2="21.7007" y2="-0.5" transform="matrix(0.806317 0.590849 -0.590398 0.807577 707.629 922.783)" stroke="black"/>
<line y1="-0.5" x2="23.5661" y2="-0.5" transform="matrix(-0.0317503 0.99985 -0.99914 -0.0318017 727.043 934.723)" stroke="black"/>
<line y1="-0.5" x2="19.422" y2="-0.5" transform="matrix(-0.795569 0.606172 -0.605053 -0.79595 724.379 959.168)" stroke="black"/>
<line y1="-0.5" x2="25.4694" y2="-0.5" transform="matrix(-0.756231 -0.653796 0.65336 -0.757487 711.723 971.973)" stroke="black"/>
<line y1="-0.5" x2="34.3038" y2="-0.5" transform="matrix(0.386425 -0.922798 0.921665 0.38685 692.465 955.32)" stroke="black"/>
<mask id="mask1_851_24505" style="mask-type:alpha" maskUnits="userSpaceOnUse" x="391" y="735" width="343" height="243">
<ellipse rx="8.43253" ry="8.42616" transform="matrix(0.418165 0.908371 -0.908001 0.418968 462.453 838.561)" fill="black"/>
<ellipse rx="6.3244" ry="6.31962" transform="matrix(0.418165 0.908371 -0.908001 0.418968 481.715 855.213)" fill="black"/>
<ellipse rx="4.21627" ry="4.21308" transform="matrix(0.418165 0.908371 -0.908001 0.418968 509.809 860.826)" fill="black"/>
<ellipse rx="8.43253" ry="8.42616" transform="matrix(0.418165 0.908371 -0.908001 0.418968 568.656 847.602)" fill="black"/>
<ellipse rx="6.3244" ry="6.31962" transform="matrix(0.418165 0.908371 -0.908001 0.418968 579.387 865.869)" fill="black"/>
<ellipse rx="8.43253" ry="8.42616" transform="matrix(0.418165 0.908371 -0.908001 0.418968 583.344 889.581)" fill="black"/>
<ellipse rx="8.43253" ry="8.42616" transform="matrix(0.418165 0.908371 -0.908001 0.418968 615.559 884.003)" fill="black"/>
<ellipse rx="6.3244" ry="6.31962" transform="matrix(0.418165 0.908371 -0.908001 0.418968 611.867 911.244)" fill="black"/>
<ellipse rx="8.43253" ry="8.42616" transform="matrix(0.418165 0.908371 -0.908001 0.418968 640.84 918.77)" fill="black"/>
<ellipse rx="8.43253" ry="8.42616" transform="matrix(0.418165 0.908371 -0.908001 0.418968 671.012 888.598)" fill="black"/>
<ellipse rx="6.3244" ry="6.31962" transform="matrix(0.418165 0.908371 -0.908001 0.418968 689.391 903.334)" fill="black"/>
<ellipse rx="8.43253" ry="8.42616" transform="matrix(0.418165 0.908371 -0.908001 0.418968 705.711 923.667)" fill="black"/>
<ellipse rx="6.3244" ry="6.31962" transform="matrix(0.418165 0.908371 -0.908001 0.418968 693.485 952.525)" fill="black"/>
<ellipse rx="4.21627" ry="4.21308" transform="matrix(0.418165 0.908371 -0.908001 0.418968 709.797 972.857)" fill="black"/>
<ellipse rx="6.3244" ry="6.31962" transform="matrix(0.418165 0.908371 -0.908001 0.418968 727.313 955.488)" fill="black"/>
<ellipse rx="6.3244" ry="6.31962" transform="matrix(0.418165 0.908371 -0.908001 0.418968 726.153 932.809)" fill="black"/>
<ellipse rx="4.21627" ry="4.21308" transform="matrix(0.418165 0.908371 -0.908001 0.418968 395.879 739.269)" fill="black"/>
<ellipse rx="6.3244" ry="6.31962" transform="matrix(0.418165 0.908371 -0.908001 0.418968 444.414 754.02)" fill="black"/>
<line y1="-0.5" x2="53.644" y2="-0.5" transform="matrix(0.93761 0.346415 -0.346012 0.938701 393.086 738.234)" stroke="black"/>
<line y1="-0.5" x2="83.9265" y2="-0.5" transform="matrix(0.227323 0.973998 -0.973542 0.227746 443.387 756.818)" stroke="black"/>
<line y1="-0.5" x2="26.075" y2="-0.5" transform="matrix(0.625764 0.779746 -0.779359 0.62691 464.371 837.678)" stroke="black"/>
<line y1="-0.5" x2="30.388" y2="-0.5" transform="matrix(0.987404 0.155616 -0.15539 0.988266 480.684 858.012)" stroke="black"/>
<line y1="-0.5" x2="60.3241" y2="-0.5" transform="matrix(0.975497 -0.219187 0.218781 0.97596 510.691 862.738)" stroke="black"/>
<line y1="-0.5" x2="21.1863" y2="-0.5" transform="matrix(0.325811 0.945527 -0.945128 0.326432 571.453 848.635)" stroke="black"/>
<line y1="-0.5" x2="21.4982" y2="-0.5" transform="matrix(0.232112 0.972864 -0.972411 0.232544 578.352 868.666)" stroke="black"/>
<line y1="-0.5" x2="32.7039" y2="-0.5" transform="matrix(0.98512 -0.170583 0.170273 0.98562 583.34 889.582)" stroke="black"/>
<line y1="-0.5" x2="31.6134" y2="-0.5" transform="matrix(-0.209914 0.978154 -0.977223 -0.210203 617.473 883.121)" stroke="black"/>
<line y1="-0.5" x2="30.388" y2="-0.5" transform="matrix(0.987404 0.155616 -0.15539 0.988266 610.84 914.043)" stroke="black"/>
<line y1="-0.5" x2="39.9718" y2="-0.5" transform="matrix(0.729015 -0.684886 0.683676 0.729422 642.754 917.891)" stroke="black"/>
<line y1="-0.5" x2="24.6729" y2="-0.5" transform="matrix(0.703119 0.710673 -0.710258 0.704345 671.012 888.6)" stroke="black"/>
<line y1="-0.5" x2="24.0352" y2="-0.5" transform="matrix(0.642194 0.766249 -0.765857 0.64336 690.273 905.25)" stroke="black"/>
<line y1="-0.5" x2="21.7007" y2="-0.5" transform="matrix(0.806317 0.590849 -0.590398 0.807577 707.617 922.785)" stroke="black"/>
<line y1="-0.5" x2="23.5661" y2="-0.5" transform="matrix(-0.0317503 0.99985 -0.99914 -0.0318017 727.031 934.723)" stroke="black"/>
<line y1="-0.5" x2="19.422" y2="-0.5" transform="matrix(-0.795569 0.606172 -0.605053 -0.79595 724.371 959.168)" stroke="black"/>
<line y1="-0.5" x2="25.4694" y2="-0.5" transform="matrix(-0.756231 -0.653796 0.65336 -0.757487 711.711 971.975)" stroke="black"/>
<line y1="-0.5" x2="34.3038" y2="-0.5" transform="matrix(0.386425 -0.922798 0.921665 0.38685 692.453 955.322)" stroke="black"/>
</mask>
<g mask="url(#mask1_851_24505)">
<rect width="338.36" height="217.842" transform="matrix(1 0 0 -1 423.227 988.748)" fill="black"/>
</g>
<ellipse cx="121.384" cy="998.49" rx="5.71211" ry="5.71681" fill="black"/>
<ellipse cx="154.229" cy="1017.07" rx="4.28408" ry="4.28761" fill="black"/>
<ellipse cx="161.368" cy="1041.37" rx="5.71211" ry="5.71681" fill="black"/>
<ellipse cx="139.95" cy="1079.96" rx="2.85606" ry="2.85841" fill="black"/>
<ellipse cx="201.354" cy="964.19" rx="4.28408" ry="4.28761" fill="black"/>
<ellipse cx="218.489" cy="959.902" rx="5.71211" ry="5.71681" fill="black"/>
<ellipse cx="228.487" cy="969.907" rx="4.28408" ry="4.28761" fill="black"/>
<ellipse cx="255.618" cy="962.762" rx="5.71211" ry="5.71681" fill="black"/>
<ellipse cx="235.626" cy="1018.5" rx="5.71211" ry="5.71681" fill="black"/>
<ellipse cx="239.911" cy="1044.22" rx="5.71211" ry="5.71681" fill="black"/>
<ellipse cx="247.052" cy="1055.66" rx="5.71211" ry="5.71681" fill="black"/>
<ellipse cx="381.284" cy="1021.36" rx="4.28408" ry="4.28761" fill="black"/>
<ellipse cx="319.88" cy="1002.78" rx="5.71211" ry="5.71681" fill="black"/>
<line y1="-0.5" x2="87.5886" y2="-0.5" transform="matrix(0.913013 -0.407931 0.407371 0.913263 121.383 999.92)" stroke="black"/>
<line y1="-0.5" x2="16.2829" y2="-0.5" transform="matrix(0.964709 -0.263319 0.262916 0.964819 202.781 964.189)" stroke="black"/>
<line y1="-0.5" x2="17.2036" y2="-0.5" transform="matrix(0.664058 0.747681 -0.747138 0.664669 218.488 958.473)" stroke="black"/>
<line y1="-0.5" x2="26.3326" y2="-0.5" transform="matrix(0.976149 -0.217101 0.21676 0.976225 229.914 969.906)" stroke="black"/>
<line y1="-0.5" x2="78.8833" y2="-0.5" transform="matrix(0.850843 0.52542 -0.524794 0.851229 252.762 962.762)" stroke="black"/>
<line y1="-0.5" x2="66.5105" y2="-0.5" transform="matrix(0.966182 0.257861 -0.257465 0.966288 318.453 1004.21)" stroke="black"/>
<line y1="-0.5" x2="58.3137" y2="-0.5" transform="matrix(-0.293865 0.955847 -0.955711 -0.294307 252.762 962.762)" stroke="black"/>
<line y1="-0.5" x2="27.4913" y2="-0.5" transform="matrix(0.155837 0.987783 -0.987743 0.156088 235.625 1017.07)" stroke="black"/>
<line y1="-0.5" x2="13.48" y2="-0.5" transform="matrix(0.529685 0.848194 -0.847802 0.530313 239.91 1044.22)" stroke="black"/>
<line y1="-0.5" x2="38.3243" y2="-0.5" transform="matrix(0.89428 0.447508 -0.446919 0.894574 121.383 999.92)" stroke="black"/>
<line y1="-0.5" x2="25.3239" y2="-0.5" transform="matrix(0.281953 0.959428 -0.959303 0.28238 154.23 1017.07)" stroke="black"/>
<line y1="-0.5" x2="46.082" y2="-0.5" transform="matrix(-0.471672 0.881774 -0.881451 -0.472276 160.812 1039.63)" stroke="black"/>
<ellipse cx="449.771" cy="1131.2" rx="4.52496" ry="4.51786" fill="black"/>
<ellipse cx="473.904" cy="1153.79" rx="6.03328" ry="6.02381" fill="black"/>
<ellipse cx="541.779" cy="1179.39" rx="4.52496" ry="4.51786" fill="black"/>
<ellipse cx="577.979" cy="1168.85" rx="6.03328" ry="6.02381" fill="black"/>
<ellipse cx="574.959" cy="1110.12" rx="6.03328" ry="6.02381" fill="black"/>
<ellipse cx="488.989" cy="1083.01" rx="3.01617" ry="3.01191" fill="black"/>
<ellipse cx="576.47" cy="1226.08" rx="4.52496" ry="4.51786" fill="black"/>
<ellipse cx="642.838" cy="1203.49" rx="6.03328" ry="6.02381" fill="black"/>
<ellipse cx="677.525" cy="1262.22" rx="4.52496" ry="4.51786" fill="black"/>
<ellipse cx="609.654" cy="1326.98" rx="6.03328" ry="6.02381" fill="black"/>
<line y1="-0.5" x2="32.0455" y2="-0.5" transform="matrix(0.753089 0.657918 -0.65909 0.752064 449.77 1132.71)" stroke="black"/>
<line y1="-0.5" x2="75.0512" y2="-0.5" transform="matrix(0.924473 0.381248 -0.382273 0.92405 473.902 1152.29)" stroke="black"/>
<line y1="-0.5" x2="38.1518" y2="-0.5" transform="matrix(0.948832 -0.315781 0.316675 0.948534 541.781 1180.9)" stroke="black"/>
<line y1="-0.5" x2="73.5272" y2="-0.5" transform="matrix(0.882092 0.471076 -0.472229 0.881476 577.977 1168.85)" stroke="black"/>
<line y1="-0.5" x2="70.2784" y2="-0.5" transform="matrix(0.51509 0.857136 -0.857849 0.513901 642.832 1203.49)" stroke="black"/>
<line y1="-0.5" x2="94.9068" y2="-0.5" transform="matrix(-0.731062 0.682311 -0.683456 -0.729991 679.035 1262.22)" stroke="black"/>
<line y1="-0.5" x2="102.884" y2="-0.5" transform="matrix(-0.307868 -0.951429 0.951712 -0.306993 609.652 1325.47)" stroke="black"/>
<line y1="-0.5" x2="56.0555" y2="-0.5" transform="matrix(-0.591968 -0.805962 0.806848 -0.590759 576.469 1226.08)" stroke="black"/>
<line y1="-0.5" x2="58.7516" y2="-0.5" transform="matrix(-0.0256729 -0.99967 0.999672 -0.0255924 577.977 1168.85)" stroke="black"/>
<line y1="-0.5" x2="88.7091" y2="-0.5" transform="matrix(-0.952168 -0.305574 0.306445 -0.951888 574.965 1110.12)" stroke="black"/>
</svg>
