<svg width="324" height="323" viewBox="0 0 324 323" fill="none" xmlns="http://www.w3.org/2000/svg">
<circle cx="33.7832" cy="141.49" r="5.71681" fill="#F2E9DD"/>
<circle cx="66.6548" cy="160.071" r="4.28761" fill="#F2E9DD"/>
<circle cx="73.8027" cy="184.367" r="5.71681" fill="#F2E9DD"/>
<circle cx="52.3623" cy="222.956" r="2.85841" fill="#F2E9DD"/>
<circle cx="113.819" cy="107.19" r="4.28761" fill="#F2E9DD"/>
<circle cx="130.971" cy="102.902" r="5.71681" fill="#F2E9DD"/>
<circle cx="140.975" cy="112.907" r="4.28761" fill="#F2E9DD"/>
<circle cx="168.127" cy="105.762" r="5.71681" fill="#F2E9DD"/>
<circle cx="148.119" cy="161.5" r="5.71681" fill="#F2E9DD"/>
<circle cx="152.408" cy="187.225" r="5.71681" fill="#F2E9DD"/>
<circle cx="159.553" cy="198.658" r="5.71681" fill="#F2E9DD"/>
<circle cx="293.897" cy="164.358" r="4.28761" fill="#F2E9DD"/>
<circle cx="232.443" cy="145.779" r="5.71681" fill="#F2E9DD"/>
<line x1="33.5813" y1="142.463" x2="113.617" y2="106.733" stroke="#F2E9DD"/>
<line x1="115.115" y1="106.707" x2="130.836" y2="102.419" stroke="#F2E9DD"/>
<line x1="131.342" y1="101.14" x2="142.776" y2="114.003" stroke="#F2E9DD"/>
<line x1="142.294" y1="112.418" x2="168.02" y2="106.701" stroke="#F2E9DD"/>
<line x1="165.532" y1="105.336" x2="232.705" y2="146.783" stroke="#F2E9DD"/>
<line x1="231.141" y1="146.724" x2="295.455" y2="163.874" stroke="#F2E9DD"/>
<line x1="165.747" y1="105.909" x2="148.597" y2="161.648" stroke="#F2E9DD"/>
<line x1="148.615" y1="159.992" x2="152.903" y2="187.147" stroke="#F2E9DD"/>
<line x1="152.83" y1="186.96" x2="159.976" y2="198.393" stroke="#F2E9DD"/>
<line x1="34.0088" y1="142.473" x2="68.3096" y2="159.623" stroke="#F2E9DD"/>
<line x1="67.1359" y1="159.929" x2="74.282" y2="184.226" stroke="#F2E9DD"/>
<line x1="73.683" y1="182.867" x2="51.9295" y2="223.501" stroke="#F2E9DD"/>
</svg>
