<svg width="598" height="597" viewBox="0 0 598 597" fill="none" xmlns="http://www.w3.org/2000/svg">
<path d="M298.785 104.958C325.293 104.911 351.524 110.339 375.837 120.9C387.599 126.007 398.831 132.259 409.369 139.566C419.837 146.83 429.577 155.091 438.451 164.234C447.304 173.359 455.252 183.32 462.185 193.977C469.161 204.72 475.062 216.124 479.805 228.023C489.639 252.686 494.275 279.113 493.424 305.65C492.704 330.6 487.15 355.173 477.07 378.007C467.32 400.136 453.532 420.255 436.411 437.334C419.332 454.452 399.214 468.24 377.085 477.992C354.252 488.071 329.68 493.624 304.731 494.343C302.751 494.402 300.747 494.432 298.758 494.432C272.256 494.477 246.03 489.05 221.722 478.49C209.961 473.381 198.733 467.126 188.199 459.816C177.731 452.551 167.991 444.29 159.116 435.147C150.264 426.021 142.315 416.06 135.383 405.402C128.404 394.66 122.503 383.256 117.762 371.356C107.929 346.694 103.292 320.268 104.144 293.731C104.863 268.782 110.417 244.209 120.498 221.375C130.243 199.252 144.024 179.139 161.135 162.063C178.214 144.943 198.332 131.155 220.462 121.405C243.302 111.321 267.882 105.767 292.839 105.051C294.819 104.991 296.826 104.958 298.812 104.958M298.812 104.062C296.82 104.062 294.828 104.095 292.839 104.155C189.71 107.267 106.39 190.584 103.278 293.716C99.9479 404.133 189.115 495.322 298.809 495.322C300.801 495.322 302.793 495.292 304.797 495.233C407.926 492.124 491.246 408.804 494.358 305.671C497.688 195.255 408.521 104.062 298.827 104.062H298.812Z" fill="#FAF8F5"/>
<path d="M556.2 155.418C557.226 155.417 558.234 155.694 559.115 156.22C559.997 156.746 560.719 157.501 561.205 158.405C571.75 178.1 580.035 198.925 585.9 220.482C591.918 242.673 595.341 265.487 596.102 288.466C596.13 289.224 596.003 289.98 595.73 290.687C595.457 291.394 595.043 292.039 594.514 292.582C593.985 293.132 593.35 293.569 592.648 293.867C591.946 294.164 591.191 294.316 590.428 294.314H509.429C507.964 294.315 506.555 293.75 505.497 292.736C504.44 291.723 503.815 290.339 503.754 288.876C502.672 264.65 497.283 240.811 487.839 218.475C485.787 213.619 483.524 208.79 481.117 204.125C480.449 202.83 480.306 201.327 480.716 199.929C481.126 198.53 482.059 197.343 483.321 196.614L553.36 156.177C554.221 155.679 555.199 155.416 556.194 155.415M556.194 154.52C555.041 154.52 553.907 154.824 552.909 155.401L482.87 195.838C481.408 196.682 480.327 198.057 479.852 199.676C479.376 201.296 479.543 203.037 480.316 204.537C482.723 209.196 484.955 213.959 487.012 218.825C496.412 241.061 501.772 264.796 502.84 288.914C502.911 290.609 503.635 292.21 504.859 293.384C506.084 294.557 507.715 295.211 509.411 295.21H590.41C591.29 295.21 592.162 295.034 592.972 294.691C593.783 294.348 594.516 293.846 595.129 293.214C595.742 292.583 596.222 291.834 596.54 291.013C596.858 290.193 597.008 289.316 596.98 288.437C595.501 242.84 583.525 198.198 561.982 157.984C561.419 156.936 560.583 156.06 559.562 155.45C558.542 154.84 557.374 154.518 556.185 154.52H556.194Z" fill="#FAF8F5"/>
<path d="M519.469 254.681L519.063 254.249C517.773 252.878 516.73 251.295 515.979 249.57L515.974 249.559L515.974 249.559C515.223 247.712 514.646 245.8 514.252 243.846C514.089 243.136 513.704 242.62 513.203 242.311C512.698 242.001 512.044 241.882 511.318 242.032C510.576 242.186 510.055 242.519 509.745 242.948C509.437 243.373 509.299 243.946 509.417 244.66L509.417 244.661C510.302 250.124 512.21 255.038 516.411 258.752C516.802 259.061 517.107 259.467 517.295 259.929C517.484 260.392 517.549 260.896 517.484 261.392C517.361 262.773 517.367 264.143 517.76 265.338C518.718 268.232 520.219 270.766 522.716 272.583L522.717 272.583C522.856 272.685 522.986 272.783 523.112 272.878C523.658 273.29 524.106 273.628 524.691 273.778L524.7 273.781L524.71 273.783C525.246 273.944 525.822 273.912 526.337 273.695C526.853 273.477 527.277 273.087 527.537 272.591L527.545 272.576L527.554 272.561C527.831 272.111 527.948 271.582 527.887 271.057C527.827 270.536 527.594 270.05 527.226 269.676C526.73 269.217 526.206 268.789 525.657 268.394L525.644 268.385L525.632 268.375C524.464 267.417 523.442 266.284 522.983 264.451L522.719 263.401L523.689 263.881C525.991 265.021 528.401 265.926 530.885 266.581C537.095 268.137 543.606 268.02 549.756 266.241L549.758 266.241C553.847 265.079 557.505 263.291 560.376 260.211C562.973 257.424 564.01 254.174 563.134 250.372L563.134 250.372C562.99 249.748 562.686 249.21 562.312 248.656C562.207 248.5 562.092 248.339 561.974 248.172C561.69 247.771 561.385 247.34 561.14 246.893L560.961 246.567L561.222 246.302C561.605 245.912 562.043 245.752 562.437 245.663C562.601 245.626 562.767 245.599 562.913 245.576C562.938 245.572 562.961 245.568 562.984 245.564C563.155 245.536 563.3 245.51 563.434 245.472L563.435 245.472C566.398 244.638 568.331 242.743 568.888 239.824L568.888 239.823C569.884 234.649 568.456 229.978 565.167 225.896L565.167 225.896C564.83 225.478 564.615 225.096 564.528 224.659C564.444 224.233 564.493 223.808 564.581 223.338L564.581 223.337C565.685 217.471 564.969 212.183 560.227 208.096L560.227 208.096C559.912 207.824 559.579 207.506 559.436 207.07C559.285 206.607 559.377 206.122 559.633 205.585L559.634 205.585C560.715 203.323 560.823 201.042 559.442 198.868L559.436 198.858L559.436 198.858C558.66 197.572 557.74 196.38 556.692 195.305C556.004 194.642 555.318 194.312 554.693 194.251C554.078 194.191 553.465 194.386 552.895 194.887C551.829 195.824 551.765 197.46 553.037 198.837C553.037 198.837 553.037 198.837 553.037 198.837L552.669 199.176C553.098 199.64 553.484 200.134 553.87 200.627C554.043 200.848 554.216 201.07 554.393 201.288L519.469 254.681ZM519.469 254.681L519.826 254.208C522.63 250.496 526.313 248.703 530.633 247.741M519.469 254.681L530.633 247.741M560.554 207.718C559.924 207.174 559.628 206.759 560.085 205.8C561.223 203.42 561.357 200.95 559.864 198.6L560.554 207.718ZM560.554 207.718C565.481 211.964 566.195 217.466 565.072 223.43C564.902 224.346 564.938 224.815 565.556 225.583C568.925 229.764 570.406 234.581 569.379 239.918C568.781 243.048 566.691 245.076 563.57 245.954M560.554 207.718L563.57 245.954M563.57 245.954C563.383 246.007 563.188 246.038 562.99 246.07C562.498 246.149 561.994 246.23 561.578 246.652C561.809 247.073 562.086 247.465 562.364 247.856C562.885 248.592 563.406 249.328 563.621 250.26C564.538 254.238 563.442 257.655 560.742 260.552C557.788 263.72 554.037 265.545 549.895 266.722C543.659 268.525 537.057 268.643 530.76 267.065C528.46 266.459 526.221 265.641 524.072 264.622C524.028 264.489 523.988 264.351 523.952 264.208L523.468 264.329L523.246 264.777C523.386 264.847 523.527 264.916 523.668 264.983M563.57 245.954L523.668 264.983M523.668 264.983C524.149 266.302 524.979 267.193 525.949 267.988C526.518 268.397 527.06 268.841 527.574 269.317C528.025 269.771 528.31 270.364 528.384 271C528.457 271.636 528.315 272.278 527.98 272.823L523.668 264.983ZM530.633 247.741C538.047 246.098 545.448 244.398 552.847 242.698C555.554 242.076 558.26 241.454 560.967 240.835C560.967 240.835 560.967 240.835 560.967 240.835L560.855 240.348C563.116 239.831 563.627 238.956 563.612 236.663M530.633 247.741L562.806 231.463C562.836 231.541 562.867 231.62 562.898 231.699C563.486 233.215 564.112 234.828 564.112 236.661M563.612 236.663H564.112C564.112 236.662 564.112 236.662 564.112 236.661M563.612 236.663C563.612 234.925 563.018 233.392 562.423 231.858C562.395 231.786 562.367 231.714 562.34 231.642M563.612 236.663L564.112 236.659C564.112 236.66 564.112 236.661 564.112 236.661M564.112 236.661L562.34 231.642M562.34 231.642C561.465 229.373 560.712 229.05 558.302 229.6L521.586 237.98C521.465 238.007 521.345 238.036 521.225 238.064C520.933 238.134 520.641 238.203 520.347 238.26C518.256 238.67 516.542 237.765 516.166 236.08C515.789 234.396 516.945 232.843 519.009 232.371C531.247 229.566 543.492 226.769 555.742 223.982C558.983 223.241 559.924 221.892 559.425 218.606C559.398 218.433 559.372 218.259 559.346 218.084C559.153 216.787 558.956 215.465 558.332 214.318L562.34 231.642ZM540.078 250.779L540.077 250.779C539.227 250.974 538.377 251.168 537.527 251.363C535.216 251.892 532.908 252.421 530.594 252.941L530.592 252.941C528.439 253.437 526.471 254.536 524.921 256.109C524.647 256.379 524.419 256.634 524.267 256.884C524.113 257.137 524.006 257.435 524.068 257.762C524.129 258.084 524.334 258.326 524.56 258.512C524.786 258.699 525.086 258.871 525.432 259.045C530.422 261.552 535.701 262.827 541.327 262.559L541.327 262.559C546.168 262.326 550.79 261.192 554.843 258.266C556.524 257.055 557.923 255.546 558.3 253.241L558.3 253.24C558.386 252.703 558.383 252.199 558.213 251.735C558.04 251.262 557.714 250.886 557.257 250.575L557.256 250.575C554.989 249.043 552.456 248.052 549.578 248.632C547.37 249.076 545.17 249.592 542.979 250.105C542.01 250.333 541.043 250.559 540.078 250.779ZM526.532 274.156C525.909 274.418 525.214 274.456 524.567 274.263L526.532 274.156Z" stroke="#FAF8F5"/>
<path d="M308.351 0.898816H308.542C331.522 1.65734 354.336 5.07982 376.527 11.0976C398.088 16.9642 418.916 25.2496 438.616 35.7959C439.286 36.1523 439.877 36.6409 440.354 37.2323C440.83 37.8236 441.182 38.5053 441.387 39.2363C441.599 39.9681 441.66 40.7351 441.567 41.4912C441.474 42.2473 441.229 42.9767 440.847 43.6354L400.389 113.686C399.888 114.548 399.171 115.264 398.308 115.761C397.445 116.259 396.466 116.522 395.47 116.524C394.567 116.525 393.677 116.309 392.875 115.893C388.21 113.483 383.381 111.22 378.54 109.168C356.205 99.7244 332.367 94.3352 308.142 93.253C306.678 93.1928 305.294 92.5685 304.279 91.5108C303.265 90.4531 302.699 89.044 302.701 87.5786V6.57613C302.701 5.07431 303.296 3.63367 304.356 2.57004C305.417 1.50641 306.855 0.906548 308.357 0.901806M308.357 0.00585938C306.618 0.0106033 304.951 0.704926 303.723 1.93658C302.495 3.16823 301.805 4.83669 301.805 6.57613V87.5786C301.803 89.2746 302.458 90.9054 303.631 92.13C304.804 93.3545 306.406 94.078 308.1 94.1489C332.221 95.2223 355.957 100.588 378.193 109.995C383.055 112.05 387.817 114.281 392.477 116.688C393.407 117.169 394.438 117.419 395.485 117.42C396.639 117.42 397.772 117.117 398.771 116.54C399.77 115.963 400.6 115.134 401.177 114.134L441.614 44.0953C442.054 43.3334 442.337 42.4906 442.446 41.6173C442.554 40.7439 442.486 39.8577 442.245 39.0112C442.005 38.1646 441.596 37.3751 441.045 36.6893C440.493 36.0036 439.809 35.4358 439.034 35.0194C398.819 13.4751 354.176 1.49731 308.578 0.0177441L308.357 0.00585938Z" fill="#FAF8F5"/>
<path d="M378.85 85.4735L378.108 85.475C376.426 85.4783 375.277 84.6834 374.287 83.7101C371.44 81.0153 370.655 77.6578 371.562 73.9726C374.191 63.2899 376.857 52.6141 379.561 41.9452C380.216 39.3569 379.896 37.2719 378.96 35.6243C378.017 33.9671 376.421 32.6993 374.434 31.8155L378.85 85.4735ZM378.85 85.4735L378.571 84.7865C378.343 84.2286 378.152 83.6568 377.999 83.0746C377.829 82.1245 378.091 81.3472 378.592 80.8245C379.1 80.2945 379.898 79.9814 380.871 80.0617M378.85 85.4735L380.871 80.0617M380.871 80.0617C382.137 80.1668 383.382 80.397 384.652 80.6409C384.741 80.6579 384.829 80.6748 384.917 80.6918C386.096 80.9188 387.3 81.1505 388.53 81.285L388.53 81.285C389.718 81.4143 390.42 81.7068 390.847 82.1181C391.267 82.5218 391.498 83.1141 391.574 84.0277L391.575 84.0381L391.576 84.0485C391.618 84.3818 391.576 84.7203 391.456 85.0337C390.61 87.0729 390.056 89.2045 389.513 91.2946C389.422 91.6465 389.331 91.9974 389.238 92.3464C389.049 93.0596 388.784 93.6318 388.416 94.0444C388.058 94.4461 387.582 94.721 386.912 94.8128C386.241 94.9048 385.687 94.7691 385.218 94.4794C384.741 94.1842 384.327 93.7126 383.982 93.0982L383.969 93.076L383.955 93.0552C383.771 92.7949 383.606 92.5223 383.461 92.2393C383.229 91.6695 382.889 91.2531 382.401 91.0188C381.925 90.7895 381.38 90.7707 380.815 90.8399L380.814 90.8399C373.105 91.7961 365.992 84.9808 366.145 76.8013L366.145 76.7967C366.158 75.4265 366.328 74.0624 366.653 72.7312C369.269 62.3344 371.871 51.9346 374.459 41.5318C374.822 40.0776 374.893 38.9011 374.372 37.9698C373.849 37.0339 372.813 36.4908 371.368 36.0746L371.368 36.0745C371.221 36.0322 371.072 35.9889 370.923 35.9452C369.473 35.5212 367.912 35.0649 366.23 35.2179C365.67 35.2681 365.206 35.3142 364.83 35.3927C364.448 35.4724 364.11 35.5941 363.825 35.8256C363.539 36.0588 363.354 36.365 363.207 36.7267C363.063 37.0813 362.941 37.5274 362.804 38.0686L362.803 38.0702C359.703 50.4543 356.607 62.8394 353.515 75.2254M380.871 80.0617L374.434 31.8154C370.62 30.1206 366.743 29.5033 362.705 30.7059L362.693 30.7097L362.693 30.7095C362.391 30.7907 362.073 30.8409 361.751 30.7789C361.415 30.7143 361.131 30.5394 360.878 30.2736C359.219 28.5494 357.102 27.6551 354.752 26.8151L354.752 26.8149C351.379 25.6054 348.162 25.4672 344.945 26.8967L344.943 26.8976C344.481 27.1005 344.018 27.239 343.556 27.1333C343.081 27.0249 342.73 26.6898 342.417 26.2586L342.412 26.2508L342.412 26.2508C341.887 25.4974 341.207 24.8649 340.418 24.3955C339.63 23.9267 338.751 23.6314 337.839 23.5295C335.611 23.3103 333.363 23.668 331.313 24.5682L331.303 24.5726L331.293 24.5766C330.713 24.8012 330.244 25.2427 329.984 25.8075C329.724 26.3724 329.695 27.0161 329.902 27.6023L329.905 27.609L329.907 27.6158C330.113 28.258 330.487 28.7204 330.97 28.9994C331.454 29.2798 332.087 29.3969 332.843 29.276L332.844 29.2758C334.011 29.0923 335.167 28.8712 336.3 28.5779M353.515 75.2254C353.485 75.3473 353.457 75.4655 353.429 75.5806C353.274 76.225 353.143 76.7685 352.822 77.2536L352.822 77.2535L352.818 77.2605C352.518 77.7299 352.066 78.0823 351.537 78.2586C351.009 78.4349 350.436 78.4245 349.914 78.2291L349.907 78.2264L349.899 78.2239C349.369 78.0438 348.914 77.6896 348.61 77.2189C348.309 76.7531 348.173 76.2001 348.222 75.648C348.313 75.1205 348.438 74.5995 348.597 74.0885L348.602 74.0751L348.605 74.0615C351.592 62.1553 354.567 50.2491 357.532 38.3429C357.938 36.7224 358.092 35.4957 357.643 34.4847C357.189 33.4637 356.181 32.7933 354.681 32.094L354.678 32.093C353.056 31.3462 351.262 30.802 349.334 30.9709C347.988 31.088 346.845 31.4931 345.95 32.2302C345.053 32.969 344.446 34.0076 344.114 35.3186L344.114 35.3201C341.127 47.2957 338.134 59.2704 335.134 71.244L335.131 71.2559L335.128 71.2679C335.036 71.7301 334.919 72.187 334.778 72.6365C334.495 73.3916 334.054 73.8707 333.53 74.1157C333.002 74.3632 332.324 74.4021 331.518 74.1496L331.514 74.1484C330.782 73.9258 330.324 73.5755 330.078 73.1442C329.831 72.712 329.75 72.1175 329.936 71.3138L329.936 71.3127C330.357 69.4686 330.824 67.6382 331.293 65.8016C331.487 65.0423 331.681 64.282 331.872 63.5191L331.872 63.5188C332.466 61.1394 333.059 58.7597 333.652 56.3801C335.533 48.8361 337.412 41.2927 339.337 33.761L339.337 33.7608C339.556 32.9055 339.608 32.1008 339.436 31.3347C339.263 30.5646 338.871 29.87 338.256 29.2249L338.256 29.2248C338.029 28.9858 337.766 28.7547 337.434 28.6219C337.086 28.4829 336.713 28.4708 336.3 28.5779M353.515 75.2254L354.001 75.3465M353.515 75.2254L354.001 75.3465M336.3 28.5779L336.425 29.0619M336.3 28.5779L336.425 29.0619M336.425 29.0619C337.082 28.8917 337.473 29.1277 337.894 29.5697M336.425 29.0619C335.272 29.3606 334.099 29.5846 332.922 29.7697C331.223 30.0415 329.911 29.265 329.431 27.7688C329.18 27.0601 329.216 26.2817 329.53 25.5987C329.844 24.9158 330.411 24.3819 331.112 24.1104L337.894 29.5697M337.894 29.5697C339.017 30.7493 339.262 32.0335 338.853 33.6372M337.894 29.5697L338.853 33.6372M338.853 33.6372C336.928 41.1705 335.047 48.7159 333.167 56.2602C332.574 58.6396 331.981 61.0188 331.387 63.3976C331.197 64.1559 331.003 64.9136 330.81 65.6716C330.341 67.5107 329.872 69.3507 329.449 71.2013C329.039 72.9723 329.738 74.131 331.369 74.6268C333.161 75.1882 334.612 74.5193 335.251 72.7991C335.4 72.3282 335.522 71.8497 335.619 71.3655C338.619 59.3917 341.612 47.4169 344.599 35.4411C345.22 32.9832 346.836 31.69 349.377 31.469C351.184 31.3107 352.886 31.8185 354.469 32.5472C357.462 33.9419 357.862 34.9692 357.047 38.2215C354.082 50.1276 351.107 62.0337 348.12 73.9399C347.952 74.4781 347.821 75.0268 347.726 75.5824C347.661 76.2525 347.825 76.9248 348.19 77.4902C348.556 78.0557 349.101 78.481 349.739 78.6974C350.368 78.9329 351.058 78.9454 351.695 78.7329C352.333 78.5203 352.877 78.0956 353.239 77.5296C353.613 76.9648 353.766 76.3242 353.919 75.6815C353.946 75.5698 353.973 75.458 354.001 75.3465M338.853 33.6372L388.584 80.7879C391.054 81.0567 391.911 82.0392 392.072 83.9864C392.124 84.4038 392.072 84.8277 391.92 85.2198C391.087 87.2257 390.542 89.3213 389.999 91.4149C389.907 91.7681 389.815 92.1213 389.722 92.474C389.322 93.9852 388.548 95.0932 386.98 95.3082C385.412 95.5232 384.292 94.672 383.546 93.343C383.345 93.0575 383.164 92.7581 383.005 92.4471C382.608 91.4496 381.924 91.2077 380.876 91.3361C372.833 92.3336 365.487 85.2437 365.645 76.792C365.658 75.3828 365.834 73.9799 366.167 72.6109C368.784 62.2139 371.386 51.814 373.974 41.4111C374.691 38.541 374.07 37.3733 371.23 36.555C371.083 36.5129 370.936 36.4701 370.79 36.4274C369.327 36.0005 367.857 35.5719 366.275 35.7158C364.014 35.9189 363.841 36.0145 363.288 38.1916C360.188 50.5756 357.093 62.9606 354.001 75.3465" stroke="#FAF8F5"/>
<path d="M144.033 44.9936C145.031 44.9951 146.011 45.2584 146.875 45.7574C147.739 46.2563 148.457 46.9733 148.958 47.8368L189.365 117.822C190.104 119.086 190.326 120.586 189.985 122.01C189.644 123.434 188.766 124.67 187.534 125.462C175.123 133.44 163.604 142.727 153.175 153.164C142.737 163.593 133.448 175.112 125.469 187.524C124.956 188.325 124.249 188.983 123.414 189.438C122.578 189.892 121.642 190.129 120.691 190.125C119.687 190.124 118.701 189.859 117.832 189.357L47.8441 148.95C47.1815 148.57 46.6029 148.059 46.1435 147.449C45.684 146.839 45.3533 146.141 45.1712 145.399C44.9854 144.664 44.9507 143.899 45.0692 143.15C45.1878 142.401 45.4572 141.684 45.8611 141.042C57.88 121.84 72.0334 104.06 88.0512 88.0408C104.07 72.0231 121.85 57.8697 141.052 45.8508C141.948 45.2901 142.983 44.993 144.039 44.9936M144.039 44.0977C142.816 44.0973 141.619 44.442 140.584 45.0922C101.937 69.2747 69.2881 101.919 45.0996 140.561C44.6345 141.309 44.3246 142.144 44.1884 143.014C44.0522 143.884 44.0924 144.773 44.3066 145.628C44.5209 146.482 44.9048 147.285 45.4356 147.988C45.9663 148.691 46.6331 149.28 47.3962 149.721L117.384 190.137C118.388 190.723 119.529 191.032 120.691 191.033C121.792 191.034 122.875 190.759 123.842 190.233C124.809 189.706 125.628 188.945 126.224 188.019C134.164 175.659 143.412 164.189 153.808 153.809C164.189 143.415 175.658 134.167 188.018 126.226C189.439 125.307 190.452 123.876 190.848 122.231C191.243 120.585 190.99 118.85 190.141 117.386L149.734 47.3828C149.156 46.3824 148.325 45.5519 147.324 44.9751C146.323 44.3983 145.188 44.0957 144.033 44.0977H144.039Z" fill="#FAF8F5"/>
<path d="M92.169 110.679L91.7892 110.762C91.5927 110.805 91.3979 110.846 91.2045 110.887C90.5876 111.018 89.9855 111.146 89.3944 111.311L89.3828 111.314L89.3827 111.314C87.8422 111.702 86.5126 112.369 85.6939 113.641L85.6898 113.647L85.6898 113.647C84.521 115.405 83.7151 117.379 83.3192 119.452C83.1767 120.249 83.2896 120.893 83.5802 121.382C83.8704 121.87 84.3694 122.258 85.1005 122.482L85.1039 122.483C86.2678 122.849 87.6568 122.176 88.1697 120.845L88.1707 120.842C88.3259 120.447 88.4497 120.036 88.5806 119.601L88.5853 119.586C88.7158 119.153 88.8539 118.696 89.0319 118.25C89.4883 117.104 90.3734 116.346 91.4103 116.09C92.4463 115.834 93.5877 116.091 94.5374 116.88L94.5467 116.888L94.5466 116.888C94.8531 117.155 95.1481 117.464 95.4236 117.752C95.5418 117.875 95.6565 117.995 95.7669 118.107C95.7671 118.107 95.7672 118.107 95.7674 118.107L121.796 144.133L121.443 144.487L121.796 144.133C121.904 144.24 122.007 144.346 122.108 144.449C122.301 144.646 122.486 144.834 122.676 145.013C123.741 145.953 125.064 145.97 126.022 145.144C126.486 144.729 126.784 144.161 126.862 143.544C126.94 142.929 126.795 142.307 126.454 141.791C126.098 141.313 125.697 140.87 125.257 140.469L125.249 140.461L125.24 140.453C116.564 131.776 107.889 123.098 99.2161 114.42L99.2154 114.419C98.1457 113.344 97.5378 112.122 97.4055 110.825C97.2735 109.531 97.6196 108.209 98.3758 106.941L98.376 106.941C99.1632 105.623 100.282 104.759 101.348 103.938C101.428 103.876 101.507 103.815 101.586 103.753C102.883 102.743 104.004 102.157 105.151 102.21C106.304 102.263 107.337 102.954 108.477 104.093C116.554 112.169 124.632 120.246 132.712 128.325C135.186 130.799 137.803 132.608 141.383 132.27C141.659 132.24 142.005 132.215 142.348 132.326C142.718 132.445 143.026 132.699 143.27 133.108C144.615 135.356 144.979 137.704 143.813 140.192C142.899 142.152 141.558 143.76 139.59 144.806M92.169 110.679L139.356 144.364M92.169 110.679L92.1821 110.29M92.169 110.679L92.1821 110.29M139.59 144.806L139.356 144.364M139.59 144.806C139.59 144.806 139.591 144.806 139.591 144.805L139.356 144.364M139.59 144.806C139.06 145.088 138.547 145.352 138.037 145.614C137.442 145.921 136.852 146.224 136.245 146.551L136.008 146.111C136.607 145.788 137.213 145.476 137.818 145.164C138.332 144.9 138.846 144.635 139.356 144.364M92.1821 110.29C92.295 106.949 93.8392 104.098 95.9095 101.898M92.1821 110.29L95.9095 101.898M150.995 107.753C147.145 105.605 142.389 105.887 139.069 108.558C135.328 111.566 133.483 115.66 134.874 120.32L134.875 120.322C134.911 120.446 134.963 120.574 135.028 120.733L135.039 120.758C135.099 120.905 135.17 121.076 135.229 121.259C135.358 121.658 135.44 122.131 135.321 122.704L135.132 123.608L134.478 122.955L132.91 121.391C125.72 114.221 118.542 107.038 111.374 99.8421L150.995 107.753ZM150.995 107.753C155.027 110.006 156.432 113.662 156.464 118.104C156.487 121.6 155.203 124.737 153.128 127.542L150.995 107.753ZM95.9095 101.898C97.9835 99.6945 100.559 98.1737 102.662 97.4952M95.9095 101.898L102.662 97.4952M102.662 97.4952C104.356 96.949 105.907 96.9192 107.337 97.3232M102.662 97.4952L107.337 97.3232M107.337 97.3232C108.771 97.7282 110.114 98.5786 111.374 99.842L107.337 97.3232ZM142.252 149.117C142.252 149.117 142.252 149.117 142.251 149.117L142.509 149.546L142.253 149.116C142.253 149.116 142.253 149.117 142.252 149.117ZM147.097 125.938C147.268 125.834 147.435 125.725 147.6 125.612V125.782L148.447 124.969C149.823 123.646 150.725 121.792 151.11 119.895C151.495 118.002 151.376 116.015 150.648 114.417C150.304 113.614 149.706 112.946 148.946 112.516C146.324 110.991 143.48 111.137 141.4 113.122L141.399 113.122C139.407 115.026 139.021 117.879 140.408 120.464L140.409 120.464C141.329 122.176 142.525 123.687 143.708 125.154C143.964 125.473 144.197 125.747 144.424 125.955C144.654 126.167 144.905 126.337 145.204 126.417C145.805 126.577 146.404 126.317 147.077 125.949L147.087 125.944L147.097 125.938Z" stroke="#FAF8F5"/>
<path d="M590.435 302.678C591.198 302.676 591.954 302.828 592.656 303.126C593.359 303.425 593.993 303.862 594.521 304.413C595.05 304.956 595.464 305.601 595.737 306.308C596.01 307.015 596.137 307.771 596.11 308.529C595.349 331.508 591.925 354.322 585.908 376.513C580.042 398.07 571.758 418.895 561.213 438.59C560.726 439.494 560.004 440.249 559.123 440.775C558.241 441.301 557.234 441.578 556.207 441.577C555.212 441.576 554.235 441.313 553.373 440.815L483.334 400.384C482.072 399.655 481.14 398.468 480.729 397.069C480.319 395.671 480.463 394.168 481.13 392.873C483.537 388.208 485.801 383.379 487.852 378.523C497.296 356.187 502.686 332.348 503.767 308.122C503.828 306.658 504.452 305.274 505.51 304.26C506.567 303.246 507.976 302.68 509.442 302.681H590.441M590.441 301.785H509.442C507.745 301.784 506.114 302.438 504.889 303.612C503.665 304.786 502.942 306.389 502.872 308.084C501.803 332.202 496.443 355.937 487.043 378.173C484.988 383.037 482.757 387.8 480.347 392.461C479.574 393.961 479.408 395.702 479.883 397.322C480.359 398.941 481.439 400.316 482.901 401.161L552.94 441.598C553.937 442.18 555.07 442.489 556.225 442.493C557.414 442.495 558.582 442.173 559.603 441.563C560.624 440.953 561.46 440.077 562.022 439.029C583.565 398.815 595.542 354.174 597.021 308.576C597.048 307.696 596.899 306.82 596.581 305.999C596.263 305.178 595.783 304.429 595.171 303.797C594.558 303.165 593.824 302.662 593.013 302.319C592.202 301.976 591.331 301.8 590.45 301.8L590.441 301.785Z" fill="#FAF8F5"/>
<path d="M556.228 366.669L555.012 366.443L555.729 367.451C558.511 371.357 559.238 375.631 557.974 379.949C556.642 384.498 553.605 387.809 548.917 389.35C539.555 392.424 529.991 385.053 530.603 375.223C530.628 374.822 530.643 374.477 530.619 374.195C530.593 373.907 530.521 373.619 530.315 373.38C530.115 373.146 529.843 373.024 529.57 372.94C529.298 372.857 528.952 372.792 528.549 372.717C523.814 371.836 519.632 369.897 516.464 366.288L516.464 366.288C512.78 362.093 511.984 357.17 513.289 351.745C513.932 349.071 515.648 346.066 518.098 343.614C520.546 341.165 523.691 339.305 527.168 338.861L527.168 338.861C532.535 338.175 537.07 340.009 541.118 343.427L541.119 343.428C543.362 345.308 544.965 347.734 546.612 350.226C546.716 350.383 546.82 350.54 546.925 350.698L546.925 350.698C547.238 351.17 547.547 351.651 547.859 352.135C549.143 354.13 550.465 356.183 552.208 357.903L552.208 357.903C554.237 359.905 556.488 361.733 559.722 361.97C562.375 362.166 564.549 361.474 566.021 359.997C567.492 358.522 568.19 356.339 568.047 353.704L568.047 353.704C568.036 353.503 568.016 353.307 567.997 353.124L567.996 353.108C567.976 352.917 567.958 352.741 567.95 352.568C567.933 352.225 567.954 351.92 568.061 351.62L568.062 351.618C568.299 350.942 568.593 350.525 568.965 350.266C569.336 350.007 569.848 349.863 570.611 349.862C571.125 349.885 571.619 350.074 572.017 350.402C572.418 350.731 572.701 351.182 572.823 351.686L572.823 351.687C573.092 352.791 573.176 353.933 573.071 355.064L573.071 355.064L573.07 355.07C572.745 359.101 571.294 362.181 569.008 364.207C566.722 366.233 563.546 367.256 559.676 367.068L559.675 367.068C558.518 367.014 557.367 366.881 556.228 366.669ZM548.03 362.392L549.116 362.446L548.451 361.587C548.104 361.139 547.776 360.724 547.463 360.327C546.841 359.539 546.277 358.823 545.735 358.068C545.246 357.388 544.793 356.71 544.335 356.025C544.022 355.557 543.708 355.086 543.378 354.608L543.378 354.608C543 354.062 542.63 353.497 542.256 352.926C541.17 351.267 540.05 349.557 538.615 348.11L538.615 348.11C534.71 344.175 529.793 342.566 525.306 344.727C521.428 346.583 518.86 349.651 518.001 354.074L518.001 354.075C517.573 356.285 517.859 358.574 518.816 360.612C519.773 362.648 521.352 364.327 523.325 365.408C525.688 366.755 528.271 367.671 530.953 368.114C531.543 368.212 532.074 368.232 532.577 368.065C533.087 367.896 533.502 367.557 533.908 367.068L533.908 367.068C535.958 364.594 538.815 362.921 541.975 362.343L541.975 362.343L541.985 362.341C542.935 362.147 543.89 362.129 544.89 362.177C545.391 362.2 545.898 362.24 546.422 362.282L546.429 362.282C546.948 362.323 547.483 362.365 548.03 362.392ZM547.132 367.553L547.132 367.553C541.701 365.967 537.296 369.608 536.036 373.574L536.036 373.574C535.372 375.67 535.714 378.142 536.798 380.218C537.883 382.295 539.743 384.034 542.183 384.608C546.752 385.924 551.78 383.192 553.079 378.561C554.401 373.855 551.748 368.902 547.132 367.553Z" fill="#FAF8F5" stroke="#FAF8F5"/>
<path d="M395.461 480.488C396.457 480.49 397.436 480.754 398.299 481.252C399.162 481.75 399.879 482.466 400.379 483.328L440.816 553.367C441.199 554.025 441.444 554.754 441.537 555.51C441.63 556.265 441.569 557.032 441.357 557.763C441.152 558.495 440.801 559.177 440.324 559.769C439.848 560.361 439.256 560.85 438.586 561.207C418.89 571.75 398.065 580.034 376.508 585.899C354.318 591.918 331.504 595.341 308.524 596.101H308.333C306.831 596.096 305.392 595.496 304.332 594.432C303.272 593.369 302.676 591.928 302.676 590.426V509.427C302.675 507.962 303.241 506.552 304.255 505.495C305.27 504.437 306.654 503.813 308.118 503.753C332.343 502.673 356.181 497.285 378.515 487.841C383.371 485.786 388.201 483.525 392.85 481.115C393.652 480.699 394.542 480.482 395.446 480.482M395.446 479.586C394.399 479.587 393.368 479.839 392.438 480.321C387.779 482.728 383.018 484.959 378.154 487.013C355.917 496.42 332.182 501.786 308.061 502.86C306.367 502.931 304.765 503.654 303.592 504.879C302.419 506.103 301.764 507.734 301.766 509.43V590.429C301.766 592.169 302.455 593.837 303.684 595.069C304.912 596.301 306.579 596.995 308.318 597H308.539C354.137 595.52 398.78 583.542 438.995 561.998C439.77 561.582 440.454 561.014 441.006 560.328C441.557 559.642 441.965 558.853 442.206 558.006C442.447 557.16 442.515 556.274 442.407 555.4C442.298 554.527 442.015 553.684 441.575 552.922L401.138 482.883C400.561 481.884 399.731 481.054 398.732 480.478C397.733 479.901 396.599 479.598 395.446 479.598V479.586Z" fill="#FAF8F5"/>
<path d="M354.217 551.011L354.219 551.018C354.341 551.488 354.447 551.947 354.551 552.397C354.763 553.311 354.966 554.189 355.278 555.05L355.279 555.055L355.279 555.055C355.498 555.681 355.537 556.23 355.339 556.751C355.15 557.248 354.77 557.647 354.331 558.033L354.326 558.037L354.326 558.037C351.168 560.743 348.695 564.158 347.108 568.002L347.107 568.002C346.744 568.881 346.53 569.573 346.856 570.244C347.327 571.209 347.926 571.863 348.942 571.917C349.528 571.948 350.02 571.869 350.423 571.676C350.819 571.488 351.159 571.175 351.427 570.684L351.427 570.683C351.678 570.225 351.898 569.753 352.126 569.265C352.196 569.114 352.268 568.961 352.341 568.807C352.645 568.165 352.976 567.508 353.395 566.9C357.464 560.986 362.894 557.107 370.306 556.427C374.924 556.004 379.302 556.765 383.35 559.134C384.001 559.513 384.625 559.931 385.236 560.34L385.293 560.379C385.888 560.778 386.469 561.168 387.069 561.525L387.081 561.532L387.081 561.532C387.634 561.882 388.302 562 388.941 561.86C389.58 561.72 390.138 561.335 390.495 560.786L390.501 560.776L390.508 560.767C391.203 559.801 391.111 558.534 390.16 557.572C389.734 557.15 389.267 556.771 388.766 556.441L388.764 556.44C385.673 554.382 382.496 552.63 378.872 551.982C378.291 551.88 377.837 551.671 377.499 551.301C377.173 550.944 377.005 550.488 376.883 550.003C376.137 547.077 375.356 544.169 374.499 541.275L374.499 541.274C373.582 538.171 372.812 535.008 372.046 531.86C371.61 530.067 371.174 528.278 370.714 526.507C370.586 526.029 370.541 525.571 370.667 525.128C370.794 524.68 371.078 524.315 371.476 523.988C373.226 522.536 374.762 520.845 376.04 518.964L376.042 518.961C377.33 517.095 378.576 515.274 379.086 513.181C379.523 511.381 377.935 509.836 376.051 510.24L354.217 551.011ZM354.217 551.011L354.215 551.004M354.217 551.011L354.215 551.004M354.215 551.004C352.593 545.426 351.211 539.785 349.825 534.13C349.65 533.416 349.475 532.701 349.299 531.985L349.299 531.985M354.215 551.004L349.299 531.985M349.299 531.985C349.16 531.42 348.946 530.947 348.574 530.585C348.203 530.223 347.725 530.019 347.153 529.891C343.099 528.957 339.316 527.1 336.097 524.464L336.095 524.462M349.299 531.985L336.095 524.462M336.095 524.462C335.229 523.761 334.749 523.06 334.904 522.044C335.068 520.974 335.674 520.249 336.422 519.933C337.17 519.617 338.123 519.682 339.034 520.325C340.992 521.71 343.01 523.075 345.328 523.966C348.939 525.407 352.869 525.856 356.711 525.264C364.857 524.013 370.572 519.542 374.054 512.168L374.054 512.168M336.095 524.462L374.054 512.168M374.054 512.168C374.536 511.142 375.024 510.46 376.05 510.24L374.054 512.168ZM354.131 530.583H354.772H354.131ZM354.131 530.583L354.287 531.205M354.131 530.583L354.287 531.205M354.287 531.205C354.667 532.724 355.035 534.223 355.399 535.706C356.295 539.355 357.167 542.906 358.145 546.424L358.145 546.425M354.287 531.205L358.145 546.425M358.145 546.425C358.612 548.1 359.058 549.781 359.504 551.466C359.597 551.816 359.69 552.167 359.784 552.517L359.784 552.518M358.145 546.425L359.784 552.518M359.784 552.518C359.897 552.941 360.088 553.409 360.518 553.615C360.972 553.831 361.453 553.652 361.854 553.418L361.859 553.415M359.784 552.518L361.859 553.415M361.859 553.415C362.67 552.929 363.557 552.695 364.521 552.441C364.776 552.373 365.038 552.304 365.304 552.229C367.234 551.705 369.208 551.358 371.2 551.191L371.614 551.156L371.656 550.743C371.735 549.956 371.534 549.281 371.372 548.732C371.337 548.617 371.305 548.507 371.277 548.403C370.686 546.194 370.091 543.994 369.496 541.795C368.845 539.389 368.194 536.984 367.55 534.568C367.191 533.217 366.856 531.86 366.509 530.457C366.337 529.762 366.163 529.056 365.981 528.333L365.834 527.748L365.286 528.002C361.981 529.534 358.41 530.411 354.772 530.583L361.859 553.415Z" stroke="#FAF8F5"/>
<path d="M288.666 0.895946C290.168 0.900689 291.606 1.50055 292.667 2.56418C293.727 3.62781 294.322 5.06845 294.322 6.57027V87.5728C294.323 89.0382 293.758 90.4472 292.743 91.5049C291.729 92.5626 290.345 93.1869 288.881 93.2471C264.655 94.3297 240.816 99.7189 218.48 109.162C213.624 111.214 208.798 113.478 204.145 115.888C203.343 116.303 202.453 116.519 201.55 116.518C200.554 116.516 199.575 116.253 198.712 115.756C197.849 115.258 197.131 114.542 196.631 113.681L156.194 43.6415C155.812 42.9827 155.567 42.2534 155.473 41.4974C155.38 40.7415 155.44 39.9745 155.651 39.2424C155.857 38.5115 156.209 37.83 156.686 37.2387C157.163 36.6475 157.755 36.1587 158.425 35.802C178.12 25.2563 198.945 16.9719 220.502 11.1067C242.693 5.0887 265.507 1.66614 288.487 0.907831H288.678M288.678 0.0118847H288.457C242.858 1.49145 198.216 13.4692 158.001 35.0136C157.226 35.4299 156.542 35.9978 155.99 36.6835C155.439 37.3692 155.03 38.1588 154.79 39.0053C154.549 39.8518 154.481 40.738 154.589 41.6114C154.698 42.4848 154.98 43.3275 155.421 44.0895L195.858 114.129C196.435 115.128 197.264 115.957 198.264 116.534C199.263 117.111 200.396 117.414 201.55 117.414C202.596 117.414 203.626 117.163 204.554 116.682C209.215 114.275 213.978 112.044 218.842 109.989C241.078 100.583 264.814 95.2165 288.935 94.143C290.629 94.0721 292.23 93.3487 293.404 92.1241C294.577 90.8995 295.232 89.2687 295.23 87.5728V6.57027C295.23 4.83083 294.54 3.16237 293.312 1.93072C292.084 0.699066 290.417 0.00474394 288.678 0V0.0118847Z" fill="#FAF8F5"/>
<path d="M253.52 43.7074L253.873 44.065C254.166 44.3608 254.159 44.7625 254.149 44.9788C254.143 45.0875 254.136 45.1767 254.129 45.256C254.118 45.391 254.108 45.4977 254.118 45.6244L254.119 45.6406L254.119 45.657C254.181 52.1379 254.239 58.6208 254.292 65.1056L254.293 65.1219L254.292 65.1381C254.265 65.5992 254.272 66.0616 254.312 66.5217C254.424 67.1259 254.748 67.6706 255.226 68.057C255.71 68.4478 256.318 68.6502 256.939 68.627L256.949 68.6266L256.949 68.6267C257.691 68.6135 258.243 68.3939 258.624 68.0354C259.004 67.6774 259.264 67.1325 259.33 66.3713C259.35 66.0567 259.343 65.763 259.336 65.4484C259.332 65.2796 259.328 65.1048 259.328 64.9175M253.52 43.7074L259.828 64.9156M253.52 43.7074L253.164 44.0627L230.061 67.1453L229.707 67.4986L230.061 67.8523C231.11 68.9031 232.226 70.0186 233.373 71.1644C234.54 72.3308 235.738 73.5285 236.929 74.7212L236.936 74.7281L236.943 74.7347C237.437 75.1919 237.893 75.6883 238.306 76.2191M253.52 43.7074L238.306 76.2191M259.328 64.9175C259.328 64.9168 259.328 64.9162 259.328 64.9156H259.828M259.328 64.9175C259.328 64.918 259.328 64.9185 259.328 64.9191L259.828 64.9156M259.328 64.9175C259.313 62.7653 259.297 60.6129 259.281 58.4603C259.239 52.8655 259.198 47.2697 259.176 41.6743M259.828 64.9156C259.813 62.7627 259.797 60.6098 259.781 58.4568C259.739 52.8598 259.697 47.2629 259.676 41.6659M259.176 41.6743C259.176 41.6765 259.176 41.6786 259.176 41.6808L259.676 41.6659M259.176 41.6743C259.125 39.9666 259.16 38.2574 259.282 36.5533L259.282 36.546L259.283 36.5388C259.321 36.1572 259.273 35.7718 259.142 35.4114C259.011 35.051 258.8 34.7248 258.525 34.4572C258.25 34.1896 257.919 33.9875 257.555 33.8659C257.191 33.7443 256.805 33.7063 256.424 33.7548L256.391 33.759L256.358 33.7589C251.896 33.735 249.739 33.735 242.682 33.9409L242.669 33.9412V33.9411C237.314 33.959 232.1 33.8543 226.829 33.7468L226.816 33.7465L226.816 33.7464C226.26 33.7202 225.715 33.9023 225.287 34.2571C224.859 34.6118 224.578 35.1136 224.5 35.6643L224.498 35.6774L224.498 35.6774C224.371 36.4345 224.469 37.0128 224.731 37.4659C224.995 37.923 225.462 38.3142 226.186 38.6263L226.189 38.6276C226.781 38.8873 227.365 38.886 228.086 38.8844C228.143 38.8843 228.202 38.8842 228.261 38.8842C229.782 38.8842 231.305 38.8812 232.83 38.8782C235.884 38.8722 238.943 38.8662 242.001 38.8842M259.176 41.6743C259.176 41.6721 259.176 41.67 259.176 41.6678L259.676 41.6659M259.676 41.6659L242.001 38.8842M242.001 38.8842C242.002 38.8842 242.002 38.8842 242.002 38.8842L241.999 39.3842L242.001 38.8842ZM242.001 38.8842C243.583 38.8925 245.168 38.9398 246.776 38.9879C247.485 39.0091 248.199 39.0304 248.919 39.0486L250.084 39.078L249.26 39.902L225.927 63.2295L225.477 63.6787L225.146 63.1364C224.808 62.5827 224.428 62.056 224.009 61.5612C222.634 60.1535 221.241 58.7657 219.846 57.3755C219.098 56.6306 218.35 55.8851 217.603 55.1354C216.798 54.327 216.076 53.8608 215.086 54.0954L215.084 54.0958C213.119 54.5526 212.341 56.7402 213.683 58.4183C214.248 59.123 214.894 59.7396 215.567 60.3819C215.86 60.6613 216.158 60.9456 216.457 61.2441L216.457 61.2447C217.679 62.471 218.903 63.6958 220.142 64.9366C220.75 65.545 221.362 66.1572 221.979 66.7754L222.333 67.1301L221.977 67.4834L221.089 68.3656C218.316 71.1197 215.65 73.7679 212.989 76.4185L212.981 76.4265L212.972 76.4342C212.364 76.9875 211.789 77.5767 211.25 78.1986C210.614 79.0074 210.495 79.9182 210.751 80.6821C211.01 81.4498 211.662 82.1113 212.659 82.3819L212.659 82.3819C213.633 82.6465 214.364 82.2203 215.16 81.4218C218.142 78.4224 221.137 75.4349 224.147 72.4593L224.147 72.4589C224.234 72.3728 224.318 72.2735 224.422 72.1496L224.423 72.1479C224.522 72.03 224.64 71.89 224.774 71.7598C225.055 71.4879 225.427 71.2383 225.965 71.1909L226.198 71.1704L226.363 71.3356C227.167 72.1401 227.967 72.9481 228.768 73.7564C230.688 75.6942 232.61 77.6332 234.575 79.5269C235.234 80.1623 235.83 80.3621 236.354 80.3347C236.893 80.3064 237.451 80.0324 238.012 79.5363C238.538 79.0708 238.807 78.5351 238.856 77.9892C238.906 77.4428 238.741 76.8345 238.306 76.2191M242.001 38.8842L238.306 76.2191M248.419 40.0358C248.577 40.0401 248.735 40.0443 248.894 40.0483L248.907 39.5484L248.553 39.1948L248.218 39.5301L248.419 40.0358Z" stroke="#FAF8F5"/>
<path d="M120.691 406.873C121.642 406.869 122.578 407.105 123.414 407.56C124.249 408.015 124.956 408.673 125.469 409.474C133.449 421.885 142.737 433.404 153.175 443.833C163.604 454.27 175.123 463.557 187.534 471.536C188.766 472.327 189.644 473.564 189.985 474.988C190.326 476.411 190.104 477.912 189.365 479.175L148.958 549.161C148.457 550.024 147.739 550.741 146.875 551.24C146.011 551.739 145.031 552.002 144.033 552.004C142.977 552.004 141.942 551.707 141.046 551.147C121.844 539.128 104.064 524.974 88.0452 508.957C72.0267 492.937 57.8732 475.156 45.8551 455.952C45.451 455.311 45.1816 454.594 45.063 453.845C44.9444 453.096 44.9792 452.33 45.1653 451.595C45.3478 450.854 45.6788 450.157 46.1382 449.547C46.5976 448.938 47.1759 448.427 47.8382 448.047L117.826 407.64C118.695 407.138 119.681 406.873 120.685 406.873M120.685 405.977C119.523 405.979 118.382 406.288 117.378 406.873L47.3962 447.274C46.6331 447.714 45.9663 448.303 45.4356 449.006C44.9048 449.71 44.5209 450.512 44.3066 451.367C44.0924 452.221 44.0522 453.11 44.1884 453.981C44.3246 454.851 44.6345 455.685 45.0996 456.433C69.2857 495.077 101.933 527.723 140.578 551.908C141.613 552.558 142.81 552.903 144.033 552.903C145.188 552.905 146.323 552.602 147.324 552.025C148.325 551.449 149.156 550.618 149.734 549.618L190.141 479.632C190.99 478.168 191.243 476.433 190.848 474.788C190.452 473.142 189.439 471.711 188.018 470.792C175.658 462.851 164.189 453.604 153.808 443.209C143.41 432.826 134.161 421.352 126.221 408.987C125.625 408.062 124.806 407.301 123.839 406.775C122.872 406.249 121.788 405.975 120.688 405.977H120.685Z" fill="#FAF8F5"/>
<path d="M132.823 463.377L132.927 462.753C133.442 459.667 133.278 456.884 132.368 454.414C131.459 451.948 129.795 449.759 127.254 447.877C121.872 443.894 114.566 444.564 109.817 448.747L109.816 448.747C107.348 450.912 105.717 453.872 105.206 457.115C104.695 460.356 105.336 463.674 107.018 466.492C107.427 467.164 107.919 467.558 108.443 467.725C108.967 467.892 109.585 467.852 110.285 467.537C110.976 467.225 111.413 466.772 111.621 466.252C111.829 465.732 111.833 465.087 111.547 464.349C111.43 464.05 111.289 463.757 111.137 463.442C111.122 463.41 111.106 463.378 111.09 463.346C110.925 463.001 110.75 462.632 110.613 462.243L110.612 462.241C109.193 458.156 111.017 453.344 114.894 451.384C116.804 450.418 118.912 450.066 120.956 450.5C123.004 450.935 124.949 452.152 126.538 454.255L126.538 454.255C127.739 455.845 128.233 457.953 128.081 460.005C127.929 462.059 127.126 464.106 125.667 465.574C122.911 468.348 120.125 471.097 117.341 473.844C116.02 475.148 114.7 476.451 113.384 477.755L113.384 477.755L101.399 489.633L101.398 489.633C100.91 490.116 100.601 490.514 100.563 491.101C100.487 492.285 100.915 493.096 101.781 493.63C102.374 493.996 102.905 494.091 103.387 494.019C103.879 493.946 104.372 493.691 104.864 493.27L104.864 493.27C106.36 491.991 107.812 490.662 109.271 489.328C109.734 488.905 110.196 488.482 110.662 488.059C111.834 486.993 113 485.912 114.168 484.83C116.769 482.419 119.38 479.999 122.092 477.708M132.823 463.377L122.415 478.09M132.823 463.377L133.454 463.334C135.704 463.182 137.851 463.138 139.984 463.752M132.823 463.377L139.984 463.752M122.092 477.708L122.415 478.09M122.092 477.708C122.092 477.708 122.092 477.708 122.092 477.709L122.415 478.09M122.092 477.708C123.476 476.536 124.82 475.311 126.167 474.077C126.28 473.974 126.392 473.871 126.505 473.767C127.739 472.637 128.978 471.501 130.246 470.402M122.415 478.09C123.923 476.812 125.383 475.474 126.842 474.137C128.077 473.005 129.311 471.874 130.574 470.779M130.246 470.402L130.574 470.779M130.246 470.402C131.918 468.951 134.35 468.329 136.678 468.479C139.007 468.628 141.329 469.556 142.752 471.329L142.752 471.33C143.957 472.834 144.705 474.376 144.955 475.999C145.206 477.624 144.951 479.29 144.214 481.033C143.469 482.792 142.37 484.076 140.976 484.933C139.587 485.787 137.937 486.2 136.113 486.271M130.246 470.402C130.247 470.401 130.247 470.401 130.247 470.401L130.574 470.779M130.574 470.779L136.113 486.271M136.113 486.271L136.093 485.771L136.113 486.271C136.113 486.271 136.113 486.271 136.113 486.271ZM139.984 463.752C147.692 465.978 151.984 474.305 149.447 481.773C146.722 489.792 138.042 493.158 131.428 490.568L131.427 490.567C130.228 490.103 129.154 489.668 128.196 488.934L139.984 463.752Z" stroke="#FAF8F5"/>
<path d="M87.5731 302.68C89.0385 302.679 90.4476 303.245 91.5052 304.259C92.5629 305.273 93.1872 306.657 93.2474 308.122C94.3294 332.347 99.7185 356.187 109.162 378.522C111.214 383.378 113.475 388.204 115.885 392.872C116.553 394.169 116.696 395.672 116.284 397.072C115.873 398.471 114.938 399.658 113.675 400.386L43.6358 440.823C42.7742 441.321 41.7968 441.584 40.8017 441.585C39.7753 441.586 38.7677 441.309 37.8863 440.783C37.0048 440.257 36.2825 439.502 35.7963 438.598C25.2511 418.903 16.9667 398.078 11.1011 376.521C5.08371 354.33 1.66018 331.516 0.899179 308.537C0.871731 307.779 0.998441 307.024 1.27154 306.316C1.54464 305.609 1.95847 304.964 2.48801 304.421C3.01597 303.871 3.65037 303.433 4.35267 303.134C5.05497 302.836 5.8105 302.684 6.5735 302.686H87.5731M87.5731 301.79H6.5735C5.69307 301.79 4.82159 301.966 4.01071 302.309C3.19983 302.652 2.46611 303.155 1.85324 303.787C1.24036 304.419 0.760768 305.168 0.442966 305.989C0.125165 306.81 -0.0243815 307.687 0.00323234 308.567C1.48223 354.164 13.459 398.805 35.0019 439.019C35.5642 440.067 36.4003 440.943 37.4212 441.553C38.4421 442.163 39.6094 442.485 40.7987 442.484C41.9534 442.479 43.0865 442.17 44.0838 441.588L114.123 401.151C115.585 400.306 116.665 398.932 117.141 397.312C117.616 395.692 117.45 393.952 116.676 392.451C114.269 387.792 112.037 383.03 109.981 378.164C100.575 355.928 95.2102 332.193 94.1374 308.074C94.0672 306.379 93.3441 304.777 92.1195 303.603C90.8948 302.429 89.2636 301.774 87.5671 301.775L87.5731 301.79Z" fill="#FAF8F5"/>
<path d="M53.1235 358.085L53.2076 358.512C53.2905 358.932 53.3727 359.348 53.4542 359.761C53.9506 362.273 54.4204 364.651 54.857 367.04C54.9296 367.417 54.9912 367.738 55.0123 367.998C55.0335 368.259 55.0228 368.542 54.8765 368.801C54.7289 369.063 54.4915 369.215 54.2587 369.327C54.0351 369.434 53.7431 369.537 53.4064 369.655L53.3783 369.664L53.3759 369.665C48.7219 371.27 44.5418 374.011 41.2143 377.639L41.2078 377.646L41.2078 377.646C39.1584 379.797 37.4681 382.263 36.2015 384.951C35.7581 385.921 35.4512 386.677 35.8543 387.509C36.1 388.016 36.3709 388.417 36.6994 388.688C37.0143 388.948 37.4034 389.105 37.9382 389.091C38.5591 389.074 39.0998 388.981 39.5433 388.761C39.9729 388.548 40.3386 388.203 40.598 387.619L40.5998 387.615C41.9727 384.598 43.9566 381.898 46.4264 379.687C49.0735 377.262 52.0542 375.349 55.722 374.23L56.2515 374.069L56.3584 374.612C56.5039 375.351 56.642 376.079 56.7785 376.798C57.0959 378.47 57.4044 380.096 57.7767 381.713L57.7775 381.717C57.9394 382.447 58.2756 382.905 58.7076 383.161C59.1477 383.422 59.7613 383.517 60.5536 383.368C61.3464 383.219 61.887 382.909 62.2106 382.506C62.5288 382.109 62.686 381.562 62.5959 380.829L62.5957 380.828C62.4996 380.033 62.3385 379.276 62.1684 378.477C62.0898 378.107 62.0093 377.729 61.9324 377.334C61.7932 376.619 61.6522 375.906 61.5072 375.172C61.4063 374.662 61.3034 374.142 61.1978 373.604L61.0913 373.062L61.6421 373.01C64.0924 372.782 66.5634 372.944 68.9627 373.491C73.2619 374.387 77.2521 376.392 80.5366 379.307L80.5371 379.308C81.2331 379.927 81.9611 380.189 82.6092 380.18C83.2534 380.171 83.8619 379.894 84.3375 379.352C84.8697 378.742 85.0663 378.101 84.9937 377.472C84.92 376.834 84.5601 376.141 83.8516 375.464C82.3885 374.1 80.7635 372.921 79.0131 371.954L79.0032 371.948L79.0033 371.948C73.7782 368.903 67.7563 367.505 61.7241 367.935L61.7224 367.935C61.6975 367.937 61.672 367.939 61.6461 367.941C61.5027 367.951 61.346 367.962 61.2018 367.961C61.0287 367.961 60.8274 367.944 60.6306 367.869C60.1717 367.694 59.9394 367.288 59.8408 366.75L59.8407 366.75C59.4361 364.535 58.9968 362.327 58.5495 360.078C58.3837 359.244 58.2168 358.405 58.0501 357.558L57.9645 357.123L58.3862 356.986C62.8711 355.529 66.8489 353.404 70.2544 350.301L70.2579 350.298C73.0466 347.804 75.3384 344.805 77.0123 341.459C77.4885 340.491 77.7985 339.728 77.4277 338.899C76.974 337.883 76.3834 337.231 75.4034 337.244C74.788 337.253 74.237 337.33 73.7791 337.537C73.3368 337.737 72.9596 338.068 72.6934 338.639C72.6933 338.639 72.6931 338.64 72.693 338.64L72.2398 338.429C71.8874 339.193 71.4885 339.935 71.0452 340.651L53.1235 358.085ZM53.1235 358.085L52.6896 358.109C48.7051 358.328 44.9423 358.075 41.2639 357L41.261 356.999C36.8556 355.739 32.7918 353.5 29.3732 350.45C28.8751 350.005 28.5176 349.561 28.3242 349.087C28.1358 348.626 28.0895 348.103 28.27 347.465L28.2701 347.464C28.5533 346.459 29.2663 345.943 30.2957 345.694M53.1235 358.085L30.2957 345.694M30.2957 345.694C31.261 345.46 32.0494 345.96 32.867 346.716C34.8597 348.558 37.1556 349.86 39.5717 350.944C43.3061 352.627 47.2167 353.264 51.5555 353.003L52.1267 352.969L52.016 352.407L50.9559 347.032L50.9538 347.021L50.9512 347.011C50.8069 346.415 50.695 345.813 50.616 345.205C50.5541 344.481 50.7202 343.936 51.0406 343.542C51.366 343.142 51.8989 342.837 52.6783 342.693L30.2957 345.694Z" stroke="#FAF8F5"/>
<path d="M201.538 480.488C202.442 480.488 203.332 480.705 204.134 481.121C208.799 483.531 213.625 485.792 218.469 487.847C240.804 497.29 264.644 502.678 288.869 503.759C290.333 503.819 291.718 504.443 292.732 505.501C293.746 506.558 294.312 507.967 294.311 509.433V590.432C294.311 591.934 293.715 593.375 292.655 594.438C291.595 595.502 290.156 596.102 288.654 596.107H288.463C265.483 595.347 242.669 591.924 220.479 585.905C198.922 580.039 178.097 571.756 158.402 561.213C157.731 560.856 157.139 560.367 156.662 559.775C156.185 559.183 155.833 558.501 155.627 557.769C155.417 557.038 155.356 556.271 155.45 555.516C155.543 554.76 155.789 554.031 156.171 553.373L196.608 483.334C197.108 482.472 197.825 481.756 198.688 481.258C199.551 480.759 200.53 480.496 201.526 480.494M201.526 479.598C200.373 479.598 199.239 479.901 198.24 480.478C197.241 481.054 196.411 481.884 195.834 482.883L155.397 552.922C154.957 553.684 154.674 554.527 154.566 555.4C154.457 556.274 154.525 557.16 154.766 558.006C155.007 558.853 155.415 559.642 155.967 560.328C156.518 561.014 157.202 561.582 157.978 561.998C198.192 583.542 242.835 595.52 288.433 597H288.654C290.394 596.995 292.06 596.301 293.289 595.069C294.517 593.837 295.207 592.169 295.207 590.429V509.43C295.208 507.734 294.554 506.103 293.38 504.879C292.207 503.654 290.606 502.931 288.911 502.86C264.791 501.786 241.055 496.42 218.818 487.013C213.956 484.959 209.194 482.728 204.531 480.321C203.603 479.839 202.572 479.587 201.526 479.586V479.598Z" fill="#FAF8F5"/>
<path d="M245.888 532.843L245.187 533.076L245.665 533.64C250.224 539.02 251.786 545.117 249.817 551.827L249.817 551.827L249.815 551.833C249.131 554.284 247.929 556.559 246.291 558.506C244.653 560.453 242.616 562.026 240.319 563.119L240.319 563.119L240.313 563.122C235.856 565.318 230.711 565.662 226.002 564.077C221.293 562.493 217.403 559.109 215.181 554.666C210.492 545.175 214.731 533.178 225.166 529.006L225.396 528.914L225.462 528.675C225.531 528.425 225.531 528.183 225.447 527.956C225.366 527.736 225.222 527.581 225.093 527.473C224.98 527.38 224.854 527.301 224.764 527.246C224.755 527.24 224.746 527.235 224.738 527.23C224.63 527.163 224.577 527.126 224.546 527.096C221.338 523.983 219.133 520.357 218.331 515.957L218.33 515.948L218.328 515.94C218.214 515.417 218.133 514.887 218.087 514.354C217.993 512.586 218.918 511.444 220.17 511.302C221.007 511.212 221.707 511.42 222.218 511.842C222.731 512.264 223.1 512.939 223.202 513.864L223.202 513.864C223.743 518.773 226.319 522.398 230.253 525.078C236.301 529.203 244.535 529.384 250.407 525.275L250.407 525.275L250.415 525.269C252.051 524.075 253.443 522.579 254.518 520.863C255.162 519.895 256.095 519.481 256.949 519.528C257.801 519.575 258.627 520.081 259.068 521.075C259.53 522.123 259.138 523.075 258.45 524.166L258.45 524.166C256.146 527.835 252.835 530.27 248.835 531.845L248.835 531.845L248.827 531.849C248.225 532.097 247.621 532.288 246.935 532.505C246.608 532.609 246.262 532.718 245.888 532.843ZM218.678 543.353C216.686 551.974 222.837 558.579 228.758 559.489C234.981 561.524 243.334 557.596 245.166 549.558C245.586 547.818 245.656 546.012 245.373 544.244C245.089 542.476 244.457 540.781 243.513 539.259C242.569 537.736 241.332 536.417 239.873 535.377C238.415 534.337 236.765 533.597 235.018 533.2C228.216 531.654 220.552 535.242 218.678 543.353Z" stroke="#FAF8F5"/>
<path d="M40.8075 155.419C41.8026 155.42 42.78 155.683 43.6416 156.181L113.678 196.618C114.939 197.347 115.872 198.534 116.282 199.933C116.693 201.331 116.549 202.834 115.882 204.129C113.472 208.797 111.211 213.623 109.159 218.479C99.7154 240.814 94.3262 264.654 93.2442 288.879C93.1833 290.343 92.5587 291.727 91.501 292.74C90.4434 293.754 89.0348 294.319 87.5699 294.318H6.57042C5.80771 294.32 5.05238 294.168 4.35017 293.87C3.64796 293.573 3.01338 293.136 2.48485 292.586C1.95531 292.043 1.54149 291.398 1.26839 290.691C0.995286 289.984 0.868648 289.228 0.896096 288.47C1.6571 265.491 5.08056 242.677 11.0979 220.486C16.9636 198.929 25.2479 178.104 35.7932 158.409C36.2793 157.505 37.0017 156.75 37.8831 156.224C38.7645 155.698 39.7721 155.421 40.7985 155.422M40.7985 154.526C39.6092 154.525 38.4419 154.847 37.421 155.457C36.4001 156.067 35.564 156.943 35.0018 157.991C13.4588 198.205 1.48214 242.846 0.00313962 288.443C-0.024066 289.323 0.125764 290.2 0.443749 291.02C0.761733 291.841 1.24133 292.589 1.85416 293.221C2.467 293.853 3.20053 294.355 4.0112 294.698C4.82187 295.041 5.69323 295.217 6.57341 295.217H87.5729C89.2689 295.218 90.8997 294.564 92.1242 293.391C93.3488 292.217 94.0722 290.616 94.1432 288.921C95.216 264.802 100.581 241.067 109.986 218.831C112.041 213.967 114.273 209.205 116.682 204.544C117.456 203.044 117.622 201.303 117.146 199.683C116.671 198.064 115.59 196.689 114.129 195.845L44.0926 155.404C43.0939 154.828 41.9609 154.524 40.8075 154.523L40.7985 154.526Z" fill="#FAF8F5"/>
<path d="M66.1756 249.296L65.4448 249.565C65.2489 249.637 65.1033 249.694 64.9814 249.742C64.9528 249.753 64.9254 249.764 64.8991 249.774C64.764 249.826 64.642 249.872 64.5104 249.907L64.5029 249.909L64.5029 249.909C63.3483 250.196 62.1936 250.484 61.0385 250.773C57.4921 251.66 53.9419 252.547 50.3793 253.381L50.3792 253.381C49.7369 253.531 49.3138 253.794 49.0136 254.137C48.7067 254.487 48.4952 254.96 48.3444 255.586C48.0693 256.732 48.7299 257.417 49.6031 258.322C49.6301 258.35 49.6573 258.378 49.6847 258.407L49.3246 258.754M66.1756 249.296L72.4997 247.638C72.5724 247.709 72.6521 247.773 72.732 247.838C72.8163 247.906 72.9008 247.974 72.9775 248.05L72.6234 248.403M66.1756 249.296L65.6274 248.743C62.5028 245.592 59.4885 242.557 56.4745 239.522M66.1756 249.296L56.4745 239.522M49.3246 258.754L49.6843 258.406C50.7503 259.511 51.8373 260.581 52.9285 261.655C53.537 262.254 54.1469 262.854 54.7551 263.462C55.7685 264.476 56.7787 265.491 57.7885 266.505C59.651 268.377 61.5123 270.247 63.39 272.103L63.3913 272.104C63.4207 272.134 63.4499 272.163 63.4787 272.192C64.1566 272.868 64.6881 273.398 65.5191 273.416L65.5198 273.416C66.6752 273.443 67.7938 272.804 68.1113 271.927L68.1154 271.916L68.12 271.905C68.3256 271.412 68.3769 270.869 68.267 270.347C68.1572 269.825 67.8915 269.348 67.505 268.98L67.4997 268.975L67.4945 268.97C66.4883 267.954 65.4805 266.946 64.4716 265.937C63.6453 265.111 62.8183 264.284 61.991 263.452L61.9907 263.451C60.2465 261.693 58.5012 259.932 56.755 258.168L56.3942 257.803L56.7678 257.452C57.2485 257 57.8592 256.71 58.5131 256.625C59.8177 256.309 61.1226 255.989 62.4283 255.67C65.3412 254.958 68.2574 254.245 71.1789 253.563C71.8889 253.397 72.4846 253.187 72.9453 252.862C73.3908 252.547 73.7289 252.112 73.9071 251.445C74.2264 250.238 73.5915 249.374 72.624 248.404C72.6238 248.404 72.6236 248.403 72.6234 248.403M49.3246 258.754C50.3944 259.862 51.4902 260.941 52.5849 262.018C53.1923 262.616 53.7994 263.214 54.4016 263.816C55.4131 264.827 56.4224 265.842 57.4319 266.856C59.2954 268.728 61.1594 270.601 63.0385 272.459L47.8582 255.469C47.5175 256.888 48.3698 257.768 49.1963 258.621C49.2392 258.665 49.282 258.71 49.3246 258.754ZM72.6234 248.403C72.5708 248.351 72.5094 248.3 72.4252 248.233L72.4133 248.223C72.3372 248.162 72.2404 248.084 72.1498 247.995L72.1451 247.991L72.1451 247.991L62.3912 238.177L62.0796 237.863L62.3526 237.516C62.7402 237.022 63.2139 236.805 63.6611 236.688C63.8774 236.632 64.0932 236.597 64.2808 236.568L64.2927 236.566C64.4832 236.536 64.6427 236.511 64.7917 236.474M72.6234 248.403L64.7917 236.474M56.4745 239.522C55.9926 238.997 55.4843 238.497 54.9517 238.024L54.9435 238.017L54.9351 238.01C54.0246 237.269 53.7909 236.209 54.0641 235.26C54.3395 234.303 55.1288 233.471 56.2725 233.231L56.2728 233.231C59.4823 232.554 62.6728 231.757 65.8522 230.964C67.17 230.635 68.486 230.306 69.8006 229.987C69.9992 229.94 70.2031 229.887 70.4343 229.826C70.5979 229.784 70.7751 229.737 70.9738 229.687L71.7176 229.499L71.2451 228.895C70.2598 227.634 69.1411 226.548 68.0678 225.507C67.5929 225.046 67.127 224.593 66.6854 224.139L66.6852 224.138C65.7435 223.169 64.8036 222.223 63.8662 221.278C62.7339 220.138 61.6051 219.001 60.481 217.833C59.6128 216.929 59.3619 215.971 59.5442 215.207C59.7245 214.452 60.3595 213.755 61.5448 213.426L61.5449 213.426C64.4568 212.615 67.3941 211.908 70.3416 211.198C71.5565 210.905 72.7731 210.612 73.9904 210.312L73.9906 210.312C74.7409 210.126 75.4867 209.936 76.2305 209.747C77.7979 209.348 79.3567 208.951 80.9317 208.6L56.4745 239.522ZM68.6948 218.025C69.5157 219.101 70.4861 220.028 71.4532 220.953C71.9816 221.458 72.509 221.962 73.0104 222.489M68.6948 218.025L80.9319 208.6C81.0827 208.566 81.2264 208.532 81.3656 208.498C81.73 208.411 82.063 208.331 82.4088 208.296C82.8612 208.25 83.2712 208.293 83.6672 208.507L83.6745 208.511L83.6819 208.515C84.1662 208.756 84.5685 209.135 84.8382 209.605C85.1079 210.074 85.2331 210.612 85.1981 211.153L85.1974 211.162L85.1972 211.172C85.1862 211.586 84.9783 212.059 84.6053 212.476C84.235 212.89 83.7361 213.21 83.2115 213.34L83.211 213.34C80.2869 214.067 77.3598 214.777 74.4307 215.489C72.9933 215.838 71.5555 216.187 70.1173 216.538L70.117 216.538C70.0134 216.563 69.8965 216.586 69.7696 216.611C69.2946 216.703 68.6813 216.822 68.1168 217.208L67.6994 217.494L67.9899 217.908C68.6687 218.876 69.4641 219.715 70.2695 220.506C70.5554 220.786 70.8393 221.058 71.1202 221.326C71.6425 221.825 72.1542 222.314 72.6482 222.834L73.0104 222.489M68.6948 218.025C68.6904 218.027 68.686 218.03 68.6816 218.033L68.3992 217.621L68.8086 217.334C68.8192 217.349 68.83 217.364 68.8407 217.379C69.1648 217.241 69.4889 217.177 69.808 217.115C69.9519 217.086 70.0947 217.058 70.236 217.024C71.6727 216.673 73.1098 216.324 74.5468 215.975C77.4767 215.264 80.4062 214.552 83.3317 213.825C84.5979 213.511 85.6671 212.311 85.697 211.185C85.7384 210.547 85.5905 209.91 85.2717 209.356L68.6948 218.025ZM73.0104 222.489L72.6482 222.834C73.8023 224.046 75.0051 225.236 76.1989 226.417C76.9582 227.168 77.714 227.916 78.4511 228.664L78.4513 228.664C79.4914 229.718 79.7615 230.758 79.5347 231.562C79.3079 232.366 78.5315 233.12 77.0753 233.487L77.0752 233.487C75.0361 234.001 72.9897 234.49 70.9397 234.979L70.9385 234.979C68.8899 235.468 66.8377 235.958 64.7917 236.474M73.0104 222.489L64.7917 236.474M78.8072 228.312C81.047 230.582 80.3273 233.183 77.1975 233.972C75.1547 234.487 73.1052 234.976 71.0557 235.465L78.8072 228.312Z" stroke="#FAF8F5"/>
<path d="M40.4906 231.403L41.3409 231.189C41.9181 231.044 42.4199 230.915 42.8796 230.797C43.4131 230.66 43.89 230.538 44.3622 230.421L44.3648 230.42C45.159 230.228 45.9536 230.036 46.7484 229.844C49.8465 229.093 52.9474 228.343 56.0385 227.613L56.0422 227.612L56.0422 227.612C56.7457 227.451 57.2953 227.203 57.6939 226.843C58.0837 226.491 58.3635 226.002 58.479 225.288C58.6417 224.259 58.2039 223.525 57.4103 222.734L57.4093 222.733C54.7171 220.036 52.0425 217.343 49.3652 214.647C48.9265 214.206 48.4877 213.764 48.0488 213.322L48.0472 213.32C47.9844 213.257 47.9158 213.197 47.829 213.123C47.8106 213.107 47.7914 213.09 47.7712 213.073C47.6648 212.98 47.5361 212.866 47.4205 212.729C47.1693 212.433 46.9901 212.041 47.0561 211.502L47.0975 211.164L47.4267 211.079C47.7688 210.99 48.1135 210.899 48.4602 210.808C49.1896 210.616 49.9274 210.421 50.6666 210.238C50.6666 210.238 50.6667 210.238 50.6667 210.238L50.7867 210.724C54.4661 209.813 58.1484 208.917 61.8368 208.021L40.4906 231.403ZM40.4906 231.403L41.1078 232.026C42.8054 233.739 44.4338 235.376 46.0291 236.979C47.2397 238.196 48.4312 239.394 49.6195 240.591L49.6202 240.592C49.8284 240.801 50.0363 241.008 50.2435 241.215C50.8298 241.799 51.4101 242.378 51.9728 242.971M40.4906 231.403L51.9728 242.971M51.9728 242.971C52.8516 243.913 53.0803 244.891 52.8664 245.667C52.6534 246.44 51.9632 247.15 50.7151 247.482C48.5481 248.056 46.3847 248.578 44.2152 249.102C42.5719 249.499 40.9251 249.896 39.2705 250.318C39.0416 250.376 38.7933 250.426 38.5309 250.478C37.6978 250.646 36.7225 250.842 35.7742 251.417L35.2337 251.745L35.6773 252.196C36.1759 252.702 36.6607 253.198 37.1369 253.685C37.9615 254.529 38.7606 255.346 39.5622 256.146C40.5517 257.137 41.5419 258.123 42.5314 259.107C43.8791 260.449 45.2255 261.789 46.5676 263.14C47.0076 263.584 47.23 264.047 47.294 264.518C47.3587 264.995 47.2668 265.52 47.0077 266.089L47.0076 266.09C46.5914 267.006 45.7911 267.407 44.7028 267.519L44.7018 267.519C44.001 267.593 43.4598 267.228 42.8648 266.654C41.405 265.242 39.9652 263.805 38.5325 262.363L38.5321 262.363C35.3609 259.178 32.1946 255.992 29.0333 252.807C29.0331 252.807 29.0329 252.807 29.0327 252.806L28.6778 253.159M51.9728 242.971L28.2874 252.064M28.6778 253.159C28.5538 253.033 28.4291 252.91 28.3045 252.787C28.1798 252.664 28.0551 252.541 27.9312 252.415M28.6778 253.159C31.8395 256.344 35.0062 259.53 38.1778 262.715L28.6778 253.159ZM27.9312 252.415L28.2877 252.065C28.2876 252.064 28.2875 252.064 28.2874 252.064M27.9312 252.415L28.2868 252.064C28.287 252.064 28.2872 252.064 28.2874 252.064M27.9312 252.415C25.8406 250.289 26.7725 247.487 29.6395 246.821M28.2874 252.064C27.3496 251.11 27.1376 250.065 27.4032 249.221C27.6708 248.37 28.4587 247.609 29.7526 247.308M29.6395 246.821L29.7522 247.309C29.7524 247.308 29.7525 247.308 29.7526 247.308M29.6395 246.821C32.9638 246.052 36.2785 245.242 39.5929 244.432C40.7806 244.142 41.9683 243.852 43.1563 243.563L29.7526 247.308M29.6395 246.821L29.7526 247.308M35.3433 227.357C37.8046 226.737 40.2708 226.144 42.7401 225.549C44.0922 225.224 45.4452 224.898 46.7988 224.568C47.4715 224.405 48.1439 224.228 48.8698 224.037C49.2505 223.936 49.6459 223.832 50.0638 223.724L50.9039 223.507L50.2947 222.889C49.6343 222.219 48.9842 221.558 48.3406 220.904C46.9485 219.488 45.5865 218.103 44.2154 216.726L44.2147 216.725C43.8137 216.324 43.4138 215.917 43.0122 215.507C41.9347 214.409 40.8449 213.298 39.6901 212.271C38.7223 211.407 38.3846 210.321 38.5962 209.408C38.8045 208.509 39.5764 207.648 41.1045 207.292C44.0684 206.603 47.0254 205.871 49.9783 205.139C51.6601 204.723 53.3405 204.306 55.0201 203.899L55.0206 203.899C56.4316 203.555 57.8451 203.227 59.2621 202.898C59.8968 202.751 60.5322 202.603 61.1684 202.454L61.1712 202.454C61.7024 202.326 62.1488 202.364 62.5338 202.52C62.9233 202.678 63.2858 202.971 63.6189 203.408C63.9691 203.868 64.1256 204.327 64.1437 204.784C64.162 205.247 64.0393 205.741 63.7785 206.266C63.7784 206.266 63.7784 206.266 63.7784 206.266C63.7784 206.266 63.7783 206.266 63.7783 206.266L35.3433 227.357Z" stroke="#FAF8F5"/>
<path d="M476.317 406.874C477.321 406.875 478.306 407.139 479.175 407.641L549.161 448.049C549.826 448.427 550.407 448.936 550.869 449.546C551.331 450.156 551.664 450.854 551.848 451.596C552.034 452.332 552.069 453.097 551.951 453.846C551.832 454.595 551.563 455.312 551.158 455.954C539.14 475.157 524.987 492.939 508.968 508.958C492.949 524.976 475.169 539.129 455.967 551.148C455.072 551.709 454.037 552.006 452.981 552.005C451.982 552.004 451.002 551.741 450.137 551.242C449.272 550.743 448.554 550.026 448.053 549.162L407.649 479.177C406.91 477.913 406.687 476.413 407.028 474.989C407.37 473.565 408.248 472.328 409.48 471.537C421.885 463.558 433.4 454.27 443.824 443.835C454.261 433.405 463.55 421.886 471.53 409.475C472.043 408.674 472.75 408.016 473.585 407.561C474.42 407.106 475.357 406.87 476.308 406.874M476.308 405.978C475.207 405.976 474.124 406.251 473.157 406.777C472.19 407.303 471.371 408.063 470.774 408.988C462.835 421.35 453.588 432.821 443.191 443.201C432.81 453.596 421.34 462.844 408.981 470.785C407.56 471.704 406.546 473.134 406.151 474.78C405.756 476.426 406.009 478.16 406.857 479.625L447.265 549.61C447.842 550.61 448.673 551.441 449.674 552.018C450.675 552.594 451.811 552.897 452.966 552.895C454.188 552.896 455.386 552.551 456.421 551.901C495.065 527.715 527.711 495.069 551.896 456.426C552.361 455.677 552.671 454.843 552.807 453.973C552.944 453.102 552.903 452.214 552.689 451.359C552.475 450.505 552.091 449.702 551.56 448.999C551.029 448.296 550.363 447.706 549.6 447.266L479.614 406.859C478.61 406.274 477.47 405.965 476.308 405.963V405.978Z" fill="#FAF8F5"/>
<path d="M453.501 477.209L453.44 478.108L454.235 477.684C460.565 474.309 467.493 477.073 470.099 483.179C472.036 487.729 470.352 493.419 466.058 496.387L466.058 496.388C464.056 497.776 461.649 498.455 459.217 498.319C456.786 498.183 454.469 497.239 452.635 495.637L452.632 495.634C450.837 494.092 449.575 492.022 449.027 489.72C446.829 480.223 448.214 471.297 453.187 462.912L453.187 462.912C455.204 459.509 457.729 456.434 460.676 453.795L460.677 453.795C466.754 448.347 473.613 444.856 481.939 445.038L481.942 445.038C483.933 445.068 485.909 445.388 487.807 445.988C487.956 446.036 488.055 446.083 488.118 446.124C488.155 446.148 488.172 446.165 488.179 446.173C488.178 446.201 488.164 446.287 488.047 446.467L488.033 446.489L488.021 446.513C487.979 446.595 487.944 446.681 487.917 446.768C487.772 447.121 487.649 447.489 487.534 447.847C487.508 447.928 487.482 448.007 487.457 448.086C487.366 448.373 487.278 448.649 487.181 448.919C486.933 449.613 486.659 450.168 486.258 450.538L486.257 450.539C485.924 450.847 485.493 450.858 484.8 450.675C484.591 450.62 484.397 450.559 484.191 450.494C484.043 450.448 483.889 450.4 483.719 450.35C483.342 450.24 482.928 450.139 482.511 450.122C478.019 449.942 473.743 450.905 469.939 453.242L469.939 453.242C462.586 457.773 457.126 463.961 454.447 472.361C453.93 473.932 453.612 475.56 453.501 477.209ZM488.178 446.163C488.178 446.163 488.178 446.165 488.179 446.169C488.178 446.165 488.177 446.164 488.178 446.163ZM464.146 483.213V483.206L464.003 483.06C463.455 482.502 462.803 482.058 462.082 481.754C461.361 481.45 460.588 481.293 459.806 481.291C459.024 481.289 458.249 481.443 457.527 481.743C456.805 482.044 456.15 482.485 455.6 483.041L455.598 483.043C453.321 485.372 453.312 489.199 455.604 491.462L455.605 491.462C457.948 493.774 461.781 493.818 464.074 491.526C466.32 489.28 466.263 485.506 464.146 483.213Z" stroke="#FAF8F5"/>
<path d="M498.205 474.008L498.1 474.934C497.823 477.364 497.215 479.744 496.293 482.009C493.785 488.249 489.696 493.247 484.265 497.16C478.816 501.085 472.797 502.935 466.027 501.484C465.606 501.394 465.426 501.42 465.335 501.463C465.262 501.497 465.151 501.588 465.019 501.936C464.994 502.004 464.968 502.072 464.943 502.14C464.527 503.243 464.1 504.378 463.578 505.467L463.575 505.472L463.575 505.472C463.378 505.871 463.45 505.971 463.452 505.975L463.453 505.975C463.485 506.026 463.608 506.127 464.012 506.245C467.394 507.214 470.951 507.402 474.416 506.795L474.422 506.794L474.422 506.794C481.182 505.686 486.746 502.227 491.713 497.625C494.28 495.201 496.488 492.423 498.27 489.376L498.273 489.372C503.389 480.811 504.882 471.704 502.399 462.005L498.205 474.008ZM498.205 474.008L497.375 474.433M498.205 474.008L497.375 474.433M497.375 474.433C493.903 476.209 490.457 476.509 487.02 474.837L487.019 474.837M497.375 474.433L487.019 474.837M487.019 474.837C481.28 472.054 478.598 465.075 482.335 459.164L482.335 459.164M487.019 474.837L482.335 459.164M482.335 459.164C484.809 455.247 488.515 453.289 493.334 453.933M482.335 459.164L493.334 453.933M493.334 453.933C495.475 454.228 497.48 455.152 499.095 456.589C500.709 458.027 501.859 459.912 502.399 462.005L493.334 453.933ZM487.472 460.732L487.472 460.732C486.347 461.874 485.805 463.467 485.814 465.025C485.822 466.583 486.381 468.157 487.524 469.254L487.524 469.254C488.644 470.327 490.257 470.837 491.825 470.811C493.392 470.785 494.987 470.222 496.057 469.055C498.488 466.406 498.098 462.868 495.964 460.595C493.768 458.257 489.724 458.448 487.472 460.732Z" stroke="#FAF8F5"/>
<path d="M452.972 44.9977C454.029 44.9972 455.064 45.2943 455.959 45.8549C475.161 57.8738 492.941 72.0272 508.96 88.0449C524.978 104.064 539.131 121.844 551.15 141.046C551.554 141.688 551.824 142.405 551.942 143.154C552.061 143.903 552.026 144.668 551.84 145.403C551.657 146.147 551.324 146.845 550.862 147.456C550.4 148.066 549.818 148.576 549.152 148.954L479.167 189.362C478.298 189.863 477.312 190.128 476.309 190.129C475.358 190.133 474.421 189.897 473.586 189.442C472.75 188.987 472.044 188.329 471.531 187.528C463.551 175.117 454.263 163.597 443.825 153.168C433.4 142.732 421.886 133.445 409.48 125.466C408.249 124.674 407.37 123.438 407.029 122.014C406.688 120.59 406.91 119.09 407.65 117.826L448.054 47.8409C448.554 46.9772 449.273 46.2601 450.138 45.7611C451.003 45.2622 451.983 44.999 452.981 44.9977M452.981 44.1018C451.826 44.0998 450.691 44.4025 449.69 44.9792C448.689 45.556 447.858 46.3865 447.28 47.3869L406.873 117.372C406.024 118.837 405.771 120.571 406.167 122.217C406.562 123.863 407.575 125.293 408.996 126.212C421.356 134.153 432.826 143.401 443.207 153.795C453.602 164.176 462.85 175.645 470.79 188.006C471.386 188.931 472.205 189.693 473.172 190.219C474.139 190.746 475.223 191.021 476.324 191.019C477.486 191.018 478.626 190.709 479.63 190.123L549.615 149.719C550.378 149.279 551.045 148.689 551.576 147.986C552.107 147.283 552.49 146.48 552.705 145.626C552.919 144.771 552.959 143.882 552.823 143.012C552.687 142.142 552.377 141.308 551.912 140.559C527.727 101.916 495.08 69.2697 456.437 45.0844C455.402 44.4342 454.204 44.0894 452.981 44.0898V44.1018Z" fill="#FAF8F5"/>
<path d="M456.052 112.936L455.489 112.349L453.856 110.643L453.854 110.641C453.287 110.043 452.724 109.444 452.161 108.846C450.94 107.548 449.722 106.254 448.482 104.972C447.975 104.453 447.463 104.213 446.977 104.178C446.49 104.144 445.957 104.311 445.399 104.744L456.052 112.936ZM456.052 112.936L456.322 112.169M456.052 112.936L456.322 112.169M456.322 112.169C457.894 107.707 460.221 104.151 463.461 101.305L456.322 112.169ZM487.813 95.6315L487.813 95.6314C478.646 92.8444 470.559 95.0739 463.461 101.305L487.813 95.6315ZM487.813 95.6315C490.417 96.4216 492.731 97.852 494.855 99.6912L494.855 99.6913M487.813 95.6315L494.855 99.6913M494.855 99.6913C499.832 104 502.186 109.455 502.274 115.955L502.274 115.955M494.855 99.6913L502.274 115.955M502.274 115.955C502.35 121.353 500.692 126.234 497.48 130.583C493.929 135.386 489.388 138.812 483.316 140.636L482.543 140.869L483.096 141.457L484.29 142.73L484.293 142.732C484.616 143.071 484.939 143.41 485.262 143.749C486.933 145.502 488.605 147.255 490.263 149.027C490.738 149.535 490.969 150.062 491.007 150.548C491.045 151.03 490.897 151.513 490.539 151.954M502.274 115.955L490.539 151.954M490.539 151.954C489.99 152.625 489.416 152.997 488.864 153.121C488.325 153.243 487.745 153.143 487.136 152.753C486.718 152.446 486.337 152.091 486.001 151.695L485.991 151.684L485.982 151.674C482.775 148.304 479.57 144.927 476.369 141.545L476.363 141.539L476.358 141.533C476.071 141.25 475.8 140.952 475.544 140.641C474.839 139.714 474.748 138.736 475.065 137.98C475.382 137.223 476.144 136.601 477.322 136.463C479.993 136.149 482.68 135.73 485.189 134.475C491.098 131.521 495.164 126.888 496.623 120.4C498.052 114.056 496.849 108.113 491.664 103.598C487.591 100.046 482.719 98.9813 477.483 99.8564C473.126 100.58 469.112 102.672 466.023 105.828C462.933 108.985 460.928 113.043 460.298 117.415L460.296 117.428L460.295 117.441C460.248 117.966 460.154 118.486 460.016 118.994C459.89 119.364 459.678 119.7 459.397 119.972C459.114 120.248 458.769 120.453 458.39 120.569C458.012 120.684 457.611 120.708 457.222 120.638C456.834 120.568 456.468 120.407 456.154 120.167C455.955 120.01 455.77 119.837 455.599 119.649L455.599 119.649L455.592 119.641C454.692 118.694 453.791 117.749 452.891 116.803C450.338 114.122 447.787 111.444 445.265 108.738L445.264 108.738C444.534 107.955 444.253 107.219 444.284 106.584C444.314 105.955 444.656 105.32 445.399 104.744L490.539 151.954Z" stroke="#FAF8F5"/>
<path d="M461.883 133.851L461.883 133.851C455.001 126.586 448.11 119.326 441.211 112.071L441.211 112.071C440.61 111.438 440.045 111.167 439.537 111.141C439.033 111.115 438.481 111.325 437.89 111.87L437.889 111.871C437.249 112.459 436.963 113.04 436.932 113.587C436.902 114.133 437.122 114.743 437.695 115.403C437.839 115.567 437.981 115.714 438.133 115.871C438.221 115.961 438.311 116.054 438.407 116.156C438.407 116.156 438.407 116.156 438.408 116.156L478.285 158.192L461.883 133.851ZM461.883 133.851C468.675 141.019 475.466 148.18 482.257 155.336M461.883 133.851L482.257 155.336M482.257 155.336C482.358 155.443 482.455 155.541 482.545 155.633M482.257 155.336L482.545 155.633M482.545 155.633C482.989 156.084 483.297 156.397 483.353 156.939M482.545 155.633L483.353 156.939M483.353 156.939C483.452 157.907 482.93 158.927 481.835 159.564C481.141 159.962 480 159.852 479.276 159.227C479.043 159.026 478.848 158.81 478.631 158.57C478.524 158.45 478.411 158.325 478.285 158.193L483.353 156.939ZM437.551 111.503C438.865 110.29 440.26 110.344 441.574 111.727L437.551 111.503Z" stroke="#FAF8F5"/>
<circle cx="381.568" cy="355.355" r="5.14582" fill="#FAF8F5"/>
<circle cx="382.3" cy="316.394" r="2.94047" fill="#FAF8F5"/>
<circle cx="356.327" cy="291.887" r="3.92063" fill="#FAF8F5"/>
<circle cx="362.214" cy="262.485" r="2.94048" fill="#FAF8F5"/>
<circle cx="404.841" cy="239.45" r="2.4504" fill="#FAF8F5"/>
<circle cx="419.058" cy="256.605" r="2.94048" fill="#FAF8F5"/>
<circle cx="252.919" cy="285.518" r="4.4107" fill="#FAF8F5"/>
<circle cx="250.715" cy="327.42" r="3.67559" fill="#FAF8F5"/>
<path d="M253.251 285.811L182.125 330.439" stroke="#FAF8F5"/>
<path d="M180.734 330.442L250.466 326.955" stroke="#FAF8F5"/>
<path d="M250.461 326.955L378.766 354.848" stroke="#FAF8F5"/>
<path d="M381.555 355.542V316.492" stroke="#FAF8F5"/>
<path d="M253.258 285.811L356.46 292.086" stroke="#FAF8F5"/>
<path d="M381.549 315.797L356.445 292.088" stroke="#FAF8F5"/>
<path d="M356.445 292.088L362.024 262.801" stroke="#FAF8F5"/>
<path d="M362.031 262.8L404.567 239.789" stroke="#FAF8F5"/>
<path d="M419.212 256.525L405.266 239.789" stroke="#FAF8F5"/>
<circle cx="181.616" cy="331.831" r="6.61605" fill="#FAF8F5"/>
</svg>
