<svg width="189" height="125" viewBox="0 0 189 125" fill="none" xmlns="http://www.w3.org/2000/svg">
<circle cx="4" cy="31" r="4" fill="#FAF8F5"/>
<circle cx="16" cy="34" r="2" fill="#FAF8F5"/>
<circle cx="53" cy="35" r="3" fill="#FAF8F5"/>
<circle cx="88" cy="37" r="4" fill="#FAF8F5"/>
<circle cx="180" cy="19" r="4" fill="#FAF8F5"/>
<circle cx="187" cy="2" r="2" fill="#FAF8F5"/>
<circle cx="163" cy="45" r="4" fill="#FAF8F5"/>
<circle cx="127" cy="106" r="3" fill="#FAF8F5"/>
<circle cx="115" cy="121" r="4" fill="#FAF8F5"/>
<circle cx="46" cy="83" r="3" fill="#FAF8F5"/>
<line x1="3.38828" y1="30.685" x2="46.3883" y2="83.685" stroke="#FAF8F5"/>
<line x1="46.2363" y1="83.5594" x2="115.236" y2="120.559" stroke="#FAF8F5"/>
<line x1="114.62" y1="120.675" x2="126.62" y2="106.675" stroke="#FAF8F5"/>
<line x1="126.568" y1="106.749" x2="162.568" y2="44.7489" stroke="#FAF8F5"/>
<line x1="162.582" y1="44.7264" x2="179.582" y2="18.7264" stroke="#FAF8F5"/>
<line x1="180.538" y1="17.8096" x2="187.538" y2="0.809625" stroke="#FAF8F5"/>
<line x1="87.904" y1="36.5093" x2="179.904" y2="18.5093" stroke="#FAF8F5"/>
<line x1="54.0294" y1="34.5009" x2="88.0294" y2="36.5009" stroke="#FAF8F5"/>
<line x1="17" y1="34.5" x2="54" y2="34.5" stroke="#FAF8F5"/>
<line x1="3.15811" y1="29.5257" x2="18.1581" y2="34.5257" stroke="#FAF8F5"/>
</svg>
