<svg width="173" height="144" viewBox="0 0 173 144" fill="none" xmlns="http://www.w3.org/2000/svg">
<circle cx="53" cy="2" r="2" fill="#FAF8F5"/>
<circle cx="85" cy="14" r="4" fill="#FAF8F5"/>
<circle cx="98" cy="54" r="3" fill="#FAF8F5"/>
<circle cx="85" cy="85" r="4" fill="#FAF8F5"/>
<circle cx="115" cy="141" r="3" fill="#FAF8F5"/>
<circle cx="146" cy="95" r="4" fill="#FAF8F5"/>
<circle cx="171" cy="73" r="2" fill="#FAF8F5"/>
<circle cx="35" cy="93" r="4" fill="#FAF8F5"/>
<circle cx="3" cy="80" r="3" fill="#FAF8F5"/>
<line x1="4.1805" y1="80.5337" x2="35.1805" y2="92.5337" stroke="#FAF8F5"/>
<line x1="34.9307" y1="91.5048" x2="84.9307" y2="84.5048" stroke="#FAF8F5"/>
<line x1="84.5469" y1="84.7886" x2="98.5469" y2="54.7886" stroke="#FAF8F5"/>
<line x1="98.5268" y1="55.1616" x2="84.5268" y2="14.1616" stroke="#FAF8F5"/>
<line x1="84.8279" y1="13.4694" x2="54.8279" y2="2.46944" stroke="#FAF8F5"/>
<line x1="99.3241" y1="54.6192" x2="146.324" y2="94.6192" stroke="#FAF8F5"/>
<line x1="146.42" y1="94.2713" x2="115.42" y2="142.271" stroke="#FAF8F5"/>
<line x1="85.4407" y1="85.7639" x2="115.441" y2="141.764" stroke="#FAF8F5"/>
</svg>
