<svg width="131" height="165" viewBox="0 0 131 165" fill="none" xmlns="http://www.w3.org/2000/svg">
<circle cx="127" cy="4" r="4" fill="#FAF8F5"/>
<circle cx="122" cy="25" r="2" fill="#FAF8F5"/>
<circle cx="126" cy="66" r="3" fill="#FAF8F5"/>
<circle cx="111.5" cy="110.5" r="2.5" fill="#FAF8F5"/>
<circle cx="95" cy="122" r="4" fill="#FAF8F5"/>
<circle cx="80" cy="114" r="4" fill="#FAF8F5"/>
<circle cx="56.5" cy="101.5" r="2.5" fill="#FAF8F5"/>
<circle cx="44" cy="75" r="4" fill="#FAF8F5"/>
<circle cx="30.5" cy="72.5" r="2.5" fill="#FAF8F5"/>
<circle cx="15" cy="67" r="4" fill="#FAF8F5"/>
<circle cx="8" cy="90" r="4" fill="#FAF8F5"/>
<circle cx="36" cy="138" r="4" fill="#FAF8F5"/>
<circle cx="47.5" cy="144.5" r="2.5" fill="#FAF8F5"/>
<circle cx="52" cy="157" r="4" fill="#FAF8F5"/>
<circle cx="33" cy="161" r="4" fill="#FAF8F5"/>
<line x1="36.4958" y1="138.065" x2="33.4958" y2="161.065" stroke="#FAF8F5"/>
<line x1="8.43189" y1="89.7481" x2="36.4319" y2="137.748" stroke="#FAF8F5"/>
<line x1="0.441176" y1="74.7647" x2="8.44118" y2="89.7647" stroke="#FAF8F5"/>
<line x1="0.751931" y1="74.5659" x2="14.7519" y2="66.5659" stroke="#FAF8F5"/>
<line x1="15.1857" y1="66.5358" x2="30.1857" y2="72.5358" stroke="#FAF8F5"/>
<line x1="30.0707" y1="72.505" x2="44.0707" y2="74.505" stroke="#FAF8F5"/>
<line x1="44.454" y1="74.7905" x2="56.454" y2="100.79" stroke="#FAF8F5"/>
<line x1="56.2236" y1="101.553" x2="80.2236" y2="113.553" stroke="#FAF8F5"/>
<line x1="80.2572" y1="113.571" x2="95.2572" y2="122.571" stroke="#FAF8F5"/>
<line x1="94.7117" y1="121.592" x2="111.712" y2="109.592" stroke="#FAF8F5"/>
<line x1="111.523" y1="110.851" x2="125.523" y2="65.8515" stroke="#FAF8F5"/>
<line x1="125.501" y1="66.0365" x2="122.501" y2="25.0365" stroke="#FAF8F5"/>
<line x1="127.486" y1="4.11581" x2="122.486" y2="25.1158" stroke="#FAF8F5"/>
<line x1="33.8915" y1="160.512" x2="51.8915" y2="156.512" stroke="#FAF8F5"/>
<line x1="47.4615" y1="144.808" x2="52.4615" y2="156.808" stroke="#FAF8F5"/>
<line x1="36.2519" y1="137.568" x2="48.2519" y2="144.568" stroke="#FAF8F5"/>
<circle cx="65" cy="82" r="4" fill="#FAF8F5"/>
</svg>
