<svg width="140" height="161" viewBox="0 0 140 161" fill="none" xmlns="http://www.w3.org/2000/svg">
<circle cx="50" cy="40" r="4" fill="#FAF8F5"/>
<circle cx="32" cy="20" r="2" fill="#FAF8F5"/>
<circle cx="42" cy="51" r="3" fill="#FAF8F5"/>
<circle cx="35" cy="69" r="4" fill="#FAF8F5"/>
<circle cx="39" cy="109" r="4" fill="#FAF8F5"/>
<circle cx="68" cy="128" r="4" fill="#FAF8F5"/>
<circle cx="126" cy="155" r="4" fill="#FAF8F5"/>
<circle cx="106" cy="159" r="2" fill="#FAF8F5"/>
<circle cx="89" cy="94" r="4" fill="#FAF8F5"/>
<circle cx="88" cy="114" r="3" fill="#FAF8F5"/>
<circle cx="126" cy="17" r="3" fill="#FAF8F5"/>
<circle cx="136" cy="4" r="4" fill="#FAF8F5"/>
<circle cx="2" cy="123" r="2" fill="#FAF8F5"/>
<line x1="3.81878" y1="122.534" x2="39.8188" y2="108.534" stroke="#FAF8F5"/>
<line x1="35.4975" y1="68.9502" x2="39.4975" y2="108.95" stroke="#FAF8F5"/>
<line x1="43.4519" y1="50.214" x2="34.4519" y2="69.214" stroke="#FAF8F5"/>
<line x1="49.3947" y1="41.307" x2="42.3947" y2="50.307" stroke="#FAF8F5"/>
<line x1="135.2" y1="3.45845" x2="50.1996" y2="40.4584" stroke="#FAF8F5"/>
<line x1="135.407" y1="3.29062" x2="125.407" y2="17.2906" stroke="#FAF8F5"/>
<line x1="88.5493" y1="93.7834" x2="125.549" y2="16.7834" stroke="#FAF8F5"/>
<line x1="89.4275" y1="93.7407" x2="126.428" y2="154.741" stroke="#FAF8F5"/>
<line x1="68.214" y1="127.548" x2="125.214" y2="154.548" stroke="#FAF8F5"/>
<line x1="40.2808" y1="108.586" x2="68.2808" y2="127.586" stroke="#FAF8F5"/>
</svg>
