<svg width="132" height="170" viewBox="0 0 132 170" fill="none" xmlns="http://www.w3.org/2000/svg">
<circle cx="129" cy="167" r="3" fill="#FAF8F5"/>
<circle cx="124" cy="149" r="4" fill="#FAF8F5"/>
<circle cx="110" cy="135" r="2" fill="#FAF8F5"/>
<circle cx="107" cy="121" r="4" fill="#FAF8F5"/>
<circle cx="107" cy="110" r="3" fill="#FAF8F5"/>
<circle cx="96" cy="110" r="4" fill="#FAF8F5"/>
<circle cx="86" cy="118" r="2" fill="#FAF8F5"/>
<circle cx="75" cy="110" r="4" fill="#FAF8F5"/>
<circle cx="67" cy="97" r="4" fill="#FAF8F5"/>
<circle cx="51" cy="92" r="2" fill="#FAF8F5"/>
<circle cx="44" cy="95" r="4" fill="#FAF8F5"/>
<circle cx="35" cy="82" r="3" fill="#FAF8F5"/>
<circle cx="55" cy="63" r="4" fill="#FAF8F5"/>
<circle cx="63" cy="64" r="2" fill="#FAF8F5"/>
<circle cx="69" cy="57" r="4" fill="#FAF8F5"/>
<circle cx="78" cy="53" r="3" fill="#FAF8F5"/>
<circle cx="89" cy="57" r="4" fill="#FAF8F5"/>
<circle cx="99" cy="63" r="2" fill="#FAF8F5"/>
<circle cx="107" cy="54" r="3" fill="#FAF8F5"/>
<circle cx="111" cy="45" r="4" fill="#FAF8F5"/>
<circle cx="116" cy="34" r="3" fill="#FAF8F5"/>
<circle cx="107" cy="20" r="4" fill="#FAF8F5"/>
<circle cx="92" cy="17" r="3" fill="#FAF8F5"/>
<circle cx="80" cy="18" r="4" fill="#FAF8F5"/>
<circle cx="71" cy="19" r="3" fill="#FAF8F5"/>
<circle cx="67" cy="28" r="4" fill="#FAF8F5"/>
<circle cx="56" cy="31" r="3" fill="#FAF8F5"/>
<circle cx="47" cy="14" r="4" fill="#FAF8F5"/>
<circle cx="32" cy="37" r="4" fill="#FAF8F5"/>
<circle cx="29" cy="6" r="3" fill="#FAF8F5"/>
<circle cx="19" cy="4" r="4" fill="#FAF8F5"/>
<circle cx="3" cy="12" r="3" fill="#FAF8F5"/>
<line x1="1.7871" y1="11.5476" x2="18.7871" y2="3.54759" stroke="#FAF8F5"/>
<line x1="19.0894" y1="3.50807" x2="30.0894" y2="5.50807" stroke="#FAF8F5"/>
<line x1="28.194" y1="5.53918" x2="47.194" y2="13.5392" stroke="#FAF8F5"/>
<line x1="47.4371" y1="13.7572" x2="57.4371" y2="31.7572" stroke="#FAF8F5"/>
<line x1="55.8291" y1="31.5301" x2="66.8291" y2="27.5301" stroke="#FAF8F5"/>
<line x1="66.5431" y1="28.7969" x2="70.5431" y2="19.7969" stroke="#FAF8F5"/>
<line x1="70.8915" y1="19.5119" x2="79.8915" y2="17.5119" stroke="#FAF8F5"/>
<line x1="79" y1="17.5" x2="93" y2="17.5" stroke="#FAF8F5"/>
<line x1="93.0356" y1="17.5013" x2="107.036" y2="18.5013" stroke="#FAF8F5"/>
<line x1="107.442" y1="17.7661" x2="116.442" y2="34.7661" stroke="#FAF8F5"/>
<line x1="116.455" y1="34.2069" x2="111.455" y2="45.2069" stroke="#FAF8F5"/>
<line x1="111.447" y1="45.2236" x2="107.447" y2="53.2236" stroke="#FAF8F5"/>
<line x1="107.39" y1="53.3123" x2="99.3904" y2="63.3123" stroke="#FAF8F5"/>
<line x1="89.2572" y1="56.5713" x2="99.2572" y2="62.5713" stroke="#FAF8F5"/>
<line x1="78.1709" y1="52.5301" x2="89.1709" y2="56.5301" stroke="#FAF8F5"/>
<line x1="67.8684" y1="55.5176" x2="78.8684" y2="52.5176" stroke="#FAF8F5"/>
<line x1="62.6" y1="64.7" x2="68.6" y2="56.7" stroke="#FAF8F5"/>
<line x1="55.1213" y1="62.5149" x2="63.1213" y2="64.5149" stroke="#FAF8F5"/>
<line x1="35.6375" y1="82.6556" x2="54.6375" y2="62.6556" stroke="#FAF8F5"/>
<line x1="36.4319" y1="82.7481" x2="43.4319" y2="94.7481" stroke="#FAF8F5"/>
<line x1="51.2481" y1="91.4341" x2="44.2481" y2="95.4341" stroke="#FAF8F5"/>
<line x1="66.8509" y1="96.4772" x2="50.8509" y2="91.4772" stroke="#FAF8F5"/>
<line x1="74.5742" y1="110.262" x2="66.5742" y2="97.262" stroke="#FAF8F5"/>
<line x1="85.7059" y1="118.404" x2="74.7059" y2="110.404" stroke="#FAF8F5"/>
<line x1="96.3123" y1="110.39" x2="86.3123" y2="118.39" stroke="#FAF8F5"/>
<line x1="107" y1="110.5" x2="96" y2="110.5" stroke="#FAF8F5"/>
<line x1="106.5" y1="121" x2="106.5" y2="110" stroke="#FAF8F5"/>
<line x1="110.519" y1="135.137" x2="106.519" y2="121.137" stroke="#FAF8F5"/>
<line x1="123.634" y1="149.34" x2="110.634" y2="135.34" stroke="#FAF8F5"/>
<line x1="129.523" y1="168.151" x2="123.523" y2="149.151" stroke="#FAF8F5"/>
</svg>
