<svg width="96" height="187" viewBox="0 0 96 187" fill="none" xmlns="http://www.w3.org/2000/svg">
<g clip-path="url(#clip0_1521_131836)">
<circle cx="2" cy="52" r="2" fill="#FAF8F5"/>
<circle cx="17" cy="44" r="4" fill="#FAF8F5"/>
<circle cx="23" cy="55" r="2" fill="#FAF8F5"/>
<circle cx="31" cy="47" r="3" fill="#FAF8F5"/>
<circle cx="36" cy="64" r="4" fill="#FAF8F5"/>
<circle cx="58" cy="115" r="4" fill="#FAF8F5"/>
<circle cx="12" cy="131" r="3" fill="#FAF8F5"/>
<circle cx="45" cy="145" r="4" fill="#FAF8F5"/>
<circle cx="75" cy="183" r="4" fill="#FAF8F5"/>
<circle cx="93" cy="149" r="3" fill="#FAF8F5"/>
<circle cx="30" cy="10" r="2" fill="#FAF8F5"/>
<circle cx="39" cy="2" r="2" fill="#FAF8F5"/>
<line x1="3.73795" y1="51.5742" x2="16.738" y2="43.5742" stroke="#FAF8F5"/>
<line x1="16.416" y1="43.7226" x2="24.416" y2="55.7226" stroke="#FAF8F5"/>
<line x1="24.2774" y1="55.584" x2="36.2774" y2="63.584" stroke="#FAF8F5"/>
<line x1="36.4605" y1="62.8052" x2="58.4605" y2="114.805" stroke="#FAF8F5"/>
<line x1="57.3433" y1="114.636" x2="93.3433" y2="148.636" stroke="#FAF8F5"/>
<line x1="92.4472" y1="149.224" x2="75.4472" y2="183.224" stroke="#FAF8F5"/>
<line x1="76.6175" y1="183.322" x2="44.6175" y2="145.322" stroke="#FAF8F5"/>
<line x1="44.8118" y1="144.463" x2="12.8118" y2="131.463" stroke="#FAF8F5"/>
<line x1="12.8325" y1="130.529" x2="57.8325" y2="114.529" stroke="#FAF8F5"/>
</g>
<defs>
<clipPath id="clip0_1521_131836">
<rect width="96" height="187" fill="white"/>
</clipPath>
</defs>
</svg>
