<svg width="178" height="135" viewBox="0 0 178 135" fill="none" xmlns="http://www.w3.org/2000/svg">
<circle cx="30" cy="39.5" r="4" fill="#FAF8F5"/>
<circle cx="3" cy="51.5" r="3" fill="#FAF8F5"/>
<circle cx="55" cy="43.5" r="4" fill="#FAF8F5"/>
<circle cx="98" cy="75.5" r="3" fill="#FAF8F5"/>
<circle cx="51" cy="113.5" r="4" fill="#FAF8F5"/>
<circle cx="68" cy="131.5" r="3" fill="#FAF8F5"/>
<circle cx="113" cy="109.5" r="4" fill="#FAF8F5"/>
<circle cx="174" cy="124.5" r="4" fill="#FAF8F5"/>
<circle cx="151" cy="52.5" r="4" fill="#FAF8F5"/>
<circle cx="132" cy="22.5" r="4" fill="#FAF8F5"/>
<circle cx="150" cy="17.5" r="3" fill="#FAF8F5"/>
<circle cx="150" cy="2.5" r="2" fill="#FAF8F5"/>
<circle cx="127" cy="10.5" r="3" fill="#FAF8F5"/>
<line x1="3.77639" y1="52.0528" x2="29.7764" y2="39.0528" stroke="#FAF8F5"/>
<line x1="30.0981" y1="38.0097" x2="55.0981" y2="43.0097" stroke="#FAF8F5"/>
<line x1="55.2985" y1="43.0989" x2="98.2985" y2="75.0989" stroke="#FAF8F5"/>
<line x1="98.4575" y1="75.2982" x2="113.457" y2="109.298" stroke="#FAF8F5"/>
<line x1="113.232" y1="109.943" x2="69.2316" y2="132.943" stroke="#FAF8F5"/>
<line x1="67.6274" y1="132.833" x2="50.6274" y2="113.833" stroke="#FAF8F5"/>
<line x1="50.6907" y1="112.107" x2="97.6907" y2="75.1071" stroke="#FAF8F5"/>
<line x1="97.801" y1="75.0413" x2="150.801" y2="52.0413" stroke="#FAF8F5"/>
<line x1="151.477" y1="51.3497" x2="174.477" y2="124.35" stroke="#FAF8F5"/>
<line x1="173.881" y1="124.986" x2="112.881" y2="109.986" stroke="#FAF8F5"/>
<line x1="150.5" y1="52.5" x2="150.5" y2="18.5" stroke="#FAF8F5"/>
<line x1="150.5" y1="17.5" x2="150.5" y2="3.5" stroke="#FAF8F5"/>
<line x1="127.462" y1="10.3077" x2="132.462" y2="22.3077" stroke="#FAF8F5"/>
<line x1="132.426" y1="21.2387" x2="151.426" y2="52.2387" stroke="#FAF8F5"/>
</svg>
