<svg width="167" height="109" viewBox="0 0 167 109" fill="none" xmlns="http://www.w3.org/2000/svg">
<circle cx="2" cy="107" r="2" fill="#FAF8F5"/>
<circle cx="18" cy="89" r="3" fill="#FAF8F5"/>
<circle cx="58" cy="98" r="4" fill="#FAF8F5"/>
<circle cx="69" cy="93" r="3" fill="#FAF8F5"/>
<circle cx="77" cy="82" r="2" fill="#FAF8F5"/>
<circle cx="83" cy="54" r="4" fill="#FAF8F5"/>
<circle cx="93" cy="53" r="3" fill="#FAF8F5"/>
<circle cx="104" cy="56" r="4" fill="#FAF8F5"/>
<circle cx="108" cy="41" r="4" fill="#FAF8F5"/>
<circle cx="119" cy="48" r="3" fill="#FAF8F5"/>
<circle cx="128" cy="37" r="4" fill="#FAF8F5"/>
<circle cx="121" cy="18" r="4" fill="#FAF8F5"/>
<circle cx="131" cy="13" r="3" fill="#FAF8F5"/>
<circle cx="143" cy="10" r="4" fill="#FAF8F5"/>
<circle cx="153" cy="21" r="3" fill="#FAF8F5"/>
<circle cx="165" cy="18" r="2" fill="#FAF8F5"/>
<circle cx="161" cy="7" r="3" fill="#FAF8F5"/>
<circle cx="151" cy="3" r="3" fill="#FAF8F5"/>
<line x1="0.646447" y1="107.646" x2="18.6464" y2="89.6464" stroke="#FAF8F5"/>
<line x1="19.1005" y1="89.5102" x2="58.1005" y2="97.5102" stroke="#FAF8F5"/>
<line x1="57.8787" y1="96.5149" x2="69.8787" y2="93.5149" stroke="#FAF8F5"/>
<line x1="69.584" y1="93.7226" x2="77.584" y2="81.7226" stroke="#FAF8F5"/>
<line x1="77.5111" y1="81.8952" x2="83.5111" y2="53.8952" stroke="#FAF8F5"/>
<line x1="84.0498" y1="52.5025" x2="94.0498" y2="53.5025" stroke="#FAF8F5"/>
<line x1="94.0981" y1="53.5097" x2="104.098" y2="55.5097" stroke="#FAF8F5"/>
<line x1="103.517" y1="55.8712" x2="107.517" y2="40.8712" stroke="#FAF8F5"/>
<line x1="108.3" y1="39.6" x2="120.3" y2="48.6" stroke="#FAF8F5"/>
<line x1="119.584" y1="48.7226" x2="127.584" y2="36.7226" stroke="#FAF8F5"/>
<line x1="127.526" y1="36.1581" x2="121.526" y2="18.1581" stroke="#FAF8F5"/>
<line x1="120.829" y1="17.5301" x2="131.829" y2="13.5301" stroke="#FAF8F5"/>
<line x1="131.868" y1="12.5176" x2="142.868" y2="9.51762" stroke="#FAF8F5"/>
<line x1="142.757" y1="8.56292" x2="151.757" y2="3.56292" stroke="#FAF8F5"/>
<line x1="152.224" y1="2.55279" x2="162.224" y2="7.55279" stroke="#FAF8F5"/>
<line x1="162.488" y1="8.89153" x2="164.488" y2="17.8915" stroke="#FAF8F5"/>
<line x1="165.207" y1="17.4552" x2="154.207" y2="22.4552" stroke="#FAF8F5"/>
<line x1="153.631" y1="22.3379" x2="142.631" y2="10.3379" stroke="#FAF8F5"/>
</svg>
