<svg width="190" height="84" viewBox="0 0 190 84" fill="none" xmlns="http://www.w3.org/2000/svg">
<g clip-path="url(#clip0_1521_131795)">
<circle cx="188" cy="25" r="2" fill="#FAF8F5"/>
<circle cx="178" cy="23" r="3" fill="#FAF8F5"/>
<circle cx="168" cy="22" r="4" fill="#FAF8F5"/>
<circle cx="123" cy="3" r="3" fill="#FAF8F5"/>
<circle cx="96" cy="30" r="4" fill="#FAF8F5"/>
<circle cx="82" cy="29" r="3" fill="#FAF8F5"/>
<circle cx="59" cy="26" r="4" fill="#FAF8F5"/>
<circle cx="40" cy="53" r="3" fill="#FAF8F5"/>
<circle cx="56" cy="79" r="3" fill="#FAF8F5"/>
<circle cx="24" cy="80" r="4" fill="#FAF8F5"/>
<circle cx="3" cy="50" r="3" fill="#FAF8F5"/>
<circle cx="7" cy="37" r="4" fill="#FAF8F5"/>
<circle cx="20" cy="33" r="4" fill="#FAF8F5"/>
<line x1="2.52211" y1="49.853" x2="6.52211" y2="36.853" stroke="#FAF8F5"/>
<line x1="6.85296" y1="36.5221" x2="19.853" y2="32.5221" stroke="#FAF8F5"/>
<line x1="19.9117" y1="32.5079" x2="58.9117" y2="25.5079" stroke="#FAF8F5"/>
<line x1="59.0822" y1="25.5068" x2="83.0822" y2="29.5068" stroke="#FAF8F5"/>
<line x1="83" y1="29.5" x2="96" y2="29.5" stroke="#FAF8F5"/>
<line x1="95.6464" y1="29.6464" x2="122.646" y2="2.64645" stroke="#FAF8F5"/>
<line x1="123.194" y1="2.53938" x2="168.194" y2="21.5394" stroke="#FAF8F5"/>
<line x1="168.098" y1="21.5097" x2="178.098" y2="23.5097" stroke="#FAF8F5"/>
<line x1="177.089" y1="23.5081" x2="188.089" y2="25.5081" stroke="#FAF8F5"/>
<line x1="59.4069" y1="26.2906" x2="39.4069" y2="54.2906" stroke="#FAF8F5"/>
<line x1="39.4111" y1="53.7154" x2="57.4111" y2="79.7154" stroke="#FAF8F5"/>
<line x1="57.0151" y1="79.4998" x2="24.0151" y2="80.4998" stroke="#FAF8F5"/>
<line x1="23.5904" y1="80.2867" x2="2.59038" y2="50.2867" stroke="#FAF8F5"/>
<line x1="2.52211" y1="49.853" x2="6.52211" y2="36.853" stroke="#FAF8F5"/>
</g>
<defs>
<clipPath id="clip0_1521_131795">
<rect width="190" height="84" fill="white"/>
</clipPath>
</defs>
</svg>
