<svg width="86" height="158" viewBox="0 0 86 158" fill="none" xmlns="http://www.w3.org/2000/svg">
<circle cx="3" cy="23" r="3" fill="#FAF8F5"/>
<circle cx="42" cy="4" r="4" fill="#FAF8F5"/>
<circle cx="62" cy="32" r="4" fill="#FAF8F5"/>
<circle cx="47" cy="82" r="4" fill="#FAF8F5"/>
<circle cx="37" cy="91" r="3" fill="#FAF8F5"/>
<circle cx="27" cy="97" r="3" fill="#FAF8F5"/>
<circle cx="52" cy="65" r="2" fill="#FAF8F5"/>
<circle cx="61" cy="99" r="3" fill="#FAF8F5"/>
<circle cx="84" cy="145" r="2" fill="#FAF8F5"/>
<circle cx="16" cy="155" r="3" fill="#FAF8F5"/>
<line x1="2.78102" y1="22.5505" x2="41.781" y2="3.55051" stroke="#FAF8F5"/>
<line x1="42.4116" y1="2.71613" x2="62.4116" y2="31.7161" stroke="#FAF8F5"/>
<line x1="62.4757" y1="32.1539" x2="51.4757" y2="66.1539" stroke="#FAF8F5"/>
<line x1="51.4851" y1="66.1213" x2="47.4851" y2="82.1213" stroke="#FAF8F5"/>
<line x1="47.3322" y1="82.3737" x2="38.3322" y2="90.3737" stroke="#FAF8F5"/>
<line x1="38.2867" y1="89.4096" x2="28.2867" y2="96.4096" stroke="#FAF8F5"/>
<line x1="26.5257" y1="95.1581" x2="2.52566" y2="23.1581" stroke="#FAF8F5"/>
<line x1="15.5097" y1="155.902" x2="27.5097" y2="95.9019" stroke="#FAF8F5"/>
<line x1="48.3947" y1="81.693" x2="62.3947" y2="99.693" stroke="#FAF8F5"/>
<line x1="62.4531" y1="99.7886" x2="83.4531" y2="144.789" stroke="#FAF8F5"/>
</svg>
