<svg width="101" height="218" viewBox="0 0 101 218" fill="none" xmlns="http://www.w3.org/2000/svg">
<circle cx="87.4109" cy="132.585" r="3.65213" fill="#FAF8F5"/>
<circle cx="6.49197" cy="143.232" r="3.65213" fill="#FAF8F5"/>
<circle cx="32.7547" cy="77.2189" r="3.65213" fill="#FAF8F5"/>
<circle cx="82.4431" cy="26.112" r="3.65213" fill="#FAF8F5"/>
<circle cx="8.62088" cy="213.504" r="3.65213" fill="#FAF8F5"/>
<circle cx="3.65213" cy="3.65213" r="3.65213" transform="matrix(-1 0 0 1 101 0.455505)" fill="#FAF8F5"/>
<circle cx="2.43475" cy="2.43475" r="2.43475" transform="matrix(-1 0 0 1 96.4365 149.517)" fill="#FAF8F5"/>
<circle cx="2.43475" cy="2.43475" r="2.43475" transform="matrix(-1 0 0 1 29.0039 207.722)" fill="#FAF8F5"/>
<circle cx="2.43475" cy="2.43475" r="2.43475" transform="matrix(-1 0 0 1 4.86914 177.2)" fill="#FAF8F5"/>
<line x1="80.6176" y1="28.428" x2="61.4524" y2="55.4011" stroke="#FAF8F5"/>
<line x1="55.6511" y1="61.2017" x2="35.0663" y2="75.398" stroke="#FAF8F5"/>
<line x1="6.17824" y1="145.947" x2="9.01751" y2="211.25" stroke="#FAF8F5"/>
<line x1="31.6981" y1="79.4274" x2="7.56429" y2="141.182" stroke="#FAF8F5"/>
<line x1="60.0928" y1="62.0305" x2="87.0659" y2="132.303" stroke="#FAF8F5"/>
<circle cx="58.8168" cy="58.5614" r="4.86951" fill="#FAF8F5"/>
</svg>
