<svg width="151" height="152" viewBox="0 0 151 152" fill="none" xmlns="http://www.w3.org/2000/svg">
<circle cx="4" cy="131" r="4" fill="#FAF8F5"/>
<circle cx="18" cy="111" r="3" fill="#FAF8F5"/>
<circle cx="29" cy="113" r="2" fill="#FAF8F5"/>
<circle cx="18" cy="147" r="3" fill="#FAF8F5"/>
<circle cx="48" cy="148" r="4" fill="#FAF8F5"/>
<circle cx="67" cy="140" r="3" fill="#FAF8F5"/>
<circle cx="75" cy="89" r="4" fill="#FAF8F5"/>
<circle cx="94" cy="51" r="3" fill="#FAF8F5"/>
<circle cx="103" cy="39" r="4" fill="#FAF8F5"/>
<circle cx="117" cy="35" r="4" fill="#FAF8F5"/>
<circle cx="142" cy="2" r="2" fill="#FAF8F5"/>
<circle cx="147" cy="20" r="3" fill="#FAF8F5"/>
<circle cx="147" cy="43" r="4" fill="#FAF8F5"/>
<line x1="28.9502" y1="112.498" x2="18.9502" y2="111.498" stroke="#FAF8F5"/>
<line x1="18.416" y1="110.277" x2="4.41603" y2="131.277" stroke="#FAF8F5"/>
<line x1="3.37492" y1="130.669" x2="18.3749" y2="147.669" stroke="#FAF8F5"/>
<line x1="18" y1="147.5" x2="48" y2="147.5" stroke="#FAF8F5"/>
<line x1="47.8348" y1="147.528" x2="67.8348" y2="140.528" stroke="#FAF8F5"/>
<line x1="67.5045" y1="140.933" x2="74.5045" y2="88.9333" stroke="#FAF8F5"/>
<line x1="74.5575" y1="88.7671" x2="94.5575" y2="50.7671" stroke="#FAF8F5"/>
<line x1="94.5956" y1="49.7059" x2="102.596" y2="38.7059" stroke="#FAF8F5"/>
<line x1="102.863" y1="38.5192" x2="116.863" y2="34.5192" stroke="#FAF8F5"/>
<line x1="116.607" y1="33.6906" x2="142.607" y2="0.690566" stroke="#FAF8F5"/>
<line x1="116.776" y1="34.5528" x2="146.776" y2="19.5528" stroke="#FAF8F5"/>
<line x1="117.135" y1="33.5187" x2="149.135" y2="42.5187" stroke="#FAF8F5"/>
</svg>
