<svg width="171" height="133" viewBox="0 0 171 133" fill="none" xmlns="http://www.w3.org/2000/svg">
<circle cx="3" cy="36" r="3" fill="#FAF8F5"/>
<circle cx="33" cy="4" r="4" fill="#FAF8F5"/>
<circle cx="71" cy="41" r="3" fill="#FAF8F5"/>
<circle cx="75" cy="91" r="3" fill="#FAF8F5"/>
<circle cx="84" cy="72" r="4" fill="#FAF8F5"/>
<circle cx="96" cy="76" r="4" fill="#FAF8F5"/>
<circle cx="102" cy="93" r="4" fill="#FAF8F5"/>
<circle cx="89" cy="93" r="4" fill="#FAF8F5"/>
<circle cx="122" cy="106" r="3" fill="#FAF8F5"/>
<circle cx="169" cy="131" r="2" fill="#FAF8F5"/>
<line x1="32.3489" y1="3.64189" x2="71.3489" y2="41.6419" stroke="#FAF8F5"/>
<line x1="71.4588" y1="41.8012" x2="84.4588" y2="71.8012" stroke="#FAF8F5"/>
<line x1="84.1581" y1="71.5257" x2="96.1581" y2="75.5257" stroke="#FAF8F5"/>
<line x1="96.4743" y1="74.8419" x2="102.474" y2="92.8419" stroke="#FAF8F5"/>
<line x1="102.277" y1="92.584" x2="123.277" y2="106.584" stroke="#FAF8F5"/>
<line x1="123.235" y1="106.559" x2="170.235" y2="131.559" stroke="#FAF8F5"/>
<line x1="102.038" y1="92.4985" x2="89.0383" y2="93.4985" stroke="#FAF8F5"/>
<line x1="88.9644" y1="92.4987" x2="74.9644" y2="91.4987" stroke="#FAF8F5"/>
<line x1="3.3" y1="36.6" x2="75.3" y2="90.6" stroke="#FAF8F5"/>
</svg>
