<svg width="183" height="119" viewBox="0 0 183 119" fill="none" xmlns="http://www.w3.org/2000/svg">
<g clip-path="url(#clip0_1487_129157)">
<circle cx="113.22" cy="65.9145" r="3.25042" fill="#FAF8F5"/>
<circle cx="96.975" cy="42.1694" r="3.25042" fill="#FAF8F5"/>
<circle cx="88.226" cy="4.05755" r="3.25042" fill="#FAF8F5"/>
<circle cx="156.333" cy="15.9277" r="3.25042" fill="#FAF8F5"/>
<circle cx="179.451" cy="25.9247" r="3.25042" fill="#FAF8F5"/>
<circle cx="173.829" cy="50.2944" r="3.25042" fill="#FAF8F5"/>
<circle cx="138.213" cy="62.7885" r="3.25042" fill="#FAF8F5"/>
<circle cx="80.1039" cy="87.1581" r="3.25042" fill="#FAF8F5"/>
<circle cx="3.25042" cy="109.025" r="3.25042" fill="#FAF8F5"/>
<circle cx="48.8632" cy="61.54" r="3.25042" fill="#FAF8F5"/>
<circle cx="61.1923" cy="113.859" r="4.33389" fill="#FAF8F5"/>
<circle cx="15.123" cy="51.5429" r="3.25042" fill="#FAF8F5"/>
<line x1="50.4177" y1="60.955" x2="156.013" y2="16.5926" stroke="#FAF8F5"/>
<line x1="18.2652" y1="52.1887" x2="47.0071" y2="60.9362" stroke="#FAF8F5"/>
<line x1="89.215" y1="6.94943" x2="96.7129" y2="41.9396" stroke="#FAF8F5"/>
<line x1="97.8799" y1="44.258" x2="111.626" y2="63.6275" stroke="#FAF8F5"/>
<line x1="158.912" y1="16.5966" x2="179.532" y2="25.9689" stroke="#FAF8F5"/>
<line x1="80.9695" y1="85.3577" x2="110.961" y2="67.2378" stroke="#FAF8F5"/>
<line x1="60.8185" y1="113.62" x2="77.6887" y2="88.6272" stroke="#FAF8F5"/>
<line x1="6.28108" y1="109.651" x2="61.2656" y2="113.4" stroke="#FAF8F5"/>
<line x1="136.252" y1="63.7868" x2="113.759" y2="65.6613" stroke="#FAF8F5"/>
<line x1="170.748" y1="51.8886" x2="141.381" y2="62.5107" stroke="#FAF8F5"/>
<line x1="179.19" y1="29.0194" x2="175.442" y2="47.7642" stroke="#FAF8F5"/>
</g>
<defs>
<clipPath id="clip0_1487_129157">
<rect width="182.702" height="117.386" fill="white" transform="translate(0 0.807129)"/>
</clipPath>
</defs>
</svg>
