<svg width="188" height="133" viewBox="0 0 188 133" fill="none" xmlns="http://www.w3.org/2000/svg">
<circle cx="26" cy="33" r="2" fill="#FAF8F5"/>
<circle cx="30" cy="48" r="4" fill="#FAF8F5"/>
<circle cx="34" cy="24" r="4" fill="#FAF8F5"/>
<circle cx="41.5" cy="10.5" r="2.5" fill="#FAF8F5"/>
<circle cx="23" cy="2" r="2" fill="#FAF8F5"/>
<circle cx="6" cy="7" r="4" fill="#FAF8F5"/>
<circle cx="2.5" cy="31.5" r="2.5" fill="#FAF8F5"/>
<circle cx="61" cy="7" r="2" fill="#FAF8F5"/>
<circle cx="52.5" cy="59.5" r="2.5" fill="#FAF8F5"/>
<circle cx="82" cy="93" r="4" fill="#FAF8F5"/>
<circle cx="110.5" cy="83.5" r="2.5" fill="#FAF8F5"/>
<circle cx="129" cy="95" r="4" fill="#FAF8F5"/>
<circle cx="184" cy="93" r="4" fill="#FAF8F5"/>
<circle cx="152.5" cy="130.5" r="2.5" fill="#FAF8F5"/>
<circle cx="90" cy="117" r="2" fill="#FAF8F5"/>
<line x1="3.50173" y1="30.9585" x2="5.50173" y2="6.95848" stroke="#FAF8F5"/>
<line x1="5.89153" y1="6.51191" x2="23.8915" y2="2.51191" stroke="#FAF8F5"/>
<line x1="24.2031" y1="2.54309" x2="42.2031" y2="10.5431" stroke="#FAF8F5"/>
<line x1="33.5742" y1="23.738" x2="41.5742" y2="10.738" stroke="#FAF8F5"/>
<line x1="25.6096" y1="33.6877" x2="33.6096" y2="23.6877" stroke="#FAF8F5"/>
<line x1="4.04527" y1="31.5021" x2="26.0453" y2="33.5021" stroke="#FAF8F5"/>
<line x1="26.4808" y1="33.8626" x2="30.4808" y2="47.8626" stroke="#FAF8F5"/>
<line x1="30.246" y1="47.5647" x2="53.246" y2="60.5647" stroke="#FAF8F5"/>
<line x1="53.3705" y1="60.6642" x2="82.3705" y2="92.6642" stroke="#FAF8F5"/>
<line x1="82.4743" y1="92.8419" x2="90.4743" y2="116.842" stroke="#FAF8F5"/>
<line x1="81.867" y1="92.518" x2="110.867" y2="84.518" stroke="#FAF8F5"/>
<line x1="111.243" y1="84.5629" x2="129.243" y2="94.5629" stroke="#FAF8F5"/>
<line x1="90.1085" y1="116.512" x2="153.108" y2="130.512" stroke="#FAF8F5"/>
<line x1="152.613" y1="130.684" x2="183.613" y2="92.6839" stroke="#FAF8F5"/>
<line x1="128.982" y1="94.5003" x2="183.982" y2="92.5003" stroke="#FAF8F5"/>
</svg>
