<svg width="157" height="168" viewBox="0 0 157 168" fill="none" xmlns="http://www.w3.org/2000/svg">
<circle cx="3" cy="34" r="3" fill="#FAF8F5"/>
<circle cx="19" cy="49" r="4" fill="#FAF8F5"/>
<circle cx="64" cy="66" r="3" fill="#FAF8F5"/>
<circle cx="88" cy="59" r="4" fill="#FAF8F5"/>
<circle cx="86" cy="20" r="4" fill="#FAF8F5"/>
<circle cx="29" cy="2" r="2" fill="#FAF8F5"/>
<circle cx="87" cy="97" r="3" fill="#FAF8F5"/>
<circle cx="131" cy="82" r="4" fill="#FAF8F5"/>
<circle cx="154" cy="121" r="3" fill="#FAF8F5"/>
<circle cx="109" cy="164" r="4" fill="#FAF8F5"/>
<line x1="3.32925" y1="34.6237" x2="19.3293" y2="48.6237" stroke="#FAF8F5"/>
<line x1="19.1909" y1="47.5379" x2="65.1909" y2="66.5379" stroke="#FAF8F5"/>
<line x1="63.8419" y1="66.5257" x2="87.8419" y2="58.5257" stroke="#FAF8F5"/>
<line x1="88.2358" y1="58.5591" x2="131.236" y2="81.5591" stroke="#FAF8F5"/>
<line x1="131.429" y1="81.7428" x2="155.429" y2="121.743" stroke="#FAF8F5"/>
<line x1="155.341" y1="121.365" x2="109.341" y2="164.365" stroke="#FAF8F5"/>
<line x1="108.524" y1="163.154" x2="87.5242" y2="98.1537" stroke="#FAF8F5"/>
<line x1="86.5968" y1="97.2957" x2="64.5968" y2="67.2957" stroke="#FAF8F5"/>
<line x1="87.5002" y1="59.0128" x2="86.5002" y2="20.0128" stroke="#FAF8F5"/>
<line x1="85.847" y1="20.476" x2="29.847" y2="2.47601" stroke="#FAF8F5"/>
</svg>
