<svg width="132" height="171" viewBox="0 0 132 171" fill="none" xmlns="http://www.w3.org/2000/svg">
<circle cx="129" cy="167.705" r="3" fill="#FAF8F5"/>
<circle cx="124" cy="149.705" r="4" fill="#FAF8F5"/>
<circle cx="110" cy="135.705" r="2" fill="#FAF8F5"/>
<circle cx="107" cy="121.705" r="4" fill="#FAF8F5"/>
<circle cx="107" cy="110.705" r="3" fill="#FAF8F5"/>
<circle cx="96" cy="110.705" r="4" fill="#FAF8F5"/>
<circle cx="86" cy="118.705" r="2" fill="#FAF8F5"/>
<circle cx="75" cy="110.705" r="4" fill="#FAF8F5"/>
<circle cx="67" cy="97.7051" r="4" fill="#FAF8F5"/>
<circle cx="51" cy="92.7051" r="2" fill="#FAF8F5"/>
<circle cx="44" cy="95.7051" r="4" fill="#FAF8F5"/>
<circle cx="35" cy="82.7051" r="3" fill="#FAF8F5"/>
<circle cx="55" cy="63.7051" r="4" fill="#FAF8F5"/>
<circle cx="63" cy="64.7051" r="2" fill="#FAF8F5"/>
<circle cx="69" cy="57.7051" r="4" fill="#FAF8F5"/>
<circle cx="78" cy="53.7051" r="3" fill="#FAF8F5"/>
<circle cx="89" cy="57.7051" r="4" fill="#FAF8F5"/>
<circle cx="99" cy="63.7051" r="2" fill="#FAF8F5"/>
<circle cx="107" cy="54.7051" r="3" fill="#FAF8F5"/>
<circle cx="111" cy="45.7051" r="4" fill="#FAF8F5"/>
<circle cx="116" cy="34.7051" r="3" fill="#FAF8F5"/>
<circle cx="107" cy="20.7051" r="4" fill="#FAF8F5"/>
<circle cx="92" cy="17.7051" r="3" fill="#FAF8F5"/>
<circle cx="80" cy="18.7051" r="4" fill="#FAF8F5"/>
<circle cx="71" cy="19.7051" r="3" fill="#FAF8F5"/>
<circle cx="67" cy="28.7051" r="4" fill="#FAF8F5"/>
<circle cx="56" cy="31.7051" r="3" fill="#FAF8F5"/>
<circle cx="47" cy="14.7051" r="4" fill="#FAF8F5"/>
<circle cx="32" cy="37.7051" r="4" fill="#FAF8F5"/>
<circle cx="29" cy="6.70508" r="3" fill="#FAF8F5"/>
<circle cx="19" cy="4.70508" r="4" fill="#FAF8F5"/>
<circle cx="3" cy="12.7051" r="3" fill="#FAF8F5"/>
<line x1="1.7871" y1="12.2527" x2="18.7871" y2="4.25267" stroke="#FAF8F5"/>
<line x1="19.0894" y1="4.21314" x2="30.0894" y2="6.21314" stroke="#FAF8F5"/>
<line x1="28.194" y1="6.24426" x2="47.194" y2="14.2443" stroke="#FAF8F5"/>
<line x1="47.4371" y1="14.4623" x2="57.4371" y2="32.4623" stroke="#FAF8F5"/>
<line x1="55.8291" y1="32.2352" x2="66.8291" y2="28.2352" stroke="#FAF8F5"/>
<line x1="66.5431" y1="29.502" x2="70.5431" y2="20.502" stroke="#FAF8F5"/>
<line x1="70.8915" y1="20.217" x2="79.8915" y2="18.217" stroke="#FAF8F5"/>
<line x1="79" y1="18.2051" x2="93" y2="18.2051" stroke="#FAF8F5"/>
<line x1="93.0356" y1="18.2063" x2="107.036" y2="19.2063" stroke="#FAF8F5"/>
<line x1="107.442" y1="18.4711" x2="116.442" y2="35.4711" stroke="#FAF8F5"/>
<line x1="116.455" y1="34.912" x2="111.455" y2="45.912" stroke="#FAF8F5"/>
<line x1="111.447" y1="45.9287" x2="107.447" y2="53.9287" stroke="#FAF8F5"/>
<line x1="107.39" y1="54.0174" x2="99.3904" y2="64.0174" stroke="#FAF8F5"/>
<line x1="89.2572" y1="57.2763" x2="99.2572" y2="63.2763" stroke="#FAF8F5"/>
<line x1="78.1709" y1="53.2352" x2="89.1709" y2="57.2352" stroke="#FAF8F5"/>
<line x1="67.8684" y1="56.2227" x2="78.8684" y2="53.2227" stroke="#FAF8F5"/>
<line x1="62.6" y1="65.4051" x2="68.6" y2="57.4051" stroke="#FAF8F5"/>
<line x1="55.1213" y1="63.22" x2="63.1213" y2="65.22" stroke="#FAF8F5"/>
<line x1="35.6375" y1="83.3607" x2="54.6375" y2="63.3607" stroke="#FAF8F5"/>
<line x1="36.4319" y1="83.4531" x2="43.4319" y2="95.4531" stroke="#FAF8F5"/>
<line x1="51.2481" y1="92.1392" x2="44.2481" y2="96.1392" stroke="#FAF8F5"/>
<line x1="66.8509" y1="97.1823" x2="50.8509" y2="92.1823" stroke="#FAF8F5"/>
<line x1="74.5742" y1="110.967" x2="66.5742" y2="97.9671" stroke="#FAF8F5"/>
<line x1="85.7059" y1="119.109" x2="74.7059" y2="111.109" stroke="#FAF8F5"/>
<line x1="96.3123" y1="111.096" x2="86.3123" y2="119.096" stroke="#FAF8F5"/>
<line x1="107" y1="111.205" x2="96" y2="111.205" stroke="#FAF8F5"/>
<line x1="106.5" y1="121.705" x2="106.5" y2="110.705" stroke="#FAF8F5"/>
<line x1="110.519" y1="135.842" x2="106.519" y2="121.842" stroke="#FAF8F5"/>
<line x1="123.634" y1="150.045" x2="110.634" y2="136.045" stroke="#FAF8F5"/>
<line x1="129.523" y1="168.856" x2="123.523" y2="149.856" stroke="#FAF8F5"/>
</svg>
