<svg width="197" height="194" viewBox="0 0 197 194" fill="none" xmlns="http://www.w3.org/2000/svg">
<circle cx="193.389" cy="114.87" r="2" transform="rotate(-136.577 193.389 114.87)" fill="#FAF8F5"/>
<circle cx="169.395" cy="116.945" r="3" transform="rotate(-136.577 169.395 116.945)" fill="#FAF8F5"/>
<circle cx="146.53" cy="82.9137" r="4" transform="rotate(-136.577 146.53 82.9137)" fill="#FAF8F5"/>
<circle cx="135.104" cy="78.9836" r="3" transform="rotate(-136.577 135.104 78.9836)" fill="#FAF8F5"/>
<circle cx="121.732" cy="81.4744" r="2" transform="rotate(-136.577 121.732 81.4744)" fill="#FAF8F5"/>
<circle cx="98.1275" cy="97.6861" r="4" transform="rotate(-136.577 98.1275 97.6861)" fill="#FAF8F5"/>
<circle cx="90.1772" cy="91.5392" r="3" transform="rotate(-136.577 90.1772 91.5392)" fill="#FAF8F5"/>
<circle cx="84.2506" cy="81.7984" r="4" transform="rotate(-136.577 84.2506 81.7984)" fill="#FAF8F5"/>
<circle cx="71.0348" cy="89.9439" r="4" transform="rotate(-136.577 71.0348 89.9439)" fill="#FAF8F5"/>
<circle cx="67.8569" cy="77.298" r="3" transform="rotate(-136.577 67.8569 77.298)" fill="#FAF8F5"/>
<circle cx="53.7594" cy="79.1012" r="4" transform="rotate(-136.577 53.7594 79.1012)" fill="#FAF8F5"/>
<circle cx="45.7828" cy="97.7125" r="4" transform="rotate(-136.577 45.7828 97.7125)" fill="#FAF8F5"/>
<circle cx="35.0825" cy="94.4699" r="3" transform="rotate(-136.577 35.0825 94.4699)" fill="#FAF8F5"/>
<circle cx="24.3053" cy="88.401" r="4" transform="rotate(-136.577 24.3053 88.401)" fill="#FAF8F5"/>
<circle cx="24.603" cy="73.5373" r="3" transform="rotate(-136.577 24.603 73.5373)" fill="#FAF8F5"/>
<circle cx="13.8255" cy="67.4676" r="2" transform="rotate(-136.577 13.8255 67.4676)" fill="#FAF8F5"/>
<circle cx="9.16938" cy="78.2072" r="3" transform="rotate(-136.577 9.16938 78.2072)" fill="#FAF8F5"/>
<circle cx="13.6831" cy="87.9855" r="3" transform="rotate(-136.577 13.6831 87.9855)" fill="#FAF8F5"/>
<line x1="194.816" y1="115.331" x2="169.37" y2="116.031" stroke="#FAF8F5"/>
<line x1="168.947" y1="115.819" x2="146.12" y2="83.2007" stroke="#FAF8F5"/>
<line x1="145.597" y1="84.0753" x2="134.82" y2="78.0056" stroke="#FAF8F5"/>
<line x1="135.176" y1="78.0577" x2="121.117" y2="81.2743" stroke="#FAF8F5"/>
<line x1="121.289" y1="81.1993" x2="97.6845" y2="97.4113" stroke="#FAF8F5"/>
<line x1="96.3357" y1="98.0527" x2="89.7601" y2="90.4526" stroke="#FAF8F5"/>
<line x1="89.7304" y1="90.4137" x2="83.8422" y2="82.0873" stroke="#FAF8F5"/>
<line x1="84.5123" y1="82.2245" x2="71.2964" y2="90.3694" stroke="#FAF8F5"/>
<line x1="69.8538" y1="90.7542" x2="67.3247" y2="75.969" stroke="#FAF8F5"/>
<line x1="67.9289" y1="76.3722" x2="53.87" y2="79.5887" stroke="#FAF8F5"/>
<line x1="53.5245" y1="80.0384" x2="45.5094" y2="97.236" stroke="#FAF8F5"/>
<line x1="45.5843" y1="98.1716" x2="34.8455" y2="93.5156" stroke="#FAF8F5"/>
<line x1="34.1204" y1="94.224" x2="24.069" y2="88.8417" stroke="#FAF8F5"/>
<line x1="23.4941" y1="89.6113" x2="13.5205" y2="87.0564" stroke="#FAF8F5"/>
<line x1="12.4872" y1="87.469" x2="8.66114" y2="76.9637" stroke="#FAF8F5"/>
<line x1="9.3893" y1="75.8097" x2="14.1231" y2="67.8982" stroke="#FAF8F5"/>
<line x1="13.3013" y1="67.7215" x2="24.7275" y2="71.6512" stroke="#FAF8F5"/>
<line x1="25.0644" y1="72.132" x2="24.8051" y2="88.4087" stroke="#FAF8F5"/>
</svg>
