<svg width="190" height="85" viewBox="0 0 190 85" fill="none" xmlns="http://www.w3.org/2000/svg">
<circle cx="188" cy="25.6768" r="2" fill="#FAF8F5"/>
<circle cx="178" cy="23.6768" r="3" fill="#FAF8F5"/>
<circle cx="168" cy="22.6768" r="4" fill="#FAF8F5"/>
<circle cx="123" cy="3.67676" r="3" fill="#FAF8F5"/>
<circle cx="96" cy="30.6768" r="4" fill="#FAF8F5"/>
<circle cx="82" cy="29.6768" r="3" fill="#FAF8F5"/>
<circle cx="59" cy="26.6768" r="4" fill="#FAF8F5"/>
<circle cx="40" cy="53.6768" r="3" fill="#FAF8F5"/>
<circle cx="56" cy="79.6768" r="3" fill="#FAF8F5"/>
<circle cx="24" cy="80.6768" r="4" fill="#FAF8F5"/>
<circle cx="3" cy="50.6768" r="3" fill="#FAF8F5"/>
<circle cx="7" cy="37.6768" r="4" fill="#FAF8F5"/>
<circle cx="20" cy="33.6768" r="4" fill="#FAF8F5"/>
<line x1="2.52211" y1="50.5297" x2="6.52211" y2="37.5297" stroke="#FAF8F5"/>
<line x1="6.85296" y1="37.1989" x2="19.853" y2="33.1989" stroke="#FAF8F5"/>
<line x1="19.9117" y1="33.1846" x2="58.9117" y2="26.1846" stroke="#FAF8F5"/>
<line x1="59.0822" y1="26.1836" x2="83.0822" y2="30.1836" stroke="#FAF8F5"/>
<line x1="83" y1="30.1768" x2="96" y2="30.1768" stroke="#FAF8F5"/>
<line x1="95.6464" y1="30.3232" x2="122.646" y2="3.32321" stroke="#FAF8F5"/>
<line x1="123.194" y1="3.21613" x2="168.194" y2="22.2161" stroke="#FAF8F5"/>
<line x1="168.098" y1="22.1865" x2="178.098" y2="24.1865" stroke="#FAF8F5"/>
<line x1="177.089" y1="24.1848" x2="188.089" y2="26.1848" stroke="#FAF8F5"/>
<line x1="59.4069" y1="26.9674" x2="39.4069" y2="54.9674" stroke="#FAF8F5"/>
<line x1="39.4111" y1="54.3922" x2="57.4111" y2="80.3922" stroke="#FAF8F5"/>
<line x1="57.0151" y1="80.1765" x2="24.0151" y2="81.1765" stroke="#FAF8F5"/>
<line x1="23.5904" y1="80.9635" x2="2.59038" y2="50.9635" stroke="#FAF8F5"/>
<line x1="2.52211" y1="50.5297" x2="6.52211" y2="37.5297" stroke="#FAF8F5"/>
</svg>
