<svg width="86" height="159" viewBox="0 0 86 159" fill="none" xmlns="http://www.w3.org/2000/svg">
<circle cx="3" cy="23.5059" r="3" fill="#FAF8F5"/>
<circle cx="42" cy="4.50586" r="4" fill="#FAF8F5"/>
<circle cx="62" cy="32.5059" r="4" fill="#FAF8F5"/>
<circle cx="47" cy="82.5059" r="4" fill="#FAF8F5"/>
<circle cx="37" cy="91.5059" r="3" fill="#FAF8F5"/>
<circle cx="27" cy="97.5059" r="3" fill="#FAF8F5"/>
<circle cx="52" cy="65.5059" r="2" fill="#FAF8F5"/>
<circle cx="61" cy="99.5059" r="3" fill="#FAF8F5"/>
<circle cx="84" cy="145.506" r="2" fill="#FAF8F5"/>
<circle cx="16" cy="155.506" r="3" fill="#FAF8F5"/>
<line x1="2.78102" y1="23.0564" x2="41.781" y2="4.05637" stroke="#FAF8F5"/>
<line x1="42.4116" y1="3.22199" x2="62.4116" y2="32.222" stroke="#FAF8F5"/>
<line x1="62.4757" y1="32.6598" x2="51.4757" y2="66.6598" stroke="#FAF8F5"/>
<line x1="51.4851" y1="66.6271" x2="47.4851" y2="82.6271" stroke="#FAF8F5"/>
<line x1="47.3322" y1="82.8796" x2="38.3322" y2="90.8796" stroke="#FAF8F5"/>
<line x1="38.2867" y1="89.9155" x2="28.2867" y2="96.9155" stroke="#FAF8F5"/>
<line x1="26.5257" y1="95.664" x2="2.52566" y2="23.664" stroke="#FAF8F5"/>
<line x1="15.5097" y1="156.408" x2="27.5097" y2="96.4078" stroke="#FAF8F5"/>
<line x1="48.3947" y1="82.1989" x2="62.3947" y2="100.199" stroke="#FAF8F5"/>
<line x1="62.4531" y1="100.294" x2="83.4531" y2="145.294" stroke="#FAF8F5"/>
</svg>
