<svg width="229" height="228" viewBox="0 0 229 228" fill="none" xmlns="http://www.w3.org/2000/svg">
<circle cx="3" cy="3" r="3" transform="matrix(0.59572 -0.803192 0.802308 0.596911 24.9551 145.268)" fill="#FAF8F5"/>
<circle cx="4" cy="4" r="4" transform="matrix(0.59572 -0.803192 0.802308 0.596911 45.124 141.577)" fill="#FAF8F5"/>
<circle cx="3" cy="3" r="3" transform="matrix(0.59572 -0.803192 0.802308 0.596911 86.9688 115.374)" fill="#FAF8F5"/>
<circle cx="4" cy="4" r="4" transform="matrix(0.59572 -0.803192 0.802308 0.596911 94.251 92.126)" fill="#FAF8F5"/>
<circle cx="4" cy="4" r="4" transform="matrix(0.59572 -0.803192 0.802308 0.596911 61.7695 70.4521)" fill="#FAF8F5"/>
<circle cx="2" cy="2" r="2" transform="matrix(0.59572 -0.803192 0.802308 0.596911 16.168 105.077)" fill="#FAF8F5"/>
<circle cx="3" cy="3" r="3" transform="matrix(0.59572 -0.803192 0.802308 0.596911 125.541 115.405)" fill="#FAF8F5"/>
<circle cx="4" cy="4" r="4" transform="matrix(0.59572 -0.803192 0.802308 0.596911 138.32 71.3174)" fill="#FAF8F5"/>
<circle cx="3" cy="3" r="3" transform="matrix(0.59572 -0.803192 0.802308 0.596911 184.71 75.917)" fill="#FAF8F5"/>
<circle cx="4" cy="4" r="4" transform="matrix(0.59572 -0.803192 0.802308 0.596911 191.004 137.935)" fill="#FAF8F5"/>
<line y1="-0.5" x2="21.2603" y2="-0.5" transform="matrix(0.976648 -0.211395 0.211514 0.978127 29.9521 145.246)" stroke="#FAF8F5"/>
<line y1="-0.5" x2="49.7695" y2="-0.5" transform="matrix(0.85689 -0.514483 0.51412 0.858328 49.9131 140.154)" stroke="#FAF8F5"/>
<line y1="-0.5" x2="25.2982" y2="-0.5" transform="matrix(0.311437 -0.950735 0.949519 0.312287 91.9648 115.353)" stroke="#FAF8F5"/>
<line y1="-0.5" x2="48.7647" y2="-0.5" transform="matrix(0.903707 -0.426708 0.42649 0.905174 99.8438 91.3008)" stroke="#FAF8F5"/>
<line y1="-0.5" x2="46.6476" y2="-0.5" transform="matrix(0.994469 0.0986075 -0.0980415 0.99584 143.912 70.4922)" stroke="#FAF8F5"/>
<line y1="-0.5" x2="62.9682" y2="-0.5" transform="matrix(0.112694 0.994374 -0.992915 0.112428 189.5 74.4951)" stroke="#FAF8F5"/>
<line y1="-0.5" x2="68.3081" y2="-0.5" transform="matrix(-0.946595 -0.321077 0.320215 -0.947803 195.794 136.512)" stroke="#FAF8F5"/>
<line y1="-0.5" x2="37.2022" y2="-0.5" transform="matrix(-0.999272 -0.00637286 0.00593567 -1.00069 129.735 114.786)" stroke="#FAF8F5"/>
<line y1="-0.5" x2="39.0128" y2="-0.5" transform="matrix(-0.817314 -0.576126 0.574959 -0.818229 99.8438 91.3008)" stroke="#FAF8F5"/>
<line y1="-0.5" x2="58.8218" y2="-0.5" transform="matrix(-0.812656 0.582002 -0.581524 -0.81406 67.3623 69.627)" stroke="#FAF8F5"/>
</svg>
