<svg width="173" height="145" viewBox="0 0 173 145" fill="none" xmlns="http://www.w3.org/2000/svg">
<circle cx="53" cy="2.24902" r="2" fill="#FAF8F5"/>
<circle cx="85" cy="14.249" r="4" fill="#FAF8F5"/>
<circle cx="98" cy="54.249" r="3" fill="#FAF8F5"/>
<circle cx="85" cy="85.249" r="4" fill="#FAF8F5"/>
<circle cx="115" cy="141.249" r="3" fill="#FAF8F5"/>
<circle cx="146" cy="95.249" r="4" fill="#FAF8F5"/>
<circle cx="171" cy="73.249" r="2" fill="#FAF8F5"/>
<circle cx="35" cy="93.249" r="4" fill="#FAF8F5"/>
<circle cx="3" cy="80.249" r="3" fill="#FAF8F5"/>
<line x1="4.1805" y1="80.7827" x2="35.1805" y2="92.7827" stroke="#FAF8F5"/>
<line x1="34.9307" y1="91.7539" x2="84.9307" y2="84.7539" stroke="#FAF8F5"/>
<line x1="84.5469" y1="85.0376" x2="98.5469" y2="55.0376" stroke="#FAF8F5"/>
<line x1="98.5268" y1="55.4106" x2="84.5268" y2="14.4106" stroke="#FAF8F5"/>
<line x1="84.8279" y1="13.7185" x2="54.8279" y2="2.71846" stroke="#FAF8F5"/>
<line x1="99.3241" y1="54.8683" x2="146.324" y2="94.8683" stroke="#FAF8F5"/>
<line x1="146.42" y1="94.5203" x2="115.42" y2="142.52" stroke="#FAF8F5"/>
<line x1="85.4407" y1="86.0129" x2="115.441" y2="142.013" stroke="#FAF8F5"/>
</svg>
