<svg width="132" height="158" viewBox="0 0 132 158" fill="none" xmlns="http://www.w3.org/2000/svg">
<circle cx="78.0893" cy="143.901" r="2.76114" transform="rotate(156.448 78.0893 143.901)" fill="#FAF8F5" stroke="#FAF8F5"/>
<circle cx="49.3957" cy="141.288" r="1.13057" transform="rotate(156.448 49.3957 141.288)" fill="#FAF8F5" stroke="#FAF8F5"/>
<circle cx="63.7563" cy="111.017" r="2.76114" transform="rotate(156.448 63.7563 111.017)" fill="#FAF8F5" stroke="#FAF8F5"/>
<circle cx="91.6634" cy="87.2909" r="1.94585" transform="rotate(156.448 91.6634 87.2909)" fill="#FAF8F5" stroke="#FAF8F5"/>
<circle cx="50.7856" cy="38.4054" r="2.76114" transform="rotate(156.448 50.7856 38.4054)" fill="#FAF8F5" stroke="#FAF8F5"/>
<circle cx="60.0013" cy="22.826" r="1.94585" transform="rotate(156.448 60.0013 22.826)" fill="#FAF8F5" stroke="#FAF8F5"/>
<circle cx="78.1742" cy="17.5724" r="2.76114" transform="rotate(156.448 78.1742 17.5724)" fill="#FAF8F5" stroke="#FAF8F5"/>
<circle cx="76.6956" cy="3.98716" r="1.94585" transform="rotate(156.448 76.6956 3.98716)" fill="#FAF8F5" stroke="#FAF8F5"/>
<line x1="63.592" y1="111.851" x2="50.2931" y2="38.4938" stroke="#FAF8F5"/>
<line x1="78.4788" y1="17.9676" x2="53.3365" y2="37.8206" stroke="#FAF8F5"/>
<line x1="78.3354" y1="16.7374" x2="91.4044" y2="87.5266" stroke="#FAF8F5"/>
<line x1="90.4993" y1="88.3126" x2="64.4179" y2="112.132" stroke="#FAF8F5"/>
<line x1="78.2858" y1="145.594" x2="63.6261" y2="111.963" stroke="#FAF8F5"/>
<line x1="49.2602" y1="141.826" x2="63.6329" y2="111.548" stroke="#FAF8F5"/>
<line x1="79.097" y1="144.819" x2="48.9915" y2="141.044" stroke="#FAF8F5"/>
</svg>
