<svg width="125" height="201" viewBox="0 0 125 201" fill="none" xmlns="http://www.w3.org/2000/svg">
<circle cx="2" cy="2" r="2" transform="matrix(-0.987061 -0.160344 0.159861 -0.98714 102.775 150.805)" fill="#FAF8F5"/>
<circle cx="4" cy="4" r="4" transform="matrix(-0.987061 -0.160344 0.159861 -0.98714 88.3447 158.592)" fill="#FAF8F5"/>
<circle cx="2" cy="2" r="2" transform="matrix(-0.987061 -0.160344 0.159861 -0.98714 82.5264 144.477)" fill="#FAF8F5"/>
<circle cx="3" cy="3" r="3" transform="matrix(-0.987061 -0.160344 0.159861 -0.98714 74.1787 152.238)" fill="#FAF8F5"/>
<circle cx="4" cy="4" r="4" transform="matrix(-0.987061 -0.160344 0.159861 -0.98714 72.7881 135.803)" fill="#FAF8F5"/>
<circle cx="4" cy="4" r="4" transform="matrix(-0.987061 -0.160344 0.159861 -0.98714 59.2256 81.9307)" fill="#FAF8F5"/>
<circle cx="3" cy="3" r="3" transform="matrix(-0.987061 -0.160344 0.159861 -0.98714 106.36 72.3652)" fill="#FAF8F5"/>
<circle cx="4" cy="4" r="4" transform="matrix(-0.987061 -0.160344 0.159861 -0.98714 76.8535 54.4014)" fill="#FAF8F5"/>
<circle cx="4" cy="4" r="4" transform="matrix(-0.987061 -0.160344 0.159861 -0.98714 53.3164 12.0801)" fill="#FAF8F5"/>
<circle cx="3" cy="3" r="3" transform="matrix(-0.987061 -0.160344 0.159861 -0.98714 29.2861 41.6084)" fill="#FAF8F5"/>
<circle cx="2" cy="2" r="2" transform="matrix(-0.987061 -0.160344 0.159861 -0.98714 68.4238 187.775)" fill="#FAF8F5"/>
<circle cx="2" cy="2" r="2" transform="matrix(-0.987061 -0.160344 0.159861 -0.98714 58.2607 194.229)" fill="#FAF8F5"/>
<line y1="-0.5" x2="15.2643" y2="-0.5" transform="matrix(-0.924421 0.380799 -0.38117 -0.924742 99.1465 148.189)" stroke="#FAF8F5"/>
<line y1="-0.5" x2="14.4222" y2="-0.5" transform="matrix(-0.414511 -0.910293 0.909959 -0.414152 86.0234 154.162)" stroke="#FAF8F5"/>
<line y1="-0.5" x2="14.4222" y2="-0.5" transform="matrix(-0.73261 -0.680981 0.680535 -0.732407 80.0449 141.034)" stroke="#FAF8F5"/>
<line y1="-0.5" x2="56.4624" y2="-0.5" transform="matrix(-0.237372 -0.9716 0.971339 -0.236958 69.3193 132.2)" stroke="#FAF8F5"/>
<line y1="-0.5" x2="49.5177" y2="-0.5" transform="matrix(-0.607842 -0.794365 0.79396 -0.607568 56.9033 77.501)" stroke="#FAF8F5"/>
<line y1="-0.5" x2="38.0132" y2="-0.5" transform="matrix(0.584411 -0.811217 0.811363 0.584878 27.792 38.3271)" stroke="#FAF8F5"/>
<line y1="-0.5" x2="49.679" y2="-0.5" transform="matrix(0.513522 0.858357 -0.857986 0.513203 48.0332 7.16895)" stroke="#FAF8F5"/>
<line y1="-0.5" x2="34.5398" y2="-0.5" transform="matrix(0.854311 0.52009 -0.519613 0.854202 73.3848 50.7988)" stroke="#FAF8F5"/>
<line y1="-0.5" x2="47.7598" y2="-0.5" transform="matrix(-0.983578 0.179623 -0.180052 -0.983814 102.893 68.7627)" stroke="#FAF8F5"/>
</svg>
