<svg width="256" height="132" viewBox="0 0 256 132" fill="none" xmlns="http://www.w3.org/2000/svg">
<ellipse cx="214.09" cy="126.431" rx="5.33338" ry="5.49698" fill="#FAF8F5"/>
<ellipse cx="214.854" cy="84.8105" rx="3.04765" ry="3.14055" fill="#FAF8F5"/>
<ellipse cx="187.935" cy="58.6335" rx="4.06354" ry="4.18819" fill="#FAF8F5"/>
<ellipse cx="194.034" cy="27.2245" rx="3.04766" ry="3.14056" fill="#FAF8F5"/>
<ellipse cx="238.215" cy="2.61713" rx="2.53971" ry="2.61713" fill="#FAF8F5"/>
<ellipse cx="252.953" cy="20.9413" rx="3.04766" ry="3.14056" fill="#FAF8F5"/>
<ellipse cx="80.7687" cy="51.8289" rx="4.57147" ry="4.7117" fill="#FAF8F5"/>
<ellipse cx="78.4824" cy="96.5898" rx="3.80956" ry="3.92569" fill="#FAF8F5"/>
<path d="M81.0954 52.1426L7.37695 99.8161" stroke="#FAF8F5"/>
<path d="M5.93359 99.8163L78.2066 96.0918" stroke="#FAF8F5"/>
<path d="M78.2148 96.0918L211.197 125.888" stroke="#FAF8F5"/>
<path d="M214.085 126.632V84.918" stroke="#FAF8F5"/>
<path d="M81.1162 52.1426L188.08 58.8454" stroke="#FAF8F5"/>
<path d="M214.087 84.1742L188.068 58.8477" stroke="#FAF8F5"/>
<path d="M188.068 58.8483L193.85 27.5625" stroke="#FAF8F5"/>
<path d="M193.854 27.5602L237.941 2.97852" stroke="#FAF8F5"/>
<path d="M253.114 20.8561L238.659 2.97852" stroke="#FAF8F5"/>
<ellipse cx="6.85721" cy="101.302" rx="6.85721" ry="7.06755" fill="#FAF8F5"/>
</svg>
