<svg width="227" height="205" viewBox="0 0 227 205" fill="none" xmlns="http://www.w3.org/2000/svg">
<circle cx="4" cy="4" r="4" transform="matrix(0.901488 -0.432804 0.431715 0.90201 34.8662 106.591)" fill="#FAF8F5"/>
<circle cx="2" cy="2" r="2" transform="matrix(0.901488 -0.432804 0.431715 0.90201 20.291 122.463)" fill="#FAF8F5"/>
<circle cx="4" cy="4" r="4" transform="matrix(0.901488 -0.432804 0.431715 0.90201 31.7178 81.4805)" fill="#FAF8F5"/>
<circle cx="4" cy="4" r="4" transform="matrix(0.901488 -0.432804 0.431715 0.90201 36.8848 66.7969)" fill="#FAF8F5"/>
<circle cx="4" cy="4" r="4" transform="matrix(0.901488 -0.432804 0.431715 0.90201 65.7832 76.2178)" fill="#FAF8F5"/>
<circle cx="2" cy="2" r="2" transform="matrix(0.901488 -0.432804 0.431715 0.90201 72.8057 83.9395)" fill="#FAF8F5"/>
<circle cx="4" cy="4" r="4" transform="matrix(0.901488 -0.432804 0.431715 0.90201 59.3594 85.958)" fill="#FAF8F5"/>
<circle cx="3" cy="3" r="3" transform="matrix(0.901488 -0.432804 0.431715 0.90201 80.5381 102.412)" fill="#FAF8F5"/>
<circle cx="4" cy="4" r="4" transform="matrix(0.901488 -0.432804 0.431715 0.90201 134.983 81.8193)" fill="#FAF8F5"/>
<circle cx="3" cy="3" r="3" transform="matrix(0.901488 -0.432804 0.431715 0.90201 150.156 83.4092)" fill="#FAF8F5"/>
<circle cx="4" cy="4" r="4" transform="matrix(0.901488 -0.432804 0.431715 0.90201 162.98 91.6729)" fill="#FAF8F5"/>
<circle cx="4" cy="4" r="4" transform="matrix(0.901488 -0.432804 0.431715 0.90201 165.875 79.1904)" fill="#FAF8F5"/>
<circle cx="2" cy="2" r="2" transform="matrix(0.901488 -0.432804 0.431715 0.90201 206.341 91.9316)" fill="#FAF8F5"/>
<circle cx="2" cy="2" r="2" transform="matrix(0.901488 -0.432804 0.431715 0.90201 202.316 118.268)" fill="#FAF8F5"/>
<circle cx="4" cy="4" r="4" transform="matrix(0.901488 -0.432804 0.431715 0.90201 104.346 122.042)" fill="#FAF8F5"/>
<circle cx="4" cy="4" r="4" transform="matrix(0.901488 -0.432804 0.431715 0.90201 111.266 161.981)" fill="#FAF8F5"/>
<circle cx="3" cy="3" r="3" transform="matrix(0.901488 -0.432804 0.431715 0.90201 95.75 180.523)" fill="#FAF8F5"/>
<circle cx="4" cy="4" r="4" transform="matrix(0.901488 -0.432804 0.431715 0.90201 74.9893 60.7051)" fill="#FAF8F5"/>
<circle cx="4" cy="4" r="4" transform="matrix(0.901488 -0.432804 0.431715 0.90201 77.5283 42.8477)" fill="#FAF8F5"/>
<circle cx="3" cy="3" r="3" transform="matrix(0.901488 -0.432804 0.431715 0.90201 120.063 39.0654)" fill="#FAF8F5"/>
<line y1="-0.5" x2="22.8035" y2="-0.5" transform="matrix(0.756131 -0.654888 0.6537 0.756348 22.957 123.401)" stroke="#FAF8F5"/>
<line y1="-0.5" x2="32.0156" y2="-0.5" transform="matrix(0.765014 -0.644467 0.643282 0.765247 40.1992 108.468)" stroke="#FAF8F5"/>
<line y1="-0.5" x2="28.0179" y2="-0.5" transform="matrix(-0.986573 -0.159814 0.16041 -0.987624 64.6914 87.834)" stroke="#FAF8F5"/>
<line y1="-0.5" x2="16.2788" y2="-0.5" transform="matrix(0.372815 -0.928554 0.927398 0.372464 36.1484 83.79)" stroke="#FAF8F5"/>
<line x1="41.9522" y1="67.2996" x2="71.2827" y2="77.6221" stroke="#FAF8F5"/>
<line y1="-0.5" x2="18.868" y2="-0.5" transform="matrix(0.535652 -0.845082 0.843881 0.535517 70.2148 78.5273)" stroke="#FAF8F5"/>
<line y1="-0.5" x2="18.0278" y2="-0.5" transform="matrix(0.140847 -0.990594 0.989556 0.14023 80.3213 62.582)" stroke="#FAF8F5"/>
<line y1="-0.5" x2="43.6578" y2="-0.5" transform="matrix(0.994937 -0.0965425 0.0956991 0.995802 81.959 45.1572)" stroke="#FAF8F5"/>
<line y1="-0.5" x2="9" y2="-0.5" transform="matrix(0.431715 0.90201 -0.901488 0.432804 70.6846 77.1924)" stroke="#FAF8F5"/>
<line y1="-0.5" x2="23" y2="-0.5" transform="matrix(0.431715 0.90201 -0.901488 0.432804 74.5703 85.3105)" stroke="#FAF8F5"/>
<line y1="-0.5" x2="26" y2="-0.5" transform="matrix(-0.745233 -0.666161 0.666098 -0.746439 84.0684 105.154)" stroke="#FAF8F5"/>
<line y1="-0.5" x2="32.6497" y2="-0.5" transform="matrix(0.797621 0.602341 -0.602378 0.798828 83.6357 104.253)" stroke="#FAF8F5"/>
<line y1="-0.5" x2="40.2616" y2="-0.5" transform="matrix(0.19428 0.981242 -0.980466 0.195205 108.776 124.352)" stroke="#FAF8F5"/>
<line y1="-0.5" x2="22.4722" y2="-0.5" transform="matrix(-0.688741 0.725562 -0.724358 -0.688841 115.697 164.291)" stroke="#FAF8F5"/>
<line y1="-0.5" x2="51.4296" y2="-0.5" transform="matrix(0.613246 -0.790503 0.789296 0.613226 108.776 124.352)" stroke="#FAF8F5"/>
<line y1="-0.5" x2="60.208" y2="-0.5" transform="matrix(0.934226 -0.356401 0.35536 0.934837 84.0684 105.154)" stroke="#FAF8F5"/>
<line y1="-0.5" x2="16.1245" y2="-0.5" transform="matrix(0.996901 0.0717428 -0.0724294 0.997895 139.414 84.1289)" stroke="#FAF8F5"/>
<line y1="-0.5" x2="17.2627" y2="-0.5" transform="matrix(0.962796 -0.269462 0.268481 0.9635 154.587 85.7188)" stroke="#FAF8F5"/>
<line x1="171.374" y1="80.5955" x2="208.704" y2="93.7332" stroke="#FAF8F5"/>
<line y1="-0.5" x2="15.8114" y2="-0.5" transform="matrix(0.868089 0.495269 -0.49546 0.869281 154.587 85.7188)" stroke="#FAF8F5"/>
<line y1="-0.5" x2="47.4131" y2="-0.5" transform="matrix(0.800724 0.598205 -0.598247 0.801931 167.881 92.6475)" stroke="#FAF8F5"/>
</svg>
