<svg width="127" height="133" viewBox="0 0 127 133" fill="none" xmlns="http://www.w3.org/2000/svg">
<circle cx="2.44585" cy="30.1646" r="2.44585" fill="#FAF8F5"/>
<circle cx="26.0932" cy="55.4398" r="3.26114" fill="#FAF8F5"/>
<circle cx="39.9506" cy="74.1908" r="3.26114" fill="#FAF8F5"/>
<circle cx="51.3599" cy="79.898" r="2.44585" fill="#FAF8F5"/>
<circle cx="55.4418" cy="89.6811" r="3.26114" fill="#FAF8F5"/>
<circle cx="64.4076" cy="80.7133" r="3.26114" fill="#FAF8F5"/>
<circle cx="67.6742" cy="89.6811" r="3.26114" fill="#FAF8F5"/>
<circle cx="63.5923" cy="114.955" r="2.44585" fill="#FAF8F5"/>
<circle cx="73.3822" cy="117.401" r="3.26114" fill="#FAF8F5"/>
<circle cx="71.7496" cy="130.446" r="2.44585" fill="#FAF8F5"/>
<circle cx="95.3913" cy="87.2351" r="1.63057" fill="#FAF8F5"/>
<circle cx="88.8725" cy="72.5609" r="3.26114" fill="#FAF8F5"/>
<circle cx="46.4672" cy="35.8725" r="3.26114" fill="#FAF8F5"/>
<circle cx="55.4418" cy="14.6752" r="3.26114" fill="#FAF8F5"/>
<circle cx="76.6412" cy="23.6431" r="2.44585" fill="#FAF8F5"/>
<circle cx="101.913" cy="55.4398" r="3.26114" fill="#FAF8F5"/>
<circle cx="121.479" cy="55.4398" r="3.26114" fill="#FAF8F5"/>
<circle cx="118.221" cy="34.2416" r="3.26114" fill="#FAF8F5"/>
<circle cx="123.922" cy="23.6431" r="2.44585" fill="#FAF8F5"/>
<circle cx="119.032" cy="13.0446" r="1.63057" fill="#FAF8F5"/>
<circle cx="106.798" cy="10.5982" r="2.44585" fill="#FAF8F5"/>
<circle cx="121.479" cy="3.26114" r="3.26114" fill="#FAF8F5"/>
</svg>
