<svg width="132" height="171" viewBox="0 0 132 171" fill="none" xmlns="http://www.w3.org/2000/svg">
<circle cx="129" cy="167.705" r="3" fill="#FAF8F5"/>
<circle cx="124" cy="149.705" r="4" fill="#FAF8F5"/>
<circle cx="110" cy="135.705" r="2" fill="#FAF8F5"/>
<circle cx="107" cy="121.705" r="4" fill="#FAF8F5"/>
<circle cx="107" cy="110.705" r="3" fill="#FAF8F5"/>
<circle cx="96" cy="110.705" r="4" fill="#FAF8F5"/>
<circle cx="86" cy="118.705" r="2" fill="#FAF8F5"/>
<circle cx="75" cy="110.705" r="4" fill="#FAF8F5"/>
<circle cx="67" cy="97.7051" r="4" fill="#FAF8F5"/>
<circle cx="51" cy="92.7051" r="2" fill="#FAF8F5"/>
<circle cx="44" cy="95.7051" r="4" fill="#FAF8F5"/>
<circle cx="35" cy="82.7051" r="3" fill="#FAF8F5"/>
<circle cx="55" cy="63.7051" r="4" fill="#FAF8F5"/>
<circle cx="63" cy="64.7051" r="2" fill="#FAF8F5"/>
<circle cx="69" cy="57.7051" r="4" fill="#FAF8F5"/>
<circle cx="78" cy="53.7051" r="3" fill="#FAF8F5"/>
<circle cx="89" cy="57.7051" r="4" fill="#FAF8F5"/>
<circle cx="99" cy="63.7051" r="2" fill="#FAF8F5"/>
<circle cx="107" cy="54.7051" r="3" fill="#FAF8F5"/>
<circle cx="111" cy="45.7051" r="4" fill="#FAF8F5"/>
<circle cx="116" cy="34.7051" r="3" fill="#FAF8F5"/>
<circle cx="107" cy="20.7051" r="4" fill="#FAF8F5"/>
<circle cx="92" cy="17.7051" r="3" fill="#FAF8F5"/>
<circle cx="80" cy="18.7051" r="4" fill="#FAF8F5"/>
<circle cx="71" cy="19.7051" r="3" fill="#FAF8F5"/>
<circle cx="67" cy="28.7051" r="4" fill="#FAF8F5"/>
<circle cx="56" cy="31.7051" r="3" fill="#FAF8F5"/>
<circle cx="47" cy="14.7051" r="4" fill="#FAF8F5"/>
<circle cx="32" cy="37.7051" r="4" fill="#FAF8F5"/>
<circle cx="29" cy="6.70508" r="3" fill="#FAF8F5"/>
<circle cx="19" cy="4.70508" r="4" fill="#FAF8F5"/>
<circle cx="3" cy="12.7051" r="3" fill="#FAF8F5"/>
</svg>
