<svg width="195" height="95" viewBox="0 0 195 95" fill="none" xmlns="http://www.w3.org/2000/svg">
<circle cx="3" cy="32.5" r="3" fill="#FAF8F5"/>
<circle cx="28" cy="47.5" r="4" fill="#FAF8F5"/>
<circle cx="32" cy="64.5" r="4" fill="#FAF8F5"/>
<circle cx="16" cy="91.5" r="3" fill="#FAF8F5"/>
<circle cx="61" cy="9.5" r="4" fill="#FAF8F5"/>
<circle cx="74" cy="3.5" r="3" fill="#FAF8F5"/>
<circle cx="81" cy="13.5" r="4" fill="#FAF8F5"/>
<circle cx="99" cy="7.5" r="4" fill="#FAF8F5"/>
<circle cx="85" cy="46.5" r="4" fill="#FAF8F5"/>
<circle cx="89" cy="64.5" r="4" fill="#FAF8F5"/>
<circle cx="94" cy="73.5" r="3" fill="#FAF8F5"/>
<circle cx="147" cy="37.5" r="4" fill="#FAF8F5"/>
<circle cx="192" cy="49.5" r="3" fill="#FAF8F5"/>
<line x1="15.5659" y1="92.2519" x2="31.5659" y2="64.2519" stroke="#FAF8F5"/>
<line x1="27.4818" y1="46.3662" x2="32.4818" y2="64.3662" stroke="#FAF8F5"/>
<line x1="5.24603" y1="34.0647" x2="28.246" y2="47.0647" stroke="#FAF8F5"/>
<line x1="61.1843" y1="9.96479" x2="3.18431" y2="32.9648" stroke="#FAF8F5"/>
<line x1="60.8077" y1="10.0385" x2="72.8077" y2="5.03846" stroke="#FAF8F5"/>
<line x1="73.3904" y1="3.18765" x2="81.3904" y2="13.1877" stroke="#FAF8F5"/>
<line x1="79.8494" y1="13.0232" x2="98.8494" y2="7.02321" stroke="#FAF8F5"/>
<line x1="98.4743" y1="7.65811" x2="85.4743" y2="46.6581" stroke="#FAF8F5"/>
<line x1="85.4893" y1="45.397" x2="89.4893" y2="64.397" stroke="#FAF8F5"/>
<line x1="89.4472" y1="64.2764" x2="94.4472" y2="74.2764" stroke="#FAF8F5"/>
<line x1="99.265" y1="7.076" x2="147.265" y2="37.076" stroke="#FAF8F5"/>
<line x1="146.143" y1="36.0208" x2="193.143" y2="50.0208" stroke="#FAF8F5"/>
</svg>
