<svg width="539" height="704" viewBox="0 0 539 704" fill="none" xmlns="http://www.w3.org/2000/svg">
<circle cx="71.4871" cy="255.936" r="10.5456" fill="black"/>
<circle cx="8.78804" cy="339.155" r="8.78804" fill="black"/>
<circle cx="439.007" cy="466.402" r="6.4371" fill="black"/>
<circle cx="361.765" cy="614.023" r="6.4371" fill="black"/>
<circle cx="272.476" cy="208.573" r="7.03043" fill="black"/>
<circle cx="6.72588" cy="420.57" r="5.85869" fill="black"/>
<circle cx="109.382" cy="349.019" r="4.68695" fill="black"/>
<circle cx="52.355" cy="368.988" r="3.43312" fill="black"/>
<circle cx="181.964" cy="296.894" r="3.43312" fill="black"/>
<circle cx="320.136" cy="414.476" r="3.43312" fill="black"/>
<circle cx="407.263" cy="523.052" r="2.1457" fill="black"/>
<circle cx="536.857" cy="440.654" r="2.1457" fill="black"/>
<circle cx="480.644" cy="463.398" r="3.43312" fill="black"/>
<circle cx="217.144" cy="520.05" r="3.43312" fill="black"/>
<circle cx="140.769" cy="612.738" r="3.43312" fill="black"/>
<circle cx="132.603" cy="485.283" r="4.72054" fill="black"/>
<circle cx="323.142" cy="698.998" r="4.72054" fill="black"/>
<circle cx="363.486" cy="614.025" r="4.72054" fill="black"/>
<line x1="7.31585" y1="337.054" x2="53.0136" y2="368.691" stroke="black"/>
<line x1="53.1387" y1="368.818" x2="132.817" y2="484.821" stroke="black"/>
<line x1="132.599" y1="484.636" x2="216.964" y2="519.788" stroke="black"/>
<line x1="132.905" y1="485.066" x2="141.107" y2="612.785" stroke="black"/>
<line x1="140.813" y1="613.539" x2="323.605" y2="699.076" stroke="black"/>
<line x1="140.813" y1="613.539" x2="323.605" y2="699.076" stroke="black"/>
<line x1="217.037" y1="519.834" x2="362.332" y2="613.573" stroke="black"/>
<line x1="320.265" y1="414.488" x2="405.802" y2="521.116" stroke="black"/>
<line x1="320.073" y1="414.342" x2="439.59" y2="465.898" stroke="black"/>
<line x1="439.364" y1="467.029" x2="480.374" y2="463.514" stroke="black"/>
<line x1="479.064" y1="463.551" x2="537.651" y2="440.117" stroke="black"/>
<line x1="52.5654" y1="368.628" x2="107.637" y2="349.88" stroke="black"/>
<line x1="107.502" y1="349.948" x2="181.322" y2="296.048" stroke="black"/>
<line x1="68.1391" y1="252.63" x2="181.798" y2="295.985" stroke="black"/>
<line x1="68.1391" y1="252.63" x2="181.798" y2="295.985" stroke="black"/>
<line x1="181.273" y1="296.09" x2="272.669" y2="209.382" stroke="black"/>
<line x1="181.942" y1="296.073" x2="320.207" y2="414.419" stroke="black"/>
<line x1="5.48567" y1="421.496" x2="52.3552" y2="368.768" stroke="black"/>
<circle cx="123.823" cy="115.073" r="5.4796" fill="black"/>
<circle cx="479.993" cy="312.337" r="8.2194" fill="black"/>
<circle cx="479.998" cy="265.76" r="10.9592" fill="black"/>
<circle cx="433.423" cy="178.087" r="8.2194" fill="black"/>
<circle cx="236.147" cy="10.9592" r="10.9592" fill="black"/>
<line x1="126.218" y1="114.708" x2="235.81" y2="10.5954" stroke="black"/>
<line x1="233.738" y1="7.84194" x2="436.483" y2="180.449" stroke="black"/>
<line x1="433.86" y1="180.588" x2="480.437" y2="265.521" stroke="black"/>
<line x1="480.492" y1="263.016" x2="480.492" y2="315.072" stroke="black"/>
</svg>
