<svg width="317" height="210" viewBox="0 0 317 210" fill="none" xmlns="http://www.w3.org/2000/svg">
<circle cx="7.186" cy="52.3808" r="6.68552" fill="#FAF8F5"/>
<circle cx="27.2401" cy="57.395" r="3.34276" fill="#FAF8F5"/>
<circle cx="89.0881" cy="59.0664" r="5.01414" fill="#FAF8F5"/>
<circle cx="147.584" cy="62.4095" r="6.68552" fill="#FAF8F5"/>
<circle cx="301.357" cy="32.3239" r="6.68552" fill="#FAF8F5"/>
<circle cx="313.047" cy="3.91084" r="3.34276" fill="#FAF8F5"/>
<circle cx="272.932" cy="75.7798" r="6.68552" fill="#FAF8F5"/>
<circle cx="212.768" cy="177.735" r="5.01414" fill="#FAF8F5"/>
<circle cx="192.71" cy="202.805" r="6.68552" fill="#FAF8F5"/>
<circle cx="77.3812" cy="139.293" r="5.01414" fill="#FAF8F5"/>
<line x1="5.9" y1="52.0659" x2="77.7693" y2="140.649" stroke="#FAF8F5"/>
<line x1="77.623" y1="140.523" x2="192.948" y2="202.364" stroke="#FAF8F5"/>
<line x1="192.324" y1="202.48" x2="212.38" y2="179.08" stroke="#FAF8F5"/>
<line x1="212.333" y1="179.155" x2="272.502" y2="75.5291" stroke="#FAF8F5"/>
<line x1="272.515" y1="75.5063" x2="300.928" y2="32.0504" stroke="#FAF8F5"/>
<line x1="302.555" y1="30.4623" x2="314.255" y2="2.04889" stroke="#FAF8F5"/>
<line x1="147.49" y1="61.9179" x2="301.257" y2="31.8331" stroke="#FAF8F5"/>
<line x1="90.7822" y1="58.5675" x2="147.609" y2="61.9102" stroke="#FAF8F5"/>
<line x1="28.9086" y1="58.5666" x2="90.7496" y2="58.5666" stroke="#FAF8F5"/>
<line x1="5.66983" y1="50.2353" x2="30.7405" y2="58.5922" stroke="#FAF8F5"/>
</svg>
