<svg width="155" height="163" viewBox="0 0 155 163" fill="none" xmlns="http://www.w3.org/2000/svg">
<circle cx="3" cy="37" r="3" fill="#FAF8F5"/>
<circle cx="32" cy="68" r="4" fill="#FAF8F5"/>
<circle cx="49" cy="91" r="4" fill="#FAF8F5"/>
<circle cx="63" cy="98" r="3" fill="#FAF8F5"/>
<circle cx="68" cy="110" r="4" fill="#FAF8F5"/>
<circle cx="79" cy="99" r="4" fill="#FAF8F5"/>
<circle cx="83" cy="110" r="4" fill="#FAF8F5"/>
<circle cx="78" cy="141" r="3" fill="#FAF8F5"/>
<circle cx="90" cy="144" r="4" fill="#FAF8F5"/>
<circle cx="88" cy="160" r="3" fill="#FAF8F5"/>
<circle cx="117" cy="107" r="2" fill="#FAF8F5"/>
<circle cx="109" cy="89" r="4" fill="#FAF8F5"/>
<circle cx="57" cy="44" r="4" fill="#FAF8F5"/>
<circle cx="68" cy="18" r="4" fill="#FAF8F5"/>
<circle cx="94" cy="29" r="3" fill="#FAF8F5"/>
<circle cx="125" cy="68" r="4" fill="#FAF8F5"/>
<circle cx="149" cy="68" r="4" fill="#FAF8F5"/>
<circle cx="145" cy="42" r="4" fill="#FAF8F5"/>
<circle cx="152" cy="29" r="3" fill="#FAF8F5"/>
<circle cx="146" cy="16" r="2" fill="#FAF8F5"/>
<circle cx="131" cy="13" r="3" fill="#FAF8F5"/>
<circle cx="149" cy="4" r="4" fill="#FAF8F5"/>
<line x1="3.35949" y1="37.6525" x2="32.3595" y2="67.6525" stroke="#FAF8F5"/>
<line x1="32.4021" y1="67.7028" x2="49.4021" y2="90.7028" stroke="#FAF8F5"/>
<line x1="47.5093" y1="89.904" x2="56.5093" y2="43.904" stroke="#FAF8F5"/>
<line x1="56.5423" y1="42.7986" x2="67.5423" y2="17.7986" stroke="#FAF8F5"/>
<line x1="68.2169" y1="16.5495" x2="95.2169" y2="29.5495" stroke="#FAF8F5"/>
<line x1="95.3884" y1="29.6851" x2="125.388" y2="66.6851" stroke="#FAF8F5"/>
<line x1="124.419" y1="66.2731" x2="109.419" y2="89.2731" stroke="#FAF8F5"/>
<line x1="108.312" y1="88.3904" x2="83.3123" y2="108.39" stroke="#FAF8F5"/>
<line x1="79.4569" y1="98.7969" x2="83.4569" y2="107.797" stroke="#FAF8F5"/>
<line x1="68.6799" y1="108.616" x2="80.6799" y2="98.6159" stroke="#FAF8F5"/>
<line x1="67.5358" y1="109.186" x2="63.5358" y2="99.1857" stroke="#FAF8F5"/>
<line x1="48.2236" y1="90.5528" x2="64.2236" y2="98.5528" stroke="#FAF8F5"/>
<line x1="57.4665" y1="41.82" x2="79.4665" y2="98.82" stroke="#FAF8F5"/>
<line x1="77.5103" y1="141.899" x2="84.5103" y2="107.899" stroke="#FAF8F5"/>
<line x1="77.0822" y1="141.507" x2="89.0822" y2="143.507" stroke="#FAF8F5"/>
<line x1="89.4969" y1="144.055" x2="87.4969" y2="162.055" stroke="#FAF8F5"/>
<line x1="109.464" y1="88.8143" x2="117.464" y2="108.814" stroke="#FAF8F5"/>
<line x1="124.979" y1="67.5004" x2="148.979" y2="66.5004" stroke="#FAF8F5"/>
<line x1="143.487" y1="41.8876" x2="149.487" y2="67.8876" stroke="#FAF8F5"/>
<line x1="151.426" y1="29.262" x2="143.426" y2="42.2621" stroke="#FAF8F5"/>
<line x1="145.46" y1="15.803" x2="151.46" y2="29.803" stroke="#FAF8F5"/>
<line x1="131.098" y1="12.5097" x2="146.098" y2="15.5097" stroke="#FAF8F5"/>
<line x1="147.245" y1="4.43579" x2="131.245" y2="13.4358" stroke="#FAF8F5"/>
<line x1="147.493" y1="4.0822" x2="145.493" y2="16.0822" stroke="#FAF8F5"/>
</svg>
