<svg width="541" height="715" viewBox="0 0 541 715" fill="none" xmlns="http://www.w3.org/2000/svg">
<ellipse cx="104.526" cy="63.7894" rx="5.3074" ry="5.93397" fill="#FAF8F5"/>
<ellipse cx="75.3334" cy="72.6936" rx="2.6537" ry="2.96699" fill="#FAF8F5"/>
<ellipse cx="115.136" cy="28.1879" rx="5.3074" ry="5.93397" fill="#FAF8F5"/>
<ellipse cx="129.737" cy="11.8676" rx="5.3074" ry="5.93397" fill="#FAF8F5"/>
<ellipse cx="158.925" cy="43.0238" rx="5.3074" ry="5.93397" fill="#FAF8F5"/>
<ellipse cx="160.247" cy="54.8889" rx="2.6537" ry="2.96699" fill="#FAF8F5"/>
<ellipse cx="145.659" cy="51.9223" rx="5.3074" ry="5.93397" fill="#FAF8F5"/>
<ellipse cx="160.246" cy="86.0403" rx="3.98055" ry="4.45048" fill="#FAF8F5"/>
<ellipse cx="238.534" cy="94.9418" rx="5.3074" ry="5.93397" fill="#FAF8F5"/>
<ellipse cx="254.449" cy="105.329" rx="3.98055" ry="4.45048" fill="#FAF8F5"/>
<ellipse cx="266.401" cy="126.098" rx="5.3074" ry="5.93397" fill="#FAF8F5"/>
<ellipse cx="277.011" cy="111.262" rx="5.3074" ry="5.93397" fill="#FAF8F5"/>
<ellipse cx="315.497" cy="151.319" rx="2.6537" ry="2.96699" fill="#FAF8F5"/>
<ellipse cx="295.591" cy="183.955" rx="2.6537" ry="2.96699" fill="#FAF8F5"/>
<ellipse cx="178.823" cy="129.067" rx="5.3074" ry="5.93397" fill="#FAF8F5"/>
<ellipse cx="164.229" cy="186.922" rx="5.3074" ry="5.93397" fill="#FAF8F5"/>
<ellipse cx="133.715" cy="200.275" rx="3.98055" ry="4.45048" fill="#FAF8F5"/>
<ellipse cx="178.823" cy="28.1879" rx="5.3074" ry="5.93397" fill="#FAF8F5"/>
<ellipse cx="192.096" cy="5.93397" rx="5.3074" ry="5.93397" fill="#FAF8F5"/>
<ellipse cx="243.84" cy="26.7044" rx="3.98055" ry="4.45048" fill="#FAF8F5"/>
<line y1="-0.5" x2="30.5176" y2="-0.5" transform="matrix(0.95652 -0.291667 0.236981 0.971514 75.3359 72.6914)" stroke="#FAF8F5"/>
<line y1="-0.5" x2="42.8102" y2="-0.5" transform="matrix(0.960806 -0.277222 0.224902 0.974381 104.523 63.7891)" stroke="#FAF8F5"/>
<line y1="-0.5" x2="38.6615" y2="-0.5" transform="matrix(-0.789352 -0.613941 0.528287 -0.849066 145.648 51.9219)" stroke="#FAF8F5"/>
<line y1="-0.5" x2="22.7993" y2="-0.5" transform="matrix(0.698364 -0.715743 0.634022 0.773315 113.812 28.1875)" stroke="#FAF8F5"/>
<line y1="-0.5" x2="43.7865" y2="-0.5" transform="matrix(0.666659 0.745363 -0.666659 0.745363 129.734 10.3828)" stroke="#FAF8F5"/>
<line y1="-0.5" x2="25.8992" y2="-0.5" transform="matrix(0.819699 -0.572794 0.487942 0.872876 157.594 43.0195)" stroke="#FAF8F5"/>
<line y1="-0.5" x2="25.908" y2="-0.5" transform="matrix(0.51214 -0.858902 0.801778 0.597622 178.828 28.1875)" stroke="#FAF8F5"/>
<line y1="-0.5" x2="58.776" y2="-0.5" transform="matrix(0.925562 0.378597 -0.310996 0.950411 190.766 5.93359)" stroke="#FAF8F5"/>
<line x1="159.422" y1="41.5352" x2="159.422" y2="54.8866" stroke="#FAF8F5"/>
<line x1="159.422" y1="54.8906" x2="159.422" y2="89.011" stroke="#FAF8F5"/>
<line y1="-0.5" x2="37.9959" y2="-0.5" transform="matrix(-0.349209 -0.937045 0.906464 -0.422283 158.922 87.5234)" stroke="#FAF8F5"/>
<line y1="-0.5" x2="47.402" y2="-0.5" transform="matrix(0.419871 0.907584 -0.865667 0.50062 158.922 86.043)" stroke="#FAF8F5"/>
<line y1="-0.5" x2="59.3582" y2="-0.5" transform="matrix(-0.223533 0.974696 -0.961278 -0.27558 177.5 129.062)" stroke="#FAF8F5"/>
<line y1="-0.5" x2="30.286" y2="-0.5" transform="matrix(-0.920024 0.391862 -0.32252 -0.946563 162.898 186.922)" stroke="#FAF8F5"/>
<line y1="-0.5" x2="69.9248" y2="-0.5" transform="matrix(0.872867 -0.487958 0.408241 0.912874 177.5 129.062)" stroke="#FAF8F5"/>
<line y1="-0.5" x2="79.9558" y2="-0.5" transform="matrix(0.995688 0.0927696 -0.0743279 0.997234 158.922 87.5234)" stroke="#FAF8F5"/>
<line y1="-0.5" x2="22.0434" y2="-0.5" transform="matrix(0.842696 0.53839 -0.455097 0.890442 237.211 94.9414)" stroke="#FAF8F5"/>
<line y1="-0.5" x2="22.9913" y2="-0.5" transform="matrix(0.981086 0.193572 -0.155907 0.987772 254.453 106.809)" stroke="#FAF8F5"/>
<line y1="-0.5" x2="55.7283" y2="-0.5" transform="matrix(0.666659 0.745363 -0.666659 0.745363 277.008 111.262)" stroke="#FAF8F5"/>
<line y1="-0.5" x2="22.6833" y2="-0.5" transform="matrix(0.526452 0.850205 -0.790783 0.612097 254.453 106.809)" stroke="#FAF8F5"/>
<line y1="-0.5" x2="68.8057" y2="-0.5" transform="matrix(0.424248 0.905546 -0.862908 0.505361 266.398 124.613)" stroke="#FAF8F5"/>
<ellipse rx="5.29734" ry="4.84475" transform="matrix(0.277917 0.960605 -0.940569 0.339603 206.533 250.718)" fill="#FAF8F5"/>
<ellipse rx="7.06313" ry="6.45966" transform="matrix(0.277917 0.960605 -0.940569 0.339603 254.528 306.451)" fill="#FAF8F5"/>
<ellipse rx="7.06313" ry="6.45966" transform="matrix(0.277917 0.960605 -0.940569 0.339603 221.817 355.733)" fill="#FAF8F5"/>
<ellipse rx="7.06313" ry="6.45966" transform="matrix(0.277917 0.960605 -0.940569 0.339603 138.512 357.709)" fill="#FAF8F5"/>
<ellipse rx="5.29734" ry="4.84475" transform="matrix(0.277917 0.960605 -0.940569 0.339603 119.939 345.683)" fill="#FAF8F5"/>
<ellipse rx="5.29734" ry="4.84475" transform="matrix(0.277917 0.960605 -0.940569 0.339603 105.908 332.011)" fill="#FAF8F5"/>
<ellipse rx="3.53156" ry="3.22983" transform="matrix(0.277917 0.960605 -0.940569 0.339603 166.78 356.864)" fill="#FAF8F5"/>
<ellipse rx="5.29734" ry="4.84475" transform="matrix(0.277917 0.960605 -0.940569 0.339603 119.548 390.777)" fill="#FAF8F5"/>
<ellipse rx="3.53156" ry="3.22983" transform="matrix(0.277917 0.960605 -0.940569 0.339603 60.967 455.021)" fill="#FAF8F5"/>
<ellipse rx="5.29734" ry="4.84475" transform="matrix(0.277917 0.960605 -0.940569 0.339603 12.4037 345.16)" fill="#FAF8F5"/>
<line y1="-0.5" x2="75.3918" y2="-0.5" transform="matrix(0.636657 0.739236 -0.699472 0.751356 206.523 250.715)" stroke="#FAF8F5"/>
<line y1="-0.5" x2="58.6556" y2="-0.5" transform="matrix(-0.583651 0.849515 -0.736841 -0.63132 256.047 305.898)" stroke="#FAF8F5"/>
<line y1="-0.5" x2="58.2415" y2="-0.5" transform="matrix(-0.979407 -0.000201935 0.000369434 -1.01748 221.812 355.73)" stroke="#FAF8F5"/>
<line y1="-0.5" x2="26.7866" y2="-0.5" transform="matrix(-0.980563 0.0742914 -0.0612839 -1.01213 164.766 355.723)" stroke="#FAF8F5"/>
<line y1="-0.5" x2="20.4809" y2="-0.5" transform="matrix(-0.808959 -0.531155 0.480782 -0.913043 138.5 357.707)" stroke="#FAF8F5"/>
<line y1="-0.5" x2="20.9664" y2="-0.5" transform="matrix(-0.741187 -0.625916 0.577983 -0.853528 123.461 346.281)" stroke="#FAF8F5"/>
<line y1="-0.5" x2="123.756" y2="-0.5" transform="matrix(0.788533 -0.648018 0.540113 0.819826 108.945 330.914)" stroke="#FAF8F5"/>
<line y1="-0.5" x2="99.1848" y2="-0.5" transform="matrix(0.978227 -0.126544 0.104148 1.00603 10.8906 345.715)" stroke="#FAF8F5"/>
<line y1="-0.5" x2="38.1589" y2="-0.5" transform="matrix(-0.536455 0.881022 -0.771658 -0.585923 139 359.402)" stroke="#FAF8F5"/>
<line y1="-0.5" x2="81.5851" y2="-0.5" transform="matrix(-0.711486 0.739105 -0.62482 -0.750195 118.531 393.02)" stroke="#FAF8F5"/>
<ellipse cx="514.943" cy="12.1878" rx="4.24723" ry="4.74641" fill="#FAF8F5"/>
<ellipse cx="509.624" cy="37.1076" rx="2.12362" ry="2.3732" fill="#FAF8F5"/>
<ellipse cx="513.881" cy="85.759" rx="3.18542" ry="3.55981" fill="#FAF8F5"/>
<ellipse cx="498.483" cy="138.56" rx="2.65452" ry="2.96651" fill="#FAF8F5"/>
<ellipse cx="480.966" cy="152.207" rx="4.24723" ry="4.74641" fill="#FAF8F5"/>
<ellipse cx="465.036" cy="142.715" rx="4.24723" ry="4.74641" fill="#FAF8F5"/>
<ellipse cx="440.084" cy="127.881" rx="2.65452" ry="2.96651" fill="#FAF8F5"/>
<ellipse cx="426.81" cy="96.4378" rx="4.24723" ry="4.74641" fill="#FAF8F5"/>
<ellipse cx="412.483" cy="93.4665" rx="2.65452" ry="2.96651" fill="#FAF8F5"/>
<ellipse cx="396.028" cy="86.9456" rx="4.24723" ry="4.74641" fill="#FAF8F5"/>
<ellipse cx="388.583" cy="114.239" rx="4.24723" ry="4.74641" fill="#FAF8F5"/>
<ellipse cx="418.318" cy="171.192" rx="4.24723" ry="4.74641" fill="#FAF8F5"/>
<ellipse cx="430.522" cy="178.912" rx="2.65452" ry="2.96651" fill="#FAF8F5"/>
<ellipse cx="435.31" cy="193.739" rx="4.24723" ry="4.74641" fill="#FAF8F5"/>
<ellipse cx="415.138" cy="198.485" rx="4.24723" ry="4.74641" fill="#FAF8F5"/>
<line y1="-0.5" x2="27.4776" y2="-0.5" transform="matrix(-0.11593 0.993257 -0.989543 -0.14424 418.312 171.191)" stroke="#FAF8F5"/>
<line y1="-0.5" x2="64.2495" y2="-0.5" transform="matrix(0.462737 0.886496 -0.837718 0.546102 388.586 114.234)" stroke="#FAF8F5"/>
<line y1="-0.5" x2="19.7221" y2="-0.5" transform="matrix(0.430708 0.902492 -0.858999 0.511977 380.094 96.4375)" stroke="#FAF8F5"/>
<line y1="-0.5" x2="17.6378" y2="-0.5" transform="matrix(0.842811 -0.53821 0.455267 0.890355 381.156 96.4375)" stroke="#FAF8F5"/>
<line y1="-0.5" x2="17.446" y2="-0.5" transform="matrix(0.912939 0.408095 -0.336995 0.941506 396.016 86.9453)" stroke="#FAF8F5"/>
<line y1="-0.5" x2="15.0536" y2="-0.5" transform="matrix(0.987495 0.157651 -0.126801 0.991928 411.945 94.0625)" stroke="#FAF8F5"/>
<line y1="-0.5" x2="33.3793" y2="-0.5" transform="matrix(0.381725 0.924276 -0.888746 0.4584 426.812 96.4375)" stroke="#FAF8F5"/>
<line y1="-0.5" x2="29.1918" y2="-0.5" transform="matrix(0.872965 0.487782 -0.408402 0.912802 439.555 128.477)" stroke="#FAF8F5"/>
<line y1="-0.5" x2="19.1761" y2="-0.5" transform="matrix(0.830571 0.556913 -0.473032 0.881045 465.039 142.715)" stroke="#FAF8F5"/>
<line y1="-0.5" x2="22.991" y2="-0.5" transform="matrix(0.785123 -0.61934 0.534033 0.845464 480.961 152.207)" stroke="#FAF8F5"/>
<line y1="-0.5" x2="55.4277" y2="-0.5" transform="matrix(0.268193 -0.963365 0.944541 0.328394 499.016 139.156)" stroke="#FAF8F5"/>
<line y1="-0.5" x2="48.7551" y2="-0.5" transform="matrix(-0.0653355 -0.997863 0.996674 -0.0814985 513.883 85.7539)" stroke="#FAF8F5"/>
<line y1="-0.5" x2="25.4783" y2="-0.5" transform="matrix(-0.208378 0.978049 -0.966376 -0.257132 514.938 12.1875)" stroke="#FAF8F5"/>
<line y1="-0.5" x2="19.6931" y2="-0.5" transform="matrix(0.97052 -0.241019 0.195033 0.980797 416.195 198.484)" stroke="#FAF8F5"/>
<line y1="-0.5" x2="15.1974" y2="-0.5" transform="matrix(0.349353 0.936991 -0.90654 0.422119 430 179.5)" stroke="#FAF8F5"/>
<line y1="-0.5" x2="15.21" y2="-0.5" transform="matrix(0.837718 0.546102 -0.462737 0.886496 418.312 171.191)" stroke="#FAF8F5"/>
<ellipse cx="449.107" cy="104.743" rx="4.24723" ry="4.74641" fill="#FAF8F5"/>
<ellipse cx="325.58" cy="337.017" rx="4.26753" ry="4.77831" fill="#FAF8F5"/>
<ellipse cx="354.392" cy="272.51" rx="2.13376" ry="2.38915" fill="#FAF8F5"/>
<ellipse cx="363.99" cy="345.381" rx="3.20065" ry="3.58373" fill="#FAF8F5"/>
<ellipse cx="379.994" cy="346.575" rx="4.26753" ry="4.77831" fill="#FAF8F5"/>
<ellipse cx="397.064" cy="388.384" rx="4.26753" ry="4.77831" fill="#FAF8F5"/>
<ellipse cx="424.807" cy="383.603" rx="4.26753" ry="4.77831" fill="#FAF8F5"/>
<ellipse cx="420.541" cy="332.239" rx="4.26753" ry="4.77831" fill="#FAF8F5"/>
<ellipse cx="431.208" cy="303.568" rx="3.20065" ry="3.58373" fill="#FAF8F5"/>
<ellipse cx="446.143" cy="273.704" rx="4.26753" ry="4.77831" fill="#FAF8F5"/>
<ellipse cx="462.143" cy="285.649" rx="4.26753" ry="4.77831" fill="#FAF8F5"/>
<ellipse cx="480.282" cy="297.596" rx="2.13376" ry="2.38915" fill="#FAF8F5"/>
<ellipse rx="4.26753" ry="4.77831" transform="matrix(-1 0 0 1 441.873 454.079)" fill="#FAF8F5"/>
<ellipse rx="2.13376" ry="2.38915" transform="matrix(-1 0 0 1 458.944 472.002)" fill="#FAF8F5"/>
<ellipse rx="4.26753" ry="4.77831" transform="matrix(-1 0 0 1 375.725 431.388)" fill="#FAF8F5"/>
<ellipse rx="3.20065" ry="3.58373" transform="matrix(-1 0 0 1 335.182 407.498)" fill="#FAF8F5"/>
<ellipse rx="4.26753" ry="4.77831" transform="matrix(-1 0 0 1 317.045 393.161)" fill="#FAF8F5"/>
<ellipse rx="2.13376" ry="2.38915" transform="matrix(-1 0 0 1 297.843 396.745)" fill="#FAF8F5"/>
<line y1="-0.5" x2="69.1226" y2="-0.5" transform="matrix(-0.401301 0.915946 -0.876482 -0.481435 353.312 273.703)" stroke="#FAF8F5"/>
<line y1="-0.5" x2="40.1201" y2="-0.5" transform="matrix(-0.983913 -0.17865 0.143332 -0.989675 365.062 344.188)" stroke="#FAF8F5"/>
<line y1="-0.5" x2="15.1267" y2="-0.5" transform="matrix(-0.987447 -0.157948 0.12656 -0.991959 379.992 346.57)" stroke="#FAF8F5"/>
<line y1="-0.5" x2="43.4141" y2="-0.5" transform="matrix(-0.933834 0.357707 -0.292201 -0.956357 420.539 331.043)" stroke="#FAF8F5"/>
<line y1="-0.5" x2="45.1606" y2="-0.5" transform="matrix(-0.377987 -0.925811 0.890165 -0.455638 397.062 388.383)" stroke="#FAF8F5"/>
<line y1="-0.5" x2="52.7346" y2="-0.5" transform="matrix(-0.080925 -0.99672 0.994859 -0.101267 424.805 383.605)" stroke="#FAF8F5"/>
<line y1="-0.5" x2="30.2524" y2="-0.5" transform="matrix(0.987447 -0.157948 0.12656 0.991959 394.93 388.383)" stroke="#FAF8F5"/>
<line y1="-0.5" x2="28.3637" y2="-0.5" transform="matrix(0.376144 -0.926561 0.891214 0.453583 420.539 331.043)" stroke="#FAF8F5"/>
<line y1="-0.5" x2="34.4638" y2="-0.5" transform="matrix(0.433392 -0.901205 0.856392 0.516327 431.203 304.762)" stroke="#FAF8F5"/>
<line y1="-0.5" x2="20.8348" y2="-0.5" transform="matrix(0.819307 0.573356 -0.4874 0.873179 445.07 273.703)" stroke="#FAF8F5"/>
<line y1="-0.5" x2="22.6162" y2="-0.5" transform="matrix(-0.849122 -0.528196 0.444466 -0.895796 481.352 297.594)" stroke="#FAF8F5"/>
<line y1="-0.5" x2="72.5177" y2="-0.5" transform="matrix(-0.235392 -0.9719 0.956861 -0.290546 441.875 454.082)" stroke="#FAF8F5"/>
<line y1="-0.5" x2="25.6262" y2="-0.5" transform="matrix(0.666119 0.745846 -0.666119 0.745846 440.805 452.891)" stroke="#FAF8F5"/>
<line y1="-0.5" x2="47.9798" y2="-0.5" transform="matrix(0.867206 0.497949 -0.416406 0.909179 334.117 407.496)" stroke="#FAF8F5"/>
<line y1="-0.5" x2="49.0803" y2="-0.5" transform="matrix(-0.43475 0.900551 -0.85551 -0.517787 397.062 387.188)" stroke="#FAF8F5"/>
<line y1="-0.5" x2="23.8771" y2="-0.5" transform="matrix(0.759598 0.650393 -0.563982 0.825787 315.984 391.969)" stroke="#FAF8F5"/>
<line y1="-0.5" x2="21.1324" y2="-0.5" transform="matrix(0.959226 -0.282641 0.228793 0.973475 296.773 397.941)" stroke="#FAF8F5"/>
<mask id="mask0_969_23582" style="mask-type:alpha" maskUnits="userSpaceOnUse" x="295" y="268" width="188" height="207">
<ellipse cx="325.58" cy="337.013" rx="4.26753" ry="4.77831" fill="black"/>
<ellipse cx="354.392" cy="272.506" rx="2.13376" ry="2.38915" fill="black"/>
<ellipse cx="363.99" cy="345.377" rx="3.20065" ry="3.58373" fill="black"/>
<ellipse cx="379.994" cy="346.571" rx="4.26753" ry="4.77831" fill="black"/>
<ellipse cx="397.064" cy="388.38" rx="4.26753" ry="4.77831" fill="black"/>
<ellipse cx="424.807" cy="383.599" rx="4.26753" ry="4.77831" fill="black"/>
<ellipse cx="420.541" cy="332.235" rx="4.26753" ry="4.77831" fill="black"/>
<ellipse cx="431.208" cy="303.564" rx="3.20065" ry="3.58373" fill="black"/>
<ellipse cx="446.143" cy="273.7" rx="4.26753" ry="4.77831" fill="black"/>
<ellipse cx="462.143" cy="285.646" rx="4.26753" ry="4.77831" fill="black"/>
<ellipse cx="480.282" cy="297.592" rx="2.13376" ry="2.38915" fill="black"/>
<ellipse rx="4.26753" ry="4.77831" transform="matrix(-1 0 0 1 441.873 454.075)" fill="black"/>
<ellipse rx="2.13376" ry="2.38915" transform="matrix(-1 0 0 1 458.944 471.999)" fill="black"/>
<ellipse rx="4.26753" ry="4.77831" transform="matrix(-1 0 0 1 375.725 431.384)" fill="black"/>
<ellipse rx="3.20065" ry="3.58373" transform="matrix(-1 0 0 1 335.182 407.494)" fill="black"/>
<ellipse rx="4.26753" ry="4.77831" transform="matrix(-1 0 0 1 317.045 393.157)" fill="black"/>
<ellipse rx="2.13376" ry="2.38915" transform="matrix(-1 0 0 1 297.843 396.741)" fill="black"/>
<line y1="-0.5" x2="69.1226" y2="-0.5" transform="matrix(-0.401301 0.915946 -0.876482 -0.481435 353.312 273.699)" stroke="black"/>
<line y1="-0.5" x2="40.1201" y2="-0.5" transform="matrix(-0.983913 -0.17865 0.143332 -0.989675 365.062 344.184)" stroke="black"/>
<line y1="-0.5" x2="15.1267" y2="-0.5" transform="matrix(-0.987447 -0.157948 0.12656 -0.991959 379.992 346.566)" stroke="black"/>
<line y1="-0.5" x2="43.4141" y2="-0.5" transform="matrix(-0.933834 0.357707 -0.292201 -0.956357 420.539 331.039)" stroke="black"/>
<line y1="-0.5" x2="45.1606" y2="-0.5" transform="matrix(-0.377987 -0.925811 0.890165 -0.455638 397.062 388.379)" stroke="black"/>
<line y1="-0.5" x2="52.7346" y2="-0.5" transform="matrix(-0.080925 -0.99672 0.994859 -0.101267 424.805 383.602)" stroke="black"/>
<line y1="-0.5" x2="30.2524" y2="-0.5" transform="matrix(0.987447 -0.157948 0.12656 0.991959 394.93 388.379)" stroke="black"/>
<line y1="-0.5" x2="28.3637" y2="-0.5" transform="matrix(0.376144 -0.926561 0.891214 0.453583 420.539 331.039)" stroke="black"/>
<line y1="-0.5" x2="34.4638" y2="-0.5" transform="matrix(0.433392 -0.901205 0.856392 0.516327 431.203 304.758)" stroke="black"/>
<line y1="-0.5" x2="20.8348" y2="-0.5" transform="matrix(0.819307 0.573356 -0.4874 0.873179 445.07 273.699)" stroke="black"/>
<line y1="-0.5" x2="22.6162" y2="-0.5" transform="matrix(-0.849122 -0.528196 0.444466 -0.895796 481.352 297.59)" stroke="black"/>
<line y1="-0.5" x2="72.5177" y2="-0.5" transform="matrix(-0.235392 -0.9719 0.956861 -0.290546 441.875 454.078)" stroke="black"/>
<line y1="-0.5" x2="25.6262" y2="-0.5" transform="matrix(0.666119 0.745846 -0.666119 0.745846 440.805 452.887)" stroke="black"/>
<line y1="-0.5" x2="47.9798" y2="-0.5" transform="matrix(0.867206 0.497949 -0.416406 0.909179 334.117 407.492)" stroke="black"/>
<line y1="-0.5" x2="49.0803" y2="-0.5" transform="matrix(-0.43475 0.900551 -0.85551 -0.517787 397.062 387.184)" stroke="black"/>
<line y1="-0.5" x2="23.8771" y2="-0.5" transform="matrix(0.759598 0.650393 -0.563982 0.825787 315.984 391.965)" stroke="black"/>
<line y1="-0.5" x2="21.1324" y2="-0.5" transform="matrix(0.959226 -0.282641 0.228793 0.973475 296.773 397.938)" stroke="black"/>
</mask>
<g mask="url(#mask0_969_23582)">
<rect width="234.987" height="135.334" transform="matrix(1 0 0 -1 276.43 506.871)" fill="#FAF8F5"/>
</g>
<ellipse cx="89.3618" cy="579.295" rx="4.25238" ry="4.25588" fill="#FAF8F5"/>
<ellipse cx="113.814" cy="593.125" rx="3.18928" ry="3.19191" fill="#FAF8F5"/>
<ellipse cx="119.127" cy="611.213" rx="4.25238" ry="4.25588" fill="#FAF8F5"/>
<ellipse cx="103.181" cy="639.94" rx="2.12619" ry="2.12794" fill="#FAF8F5"/>
<ellipse cx="148.892" cy="553.762" rx="3.18928" ry="3.19191" fill="#FAF8F5"/>
<ellipse cx="161.651" cy="550.568" rx="4.25238" ry="4.25588" fill="#FAF8F5"/>
<ellipse cx="169.096" cy="558.016" rx="3.18928" ry="3.19191" fill="#FAF8F5"/>
<ellipse cx="189.291" cy="552.697" rx="4.25238" ry="4.25588" fill="#FAF8F5"/>
<ellipse cx="174.409" cy="594.189" rx="4.25238" ry="4.25588" fill="#FAF8F5"/>
<ellipse cx="177.596" cy="613.342" rx="4.25238" ry="4.25588" fill="#FAF8F5"/>
<ellipse cx="182.916" cy="621.854" rx="4.25238" ry="4.25588" fill="#FAF8F5"/>
<ellipse cx="282.846" cy="596.321" rx="3.18928" ry="3.19191" fill="#FAF8F5"/>
<ellipse cx="237.135" cy="582.486" rx="4.25238" ry="4.25588" fill="#FAF8F5"/>
<line y1="-0.5" x2="65.2053" y2="-0.5" transform="matrix(0.913013 -0.407931 0.407371 0.913263 89.3594 580.359)" stroke="#FAF8F5"/>
<line y1="-0.5" x2="12.1218" y2="-0.5" transform="matrix(0.964709 -0.263319 0.262916 0.964819 149.961 553.762)" stroke="#FAF8F5"/>
<line y1="-0.5" x2="12.8072" y2="-0.5" transform="matrix(0.664058 0.747681 -0.747138 0.664669 161.648 549.504)" stroke="#FAF8F5"/>
<line y1="-0.5" x2="19.6032" y2="-0.5" transform="matrix(0.976149 -0.217101 0.21676 0.976225 170.156 558.016)" stroke="#FAF8F5"/>
<line y1="-0.5" x2="58.7246" y2="-0.5" transform="matrix(0.850843 0.52542 -0.524794 0.851229 187.164 552.695)" stroke="#FAF8F5"/>
<line y1="-0.5" x2="49.5137" y2="-0.5" transform="matrix(0.966182 0.257861 -0.257465 0.966288 236.07 583.551)" stroke="#FAF8F5"/>
<line y1="-0.5" x2="43.4116" y2="-0.5" transform="matrix(-0.293865 0.955847 -0.955711 -0.294307 187.164 552.695)" stroke="#FAF8F5"/>
<line y1="-0.5" x2="20.4659" y2="-0.5" transform="matrix(0.155837 0.987783 -0.987743 0.156088 174.406 593.129)" stroke="#FAF8F5"/>
<line y1="-0.5" x2="10.0351" y2="-0.5" transform="matrix(0.529685 0.848194 -0.847802 0.530313 177.602 613.344)" stroke="#FAF8F5"/>
<line y1="-0.5" x2="28.5305" y2="-0.5" transform="matrix(0.89428 0.447508 -0.446919 0.894574 89.3594 580.359)" stroke="#FAF8F5"/>
<line y1="-0.5" x2="18.8524" y2="-0.5" transform="matrix(0.281953 0.959428 -0.959303 0.28238 113.812 593.129)" stroke="#FAF8F5"/>
<line y1="-0.5" x2="34.3057" y2="-0.5" transform="matrix(-0.471672 0.881774 -0.881451 -0.472276 118.711 609.922)" stroke="#FAF8F5"/>
<ellipse cx="367.087" cy="557.414" rx="3.36861" ry="3.36332" fill="#FAF8F5"/>
<ellipse cx="385.046" cy="574.227" rx="4.49147" ry="4.48442" fill="#FAF8F5"/>
<ellipse cx="435.58" cy="593.293" rx="3.36861" ry="3.36332" fill="#FAF8F5"/>
<ellipse cx="462.538" cy="585.441" rx="4.49147" ry="4.48442" fill="#FAF8F5"/>
<ellipse cx="460.281" cy="541.715" rx="4.49147" ry="4.48442" fill="#FAF8F5"/>
<ellipse cx="396.277" cy="521.539" rx="2.24539" ry="2.24221" fill="#FAF8F5"/>
<ellipse cx="461.415" cy="628.047" rx="3.36861" ry="3.36332" fill="#FAF8F5"/>
<ellipse cx="510.812" cy="611.227" rx="4.49147" ry="4.48442" fill="#FAF8F5"/>
<ellipse cx="536.634" cy="654.953" rx="3.36861" ry="3.36332" fill="#FAF8F5"/>
<ellipse cx="486.116" cy="703.16" rx="4.49147" ry="4.48442" fill="#FAF8F5"/>
<line y1="-0.5" x2="23.8563" y2="-0.5" transform="matrix(0.753089 0.657918 -0.65909 0.752064 367.086 558.539)" stroke="#FAF8F5"/>
<line y1="-0.5" x2="55.8718" y2="-0.5" transform="matrix(0.924473 0.381248 -0.382273 0.92405 385.047 573.109)" stroke="#FAF8F5"/>
<line y1="-0.5" x2="28.4021" y2="-0.5" transform="matrix(0.948832 -0.315781 0.316675 0.948534 435.578 594.41)" stroke="#FAF8F5"/>
<line y1="-0.5" x2="54.7373" y2="-0.5" transform="matrix(0.882092 0.471076 -0.472229 0.881476 462.539 585.441)" stroke="#FAF8F5"/>
<line y1="-0.5" x2="52.3187" y2="-0.5" transform="matrix(0.51509 0.857136 -0.857849 0.513901 510.812 611.227)" stroke="#FAF8F5"/>
<line y1="-0.5" x2="70.6533" y2="-0.5" transform="matrix(-0.731062 0.682311 -0.683456 -0.729991 537.758 654.949)" stroke="#FAF8F5"/>
<line y1="-0.5" x2="76.592" y2="-0.5" transform="matrix(-0.307868 -0.951429 0.951712 -0.306993 486.117 702.035)" stroke="#FAF8F5"/>
<line y1="-0.5" x2="41.7305" y2="-0.5" transform="matrix(-0.591968 -0.805962 0.806848 -0.590759 461.406 628.043)" stroke="#FAF8F5"/>
<line y1="-0.5" x2="43.7376" y2="-0.5" transform="matrix(-0.0256729 -0.99967 0.999672 -0.0255924 462.539 585.441)" stroke="#FAF8F5"/>
<line y1="-0.5" x2="66.0394" y2="-0.5" transform="matrix(-0.952168 -0.305574 0.306445 -0.951888 460.289 541.719)" stroke="#FAF8F5"/>
</svg>
