<svg width="151" height="129" viewBox="0 0 151 129" fill="none" xmlns="http://www.w3.org/2000/svg">
<g clip-path="url(#clip0_1482_97913)">
<circle cx="148" cy="62.5" r="3" fill="#FAF8F5"/>
<circle cx="84" cy="85.5" r="2" fill="#FAF8F5"/>
<circle cx="3" cy="125.5" r="3" fill="#FAF8F5"/>
<circle cx="3" cy="18.5" r="3" fill="#FAF8F5"/>
<circle cx="14" cy="4.5" r="4" fill="#FAF8F5"/>
<circle cx="18" cy="31.5" r="4" fill="#FAF8F5"/>
<circle cx="23" cy="61.5" r="3" fill="#FAF8F5"/>
<circle cx="19" cy="88.5" r="2" fill="#FAF8F5"/>
<circle cx="34" cy="110.5" r="4" fill="#FAF8F5"/>
<circle cx="55" cy="101.5" r="3" fill="#FAF8F5"/>
<circle cx="119" cy="70.5" r="4" fill="#FAF8F5"/>
<circle cx="130" cy="56.5" r="2" fill="#FAF8F5"/>
<circle cx="142" cy="77.5" r="4" fill="#FAF8F5"/>
<circle cx="128" cy="82.5" r="2" fill="#FAF8F5"/>
<line x1="14.4946" y1="4.42673" x2="18.4946" y2="31.4267" stroke="#FAF8F5"/>
<line x1="2.5968" y1="19.2043" x2="13.5968" y2="4.20432" stroke="#FAF8F5"/>
<line x1="3.31235" y1="19.1096" x2="18.3123" y2="31.1096" stroke="#FAF8F5"/>
<line x1="18.4909" y1="31.405" x2="24.4909" y2="62.405" stroke="#FAF8F5"/>
<line x1="24.4881" y1="62.6085" x2="18.4881" y2="89.6085" stroke="#FAF8F5"/>
<line x1="18.4692" y1="88.6729" x2="4.46917" y2="126.673" stroke="#FAF8F5"/>
<line x1="2.77068" y1="126.056" x2="33.7707" y2="110.056" stroke="#FAF8F5"/>
<line x1="33.8291" y1="110.03" x2="55.8291" y2="102.03" stroke="#FAF8F5"/>
<line x1="55.7451" y1="102.07" x2="82.7451" y2="86.0699" stroke="#FAF8F5"/>
<line x1="83.7921" y1="86.0453" x2="118.792" y2="70.0453" stroke="#FAF8F5"/>
<line x1="118.396" y1="70.1951" x2="128.396" y2="83.1951" stroke="#FAF8F5"/>
<line x1="127.842" y1="83.0257" x2="142.842" y2="78.0257" stroke="#FAF8F5"/>
<line x1="142.536" y1="78.3143" x2="148.536" y2="63.3143" stroke="#FAF8F5"/>
<line x1="130.151" y1="57.0232" x2="149.151" y2="63.0232" stroke="#FAF8F5"/>
<line x1="118.618" y1="70.177" x2="129.618" y2="57.177" stroke="#FAF8F5"/>
</g>
<defs>
<clipPath id="clip0_1482_97913">
<rect width="151" height="128" fill="white" transform="translate(0 0.5)"/>
</clipPath>
</defs>
</svg>
