<svg width="293" height="188" viewBox="0 0 293 188" fill="none" xmlns="http://www.w3.org/2000/svg">
<circle cx="181.445" cy="104.295" r="5.20214" fill="#FAF8F5"/>
<circle cx="155.445" cy="66.2952" r="5.20214" fill="#FAF8F5"/>
<circle cx="141.445" cy="5.29525" r="5.20214" fill="#FAF8F5"/>
<circle cx="250.445" cy="24.2952" r="5.20214" fill="#FAF8F5"/>
<circle cx="287.445" cy="40.2952" r="5.20214" fill="#FAF8F5"/>
<circle cx="278.445" cy="79.2952" r="5.20214" fill="#FAF8F5"/>
<circle cx="221.445" cy="99.2952" r="5.20214" fill="#FAF8F5"/>
<circle cx="128.445" cy="138.295" r="5.20214" fill="#FAF8F5"/>
<circle cx="5.4453" cy="173.295" r="5.20214" fill="#FAF8F5"/>
<circle cx="78.4453" cy="97.2952" r="5.20214" fill="#FAF8F5"/>
<circle cx="98.1794" cy="181.029" r="6.93618" fill="#FAF8F5"/>
<circle cx="24.4453" cy="81.2952" r="5.20214" fill="#FAF8F5"/>
<line x1="81.0495" y1="96.6321" x2="250.05" y2="25.6321" stroke="#FAF8F5"/>
<line x1="29.3887" y1="82.6148" x2="75.3887" y2="96.6148" stroke="#FAF8F5"/>
<line x1="142.732" y1="9.98834" x2="154.732" y2="65.9883" stroke="#FAF8F5"/>
<line x1="156.651" y1="69.8037" x2="178.651" y2="100.804" stroke="#FAF8F5"/>
<line x1="254.45" y1="25.6379" x2="287.45" y2="40.6379" stroke="#FAF8F5"/>
<line x1="129.985" y1="135.665" x2="177.985" y2="106.665" stroke="#FAF8F5"/>
<line x1="97.8287" y1="180.813" x2="124.829" y2="140.813" stroke="#FAF8F5"/>
<line x1="10.2772" y1="174.594" x2="98.2772" y2="180.594" stroke="#FAF8F5"/>
<line x1="218.285" y1="100.591" x2="182.285" y2="103.591" stroke="#FAF8F5"/>
<line x1="273.413" y1="81.5633" x2="226.413" y2="98.5633" stroke="#FAF8F5"/>
<line x1="286.733" y1="45.1912" x2="280.733" y2="75.1912" stroke="#FAF8F5"/>
</svg>
