<svg width="176" height="137" viewBox="0 0 176 137" fill="none" xmlns="http://www.w3.org/2000/svg">
<circle cx="32" cy="2" r="2" fill="#FAF8F5"/>
<circle cx="43.5" cy="17.5" r="2.5" fill="#FAF8F5"/>
<circle cx="56" cy="11" r="3" fill="#FAF8F5"/>
<circle cx="73" cy="44" r="4" fill="#FAF8F5"/>
<circle cx="65" cy="56" r="3" fill="#FAF8F5"/>
<circle cx="52" cy="71" r="4" fill="#FAF8F5"/>
<circle cx="2" cy="27" r="2" fill="#FAF8F5"/>
<circle cx="27.5" cy="35.5" r="2.5" fill="#FAF8F5"/>
<circle cx="85" cy="95" r="4" fill="#FAF8F5"/>
<circle cx="88" cy="82" r="4" fill="#FAF8F5"/>
<circle cx="107" cy="65" r="3" fill="#FAF8F5"/>
<circle cx="105" cy="53" r="4" fill="#FAF8F5"/>
<circle cx="139" cy="9" r="2" fill="#FAF8F5"/>
<circle cx="135" cy="18" r="3" fill="#FAF8F5"/>
<circle cx="140" cy="29" r="4" fill="#FAF8F5"/>
<circle cx="174" cy="23" r="2" fill="#FAF8F5"/>
<circle cx="119" cy="102" r="2" fill="#FAF8F5"/>
<circle cx="85" cy="109" r="3" fill="#FAF8F5"/>
<circle cx="77" cy="130" r="4" fill="#FAF8F5"/>
<circle cx="61" cy="135" r="2" fill="#FAF8F5"/>
<line x1="3.3254" y1="28.6204" x2="52.3254" y2="70.6204" stroke="#FAF8F5"/>
<line x1="52.2941" y1="70.5956" x2="85.2941" y2="94.5956" stroke="#FAF8F5"/>
<line x1="87.6762" y1="81.619" x2="107.676" y2="64.619" stroke="#FAF8F5"/>
<line x1="84.5128" y1="94.8876" x2="87.5128" y2="81.8876" stroke="#FAF8F5"/>
<line x1="85.1114" y1="94.5126" x2="120.111" y2="102.513" stroke="#FAF8F5"/>
<line x1="85.5" y1="95" x2="85.5" y2="107" stroke="#FAF8F5"/>
<line x1="85.4699" y1="108.171" x2="77.4699" y2="130.171" stroke="#FAF8F5"/>
<line x1="77.1288" y1="130.483" x2="62.1288" y2="134.483" stroke="#FAF8F5"/>
<line x1="106.631" y1="64.6621" x2="139.631" y2="28.6621" stroke="#FAF8F5"/>
<line x1="139.543" y1="29.2031" x2="135.543" y2="20.2031" stroke="#FAF8F5"/>
<line x1="138.468" y1="10.1756" x2="135.468" y2="18.1756" stroke="#FAF8F5"/>
<line x1="174.087" y1="23.4924" x2="140.087" y2="29.4924" stroke="#FAF8F5"/>
<line x1="51.6464" y1="70.6464" x2="65.6464" y2="56.6464" stroke="#FAF8F5"/>
<line x1="65.5681" y1="56.7481" x2="72.5681" y2="44.7481" stroke="#FAF8F5"/>
<line x1="72.5501" y1="44.2181" x2="56.5501" y2="11.2181" stroke="#FAF8F5"/>
<line x1="56.8244" y1="11.4682" x2="32.8244" y2="2.46816" stroke="#FAF8F5"/>
</svg>
