<svg width="186" height="183" viewBox="0 0 186 183" fill="none" xmlns="http://www.w3.org/2000/svg">
<ellipse cx="29.7592" cy="60.3146" rx="4.25143" ry="4.23256" fill="white"/>
<ellipse cx="58.4538" cy="3.17683" rx="2.12571" ry="2.11628" fill="white"/>
<ellipse cx="68.0245" cy="67.7213" rx="3.18857" ry="3.17442" fill="white"/>
<ellipse cx="83.9624" cy="68.7794" rx="4.25143" ry="4.23256" fill="white"/>
<ellipse cx="100.97" cy="105.813" rx="4.25143" ry="4.23256" fill="white"/>
<ellipse cx="128.603" cy="101.582" rx="4.25143" ry="4.23256" fill="white"/>
<ellipse cx="124.353" cy="56.0822" rx="4.25143" ry="4.23256" fill="white"/>
<ellipse cx="134.978" cy="30.6861" rx="3.18857" ry="3.17442" fill="white"/>
<ellipse cx="149.861" cy="4.23256" rx="4.25143" ry="4.23256" fill="white"/>
<ellipse cx="165.806" cy="14.8126" rx="4.25143" ry="4.23256" fill="white"/>
<ellipse cx="183.868" cy="25.3956" rx="2.12572" ry="2.11628" fill="white"/>
<ellipse rx="4.25143" ry="4.23255" transform="matrix(-1 0 0 1 145.616 164.012)" fill="white"/>
<ellipse rx="2.12571" ry="2.11628" transform="matrix(-1 0 0 1 162.616 179.886)" fill="white"/>
<ellipse rx="4.25143" ry="4.23255" transform="matrix(-1 0 0 1 79.7173 143.908)" fill="white"/>
<ellipse rx="3.18857" ry="3.17441" transform="matrix(-1 0 0 1 39.3271 122.747)" fill="white"/>
<ellipse rx="4.25143" ry="4.23256" transform="matrix(-1 0 0 1 21.2564 110.045)" fill="white"/>
<ellipse rx="2.12571" ry="2.11628" transform="matrix(-1 0 0 1 2.12429 113.22)" fill="white"/>
</svg>
