<svg width="25" height="25" viewBox="0 0 25 25" fill="none" xmlns="http://www.w3.org/2000/svg">
<path d="M13.7942 2.21166C15.6254 2.21166 17.3815 2.9111 18.6763 4.15611C19.9711 5.40112 20.6986 7.08971 20.6986 8.85042C20.6986 10.6111 19.9711 12.2997 18.6763 13.5447C17.3815 14.7897 15.6254 15.4892 13.7942 15.4892C11.9631 15.4892 10.207 14.7897 8.91216 13.5447C7.61735 12.2997 6.88993 10.6111 6.88993 8.85042C6.88993 7.08971 7.61735 5.40112 8.91216 4.15611C10.207 2.9111 11.9631 2.21166 13.7942 2.21166ZM23 8.85042C22.9998 7.44174 22.6499 6.05345 21.9795 4.80093C21.3091 3.54841 20.3374 2.46783 19.1453 1.649C17.9532 0.830174 16.5751 0.296741 15.1254 0.0930381C13.6758 -0.110665 12.1966 0.021245 10.8106 0.477805C9.42467 0.934365 8.17206 1.70239 7.15689 2.71805C6.14172 3.73371 5.39332 4.96767 4.97387 6.31737C4.55442 7.66708 4.47604 9.09356 4.74525 10.4783C5.01446 11.8629 5.62348 13.1659 6.5217 14.2787L0.322772 20.2392C0.113159 20.4479 -0.00282696 20.7274 -0.000205138 21.0175C0.00241668 21.3076 0.123437 21.5851 0.33679 21.7903C0.550143 21.9954 0.838758 22.1118 1.14047 22.1143C1.44219 22.1168 1.73286 22.0053 1.94989 21.8038L8.14882 15.8433C9.50959 16.8591 11.1395 17.4874 12.8532 17.6567C14.5669 17.8261 16.2957 17.5296 17.8429 16.8011C19.3901 16.0726 20.6936 14.9412 21.6053 13.5357C22.517 12.1302 23.0002 10.5069 23 8.85042Z" fill="#BABABA"/>
</svg>
