<svg width="154" height="109" viewBox="0 0 154 109" fill="none" xmlns="http://www.w3.org/2000/svg">
<circle cx="21.196" cy="26.904" r="1.63057" fill="#FAF8F5"/>
<circle cx="24.4516" cy="39.1332" r="3.26114" fill="#FAF8F5"/>
<circle cx="27.726" cy="19.5668" r="3.26114" fill="#FAF8F5"/>
<circle cx="33.8361" cy="8.56067" r="2.03821" fill="#FAF8F5"/>
<circle cx="18.7468" cy="1.63057" r="1.63057" fill="#FAF8F5"/>
<circle cx="4.88614" cy="5.70645" r="3.26114" fill="#FAF8F5"/>
<circle cx="2.03821" cy="25.6827" r="2.03821" fill="#FAF8F5"/>
<circle cx="49.736" cy="5.70772" r="1.63057" fill="#FAF8F5"/>
<circle cx="42.8029" cy="48.5109" r="2.03821" fill="#FAF8F5"/>
<circle cx="66.849" cy="75.8217" r="3.26114" fill="#FAF8F5"/>
<circle cx="90.091" cy="68.0763" r="2.03821" fill="#FAF8F5"/>
<circle cx="105.18" cy="77.4516" r="3.26114" fill="#FAF8F5"/>
<circle cx="150.011" cy="75.8217" r="3.26114" fill="#FAF8F5"/>
<circle cx="124.331" cy="106.395" r="2.03821" fill="#FAF8F5"/>
<circle cx="73.3767" cy="95.3884" r="1.63057" fill="#FAF8F5"/>
<line x1="2.75954" y1="25.2319" x2="4.39011" y2="5.66508" stroke="#FAF8F5"/>
<line x1="4.78314" y1="5.21894" x2="19.4583" y2="1.9578" stroke="#FAF8F5"/>
<line x1="19.7685" y1="1.98841" x2="34.4436" y2="8.51068" stroke="#FAF8F5"/>
<line x1="27.2978" y1="19.3044" x2="33.8201" y2="8.70566" stroke="#FAF8F5"/>
<line x1="20.8" y1="27.4064" x2="27.3223" y2="19.2536" stroke="#FAF8F5"/>
<line x1="3.30308" y1="25.5909" x2="21.2393" y2="27.2215" stroke="#FAF8F5"/>
<line x1="21.6712" y1="27.5814" x2="24.9323" y2="38.9954" stroke="#FAF8F5"/>
<line x1="24.7109" y1="38.6985" x2="43.4624" y2="49.2972" stroke="#FAF8F5"/>
<line x1="43.5765" y1="49.3967" x2="67.2198" y2="75.4858" stroke="#FAF8F5"/>
<line x1="67.321" y1="75.6632" x2="73.8433" y2="95.23" stroke="#FAF8F5"/>
<line x1="66.7137" y1="75.3393" x2="90.357" y2="68.817" stroke="#FAF8F5"/>
<line x1="90.7379" y1="68.8617" x2="105.413" y2="77.0146" stroke="#FAF8F5"/>
<line x1="73.4874" y1="94.8996" x2="124.85" y2="106.314" stroke="#FAF8F5"/>
<line x1="124.347" y1="106.486" x2="149.621" y2="75.5049" stroke="#FAF8F5"/>
<line x1="105.151" y1="76.9525" x2="149.991" y2="75.3219" stroke="#FAF8F5"/>
</svg>
