<svg width="167" height="152" viewBox="0 0 167 152" fill="none" xmlns="http://www.w3.org/2000/svg">
<circle cx="1.5" cy="1.5" r="1.5" fill="#FAF8F5"/>
<circle cx="96" cy="26" r="4" fill="#FAF8F5"/>
<circle cx="145" cy="75" r="4" fill="#FAF8F5"/>
<circle cx="104.5" cy="136.5" r="2.5" fill="#FAF8F5"/>
<circle cx="103" cy="148" r="4" fill="#FAF8F5"/>
<circle cx="80.5" cy="142.5" r="1.5" fill="#FAF8F5"/>
<circle cx="50" cy="88" r="4" fill="#FAF8F5"/>
<circle cx="158.5" cy="62.5" r="2.5" fill="#FAF8F5"/>
<circle cx="165.5" cy="44.5" r="1.5" fill="#FAF8F5"/>
<circle cx="97.5" cy="81.5" r="2.5" fill="#FAF8F5"/>
<line x1="1.43565" y1="0.754632" x2="50.4357" y2="87.7546" stroke="#FAF8F5"/>
<line x1="1.12247" y1="1.51523" x2="96.1225" y2="25.5152" stroke="#FAF8F5"/>
<line x1="96.3536" y1="25.6464" x2="145.354" y2="74.6464" stroke="#FAF8F5"/>
<line x1="145.414" y1="75.2804" x2="103.414" y2="137.28" stroke="#FAF8F5"/>
<line x1="49.3326" y1="87.6267" x2="104.333" y2="136.627" stroke="#FAF8F5"/>
<line x1="102.874" y1="148.484" x2="79.8738" y2="142.484" stroke="#FAF8F5"/>
<line x1="102.874" y1="148.484" x2="79.8738" y2="142.484" stroke="#FAF8F5"/>
<line x1="159.34" y1="62.3664" x2="145.34" y2="75.3664" stroke="#FAF8F5"/>
<line x1="165.466" y1="45.1812" x2="158.466" y2="63.1812" stroke="#FAF8F5"/>
<line x1="102.506" y1="148.924" x2="104.506" y2="135.924" stroke="#FAF8F5"/>
</svg>
