<svg width="125" height="201" viewBox="0 0 125 201" fill="none" xmlns="http://www.w3.org/2000/svg">
<circle cx="2" cy="2" r="2" transform="matrix(-0.987061 -0.160344 0.159861 -0.98714 102.775 150.806)" fill="#FAF8F5"/>
<circle cx="4" cy="4" r="4" transform="matrix(-0.987061 -0.160344 0.159861 -0.98714 88.3447 158.593)" fill="#FAF8F5"/>
<circle cx="2" cy="2" r="2" transform="matrix(-0.987061 -0.160344 0.159861 -0.98714 82.5264 144.478)" fill="#FAF8F5"/>
<circle cx="3" cy="3" r="3" transform="matrix(-0.987061 -0.160344 0.159861 -0.98714 74.1787 152.239)" fill="#FAF8F5"/>
<circle cx="4" cy="4" r="4" transform="matrix(-0.987061 -0.160344 0.159861 -0.98714 72.7881 135.804)" fill="#FAF8F5"/>
<circle cx="4" cy="4" r="4" transform="matrix(-0.987061 -0.160344 0.159861 -0.98714 59.2256 81.9316)" fill="#FAF8F5"/>
<circle cx="3" cy="3" r="3" transform="matrix(-0.987061 -0.160344 0.159861 -0.98714 106.36 72.3662)" fill="#FAF8F5"/>
<circle cx="4" cy="4" r="4" transform="matrix(-0.987061 -0.160344 0.159861 -0.98714 76.8535 54.4023)" fill="#FAF8F5"/>
<circle cx="4" cy="4" r="4" transform="matrix(-0.987061 -0.160344 0.159861 -0.98714 53.3164 12.0811)" fill="#FAF8F5"/>
<circle cx="3" cy="3" r="3" transform="matrix(-0.987061 -0.160344 0.159861 -0.98714 29.2861 41.6094)" fill="#FAF8F5"/>
<circle cx="2" cy="2" r="2" transform="matrix(-0.987061 -0.160344 0.159861 -0.98714 68.4238 187.776)" fill="#FAF8F5"/>
<circle cx="2" cy="2" r="2" transform="matrix(-0.987061 -0.160344 0.159861 -0.98714 58.2607 194.23)" fill="#FAF8F5"/>
</svg>
