<svg width="132" height="158" viewBox="0 0 132 158" fill="none" xmlns="http://www.w3.org/2000/svg">
<circle cx="78.0893" cy="143.901" r="3.26114" transform="rotate(156.448 78.0893 143.901)" fill="#FAF8F5"/>
<circle cx="78.0893" cy="143.901" r="3.26114" transform="rotate(156.448 78.0893 143.901)" stroke="#FAF8F5"/>
<circle cx="49.3957" cy="141.288" r="1.63057" transform="rotate(156.448 49.3957 141.288)" fill="#FAF8F5"/>
<circle cx="49.3957" cy="141.288" r="1.63057" transform="rotate(156.448 49.3957 141.288)" stroke="#FAF8F5"/>
<circle cx="63.7563" cy="111.017" r="3.26114" transform="rotate(156.448 63.7563 111.017)" fill="#FAF8F5"/>
<circle cx="63.7563" cy="111.017" r="3.26114" transform="rotate(156.448 63.7563 111.017)" stroke="#FAF8F5"/>
<circle cx="91.6634" cy="87.2909" r="2.44585" transform="rotate(156.448 91.6634 87.2909)" fill="#FAF8F5"/>
<circle cx="91.6634" cy="87.2909" r="2.44585" transform="rotate(156.448 91.6634 87.2909)" stroke="#FAF8F5"/>
<circle cx="50.7856" cy="38.4054" r="3.26114" transform="rotate(156.448 50.7856 38.4054)" fill="#FAF8F5"/>
<circle cx="50.7856" cy="38.4054" r="3.26114" transform="rotate(156.448 50.7856 38.4054)" stroke="#FAF8F5"/>
<circle cx="60.0013" cy="22.826" r="2.44585" transform="rotate(156.448 60.0013 22.826)" fill="#FAF8F5"/>
<circle cx="60.0013" cy="22.826" r="2.44585" transform="rotate(156.448 60.0013 22.826)" stroke="#FAF8F5"/>
<circle cx="78.1742" cy="17.5724" r="3.26114" transform="rotate(156.448 78.1742 17.5724)" fill="#FAF8F5"/>
<circle cx="78.1742" cy="17.5724" r="3.26114" transform="rotate(156.448 78.1742 17.5724)" stroke="#FAF8F5"/>
<circle cx="76.6956" cy="3.98716" r="2.44585" transform="rotate(156.448 76.6956 3.98716)" fill="#FAF8F5"/>
<circle cx="76.6956" cy="3.98716" r="2.44585" transform="rotate(156.448 76.6956 3.98716)" stroke="#FAF8F5"/>
</svg>
