<svg width="178" height="134" viewBox="0 0 178 134" fill="none" xmlns="http://www.w3.org/2000/svg">
<circle cx="30" cy="39" r="4" fill="#FAF8F5"/>
<circle cx="3" cy="51" r="3" fill="#FAF8F5"/>
<circle cx="55" cy="43" r="4" fill="#FAF8F5"/>
<circle cx="98" cy="75" r="3" fill="#FAF8F5"/>
<circle cx="51" cy="113" r="4" fill="#FAF8F5"/>
<circle cx="68" cy="131" r="3" fill="#FAF8F5"/>
<circle cx="113" cy="109" r="4" fill="#FAF8F5"/>
<circle cx="174" cy="124" r="4" fill="#FAF8F5"/>
<circle cx="151" cy="52" r="4" fill="#FAF8F5"/>
<circle cx="132" cy="22" r="4" fill="#FAF8F5"/>
<circle cx="150" cy="17" r="3" fill="#FAF8F5"/>
<circle cx="150" cy="2" r="2" fill="#FAF8F5"/>
<circle cx="127" cy="10" r="3" fill="#FAF8F5"/>
<line x1="3.77639" y1="51.5528" x2="29.7764" y2="38.5528" stroke="#FAF8F5"/>
<line x1="30.0981" y1="37.5097" x2="55.0981" y2="42.5097" stroke="#FAF8F5"/>
<line x1="55.2985" y1="42.5989" x2="98.2985" y2="74.5989" stroke="#FAF8F5"/>
<line x1="98.4575" y1="74.7982" x2="113.457" y2="108.798" stroke="#FAF8F5"/>
<line x1="113.232" y1="109.443" x2="69.2316" y2="132.443" stroke="#FAF8F5"/>
<line x1="67.6274" y1="132.333" x2="50.6274" y2="113.333" stroke="#FAF8F5"/>
<line x1="50.6907" y1="111.607" x2="97.6907" y2="74.6071" stroke="#FAF8F5"/>
<line x1="97.801" y1="74.5413" x2="150.801" y2="51.5413" stroke="#FAF8F5"/>
<line x1="151.477" y1="50.8497" x2="174.477" y2="123.85" stroke="#FAF8F5"/>
<line x1="173.881" y1="124.486" x2="112.881" y2="109.486" stroke="#FAF8F5"/>
<line x1="150.5" y1="52" x2="150.5" y2="18" stroke="#FAF8F5"/>
<line x1="150.5" y1="17" x2="150.5" y2="3" stroke="#FAF8F5"/>
<line x1="127.462" y1="9.80769" x2="132.462" y2="21.8077" stroke="#FAF8F5"/>
<line x1="132.426" y1="20.7387" x2="151.426" y2="51.7387" stroke="#FAF8F5"/>
</svg>
