<svg width="135" height="144" viewBox="0 0 135 144" fill="none" xmlns="http://www.w3.org/2000/svg">
<circle cx="2.26711" cy="2.26711" r="2.26711" transform="matrix(0.761221 -0.648493 0.647544 0.762028 91.2236 67.7148)" fill="#FAF8F5"/>
<circle cx="2.26711" cy="2.26711" r="2.26711" transform="matrix(0.761221 -0.648493 0.647544 0.762028 57.2656 105.326)" fill="#FAF8F5"/>
<circle cx="2.26711" cy="2.26711" r="2.26711" transform="matrix(0.761221 -0.648493 0.647544 0.762028 43.1406 63.5273)" fill="#FAF8F5"/>
<circle cx="2.26711" cy="2.26711" r="2.26711" transform="matrix(0.761221 -0.648493 0.647544 0.762028 46.0762 19.3496)" fill="#FAF8F5"/>
<circle cx="2.26711" cy="2.26711" r="2.26711" transform="matrix(0.761221 -0.648493 0.647544 0.762028 86.5195 137.711)" fill="#FAF8F5"/>
<circle cx="2.26711" cy="2.26711" r="2.26711" transform="matrix(-0.761221 0.648493 0.647544 0.762028 47.7266 0)" fill="#FAF8F5"/>
<circle cx="1.51141" cy="1.51141" r="1.51141" transform="matrix(-0.761221 0.648493 0.647544 0.762028 105.488 72.3496)" fill="#FAF8F5"/>
<circle cx="1.51141" cy="1.51141" r="1.51141" transform="matrix(-0.761221 0.648493 0.647544 0.762028 97.0205 127.028)" fill="#FAF8F5"/>
<circle cx="1.51141" cy="1.51141" r="1.51141" transform="matrix(-0.761221 0.648493 0.647544 0.762028 73.3477 122.305)" fill="#FAF8F5"/>
<line y1="-0.5" x2="20.5402" y2="-0.5" transform="matrix(0.0869609 0.996802 -0.995595 0.0872666 49.0303 21.4639)" stroke="#FAF8F5"/>
<line y1="-0.5" x2="15.5224" y2="-0.5" transform="matrix(-0.259015 0.966476 -0.965237 -0.25914 50.415 46.9111)" stroke="#FAF8F5"/>
<line y1="-0.5" x2="40.5762" y2="-0.5" transform="matrix(0.679999 0.73314 -0.732375 0.680981 61.1758 107.205)" stroke="#FAF8F5"/>
<line y1="-0.5" x2="41.1582" y2="-0.5" transform="matrix(0.326042 0.945802 -0.944705 0.326632 46.4297 65.3564)" stroke="#FAF8F5"/>
<line y1="-0.5" x2="46.7255" y2="-0.5" transform="matrix(0.877321 0.479035 -0.478621 0.878496 52.999 45.8672)" stroke="#FAF8F5"/>
<circle cx="3.02281" cy="3.02281" r="3.02281" transform="matrix(0.761221 -0.648493 0.647544 0.762028 46.8916 44.124)" fill="#FAF8F5"/>
</svg>
