<svg width="169" height="175" viewBox="0 0 169 175" fill="none" xmlns="http://www.w3.org/2000/svg">
<circle cx="2.44585" cy="2.44585" r="2.44585" transform="matrix(-0.878051 0.478567 -0.477425 -0.878673 110.62 103.454)" fill="#FAF8F5"/>
<circle cx="2.44585" cy="2.44585" r="2.44585" transform="matrix(-0.878051 0.478567 -0.477425 -0.878673 110.62 103.454)" stroke="#FAF8F5"/>
<circle cx="3.26114" cy="3.26114" r="3.26114" transform="matrix(-0.878051 0.478567 -0.477425 -0.878673 85.6074 86.4453)" fill="#FAF8F5"/>
<circle cx="3.26114" cy="3.26114" r="3.26114" transform="matrix(-0.878051 0.478567 -0.477425 -0.878673 85.6074 86.4453)" stroke="#FAF8F5"/>
<circle cx="3.26114" cy="3.26114" r="3.26114" transform="matrix(-0.878051 0.478567 -0.477425 -0.878673 10.2773 58.793)" fill="#FAF8F5"/>
<circle cx="3.26114" cy="3.26114" r="3.26114" transform="matrix(-0.878051 0.478567 -0.477425 -0.878673 10.2773 58.793)" stroke="#FAF8F5"/>
<circle cx="2.44585" cy="2.44585" r="2.44585" transform="matrix(-0.878051 0.478567 -0.477425 -0.878673 67.5479 123.216)" fill="#FAF8F5"/>
<circle cx="2.44585" cy="2.44585" r="2.44585" transform="matrix(-0.878051 0.478567 -0.477425 -0.878673 67.5479 123.216)" stroke="#FAF8F5"/>
<circle cx="3.26114" cy="3.26114" r="3.26114" transform="matrix(-0.878051 0.478567 -0.477425 -0.878673 96.3262 48.1055)" fill="#FAF8F5"/>
<circle cx="3.26114" cy="3.26114" r="3.26114" transform="matrix(-0.878051 0.478567 -0.477425 -0.878673 96.3262 48.1055)" stroke="#FAF8F5"/>
<circle cx="1.63057" cy="1.63057" r="1.63057" transform="matrix(-0.878051 0.478567 -0.477425 -0.878673 115.807 20.7744)" fill="#FAF8F5"/>
<circle cx="1.63057" cy="1.63057" r="1.63057" transform="matrix(-0.878051 0.478567 -0.477425 -0.878673 115.807 20.7744)" stroke="#FAF8F5"/>
<circle cx="3.26114" cy="3.26114" r="3.26114" transform="matrix(-0.878051 0.478567 -0.477425 -0.878673 73.0938 157.334)" fill="#FAF8F5"/>
<circle cx="3.26114" cy="3.26114" r="3.26114" transform="matrix(-0.878051 0.478567 -0.477425 -0.878673 73.0938 157.334)" stroke="#FAF8F5"/>
<circle cx="2.44585" cy="2.44585" r="2.44585" transform="matrix(-0.878051 0.478567 -0.477425 -0.878673 68.1299 172.109)" fill="#FAF8F5"/>
<circle cx="2.44585" cy="2.44585" r="2.44585" transform="matrix(-0.878051 0.478567 -0.477425 -0.878673 68.1299 172.109)" stroke="#FAF8F5"/>
</svg>
