<svg width="185" height="138" viewBox="0 0 185 138" fill="none" xmlns="http://www.w3.org/2000/svg">
<circle cx="24" cy="43" r="4" fill="#FAF8F5"/>
<circle cx="2" cy="49" r="2" fill="#FAF8F5"/>
<circle cx="32" cy="19" r="4" fill="#FAF8F5"/>
<circle cx="43" cy="8" r="4" fill="#FAF8F5"/>
<circle cx="65" cy="29" r="4" fill="#FAF8F5"/>
<circle cx="66" cy="37" r="2" fill="#FAF8F5"/>
<circle cx="55" cy="35" r="4" fill="#FAF8F5"/>
<circle cx="66" cy="58" r="3" fill="#FAF8F5"/>
<circle cx="125" cy="64" r="4" fill="#FAF8F5"/>
<circle cx="137" cy="71" r="3" fill="#FAF8F5"/>
<circle cx="146" cy="85" r="4" fill="#FAF8F5"/>
<circle cx="154" cy="75" r="4" fill="#FAF8F5"/>
<circle cx="183" cy="102" r="2" fill="#FAF8F5"/>
<circle cx="168" cy="124" r="2" fill="#FAF8F5"/>
<circle cx="80" cy="87" r="4" fill="#FAF8F5"/>
<circle cx="69" cy="126" r="4" fill="#FAF8F5"/>
<circle cx="46" cy="135" r="3" fill="#FAF8F5"/>
<circle cx="80" cy="19" r="4" fill="#FAF8F5"/>
<circle cx="90" cy="4" r="4" fill="#FAF8F5"/>
<circle cx="129" cy="18" r="3" fill="#FAF8F5"/>
<line x1="1.86844" y1="48.5176" x2="23.8684" y2="42.5176" stroke="#FAF8F5"/>
<line x1="23.8751" y1="42.5159" x2="54.8751" y2="34.5159" stroke="#FAF8F5"/>
<line x1="54.7145" y1="35.4105" x2="31.7145" y2="19.4105" stroke="#FAF8F5"/>
<line x1="30.6621" y1="18.6314" x2="42.6621" y2="7.63142" stroke="#FAF8F5"/>
<line x1="43.3536" y1="6.64645" x2="65.3536" y2="28.6464" stroke="#FAF8F5"/>
<line x1="63.735" y1="28.576" x2="79.735" y2="18.576" stroke="#FAF8F5"/>
<line x1="79.584" y1="18.7226" x2="89.584" y2="3.72265" stroke="#FAF8F5"/>
<line x1="89.1718" y1="3.53044" x2="130.172" y2="18.5304" stroke="#FAF8F5"/>
<line x1="65.5" y1="28" x2="65.5" y2="37" stroke="#FAF8F5"/>
<line x1="65.5" y1="37" x2="65.5" y2="60" stroke="#FAF8F5"/>
<line x1="64.5385" y1="59.1923" x2="54.5385" y2="35.1923" stroke="#FAF8F5"/>
<line x1="65.4441" y1="57.7703" x2="80.4441" y2="86.7703" stroke="#FAF8F5"/>
<line x1="79.4843" y1="87.1242" x2="69.4843" y2="126.124" stroke="#FAF8F5"/>
<line x1="68.178" y1="126.467" x2="47.178" y2="134.467" stroke="#FAF8F5"/>
<line x1="78.7764" y1="86.5528" x2="124.776" y2="63.5528" stroke="#FAF8F5"/>
<line x1="65.0415" y1="58.5017" x2="125.042" y2="63.5017" stroke="#FAF8F5"/>
<line x1="124.248" y1="63.5659" x2="138.248" y2="71.5659" stroke="#FAF8F5"/>
<line x1="137.087" y1="71.5076" x2="154.087" y2="74.5076" stroke="#FAF8F5"/>
<line x1="154.354" y1="74.6464" x2="182.354" y2="102.646" stroke="#FAF8F5"/>
<line x1="137.411" y1="71.7154" x2="146.411" y2="84.7154" stroke="#FAF8F5"/>
<line x1="146.443" y1="83.768" x2="168.443" y2="125.768" stroke="#FAF8F5"/>
</svg>
