<svg width="325" height="158" viewBox="0 0 325 158" fill="none" xmlns="http://www.w3.org/2000/svg">
<circle cx="5.48067" cy="54.1145" r="4.98299" fill="#FAF8F5"/>
<circle cx="47.0074" cy="79.0294" r="6.64399" fill="#FAF8F5"/>
<circle cx="53.6531" cy="107.266" r="6.64399" fill="#FAF8F5"/>
<circle cx="27.0665" cy="152.113" r="4.98299" fill="#FAF8F5"/>
<circle cx="101.813" cy="15.9116" r="6.64399" fill="#FAF8F5"/>
<circle cx="123.412" cy="5.94558" r="4.98299" fill="#FAF8F5"/>
<circle cx="135.033" cy="22.5557" r="6.64399" fill="#FAF8F5"/>
<circle cx="164.931" cy="12.5895" r="6.64399" fill="#FAF8F5"/>
<circle cx="141.679" cy="77.3682" r="6.64399" fill="#FAF8F5"/>
<circle cx="148.325" cy="107.266" r="6.64399" fill="#FAF8F5"/>
<circle cx="156.632" cy="122.215" r="4.98299" fill="#FAF8F5"/>
<circle cx="244.662" cy="62.4196" r="6.64399" fill="#FAF8F5"/>
<circle cx="319.41" cy="82.3514" r="4.98299" fill="#FAF8F5"/>
<line x1="26.6379" y1="153.526" x2="53.2138" y2="107.018" stroke="#FAF8F5"/>
<line x1="45.8253" y1="77.2346" x2="54.1302" y2="107.132" stroke="#FAF8F5"/>
<line x1="9.04657" y1="57.0015" x2="47.2495" y2="78.5945" stroke="#FAF8F5"/>
<line x1="101.999" y1="16.3765" x2="5.66157" y2="54.5794" stroke="#FAF8F5"/>
<line x1="101.623" y1="17.1113" x2="121.555" y2="8.80635" stroke="#FAF8F5"/>
<line x1="122.134" y1="5.63319" x2="135.422" y2="22.2432" stroke="#FAF8F5"/>
<line x1="133.227" y1="22.0785" x2="164.786" y2="12.1125" stroke="#FAF8F5"/>
<line x1="163.749" y1="12.7478" x2="142.157" y2="77.5266" stroke="#FAF8F5"/>
<line x1="142.17" y1="75.6045" x2="148.814" y2="107.163" stroke="#FAF8F5"/>
<line x1="148.774" y1="107.043" x2="157.079" y2="123.652" stroke="#FAF8F5"/>
<line x1="165.197" y1="12.1657" x2="244.925" y2="61.9956" stroke="#FAF8F5"/>
<line x1="243.149" y1="60.2791" x2="321.216" y2="83.5331" stroke="#FAF8F5"/>
</svg>
