<svg width="253" height="332" viewBox="0 0 253 332" fill="none" xmlns="http://www.w3.org/2000/svg">
<circle cx="3.61484" cy="94.4506" r="3.53476" fill="#FAF8F5"/>
<circle cx="19.5249" cy="124.495" r="5.30214" fill="#FAF8F5"/>
<circle cx="54.8677" cy="112.124" r="7.06952" fill="#FAF8F5"/>
<circle cx="83.1491" cy="92.6829" r="5.30214" fill="#FAF8F5"/>
<circle cx="150.304" cy="7.8487" r="7.06952" fill="#FAF8F5"/>
<circle cx="247.508" cy="108.589" r="5.30214" fill="#FAF8F5"/>
<circle cx="203.33" cy="251.747" r="7.06952" fill="#FAF8F5"/>
<circle cx="114.961" cy="290.63" r="5.30214" fill="#FAF8F5"/>
<circle cx="91.9879" cy="297.699" r="7.06952" fill="#FAF8F5"/>
<circle cx="93.7561" cy="325.977" r="5.30214" fill="#FAF8F5"/>
<line x1="4.04669" y1="95.9641" x2="21.7205" y2="126.01" stroke="#FAF8F5"/>
<line x1="21.0911" y1="125.802" x2="54.6714" y2="111.663" stroke="#FAF8F5"/>
<line x1="54.6267" y1="109.915" x2="84.6721" y2="94.0081" stroke="#FAF8F5"/>
<line x1="84.5193" y1="94.1491" x2="149.912" y2="7.54744" stroke="#FAF8F5"/>
<line x1="150.669" y1="5.73753" x2="247.875" y2="108.246" stroke="#FAF8F5"/>
<line x1="247.992" y1="108.737" x2="203.808" y2="251.894" stroke="#FAF8F5"/>
<line x1="201.773" y1="252.204" x2="115.172" y2="291.086" stroke="#FAF8F5"/>
<line x1="115.105" y1="291.108" x2="92.1291" y2="298.177" stroke="#FAF8F5"/>
<line x1="90.7163" y1="295.9" x2="92.4837" y2="324.178" stroke="#FAF8F5"/>
<line x1="150.795" y1="5.97609" x2="203.816" y2="251.642" stroke="#FAF8F5"/>
</svg>
