<svg width="227" height="205" viewBox="0 0 227 205" fill="none" xmlns="http://www.w3.org/2000/svg">
<circle cx="4" cy="4" r="4" transform="matrix(0.901488 -0.432804 0.431715 0.90201 34.9277 106.738)" fill="#FAF8F5"/>
<circle cx="2" cy="2" r="2" transform="matrix(0.901488 -0.432804 0.431715 0.90201 20.3525 122.61)" fill="#FAF8F5"/>
<circle cx="4" cy="4" r="4" transform="matrix(0.901488 -0.432804 0.431715 0.90201 31.7793 81.6279)" fill="#FAF8F5"/>
<circle cx="4" cy="4" r="4" transform="matrix(0.901488 -0.432804 0.431715 0.90201 36.9463 66.9443)" fill="#FAF8F5"/>
<circle cx="4" cy="4" r="4" transform="matrix(0.901488 -0.432804 0.431715 0.90201 65.8447 76.3652)" fill="#FAF8F5"/>
<circle cx="2" cy="2" r="2" transform="matrix(0.901488 -0.432804 0.431715 0.90201 72.8672 84.0869)" fill="#FAF8F5"/>
<circle cx="4" cy="4" r="4" transform="matrix(0.901488 -0.432804 0.431715 0.90201 59.4209 86.1055)" fill="#FAF8F5"/>
<circle cx="3" cy="3" r="3" transform="matrix(0.901488 -0.432804 0.431715 0.90201 80.5996 102.56)" fill="#FAF8F5"/>
<circle cx="4" cy="4" r="4" transform="matrix(0.901488 -0.432804 0.431715 0.90201 135.045 81.9668)" fill="#FAF8F5"/>
<circle cx="3" cy="3" r="3" transform="matrix(0.901488 -0.432804 0.431715 0.90201 150.218 83.5566)" fill="#FAF8F5"/>
<circle cx="4" cy="4" r="4" transform="matrix(0.901488 -0.432804 0.431715 0.90201 163.042 91.8203)" fill="#FAF8F5"/>
<circle cx="4" cy="4" r="4" transform="matrix(0.901488 -0.432804 0.431715 0.90201 165.937 79.3379)" fill="#FAF8F5"/>
<circle cx="2" cy="2" r="2" transform="matrix(0.901488 -0.432804 0.431715 0.90201 206.402 92.0791)" fill="#FAF8F5"/>
<circle cx="2" cy="2" r="2" transform="matrix(0.901488 -0.432804 0.431715 0.90201 202.378 118.415)" fill="#FAF8F5"/>
<circle cx="4" cy="4" r="4" transform="matrix(0.901488 -0.432804 0.431715 0.90201 104.407 122.189)" fill="#FAF8F5"/>
<circle cx="4" cy="4" r="4" transform="matrix(0.901488 -0.432804 0.431715 0.90201 111.327 162.129)" fill="#FAF8F5"/>
<circle cx="3" cy="3" r="3" transform="matrix(0.901488 -0.432804 0.431715 0.90201 95.8115 180.671)" fill="#FAF8F5"/>
<circle cx="4" cy="4" r="4" transform="matrix(0.901488 -0.432804 0.431715 0.90201 75.0508 60.8525)" fill="#FAF8F5"/>
<circle cx="4" cy="4" r="4" transform="matrix(0.901488 -0.432804 0.431715 0.90201 77.5898 42.9951)" fill="#FAF8F5"/>
<circle cx="3" cy="3" r="3" transform="matrix(0.901488 -0.432804 0.431715 0.90201 120.125 39.2129)" fill="#FAF8F5"/>
</svg>
