<svg width="197" height="194" viewBox="0 0 197 194" fill="none" xmlns="http://www.w3.org/2000/svg">
<circle cx="193.389" cy="114.87" r="2" transform="rotate(-136.577 193.389 114.87)" fill="#FAF8F5"/>
<circle cx="169.395" cy="116.945" r="3" transform="rotate(-136.577 169.395 116.945)" fill="#FAF8F5"/>
<circle cx="146.53" cy="82.9137" r="4" transform="rotate(-136.577 146.53 82.9137)" fill="#FAF8F5"/>
<circle cx="135.104" cy="78.9836" r="3" transform="rotate(-136.577 135.104 78.9836)" fill="#FAF8F5"/>
<circle cx="121.732" cy="81.4744" r="2" transform="rotate(-136.577 121.732 81.4744)" fill="#FAF8F5"/>
<circle cx="98.1275" cy="97.6861" r="4" transform="rotate(-136.577 98.1275 97.6861)" fill="#FAF8F5"/>
<circle cx="90.1772" cy="91.5392" r="3" transform="rotate(-136.577 90.1772 91.5392)" fill="#FAF8F5"/>
<circle cx="84.2506" cy="81.7984" r="4" transform="rotate(-136.577 84.2506 81.7984)" fill="#FAF8F5"/>
<circle cx="71.0348" cy="89.9439" r="4" transform="rotate(-136.577 71.0348 89.9439)" fill="#FAF8F5"/>
<circle cx="67.8569" cy="77.298" r="3" transform="rotate(-136.577 67.8569 77.298)" fill="#FAF8F5"/>
<circle cx="53.7594" cy="79.1012" r="4" transform="rotate(-136.577 53.7594 79.1012)" fill="#FAF8F5"/>
<circle cx="45.7828" cy="97.7125" r="4" transform="rotate(-136.577 45.7828 97.7125)" fill="#FAF8F5"/>
<circle cx="35.0825" cy="94.4699" r="3" transform="rotate(-136.577 35.0825 94.4699)" fill="#FAF8F5"/>
<circle cx="24.3053" cy="88.401" r="4" transform="rotate(-136.577 24.3053 88.401)" fill="#FAF8F5"/>
<circle cx="24.603" cy="73.5373" r="3" transform="rotate(-136.577 24.603 73.5373)" fill="#FAF8F5"/>
<circle cx="13.8255" cy="67.4676" r="2" transform="rotate(-136.577 13.8255 67.4676)" fill="#FAF8F5"/>
<circle cx="9.16938" cy="78.2072" r="3" transform="rotate(-136.577 9.16938 78.2072)" fill="#FAF8F5"/>
<circle cx="13.6831" cy="87.9855" r="3" transform="rotate(-136.577 13.6831 87.9855)" fill="#FAF8F5"/>
</svg>
