<svg width="229" height="228" viewBox="0 0 229 228" fill="none" xmlns="http://www.w3.org/2000/svg">
<circle cx="3" cy="3" r="3" transform="matrix(0.59572 -0.803192 0.802308 0.596911 24.9551 145.268)" fill="#FAF8F5"/>
<circle cx="4" cy="4" r="4" transform="matrix(0.59572 -0.803192 0.802308 0.596911 45.124 141.577)" fill="#FAF8F5"/>
<circle cx="3" cy="3" r="3" transform="matrix(0.59572 -0.803192 0.802308 0.596911 86.9688 115.374)" fill="#FAF8F5"/>
<circle cx="4" cy="4" r="4" transform="matrix(0.59572 -0.803192 0.802308 0.596911 94.251 92.126)" fill="#FAF8F5"/>
<circle cx="4" cy="4" r="4" transform="matrix(0.59572 -0.803192 0.802308 0.596911 61.7695 70.4521)" fill="#FAF8F5"/>
<circle cx="2" cy="2" r="2" transform="matrix(0.59572 -0.803192 0.802308 0.596911 16.168 105.077)" fill="#FAF8F5"/>
<circle cx="3" cy="3" r="3" transform="matrix(0.59572 -0.803192 0.802308 0.596911 125.541 115.405)" fill="#FAF8F5"/>
<circle cx="4" cy="4" r="4" transform="matrix(0.59572 -0.803192 0.802308 0.596911 138.32 71.3174)" fill="#FAF8F5"/>
<circle cx="3" cy="3" r="3" transform="matrix(0.59572 -0.803192 0.802308 0.596911 184.71 75.917)" fill="#FAF8F5"/>
<circle cx="4" cy="4" r="4" transform="matrix(0.59572 -0.803192 0.802308 0.596911 191.004 137.935)" fill="#FAF8F5"/>
</svg>
